999
dxflib 2.2.0.0
  0
SECTION
  2
HEADER
  9
$ACADVER
  1
AC1015
  9
$HANDSEED
  5
FFFF
  9
$DIMASZ
 40
2.5
  9
$PLIMMIN
 10
0.0
 20
0.0
  9
$DIMEXE
 40
1.25
  9
$DIMGAP
 40
0.625
  9
$PLIMMAX
 10
210.0
 20
297.0
  9
$INSUNITS
 70
4
  9
$DIMSTYLE
  2
Standard
  9
$CLAYER
  8
dimentions
  9
$DIMEXO
 40
0.625
  9
$DIMTXT
 40
2.5
  9
$CLAYER
  8
0
  0
ENDSEC
  0
SECTION
  2
TABLES
  0
TABLE
  2
VPORT
  5
8
100
AcDbSymbolTable
 70
1
  0
VPORT
  5
30
100
AcDbSymbolTableRecord
100
AcDbViewportTableRecord
  2
*Active
 70
0
 10
0.0
 20
0.0
 11
1.0
 21
1.0
 12
286.3055555555554861
 22
148.5
 13
0.0
 23
0.0
 14
10.0
 24
10.0
 15
10.0
 25
10.0
 16
0.0
 26
0.0
 36
1.0
 17
0.0
 27
0.0
 37
0.0
 40
297.0
 41
1.92798353909465
 42
50.0
 43
0.0
 44
0.0
 50
0.0
 51
0.0
 71
0
 72
100
 73
1
 74
3
 75
1
 76
1
 77
0
 78
0
281
0
 65
1
110
0.0
120
0.0
130
0.0
111
1.0
121
0.0
131
0.0
112
0.0
122
1.0
132
0.0
 79
0
146
0.0
  0
ENDTAB
  0
TABLE
  2
LTYPE
  5
5
100
AcDbSymbolTable
 70
21
  0
LTYPE
  5
14
100
AcDbSymbolTableRecord
100
AcDbLinetypeTableRecord
  2
ByBlock
 70
0
  3

 72
65
 73
0
 40
0.0
  0
LTYPE
  5
15
100
AcDbSymbolTableRecord
100
AcDbLinetypeTableRecord
  2
ByLayer
 70
0
  3

 72
65
 73
0
 40
0.0
  0
LTYPE
  5
16
100
AcDbSymbolTableRecord
100
AcDbLinetypeTableRecord
  2
CONTINUOUS
 70
0
  3
Solid line
 72
65
 73
0
 40
0.0
  0
LTYPE
  5
31
100
AcDbSymbolTableRecord
100
AcDbLinetypeTableRecord
  2
DOT
 70
0
  3
Dot . . . . . . . . . . . . . . . . . . . . . .
 72
65
 73
2
 40
6.3499999999999996
 49
0.0
 74
0
 49
-6.3499999999999996
 74
0
  0
LTYPE
  5
32
100
AcDbSymbolTableRecord
100
AcDbLinetypeTableRecord
  2
DOT2
 70
0
  3
Dot (.5x) .....................................
 72
65
 73
2
 40
3.1749999999999998
 49
0.0
 74
0
 49
-3.1749999999999998
 74
0
  0
LTYPE
  5
33
100
AcDbSymbolTableRecord
100
AcDbLinetypeTableRecord
  2
DOTX2
 70
0
  3
Dot (2x) .  .  .  .  .  .  .  .  .  .  .  .  .
 72
65
 73
2
 40
12.6999999999999993
 49
0.0
 74
0
 49
-12.6999999999999993
 74
0
  0
LTYPE
  5
34
100
AcDbSymbolTableRecord
100
AcDbLinetypeTableRecord
  2
DASHED
 70
0
  3
Dashed __ __ __ __ __ __ __ __ __ __ __ __ __ _
 72
65
 73
2
 40
19.0500000000000007
 49
12.6999999999999993
 74
0
 49
-6.3499999999999996
 74
0
  0
LTYPE
  5
35
100
AcDbSymbolTableRecord
100
AcDbLinetypeTableRecord
  2
DASHED2
 70
0
  3
Dashed (.5x) _ _ _ _ _ _ _ _ _ _ _ _ _ _ _ _ _
 72
65
 73
2
 40
9.5250000000000004
 49
6.3499999999999996
 74
0
 49
-3.1749999999999998
 74
0
  0
LTYPE
  5
36
100
AcDbSymbolTableRecord
100
AcDbLinetypeTableRecord
  2
DASHEDX2
 70
0
  3
Dashed (2x) ____  ____  ____  ____  ____  ___
 72
65
 73
2
 40
38.1000000000000014
 49
25.3999999999999986
 74
0
 49
-12.6999999999999993
 74
0
  0
LTYPE
  5
37
100
AcDbSymbolTableRecord
100
AcDbLinetypeTableRecord
  2
DASHDOT
 70
0
  3
Dash dot __ . __ . __ . __ . __ . __ . __ . __
 72
65
 73
4
 40
25.3999999999999986
 49
12.6999999999999993
 74
0
 49
-6.3499999999999996
 74
0
 49
0.0
 74
0
 49
-6.3499999999999996
 74
0
  0
LTYPE
  5
38
100
AcDbSymbolTableRecord
100
AcDbLinetypeTableRecord
  2
DASHDOT2
 70
0
  3
Dash dot (.5x) _._._._._._._._._._._._._._._.
 72
65
 73
4
 40
12.6999999999999993
 49
6.3499999999999996
 74
0
 49
-3.1749999999999998
 74
0
 49
0.0
 74
0
 49
-3.1749999999999998
 74
0
  0
LTYPE
  5
39
100
AcDbSymbolTableRecord
100
AcDbLinetypeTableRecord
  2
DASHDOTX2
 70
0
  3
Dash dot (2x) ____  .  ____  .  ____  .  ___
 72
65
 73
4
 40
50.7999999999999972
 49
25.3999999999999986
 74
0
 49
-12.6999999999999993
 74
0
 49
0.0
 74
0
 49
-12.6999999999999993
 74
0
  0
LTYPE
  5
3A
100
AcDbSymbolTableRecord
100
AcDbLinetypeTableRecord
  2
DIVIDE
 70
0
  3
Divide ____ . . ____ . . ____ . . ____ . . ____
 72
65
 73
6
 40
31.75
 49
12.6999999999999993
 74
0
 49
-6.3499999999999996
 74
0
 49
0.0
 74
0
 49
-6.3499999999999996
 74
0
 49
0.0
 74
0
 49
-6.3499999999999996
 74
0
  0
LTYPE
  5
3B
100
AcDbSymbolTableRecord
100
AcDbLinetypeTableRecord
  2
DIVIDE2
 70
0
  3
Divide (.5x) __..__..__..__..__..__..__..__.._
 72
65
 73
6
 40
15.875
 49
6.3499999999999996
 74
0
 49
-3.1749999999999998
 74
0
 49
0.0
 74
0
 49
-3.1749999999999998
 74
0
 49
0.0
 74
0
 49
-3.1749999999999998
 74
0
  0
LTYPE
  5
3C
100
AcDbSymbolTableRecord
100
AcDbLinetypeTableRecord
  2
DIVIDEX2
 70
0
  3
Divide (2x) ________  .  .  ________  .  .  _
 72
65
 73
6
 40
63.5
 49
25.3999999999999986
 74
0
 49
-12.6999999999999993
 74
0
 49
0.0
 74
0
 49
-12.6999999999999993
 74
0
 49
0.0
 74
0
 49
-12.6999999999999993
 74
0
  0
LTYPE
  5
3D
100
AcDbSymbolTableRecord
100
AcDbLinetypeTableRecord
  2
CENTER
 70
0
  3
Center ____ _ ____ _ ____ _ ____ _ ____ _ ____
 72
65
 73
4
 40
50.7999999999999972
 49
31.75
 74
0
 49
-6.3499999999999996
 74
0
 49
6.3499999999999996
 74
0
 49
-6.3499999999999996
 74
0
  0
LTYPE
  5
3E
100
AcDbSymbolTableRecord
100
AcDbLinetypeTableRecord
  2
CENTER2
 70
0
  3
Center (.5x) ___ _ ___ _ ___ _ ___ _ ___ _ ___
 72
65
 73
4
 40
28.5749999999999993
 49
19.0500000000000007
 74
0
 49
-3.1749999999999998
 74
0
 49
3.1749999999999998
 74
0
 49
-3.1749999999999998
 74
0
  0
LTYPE
  5
3F
100
AcDbSymbolTableRecord
100
AcDbLinetypeTableRecord
  2
CENTERX2
 70
0
  3
Center (2x) ________  __  ________  __  _____
 72
65
 73
4
 40
101.5999999999999943
 49
63.5
 74
0
 49
-12.6999999999999993
 74
0
 49
12.6999999999999993
 74
0
 49
-12.6999999999999993
 74
0
  0
LTYPE
  5
40
100
AcDbSymbolTableRecord
100
AcDbLinetypeTableRecord
  2
BORDER
 70
0
  3
Border __ __ . __ __ . __ __ . __ __ . __ __ .
 72
65
 73
6
 40
44.4500000000000028
 49
12.6999999999999993
 74
0
 49
-6.3499999999999996
 74
0
 49
12.6999999999999993
 74
0
 49
-6.3499999999999996
 74
0
 49
0.0
 74
0
 49
-6.3499999999999996
 74
0
  0
LTYPE
  5
41
100
AcDbSymbolTableRecord
100
AcDbLinetypeTableRecord
  2
BORDER2
 70
0
  3
Border (.5x) __.__.__.__.__.__.__.__.__.__.__.
 72
65
 73
6
 40
22.2250000000000014
 49
6.3499999999999996
 74
0
 49
-3.1749999999999998
 74
0
 49
6.3499999999999996
 74
0
 49
-3.1749999999999998
 74
0
 49
0.0
 74
0
 49
-3.1749999999999998
 74
0
  0
LTYPE
  5
42
100
AcDbSymbolTableRecord
100
AcDbLinetypeTableRecord
  2
BORDERX2
 70
0
  3
Border (2x) ____  ____  .  ____  ____  .  ___
 72
65
 73
6
 40
88.9000000000000057
 49
25.3999999999999986
 74
0
 49
-12.6999999999999993
 74
0
 49
25.3999999999999986
 74
0
 49
-12.6999999999999993
 74
0
 49
0.0
 74
0
 49
-12.6999999999999993
 74
0
  0
ENDTAB
  0
TABLE
  2
LAYER
  5
2
100
AcDbSymbolTable
 70
4
  0
LAYER
  5
10
100
AcDbSymbolTableRecord
100
AcDbLayerTableRecord
  2
0
 70
0
 62
7
420
0
  6
CONTINUOUS
370
25
390
F
  0
LAYER
  5
43
100
AcDbSymbolTableRecord
100
AcDbLayerTableRecord
  2
dimentions
 70
0
 62
1
420
16711680
  6
CONTINUOUS
370
0
390
F
  0
LAYER
  5
44
100
AcDbSymbolTableRecord
100
AcDbLayerTableRecord
  2
logo placements
 70
0
 62
3
420
65280
  6
CONTINUOUS
370
0
390
F
  0
LAYER
  5
45
100
AcDbSymbolTableRecord
100
AcDbLayerTableRecord
  2
Layer_1
 70
0
 62
7
  6
CONTINUOUS
390
F
  0
ENDTAB
  0
TABLE
  2
STYLE
  5
3
100
AcDbSymbolTable
 70
1
  0
STYLE
  5
11
100
AcDbSymbolTableRecord
100
AcDbTextStyleTableRecord
  2
Standard
 70
0
 40
0.0
 41
0.75
 50
0.0
 71
0
 42
2.5
  3
txt
  4

  0
ENDTAB
  0
TABLE
  2
VIEW
  5
6
100
AcDbSymbolTable
 70
0
  0
ENDTAB
  0
TABLE
  2
UCS
  5
7
100
AcDbSymbolTable
 70
0
  0
ENDTAB
  0
TABLE
  2
APPID
  5
9
100
AcDbSymbolTable
 70
1
  0
APPID
  5
12
100
AcDbSymbolTableRecord
100
AcDbRegAppTableRecord
  2
ACAD
 70
0
  0
ENDTAB
  0
TABLE
  2
DIMSTYLE
  5
A
100
AcDbSymbolTable
 70
1
100
AcDbDimStyleTable
 71
0
  0
DIMSTYLE
105
27
100
AcDbSymbolTableRecord
100
AcDbDimStyleTableRecord
  2
Standard
 41
2.5
 42
0.625
 43
3.75
 44
1.25
 70
0
 73
0
 74
0
 77
1
 78
8
140
2.5
141
2.5
143
0.03937007874016
147
0.625
171
3
172
1
271
2
272
2
274
3
278
44
283
0
284
8
340
11
  0
ENDTAB
  0
TABLE
  2
BLOCK_RECORD
  5
1
100
AcDbSymbolTable
 70
1
  0
BLOCK_RECORD
  5
1F
100
AcDbSymbolTableRecord
100
AcDbBlockTableRecord
  2
*Model_Space
340
22
  0
BLOCK_RECORD
  5
1B
100
AcDbSymbolTableRecord
100
AcDbBlockTableRecord
  2
*Paper_Space
340
1E
  0
BLOCK_RECORD
  5
23
100
AcDbSymbolTableRecord
100
AcDbBlockTableRecord
  2
*Paper_Space0
340
26
  0
ENDTAB
  0
ENDSEC
  0
SECTION
  2
BLOCKS
  0
BLOCK
  5
20
100
AcDbEntity
  8
0
100
AcDbBlockBegin
  2
*Model_Space
 70
0
 10
0.0
 20
0.0
 30
0.0
  3
*Model_Space
  1

  0
ENDBLK
  5
21
100
AcDbEntity
  8
0
100
AcDbBlockEnd
  0
BLOCK
  5
1C
100
AcDbEntity
 67
1
  8
0
100
AcDbBlockBegin
  2
*Paper_Space
 70
0
 10
0.0
 20
0.0
 30
0.0
  3
*Paper_Space
  1

  0
ENDBLK
  5
1D
100
AcDbEntity
 67
1
  8
0
100
AcDbBlockEnd
  0
BLOCK
  5
24
100
AcDbEntity
  8
0
100
AcDbBlockBegin
  2
*Paper_Space0
 70
0
 10
0.0
 20
0.0
 30
0.0
  3
*Paper_Space0
  1

  0
ENDBLK
  5
25
100
AcDbEntity
  8
0
100
AcDbBlockEnd
  0
ENDSEC
  0
SECTION
  2
ENTITIES
  0
ARC
  5
46
100
AcDbEntity
  8
0
 62
256
370
-1
  6
ByLayer
100
AcDbCircle
 10
60.014236111626488
 20
15.4572937749537118
 30
0.0
 40
39.6511963280260034
100
AcDbArc
 50
166.0741325623266391
 51
202.9440290874339894
  0
ARC
  5
47
100
AcDbEntity
  8
0
 62
256
370
-1
  6
ByLayer
100
AcDbCircle
 10
-16.7357638883735405
 20
35.2072937532875301
 30
0.0
 40
39.6022790576988726
100
AcDbArc
 50
345.0636920176972922
 51
21.9335907842780387
  0
LINE
  5
48
100
AcDbEntity
100
AcDbLine
  8
0
 62
256
370
-1
  6
ByLayer
 10
0.0
 20
50.0
 30
0.0
 11
20.0
 21
50.0
 31
0.0
  0
LINE
  5
49
100
AcDbEntity
100
AcDbLine
  8
0
 62
256
370
-1
  6
ByLayer
 10
3.5000001556752096
 20
-0.0000003865992113
 30
0.0
 11
23.5000001556752238
 21
-0.0000003865992113
 31
0.0
  0
ARC
  5
4A
100
AcDbEntity
  8
0
 62
256
370
-1
  6
ByLayer
100
AcDbCircle
 10
40.014236111626488
 20
15.4572937749537118
 30
0.0
 40
39.6511963280260034
100
AcDbArc
 50
166.0741325623266391
 51
202.9440290874339894
  0
ARC
  5
4B
100
AcDbEntity
  8
0
 62
256
370
-1
  6
ByLayer
100
AcDbCircle
 10
-36.7357638883735333
 20
35.2072937532875301
 30
0.0
 40
39.6022790576988726
100
AcDbArc
 50
345.0636920176972922
 51
21.9335907842780387
  0
LINE
  5
4C
100
AcDbEntity
100
AcDbLine
  8
0
 62
7
420
16777215
370
-1
  6
ByLayer
 10
12.4924592970439594
 20
8.7971667499999988
 30
0.0
 11
12.4924592970439594
 21
8.7971667499999988
 31
0.0
  0
LINE
  5
4D
100
AcDbEntity
100
AcDbLine
  8
0
 62
7
420
16777215
370
-1
  6
ByLayer
 10
11.5286629999999946
 20
8.794500199999991
 30
0.0
 11
11.5503332000000007
 21
15.5890000999999856
 31
0.0
  0
LINE
  5
4E
100
AcDbEntity
100
AcDbLine
  8
0
 62
7
420
16777215
370
-1
  6
ByLayer
 10
11.5503332000000007
 20
15.5890000999999856
 30
0.0
 11
12.2276666000000027
 21
15.7221400999999954
 31
0.0
  0
LINE
  5
4F
100
AcDbEntity
100
AcDbLine
  8
0
 62
7
420
16777215
370
-1
  6
ByLayer
 10
12.1711931000000053
 20
30.052889599999979
 30
0.0
 11
11.5503332000000078
 21
30.1568374999999911
 31
0.0
  0
LINE
  5
50
100
AcDbEntity
100
AcDbLine
  8
0
 62
7
420
16777215
370
-1
  6
ByLayer
 10
11.5503332000000078
 20
30.1568374999999911
 30
0.0
 11
11.5286714000000092
 21
37.0757524999999859
 31
0.0
  0
LINE
  5
51
100
AcDbEntity
100
AcDbLine
  8
0
 62
7
420
16777215
370
-1
  6
ByLayer
 10
11.5286714000000092
 20
37.0757524999999859
 30
0.0
 11
11.5070102000000052
 21
43.9946668999999915
 31
0.0
  0
LINE
  5
52
100
AcDbEntity
100
AcDbLine
  8
0
 62
7
420
16777215
370
-1
  6
ByLayer
 10
11.5070102000000052
 20
43.9946668999999915
 30
0.0
 11
11.0000000000000089
 21
43.9946668999999915
 31
0.0
  0
LINE
  5
53
100
AcDbEntity
100
AcDbLine
  8
0
 62
7
420
16777215
370
-1
  6
ByLayer
 10
11.0000000000000089
 20
43.9946668999999915
 30
0.0
 11
10.4929898000000055
 21
43.9946668999999915
 31
0.0
  0
LINE
  5
54
100
AcDbEntity
100
AcDbLine
  8
0
 62
7
420
16777215
370
-1
  6
ByLayer
 10
10.4929898000000055
 20
43.9946668999999915
 30
0.0
 11
10.4713286000000014
 21
37.0756195999999889
 31
0.0
  0
LINE
  5
55
100
AcDbEntity
100
AcDbLine
  8
0
 62
7
420
16777215
370
-1
  6
ByLayer
 10
10.4713286000000014
 20
37.0756195999999889
 30
0.0
 11
10.4496665000000082
 21
30.1565731999999969
 31
0.0
  0
LINE
  5
56
100
AcDbEntity
100
AcDbLine
  8
0
 62
7
420
16777215
370
-1
  6
ByLayer
 10
10.4496665000000082
 20
30.1565731999999969
 30
0.0
 11
9.7833968000000073
 21
30.0454432999999881
 31
0.0
  0
SPLINE
  5
57
  8
0
 62
7
420
16777215
370
-1
  6
ByLayer
100
AcDbEntity
100
AcDbSpline
 70
8
 71
3
 72
19
 73
15
 74
0
 40
0.0
 40
0.0
 40
0.0
 40
0.0
 40
0.0833333333333333
 40
0.1666666666666667
 40
0.25
 40
0.3333333333333333
 40
0.4166666666666667
 40
0.5
 40
0.5833333333333334
 40
0.6666666666666666
 40
0.75
 40
0.8333333333333334
 40
0.9166666666666666
 40
1.0
 40
1.0
 40
1.0
 40
1.0
 10
12.2276666000000027
 20
15.7221400999999954
 30
0.0
 10
12.4739474000000055
 20
15.7714543999999925
 30
0.0
 10
12.9244682000000033
 20
15.8616643999999951
 30
0.0
 10
13.5915845000000033
 20
16.0898815999999947
 30
0.0
 10
15.2316416000000086
 20
16.8578071999999928
 30
0.0
 10
17.5269839000000047
 20
18.9175789999999964
 30
0.0
 10
18.6438740000000109
 20
22.9803703999997886
 30
0.0
 10
17.7308807000000073
 20
26.1111157999999826
 30
0.0
 10
16.3460336000000055
 20
27.7994599999999892
 30
0.0
 10
15.4468571000000079
 20
28.6315927999999893
 30
0.0
 10
14.5215668000000075
 20
29.2483699999999871
 30
0.0
 10
13.682831300000009
 20
29.6425849999999933
 30
0.0
 10
12.9290672000000075
 20
29.9131090999999962
 30
0.0
 10
12.428852300000008
 20
30.0053674999999949
 30
0.0
 10
12.1711931000000053
 20
30.052889599999979
 30
0.0
  0
LINE
  5
58
100
AcDbEntity
100
AcDbLine
  8
0
 62
7
420
16777215
370
-1
  6
ByLayer
 10
10.1956667000000074
 20
15.6353077999999925
 30
0.0
 11
10.4496665000000082
 21
15.5782456999999894
 31
0.0
  0
LINE
  5
59
100
AcDbEntity
100
AcDbLine
  8
0
 62
7
420
16777215
370
-1
  6
ByLayer
 10
10.4496665000000082
 20
15.5782456999999894
 30
0.0
 11
10.4713370000000019
 21
8.7891229999999894
 31
0.0
  0
LINE
  5
5A
100
AcDbEntity
100
AcDbLine
  8
0
 62
7
420
16777215
370
-1
  6
ByLayer
 10
10.4713370000000019
 20
8.7891229999999894
 30
0.0
 11
10.4930075000000045
 21
1.9999999999999964
 31
0.0
  0
LINE
  5
5B
100
AcDbEntity
100
AcDbLine
  8
0
 62
7
420
16777215
370
-1
  6
ByLayer
 10
10.4930075000000045
 20
1.9999999999999964
 30
0.0
 11
11.0
 21
2.0
 31
0.0
  0
LINE
  5
5C
100
AcDbEntity
100
AcDbLine
  8
0
 62
7
420
16777215
370
-1
  6
ByLayer
 10
11.0
 20
2.0
 30
0.0
 11
11.5069924999999902
 21
1.9999999999999929
 31
0.0
  0
LINE
  5
5D
100
AcDbEntity
100
AcDbLine
  8
0
 62
7
420
16777215
370
-1
  6
ByLayer
 10
11.5069924999999902
 20
1.9999999999999929
 30
0.0
 11
11.5286629999999946
 21
8.794500199999991
 31
0.0
  0
SPLINE
  5
5E
  8
0
 62
7
420
16777215
370
-1
  6
ByLayer
100
AcDbEntity
100
AcDbSpline
 70
8
 71
3
 72
28
 73
24
 74
0
 40
0.0
 40
0.0
 40
0.0
 40
0.0
 40
0.0476190476190476
 40
0.0952380952380952
 40
0.1428571428571428
 40
0.1904761904761905
 40
0.2380952380952381
 40
0.2857142857142857
 40
0.3333333333333333
 40
0.3809523809523809
 40
0.4285714285714285
 40
0.4761904761904762
 40
0.5238095238095238
 40
0.5714285714285714
 40
0.6190476190476191
 40
0.6666666666666666
 40
0.7142857142857143
 40
0.7619047619047619
 40
0.8095238095238095
 40
0.8571428571428571
 40
0.9047619047619048
 40
0.9523809523809523
 40
1.0
 40
1.0
 40
1.0
 40
1.0
 10
9.7833968000000073
 20
30.0454432999999881
 30
0.0
 10
9.503397800000009
 20
29.9851504999999747
 30
0.0
 10
8.9233178000000084
 20
29.8602412999999807
 30
0.0
 10
8.0883266000000074
 20
29.5366282999999896
 30
0.0
 10
7.2628181000000094
 20
29.1401509999999888
 30
0.0
 10
6.4877105000000093
 20
28.550433500000004
 30
0.0
 10
5.7657377000000078
 20
27.8914945999999802
 30
0.0
 10
5.1048614000000079
 20
27.1865332999999936
 30
0.0
 10
4.6352216000000075
 20
26.3922121999999959
 30
0.0
 10
4.2499109000000095
 20
25.5689969000000055
 30
0.0
 10
3.9164234000000073
 20
24.6521329999999672
 30
0.0
 10
3.7769153000000095
 20
23.6049823999999369
 30
0.0
 10
3.7458026000000064
 20
22.512145100000069
 30
0.0
 10
3.866311100000007
 20
21.1875862999999676
 30
0.0
 10
4.4081012000000062
 20
19.7545454000000085
 30
0.0
 10
5.3368616000000086
 20
18.2768002999999979
 30
0.0
 10
6.4003382000000038
 20
17.2106398999999968
 30
0.0
 10
7.4652725000000064
 20
16.549452500000001
 30
0.0
 10
8.3574770000000065
 20
16.120828699999997
 30
0.0
 10
9.1040525000000052
 20
15.8717591000000002
 30
0.0
 10
9.6384815000000046
 20
15.7608250999999981
 30
0.0
 10
9.9414947000000051
 20
15.6920656999999988
 30
0.0
 10
10.1230553000000061
 20
15.6515221999999969
 30
0.0
 10
10.1956667000000074
 20
15.6353077999999925
 30
0.0
  0
LINE
  5
5F
100
AcDbEntity
100
AcDbLine
  8
0
 62
7
420
16777215
370
-1
  6
ByLayer
 10
12.397000100000005
 20
17.039219899999992
 30
0.0
 11
12.397000100000005
 21
17.039219899999992
 31
0.0
  0
SPLINE
  5
60
  8
0
 62
7
420
16777215
370
-1
  6
ByLayer
100
AcDbEntity
100
AcDbSpline
 70
8
 71
3
 72
28
 73
24
 74
0
 40
0.0
 40
0.0
 40
0.0
 40
0.0
 40
0.0476190476190476
 40
0.0952380952380952
 40
0.1428571428571428
 40
0.1904761904761905
 40
0.2380952380952381
 40
0.2857142857142857
 40
0.3333333333333333
 40
0.3809523809523809
 40
0.4285714285714285
 40
0.4761904761904762
 40
0.5238095238095238
 40
0.5714285714285714
 40
0.6190476190476191
 40
0.6666666666666666
 40
0.7142857142857143
 40
0.7619047619047619
 40
0.8095238095238095
 40
0.8571428571428571
 40
0.9047619047619048
 40
0.9523809523809523
 40
1.0
 40
1.0
 40
1.0
 40
1.0
 10
12.397000100000005
 20
17.039219899999992
 30
0.0
 10
12.7845596000000068
 20
17.1675628999999859
 30
0.0
 10
13.5763787000000047
 20
17.4297787999999905
 30
0.0
 10
14.6327930000000048
 20
18.141116299999986
 30
0.0
 10
15.9431294000000019
 20
19.4131306999999893
 30
0.0
 10
17.007334400000012
 20
21.5994322999999824
 30
0.0
 10
16.919945900000009
 20
24.5730874999999962
 30
0.0
 10
15.6867995000000082
 20
26.6597143999999879
 30
0.0
 10
14.3445359000000057
 20
27.8530609999999825
 30
0.0
 10
13.26353000000001
 20
28.4796349999999947
 30
0.0
 10
12.2411972000000091
 20
28.7746366999999914
 30
0.0
 10
11.3658008000000113
 20
28.9203913999999962
 30
0.0
 10
10.6342445000000083
 20
28.9195606999999875
 30
0.0
 10
9.4577627000000124
 20
28.7296501999999769
 30
0.0
 10
7.8649673000000107
 20
28.1129602999999797
 30
0.0
 10
6.2566874000000094
 20
26.6520433999999895
 30
0.0
 10
5.3636282000000071
 20
25.0896461000000244
 30
0.0
 10
5.1066968000000079
 20
23.6823458000001175
 30
0.0
 10
5.0605067000000101
 20
22.6503005000000677
 30
0.0
 10
5.2273310000000066
 20
20.8726165999999793
 30
0.0
 10
6.478858700000008
 20
18.6588634999999954
 30
0.0
 10
9.2290919000000073
 20
16.7884735999999926
 30
0.0
 10
11.3374730000000046
 20
16.9553560999999995
 30
0.0
 10
12.397000100000005
 20
17.039219899999992
 30
0.0
  0
LINE
  5
61
100
AcDbEntity
100
AcDbLine
  8
0
 62
7
420
16777215
370
-1
  6
ByLayer
 10
7.5426647000000084
 20
21.6638335999999896
 30
0.0
 11
7.5426647000000084
 21
21.6638335999999896
 31
0.0
  0
LINE
  5
62
100
AcDbEntity
100
AcDbLine
  8
0
 62
7
420
16777215
370
-1
  6
ByLayer
 10
7.7403332000000091
 20
21.8311372999999378
 30
0.0
 11
8.248333400000007
 21
21.5022530000000351
 31
0.0
  0
LINE
  5
63
100
AcDbEntity
100
AcDbLine
  8
0
 62
7
420
16777215
370
-1
  6
ByLayer
 10
8.248333400000007
 20
21.5022530000000351
 30
0.0
 11
8.5636073000000046
 21
21.858090200000035
 31
0.0
  0
SPLINE
  5
64
  8
0
 62
7
420
16777215
370
-1
  6
ByLayer
100
AcDbEntity
100
AcDbSpline
 70
8
 71
3
 72
37
 73
33
 74
0
 40
0.0
 40
0.0
 40
0.0
 40
0.0
 40
0.0333333333333333
 40
0.0666666666666667
 40
0.1
 40
0.1333333333333333
 40
0.1666666666666667
 40
0.2
 40
0.2333333333333333
 40
0.2666666666666667
 40
0.3
 40
0.3333333333333333
 40
0.3666666666666666
 40
0.4
 40
0.4333333333333333
 40
0.4666666666666667
 40
0.5
 40
0.5333333333333333
 40
0.5666666666666667
 40
0.6
 40
0.6333333333333333
 40
0.6666666666666666
 40
0.7
 40
0.7333333333333333
 40
0.7666666666666667
 40
0.8
 40
0.8333333333333334
 40
0.8666666666666667
 40
0.9
 40
0.9333333333333333
 40
0.9666666666666667
 40
1.0
 40
1.0
 40
1.0
 40
1.0
 10
9.1690697000000103
 20
22.3516298000000546
 30
0.0
 10
9.3152135000000094
 20
22.4093212999999984
 30
0.0
 10
9.6271643000000129
 20
22.5324664999999662
 30
0.0
 10
10.2464387000000094
 20
22.3544432000000555
 30
0.0
 10
11.0264042000000071
 20
21.9443381000000102
 30
0.0
 10
11.948735900000008
 20
21.4765772000000048
 30
0.0
 10
13.0628936000000078
 20
21.4444366999999794
 30
0.0
 10
13.7724869000000076
 20
21.9690478999999712
 30
0.0
 10
14.3064530000000083
 20
22.5710795000000104
 30
0.0
 10
14.5935137000000079
 20
23.0314639999993638
 30
0.0
 10
15.0224450000000083
 20
23.5150801999999857
 30
0.0
 10
14.5296980000000087
 20
23.8108447999999981
 30
0.0
 10
14.228538500000008
 20
23.9845420999999774
 30
0.0
 10
13.9045307000000076
 20
24.3338588000000087
 30
0.0
 10
13.7284643000000095
 20
24.2113562000000009
 30
0.0
 10
13.6298066000000091
 20
24.1072246999999678
 30
0.0
 10
13.3742249000000086
 20
23.8001717000000106
 30
0.0
 10
12.9256262000000088
 20
23.3162710999998808
 30
0.0
 10
11.8931321000000079
 20
23.3259514999999347
 30
0.0
 10
11.0678090000000093
 20
23.7292279999999991
 30
0.0
 10
10.3495535000000096
 20
24.0738040999999505
 30
0.0
 10
9.8590721000000077
 20
24.2513902999999758
 30
0.0
 10
9.4097384000000055
 20
24.276369799999955
 30
0.0
 10
8.9482568000000082
 20
24.2465026999999544
 30
0.0
 10
8.4610400000000077
 20
24.0189685999999902
 30
0.0
 10
8.0195423000000083
 20
23.6350987999999731
 30
0.0
 10
7.5827612000000055
 20
23.1168859999998304
 30
0.0
 10
7.3330808000000065
 20
22.6962650000000004
 30
0.0
 10
7.0728551000000071
 20
22.2612662000000157
 30
0.0
 10
7.3077065000000108
 20
22.130090899999928
 30
0.0
 10
7.4874713000000064
 20
21.9928676000000749
 30
0.0
 10
7.6499285000000086
 20
21.8889601999999712
 30
0.0
 10
7.7403332000000091
 20
21.8311372999999378
 30
0.0
  0
LINE
  5
65
100
AcDbEntity
100
AcDbLine
  8
0
 62
7
420
16777215
370
-1
  6
ByLayer
 10
9.1690697000000103
 20
22.3516298000000546
 30
0.0
 11
9.1690697000000103
 21
22.3516298000000546
 31
0.0
  0
SPLINE
  5
66
  8
0
 62
7
420
16777215
370
-1
  6
ByLayer
100
AcDbEntity
100
AcDbSpline
 70
8
 71
3
 72
10
 73
6
 74
0
 40
0.0
 40
0.0
 40
0.0
 40
0.0
 40
0.3333333333333333
 40
0.6666666666666666
 40
1.0
 40
1.0
 40
1.0
 40
1.0
 10
8.5636073000000046
 20
21.858090200000035
 30
0.0
 10
8.6286236000000081
 20
21.92527819999993
 30
0.0
 10
8.7586874000000101
 20
22.059686599999953
 30
0.0
 10
8.9601893000000086
 20
22.2282175999999687
 30
0.0
 10
9.1049435000000081
 20
22.3137421999999574
 30
0.0
 10
9.1690697000000103
 20
22.3516298000000546
 30
0.0
  0
CIRCLE
  5
67
100
AcDbEntity
100
AcDbCircle
  8
0
 62
256
370
-1
  6
ByLayer
 10
11.0
 20
46.0
 30
0.0
 40
1.5
  0
ENDSEC
  0
SECTION
  2
OBJECTS
  0
DICTIONARY
  5
C
100
AcDbDictionary
280
0
281
1
  3
ACAD_GROUP
350
D
  3
ACAD_LAYOUT
350
1A
  3
ACAD_MLINESTYLE
350
17
  3
ACAD_PLOTSETTINGS
350
19
  3
ACAD_PLOTSTYLENAME
350
E
  3
AcDbVariableDictionary
350
68
  0
DICTIONARY
  5
D
100
AcDbDictionary
280
0
281
1
  0
ACDBDICTIONARYWDFLT
  5
E
100
AcDbDictionary
281
1
  3
Normal
350
F
100
AcDbDictionaryWithDefault
340
F
  0
ACDBPLACEHOLDER
  5
F
  0
DICTIONARY
  5
17
100
AcDbDictionary
280
0
281
1
  3
Standard
350
18
  0
MLINESTYLE
  5
18
100
AcDbMlineStyle
  2
STANDARD
 70
0
  3

 62
256
 51
90.0
 52
90.0
 71
2
 49
0.5
 62
256
  6
BYLAYER
 49
-0.5
 62
256
  6
BYLAYER
  0
DICTIONARY
  5
19
100
AcDbDictionary
280
0
281
1
  0
DICTIONARY
  5
1A
100
AcDbDictionary
281
1
  3
Layout1
350
1E
  3
Layout2
350
26
  3
Model
350
22
  0
LAYOUT
  5
1E
100
AcDbPlotSettings
  1

  2
C:\Program Files\AutoCAD 2002\plotters\DWF ePlot (optimized for plotting).pc3
  4

  6

 40
0.0
 41
0.0
 42
0.0
 43
0.0
 44
0.0
 45
0.0
 46
0.0
 47
0.0
 48
0.0
 49
0.0
140
0.0
141
0.0
142
1.0
143
1.0
 70
688
 72
0
 73
0
 74
5
  7

 75
16
147
1.0
148
0.0
149
0.0
100
AcDbLayout
  1
Layout1
 70
1
 71
1
 10
0.0
 20
0.0
 11
420.0
 21
297.0
 12
0.0
 22
0.0
 32
0.0
 14
100000000000000000000.0
 24
100000000000000000000.0
 34
100000000000000000000.0
 15
-100000000000000000000.0
 25
-100000000000000000000.0
 35
-100000000000000000000.0
146
0.0
 13
0.0
 23
0.0
 33
0.0
 16
1.0
 26
0.0
 36
0.0
 17
0.0
 27
1.0
 37
0.0
 76
0
330
1B
  0
LAYOUT
  5
22
100
AcDbPlotSettings
  1

  2
C:\Program Files\AutoCAD 2002\plotters\DWF ePlot (optimized for plotting).pc3
  4

  6

 40
0.0
 41
0.0
 42
0.0
 43
0.0
 44
0.0
 45
0.0
 46
0.0
 47
0.0
 48
0.0
 49
0.0
140
0.0
141
0.0
142
1.0
143
1.0
 70
1712
 72
0
 73
0
 74
0
  7

 75
0
147
1.0
148
0.0
149
0.0
100
AcDbLayout
  1
Model
 70
1
 71
0
 10
0.0
 20
0.0
 11
12.0
 21
9.0
 12
0.0
 22
0.0
 32
0.0
 14
0.0
 24
0.0
 34
0.0
 15
0.0
 25
0.0
 35
0.0
146
0.0
 13
0.0
 23
0.0
 33
0.0
 16
1.0
 26
0.0
 36
0.0
 17
0.0
 27
1.0
 37
0.0
 76
0
330
1F
  0
LAYOUT
  5
26
100
AcDbPlotSettings
  1

  2
C:\Program Files\AutoCAD 2002\plotters\DWF ePlot (optimized for plotting).pc3
  4

  6

 40
0.0
 41
0.0
 42
0.0
 43
0.0
 44
0.0
 45
0.0
 46
0.0
 47
0.0
 48
0.0
 49
0.0
140
0.0
141
0.0
142
1.0
143
1.0
 70
688
 72
0
 73
0
 74
5
  7

 75
16
147
1.0
148
0.0
149
0.0
100
AcDbLayout
  1
Layout2
 70
1
 71
2
 10
0.0
 20
0.0
 11
12.0
 21
9.0
 12
0.0
 22
0.0
 32
0.0
 14
0.0
 24
0.0
 34
0.0
 15
0.0
 25
0.0
 35
0.0
146
0.0
 13
0.0
 23
0.0
 33
0.0
 16
1.0
 26
0.0
 36
0.0
 17
0.0
 27
1.0
 37
0.0
 76
0
330
23
  0
DICTIONARY
  5
68
100
AcDbDictionary
281
1
  3
DIMASSOC
350
6A
  3
HIDETEXT
350
69
  0
DICTIONARYVAR
  5
69
100
DictionaryVariables
280
0
  1
2
  0
DICTIONARYVAR
  5
6A
100
DictionaryVariables
280
0
  1
1
  0
ENDSEC
  0
EOF
