<?xml version="1.0" encoding="UTF-8" standalone="no"?>
<svg
   xmlns:dc="http://purl.org/dc/elements/1.1/"
   xmlns:cc="http://creativecommons.org/ns#"
   xmlns:rdf="http://www.w3.org/1999/02/22-rdf-syntax-ns#"
   xmlns:svg="http://www.w3.org/2000/svg"
   xmlns="http://www.w3.org/2000/svg"
   xmlns:sodipodi="http://sodipodi.sourceforge.net/DTD/sodipodi-0.dtd"
   xmlns:inkscape="http://www.inkscape.org/namespaces/inkscape"
   id="svg2816"
   version="1.1"
   inkscape:version="0.47 r22583"
   width="100%"
   height="100%"
   sodipodi:docname="keychain-r12.dxf">
  <metadata
     id="metadata4511">
    <rdf:RDF>
      <cc:Work
         rdf:about="">
        <dc:format>image/svg+xml</dc:format>
        <dc:type
           rdf:resource="http://purl.org/dc/dcmitype/StillImage" />
        <dc:title></dc:title>
      </cc:Work>
    </rdf:RDF>
  </metadata>
  <sodipodi:namedview
     pagecolor="#ffffff"
     bordercolor="#666666"
     borderopacity="1"
     objecttolerance="10"
     gridtolerance="10"
     guidetolerance="10"
     inkscape:pageopacity="0"
     inkscape:pageshadow="2"
     inkscape:window-width="1358"
     inkscape:window-height="742"
     id="namedview4509"
     showgrid="false"
     inkscape:zoom="169.28541"
     inkscape:cx="25.875136"
     inkscape:cy="78.866754"
     inkscape:window-x="0"
     inkscape:window-y="0"
     inkscape:window-maximized="0"
     inkscape:current-layer="layer2" />
  <desc
     id="desc2818">/media/IOFC/keychain-r12.dxf - scale = 1.000000</desc>
  <defs
     id="defs2820">
    <inkscape:perspective
       sodipodi:type="inkscape:persp3d"
       inkscape:vp_x="0 : 0.5 : 1"
       inkscape:vp_y="0 : 1000 : 0"
       inkscape:vp_z="1 : 0.5 : 1"
       inkscape:persp3d-origin="0.5 : 0.33333333 : 1"
       id="perspective4513" />
    <marker
       refY="0.0"
       refX="0.0"
       style="overflow:visible"
       id="DistanceX"
       orient="auto">
      <path
         style="stroke:#000000; stroke-width:0.5"
         d="M 3,-3 L -3,3 M 0,-5 L  0,5"
         id="path2823" />
    </marker>
  </defs>
  <g
     inkscape:label="0"
     inkscape:groupmode="layer"
     id="g2825"
     style="display:none"
     sodipodi:insensitive="true">
    <path
       style="fill:none;stroke:#000000"
       d="m 40.849593,1021.2006 0.07678,-24.07501"
       id="path2839" />
    <path
       style="fill:none;stroke:#000000"
       d="m 40.926377,997.12559 2.400001,-0.47176"
       id="path2841" />
    <path
       style="fill:none;stroke:#000000"
       d="m 43.126275,945.87559 -2.199898,-0.36832"
       id="path2843" />
    <path
       style="fill:none;stroke:#000000"
       d="m 40.926377,945.50727 -0.07675,-24.51584"
       id="path2845" />
    <path
       style="fill:none;stroke:#000000"
       d="m 40.849623,920.99143 -0.07675,-24.51584"
       id="path2847" />
    <path
       style="fill:none;stroke:#000000"
       d="m 40.772871,896.47559 -1.796493,0"
       id="path2849" />
    <path
       style="fill:none;stroke:#000000"
       d="m 38.976378,896.47559 -1.796493,0"
       id="path2851" />
    <path
       style="fill:none;stroke:#000000"
       d="m 37.179885,896.47559 -0.07675,24.51631"
       id="path2853" />
    <path
       style="fill:none;stroke:#000000"
       d="m 37.103133,920.9919 -0.07676,24.5163"
       id="path2855" />
    <path
       style="fill:none;stroke:#000000"
       d="m 37.026377,945.5082 -2.360798,0.39377"
       id="path2857" />
    <path
       style="fill:none;stroke:#000000"
       d="m 43.326378,996.65383 0.261793,-0.0525"
       id="path2859" />
    <path
       style="fill:none;stroke:#000000"
       d="m 43.588171,996.60136 0.257676,-0.052"
       id="path2861" />
    <path
       style="fill:none;stroke:#000000"
       d="m 43.845847,996.54936 0.253985,-0.052"
       id="path2863" />
    <path
       style="fill:none;stroke:#000000"
       d="m 44.099832,996.49741 0.250721,-0.0523"
       id="path2865" />
    <path
       style="fill:none;stroke:#000000"
       d="m 44.350553,996.44509 0.247884,-0.0531"
       id="path2867" />
    <path
       style="fill:none;stroke:#000000"
       d="m 44.598437,996.39196 0.245474,-0.0544"
       id="path2869" />
    <path
       style="fill:none;stroke:#000000"
       d="m 44.843911,996.33759 0.243489,-0.056"
       id="path2871" />
    <path
       style="fill:none;stroke:#000000"
       d="m 45.0874,996.28156 0.241933,-0.0581"
       id="path2873" />
    <path
       style="fill:none;stroke:#000000"
       d="m 45.329333,996.22343 0.240802,-0.0607"
       id="path2875" />
    <path
       style="fill:none;stroke:#000000"
       d="m 45.570135,996.16278 0.2401,-0.0636"
       id="path2877" />
    <path
       style="fill:none;stroke:#000000"
       d="m 45.810235,996.09917 0.240487,-0.0672"
       id="path2879" />
    <path
       style="fill:none;stroke:#000000"
       d="m 46.050722,996.03193 0.244039,-0.0724"
       id="path2881" />
    <path
       style="fill:none;stroke:#000000"
       d="m 46.294761,995.95958 0.251158,-0.0791"
       id="path2883" />
    <path
       style="fill:none;stroke:#000000"
       d="m 46.545919,995.8805 0.261841,-0.0874"
       id="path2885" />
    <path
       style="fill:none;stroke:#000000"
       d="m 46.80776,995.79307 0.276093,-0.0974"
       id="path2887" />
    <path
       style="fill:none;stroke:#000000"
       d="m 47.083853,995.69566 0.293911,-0.10901"
       id="path2889" />
    <path
       style="fill:none;stroke:#000000"
       d="m 47.377764,995.58665 0.315295,-0.12223"
       id="path2891" />
    <path
       style="fill:none;stroke:#000000"
       d="m 47.693059,995.46442 0.340246,-0.13708"
       id="path2893" />
    <path
       style="fill:none;stroke:#000000"
       d="m 48.033305,995.32734 0.368764,-0.15354"
       id="path2895" />
    <path
       style="fill:none;stroke:#000000"
       d="m 48.402069,995.1738 0.400844,-0.17164"
       id="path2897" />
    <path
       style="fill:none;stroke:#000000"
       d="m 48.802913,995.00216 0.435252,-0.19166"
       id="path2899" />
    <path
       style="fill:none;stroke:#000000"
       d="m 49.238165,994.8105 0.468962,-0.21428"
       id="path2901" />
    <path
       style="fill:none;stroke:#000000"
       d="m 49.707127,994.59622 0.501517,-0.23965"
       id="path2903" />
    <path
       style="fill:none;stroke:#000000"
       d="m 50.208644,994.35657 0.532919,-0.26776"
       id="path2905" />
    <path
       style="fill:none;stroke:#000000"
       d="m 50.741563,994.08881 0.563165,-0.29858"
       id="path2907" />
    <path
       style="fill:none;stroke:#000000"
       d="m 51.304728,993.79023 0.592259,-0.33215"
       id="path2909" />
    <path
       style="fill:none;stroke:#000000"
       d="m 51.896987,993.45808 0.620197,-0.36845"
       id="path2911" />
    <path
       style="fill:none;stroke:#000000"
       d="m 52.517184,993.08963 0.646982,-0.40748"
       id="path2913" />
    <path
       style="fill:none;stroke:#000000"
       d="m 53.164166,992.68215 0.672612,-0.44925"
       id="path2915" />
    <path
       style="fill:none;stroke:#000000"
       d="m 53.836778,992.2329 0.697074,-0.49374"
       id="path2917" />
    <path
       style="fill:none;stroke:#000000"
       d="m 54.533852,991.73916 0.718632,-0.54093"
       id="path2919" />
    <path
       style="fill:none;stroke:#000000"
       d="m 55.252484,991.19823 0.733914,-0.5907"
       id="path2921" />
    <path
       style="fill:none;stroke:#000000"
       d="m 55.986398,990.60753 0.742534,-0.64306"
       id="path2923" />
    <path
       style="fill:none;stroke:#000000"
       d="m 56.728932,989.96447 0.744491,-0.698"
       id="path2925" />
    <path
       style="fill:none;stroke:#000000"
       d="m 57.473423,989.26647 0.739785,-0.75554"
       id="path2927" />
    <path
       style="fill:none;stroke:#000000"
       d="m 58.213208,988.51093 0.728416,-0.81564"
       id="path2929" />
    <path
       style="fill:none;stroke:#000000"
       d="m 58.941624,987.69529 0.710386,-0.87835"
       id="path2931" />
    <path
       style="fill:none;stroke:#000000"
       d="m 59.65201,986.81694 0.685692,-0.94362"
       id="path2933" />
    <path
       style="fill:none;stroke:#000000"
       d="m 60.337702,985.87332 0.654335,-1.01149"
       id="path2935" />
    <path
       style="fill:none;stroke:#000000"
       d="m 60.992037,984.86183 0.616338,-1.08185"
       id="path2937" />
    <path
       style="fill:none;stroke:#000000"
       d="m 61.608375,983.77998 0.573022,-1.14982"
       id="path2939" />
    <path
       style="fill:none;stroke:#000000"
       d="m 62.181397,982.63016 0.526437,-1.20777"
       id="path2941" />
    <path
       style="fill:none;stroke:#000000"
       d="m 62.707834,981.42239 0.476757,-1.25506"
       id="path2943" />
    <path
       style="fill:none;stroke:#000000"
       d="m 63.184591,980.16733 0.423985,-1.29167"
       id="path2945" />
    <path
       style="fill:none;stroke:#000000"
       d="m 63.608576,978.87566 0.368118,-1.31764"
       id="path2947" />
    <path
       style="fill:none;stroke:#000000"
       d="m 63.976694,977.55802 0.309158,-1.33294"
       id="path2949" />
    <path
       style="fill:none;stroke:#000000"
       d="m 64.285852,976.22508 0.247104,-1.33756"
       id="path2951" />
    <path
       style="fill:none;stroke:#000000"
       d="m 64.532956,974.88752 0.181958,-1.33154"
       id="path2953" />
    <path
       style="fill:none;stroke:#000000"
       d="m 64.714914,973.55598 0.113716,-1.31483"
       id="path2955" />
    <path
       style="fill:none;stroke:#000000"
       d="m 64.82863,972.24115 0.04249,-1.28758"
       id="path2957" />
    <path
       style="fill:none;stroke:#000000"
       d="m 64.871118,970.95357 -0.028,-1.25351"
       id="path2959" />
    <path
       style="fill:none;stroke:#000000"
       d="m 64.843115,969.70006 -0.09312,-1.21731"
       id="path2961" />
    <path
       style="fill:none;stroke:#000000"
       d="m 64.749993,968.48275 -0.15258,-1.17924"
       id="path2963" />
    <path
       style="fill:none;stroke:#000000"
       d="m 64.597413,967.30351 -0.206378,-1.13932"
       id="path2965" />
    <path
       style="fill:none;stroke:#000000"
       d="m 64.391035,966.16419 -0.254514,-1.09755"
       id="path2967" />
    <path
       style="fill:none;stroke:#000000"
       d="m 64.136521,965.06664 -0.29699,-1.05393"
       id="path2969" />
    <path
       style="fill:none;stroke:#000000"
       d="m 63.839531,964.01271 -0.333804,-1.00844"
       id="path2971" />
    <path
       style="fill:none;stroke:#000000"
       d="m 63.505727,963.00427 -0.364958,-0.9611"
       id="path2973" />
    <path
       style="fill:none;stroke:#000000"
       d="m 63.140769,962.04317 -0.390451,-0.91192"
       id="path2975" />
    <path
       style="fill:none;stroke:#000000"
       d="m 62.750318,961.13125 -0.410329,-0.86096"
       id="path2977" />
    <path
       style="fill:none;stroke:#000000"
       d="m 62.339989,960.27029 -0.425635,-0.81013"
       id="path2979" />
    <path
       style="fill:none;stroke:#000000"
       d="M 61.914354,959.46016 61.476935,958.6988"
       id="path2981" />
    <path
       style="fill:none;stroke:#000000"
       d="m 61.476935,958.6988 -0.445722,-0.71471"
       id="path2983" />
    <path
       style="fill:none;stroke:#000000"
       d="M 61.031213,957.98409 60.580666,957.3139"
       id="path2985" />
    <path
       style="fill:none;stroke:#000000"
       d="m 60.580666,957.3139 -0.451892,-0.6278"
       id="path2987" />
    <path
       style="fill:none;stroke:#000000"
       d="m 60.128774,956.6861 -0.449759,-0.58755"
       id="path2989" />
    <path
       style="fill:none;stroke:#000000"
       d="m 59.679015,956.09855 -0.444147,-0.54943"
       id="path2991" />
    <path
       style="fill:none;stroke:#000000"
       d="M 59.234868,955.54912 58.799813,955.0357"
       id="path2993" />
    <path
       style="fill:none;stroke:#000000"
       d="m 58.799813,955.0357 -0.422485,-0.47956"
       id="path2995" />
    <path
       style="fill:none;stroke:#000000"
       d="m 58.377328,954.55614 -0.406612,-0.44782"
       id="path2997" />
    <path
       style="fill:none;stroke:#000000"
       d="m 57.970716,954.10832 -0.390261,-0.41834"
       id="path2999" />
    <path
       style="fill:none;stroke:#000000"
       d="m 57.580455,953.68998 -0.375706,-0.39117"
       id="path3001" />
    <path
       style="fill:none;stroke:#000000"
       d="m 57.204749,953.29881 -0.363011,-0.36634"
       id="path3003" />
    <path
       style="fill:none;stroke:#000000"
       d="m 56.841738,952.93247 -0.352175,-0.34383"
       id="path3005" />
    <path
       style="fill:none;stroke:#000000"
       d="m 56.489563,952.58864 -0.343199,-0.32365"
       id="path3007" />
    <path
       style="fill:none;stroke:#000000"
       d="m 56.146364,952.26499 -0.336081,-0.3058"
       id="path3009" />
    <path
       style="fill:none;stroke:#000000"
       d="M 55.810283,951.95919 55.479459,951.6689"
       id="path3011" />
    <path
       style="fill:none;stroke:#000000"
       d="m 55.479459,951.6689 -0.327426,-0.27709"
       id="path3013" />
    <path
       style="fill:none;stroke:#000000"
       d="m 55.152033,951.39181 -0.325888,-0.26622"
       id="path3015" />
    <path
       style="fill:none;stroke:#000000"
       d="m 54.826145,951.12559 -0.326096,-0.25758"
       id="path3017" />
    <path
       style="fill:none;stroke:#000000"
       d="m 54.500049,950.86801 -0.326751,-0.24978"
       id="path3019" />
    <path
       style="fill:none;stroke:#000000"
       d="m 54.173298,950.61823 -0.327009,-0.24198"
       id="path3021" />
    <path
       style="fill:none;stroke:#000000"
       d="M 53.846289,950.37625 53.51943,950.1421"
       id="path3023" />
    <path
       style="fill:none;stroke:#000000"
       d="m 53.51943,950.1421 -0.326298,-0.22629"
       id="path3025" />
    <path
       style="fill:none;stroke:#000000"
       d="M 53.193132,949.91581 52.867803,949.6974"
       id="path3027" />
    <path
       style="fill:none;stroke:#000000"
       d="m 52.867803,949.6974 -0.32395,-0.21051"
       id="path3029" />
    <path
       style="fill:none;stroke:#000000"
       d="m 52.543853,949.48689 -0.322162,-0.20257"
       id="path3031" />
    <path
       style="fill:none;stroke:#000000"
       d="m 52.221691,949.28432 -0.319964,-0.19461"
       id="path3033" />
    <path
       style="fill:none;stroke:#000000"
       d="M 51.901727,949.08971 51.58437,948.90309"
       id="path3035" />
    <path
       style="fill:none;stroke:#000000"
       d="m 51.58437,948.90309 -0.314371,-0.17864"
       id="path3037" />
    <path
       style="fill:none;stroke:#000000"
       d="m 51.269999,948.72445 -0.311256,-0.17089"
       id="path3039" />
    <path
       style="fill:none;stroke:#000000"
       d="m 50.958743,948.55356 -0.308149,-0.1635"
       id="path3041" />
    <path
       style="fill:none;stroke:#000000"
       d="m 50.650594,948.39006 -0.305045,-0.15647"
       id="path3043" />
    <path
       style="fill:none;stroke:#000000"
       d="M 50.345549,948.23359 50.0436,948.0838"
       id="path3045" />
    <path
       style="fill:none;stroke:#000000"
       d="m 50.0436,948.0838 -0.298857,-0.14349"
       id="path3047" />
    <path
       style="fill:none;stroke:#000000"
       d="m 49.744743,947.94031 -0.295771,-0.13753"
       id="path3049" />
    <path
       style="fill:none;stroke:#000000"
       d="M 49.448972,947.80278 49.15628,947.67085"
       id="path3051" />
    <path
       style="fill:none;stroke:#000000"
       d="m 49.15628,947.67085 -0.289617,-0.1267"
       id="path3053" />
    <path
       style="fill:none;stroke:#000000"
       d="m 48.866663,947.54415 -0.28655,-0.12183"
       id="path3055" />
    <path
       style="fill:none;stroke:#000000"
       d="m 48.580113,947.42232 -0.283514,-0.11727"
       id="path3057" />
    <path
       style="fill:none;stroke:#000000"
       d="m 48.296599,947.30505 -0.2807,-0.11278"
       id="path3059" />
    <path
       style="fill:none;stroke:#000000"
       d="m 48.015899,947.19227 -0.278182,-0.10828"
       id="path3061" />
    <path
       style="fill:none;stroke:#000000"
       d="m 47.737717,947.08399 -0.275959,-0.10373"
       id="path3063" />
    <path
       style="fill:none;stroke:#000000"
       d="m 47.461758,946.98026 -0.274034,-0.0992"
       id="path3065" />
    <path
       style="fill:none;stroke:#000000"
       d="m 47.187724,946.88111 -0.272403,-0.0946"
       id="path3067" />
    <path
       style="fill:none;stroke:#000000"
       d="m 46.915321,946.78655 -0.27107,-0.0899"
       id="path3069" />
    <path
       style="fill:none;stroke:#000000"
       d="m 46.644251,946.69664 -0.270032,-0.0852"
       id="path3071" />
    <path
       style="fill:none;stroke:#000000"
       d="m 46.374219,946.61139 -0.269292,-0.0806"
       id="path3073" />
    <path
       style="fill:none;stroke:#000000"
       d="m 46.104927,946.53084 -0.268846,-0.0758"
       id="path3075" />
    <path
       style="fill:none;stroke:#000000"
       d="m 45.836081,946.45501 -0.268682,-0.0711"
       id="path3077" />
    <path
       style="fill:none;stroke:#000000"
       d="m 45.567399,946.38387 -0.268721,-0.0668"
       id="path3079" />
    <path
       style="fill:none;stroke:#000000"
       d="m 45.298678,946.31703 -0.268936,-0.0631"
       id="path3081" />
    <path
       style="fill:none;stroke:#000000"
       d="m 45.029742,946.25397 -0.269329,-0.0598"
       id="path3083" />
    <path
       style="fill:none;stroke:#000000"
       d="m 44.760413,946.19418 -0.269899,-0.057"
       id="path3085" />
    <path
       style="fill:none;stroke:#000000"
       d="m 44.490514,946.13716 -0.270645,-0.0548"
       id="path3087" />
    <path
       style="fill:none;stroke:#000000"
       d="m 44.219869,946.08238 -0.27157,-0.053"
       id="path3089" />
    <path
       style="fill:none;stroke:#000000"
       d="m 43.948299,946.02935 -0.272671,-0.0518"
       id="path3091" />
    <path
       style="fill:none;stroke:#000000"
       d="m 43.675628,945.97755 -0.273949,-0.0511"
       id="path3093" />
    <path
       style="fill:none;stroke:#000000"
       d="m 43.401679,945.92646 -0.275404,-0.0509"
       id="path3095" />
    <path
       style="fill:none;stroke:#000000"
       d="m 36.126378,996.96151 0.899999,0.20219"
       id="path3097" />
    <path
       style="fill:none;stroke:#000000"
       d="m 37.026377,997.1637 0.07679,24.0559"
       id="path3099" />
    <path
       style="fill:none;stroke:#000000"
       d="m 37.103163,1021.2196 0.07679,24.056"
       id="path3101" />
    <path
       style="fill:none;stroke:#000000"
       d="m 37.179948,1045.2756 1.79643,0"
       id="path3103" />
    <path
       style="fill:none;stroke:#000000"
       d="m 38.976378,1045.2756 1.79643,0"
       id="path3105" />
    <path
       style="fill:none;stroke:#000000"
       d="m 40.772808,1045.2756 0.07679,-24.075"
       id="path3107" />
    <path
       style="fill:none;stroke:#000000"
       d="m 34.665579,945.90197 -0.32846,0.0708"
       id="path3109" />
    <path
       style="fill:none;stroke:#000000"
       d="m 34.337119,945.97281 -0.330591,0.072"
       id="path3111" />
    <path
       style="fill:none;stroke:#000000"
       d="m 34.006528,946.04479 -0.332274,0.0737"
       id="path3113" />
    <path
       style="fill:none;stroke:#000000"
       d="m 33.674254,946.11848 -0.333506,0.076"
       id="path3115" />
    <path
       style="fill:none;stroke:#000000"
       d="m 33.340748,946.19447 -0.334291,0.0789"
       id="path3117" />
    <path
       style="fill:none;stroke:#000000"
       d="m 33.006457,946.27334 -0.334625,0.0823"
       id="path3119" />
    <path
       style="fill:none;stroke:#000000"
       d="m 32.671832,946.35567 -0.334511,0.0864"
       id="path3121" />
    <path
       style="fill:none;stroke:#000000"
       d="m 32.337321,946.44204 -0.333947,0.091"
       id="path3123" />
    <path
       style="fill:none;stroke:#000000"
       d="m 32.003374,946.53302 -0.332935,0.0962"
       id="path3125" />
    <path
       style="fill:none;stroke:#000000"
       d="m 31.670439,946.62921 -0.331543,0.10186"
       id="path3127" />
    <path
       style="fill:none;stroke:#000000"
       d="m 31.338896,946.73107 -0.330147,0.10742"
       id="path3129" />
    <path
       style="fill:none;stroke:#000000"
       d="m 31.008749,946.83849 -0.328873,0.11269"
       id="path3131" />
    <path
       style="fill:none;stroke:#000000"
       d="m 30.679876,946.95118 -0.327719,0.11766"
       id="path3133" />
    <path
       style="fill:none;stroke:#000000"
       d="m 30.352157,947.06884 -0.326686,0.12233"
       id="path3135" />
    <path
       style="fill:none;stroke:#000000"
       d="m 30.025471,947.19117 -0.325774,0.12671"
       id="path3137" />
    <path
       style="fill:none;stroke:#000000"
       d="m 29.699697,947.31788 -0.324982,0.13077"
       id="path3139" />
    <path
       style="fill:none;stroke:#000000"
       d="m 29.374715,947.44865 -0.324312,0.13455"
       id="path3141" />
    <path
       style="fill:none;stroke:#000000"
       d="m 29.050403,947.5832 -0.323762,0.13803"
       id="path3143" />
    <path
       style="fill:none;stroke:#000000"
       d="m 28.726641,947.72123 -0.323304,0.14128"
       id="path3145" />
    <path
       style="fill:none;stroke:#000000"
       d="m 28.403337,947.86251 -0.322742,0.14486"
       id="path3147" />
    <path
       style="fill:none;stroke:#000000"
       d="m 28.080595,948.00737 -0.321988,0.14901"
       id="path3149" />
    <path
       style="fill:none;stroke:#000000"
       d="m 27.758607,948.15638 -0.321039,0.15373"
       id="path3151" />
    <path
       style="fill:none;stroke:#000000"
       d="m 27.437568,948.31011 -0.3199,0.159"
       id="path3153" />
    <path
       style="fill:none;stroke:#000000"
       d="m 27.117668,948.46911 -0.318566,0.16485"
       id="path3155" />
    <path
       style="fill:none;stroke:#000000"
       d="m 26.799102,948.63396 -0.317041,0.17127"
       id="path3157" />
    <path
       style="fill:none;stroke:#000000"
       d="m 26.482061,948.80523 -0.315322,0.17824"
       id="path3159" />
    <path
       style="fill:none;stroke:#000000"
       d="m 26.166739,948.98347 -0.313412,0.1858"
       id="path3161" />
    <path
       style="fill:none;stroke:#000000"
       d="m 25.853327,949.16927 -0.311318,0.19384"
       id="path3163" />
    <path
       style="fill:none;stroke:#000000"
       d="m 25.542009,949.36311 -0.309151,0.2017"
       id="path3165" />
    <path
       style="fill:none;stroke:#000000"
       d="m 25.232858,949.56481 -0.306971,0.20897"
       id="path3167" />
    <path
       style="fill:none;stroke:#000000"
       d="m 24.925887,949.77378 -0.304776,0.21566"
       id="path3169" />
    <path
       style="fill:none;stroke:#000000"
       d="m 24.621111,949.98944 -0.30257,0.22177"
       id="path3171" />
    <path
       style="fill:none;stroke:#000000"
       d="m 24.318541,950.21121 -0.30035,0.2273"
       id="path3173" />
    <path
       style="fill:none;stroke:#000000"
       d="m 24.018191,950.43851 -0.298118,0.23223"
       id="path3175" />
    <path
       style="fill:none;stroke:#000000"
       d="M 23.720073,950.67074 23.4242,950.90733"
       id="path3177" />
    <path
       style="fill:none;stroke:#000000"
       d="m 23.4242,950.90733 -0.293614,0.24036"
       id="path3179" />
    <path
       style="fill:none;stroke:#000000"
       d="m 23.130586,951.14769 -0.291343,0.24357"
       id="path3181" />
    <path
       style="fill:none;stroke:#000000"
       d="M 22.839243,951.39126 22.5502,951.63773"
       id="path3183" />
    <path
       style="fill:none;stroke:#000000"
       d="m 22.5502,951.63773 -0.286706,0.24926"
       id="path3185" />
    <path
       style="fill:none;stroke:#000000"
       d="m 22.263494,951.88699 -0.284332,0.25194"
       id="path3187" />
    <path
       style="fill:none;stroke:#000000"
       d="m 21.979162,952.13893 -0.281921,0.2545"
       id="path3189" />
    <path
       style="fill:none;stroke:#000000"
       d="m 21.697241,952.39343 -0.279472,0.25697"
       id="path3191" />
    <path
       style="fill:none;stroke:#000000"
       d="m 21.417769,952.6504 -0.276985,0.25932"
       id="path3193" />
    <path
       style="fill:none;stroke:#000000"
       d="m 21.140784,952.90972 -0.27446,0.26156"
       id="path3195" />
    <path
       style="fill:none;stroke:#000000"
       d="m 20.866324,953.17128 -0.2719,0.26369"
       id="path3197" />
    <path
       style="fill:none;stroke:#000000"
       d="m 20.594424,953.43497 -0.269286,0.26572"
       id="path3199" />
    <path
       style="fill:none;stroke:#000000"
       d="M 20.325138,953.70069 20.0588,953.9685"
       id="path3201" />
    <path
       style="fill:none;stroke:#000000"
       d="m 20.0588,953.9685 -0.262787,0.27009"
       id="path3203" />
    <path
       style="fill:none;stroke:#000000"
       d="m 19.796013,954.23859 -0.258623,0.27257"
       id="path3205" />
    <path
       style="fill:none;stroke:#000000"
       d="m 19.53739,954.51116 -0.253847,0.27527"
       id="path3207" />
    <path
       style="fill:none;stroke:#000000"
       d="m 19.283543,954.78643 -0.248457,0.27816"
       id="path3209" />
    <path
       style="fill:none;stroke:#000000"
       d="m 19.035086,955.06459 -0.242455,0.28126"
       id="path3211" />
    <path
       style="fill:none;stroke:#000000"
       d="m 18.792631,955.34585 -0.235839,0.28456"
       id="path3213" />
    <path
       style="fill:none;stroke:#000000"
       d="m 18.556792,955.63041 -0.228612,0.28807"
       id="path3215" />
    <path
       style="fill:none;stroke:#000000"
       d="m 18.32818,955.91848 -0.220785,0.29177"
       id="path3217" />
    <path
       style="fill:none;stroke:#000000"
       d="m 18.107395,956.21025 -0.212844,0.29546"
       id="path3219" />
    <path
       style="fill:none;stroke:#000000"
       d="m 17.894551,956.50571 -0.205372,0.29889"
       id="path3221" />
    <path
       style="fill:none;stroke:#000000"
       d="m 17.689179,956.8046 -0.198403,0.30202"
       id="path3223" />
    <path
       style="fill:none;stroke:#000000"
       d="m 17.490776,957.10662 -0.191939,0.30487"
       id="path3225" />
    <path
       style="fill:none;stroke:#000000"
       d="m 17.298837,957.41149 -0.185976,0.30744"
       id="path3227" />
    <path
       style="fill:none;stroke:#000000"
       d="m 17.112861,957.71893 -0.180519,0.30972"
       id="path3229" />
    <path
       style="fill:none;stroke:#000000"
       d="m 16.932342,958.02865 -0.175564,0.31171"
       id="path3231" />
    <path
       style="fill:none;stroke:#000000"
       d="m 16.756778,958.34036 -0.171113,0.31343"
       id="path3233" />
    <path
       style="fill:none;stroke:#000000"
       d="m 16.585665,958.65379 -0.167163,0.31486"
       id="path3235" />
    <path
       style="fill:none;stroke:#000000"
       d="m 16.418502,958.96865 -0.163584,0.31623"
       id="path3237" />
    <path
       style="fill:none;stroke:#000000"
       d="m 16.254918,959.28488 -0.160177,0.31787"
       id="path3239" />
    <path
       style="fill:none;stroke:#000000"
       d="m 16.094741,959.60275 -0.156922,0.31983"
       id="path3241" />
    <path
       style="fill:none;stroke:#000000"
       d="M 15.937819,959.92258 15.784,960.24465"
       id="path3243" />
    <path
       style="fill:none;stroke:#000000"
       d="m 15.784,960.24465 -0.150871,0.32464"
       id="path3245" />
    <path
       style="fill:none;stroke:#000000"
       d="m 15.633129,960.56929 -0.148076,0.3275"
       id="path3247" />
    <path
       style="fill:none;stroke:#000000"
       d="m 15.485053,960.89679 -0.145433,0.33066"
       id="path3249" />
    <path
       style="fill:none;stroke:#000000"
       d="m 15.33962,961.22745 -0.142943,0.33415"
       id="path3251" />
    <path
       style="fill:none;stroke:#000000"
       d="m 15.196677,961.5616 -0.140606,0.33792"
       id="path3253" />
    <path
       style="fill:none;stroke:#000000"
       d="m 15.056071,961.89952 -0.138165,0.34196"
       id="path3255" />
    <path
       style="fill:none;stroke:#000000"
       d="m 14.917906,962.24148 -0.135117,0.34619"
       id="path3257" />
    <path
       style="fill:none;stroke:#000000"
       d="m 14.782789,962.58767 -0.131399,0.35059"
       id="path3259" />
    <path
       style="fill:none;stroke:#000000"
       d="m 14.65139,962.93826 -0.127011,0.35515"
       id="path3261" />
    <path
       style="fill:none;stroke:#000000"
       d="m 14.524379,963.29341 -0.121954,0.3599"
       id="path3263" />
    <path
       style="fill:none;stroke:#000000"
       d="m 14.402425,963.65331 -0.116227,0.36481"
       id="path3265" />
    <path
       style="fill:none;stroke:#000000"
       d="m 14.286198,964.01812 -0.109832,0.3699"
       id="path3267" />
    <path
       style="fill:none;stroke:#000000"
       d="M 14.176366,964.38802 14.0736,964.76318"
       id="path3269" />
    <path
       style="fill:none;stroke:#000000"
       d="m 14.0736,964.76318 -0.09503,0.3806"
       id="path3271" />
    <path
       style="fill:none;stroke:#000000"
       d="m 13.978568,965.14378 -0.08689,0.38606"
       id="path3273" />
    <path
       style="fill:none;stroke:#000000"
       d="m 13.891675,965.52984 -0.07904,0.39118"
       id="path3275" />
    <path
       style="fill:none;stroke:#000000"
       d="m 13.81263,965.92102 -0.0716,0.39591"
       id="path3277" />
    <path
       style="fill:none;stroke:#000000"
       d="m 13.74103,966.31693 -0.06456,0.40024"
       id="path3279" />
    <path
       style="fill:none;stroke:#000000"
       d="m 13.676472,966.71717 -0.05792,0.40416"
       id="path3281" />
    <path
       style="fill:none;stroke:#000000"
       d="m 13.618553,967.12133 -0.05168,0.4077"
       id="path3283" />
    <path
       style="fill:none;stroke:#000000"
       d="m 13.56687,967.52903 -0.04585,0.41084"
       id="path3285" />
    <path
       style="fill:none;stroke:#000000"
       d="m 13.52102,967.93987 -0.04042,0.41356"
       id="path3287" />
    <path
       style="fill:none;stroke:#000000"
       d="m 13.4806,968.35343 -0.03539,0.41591"
       id="path3289" />
    <path
       style="fill:none;stroke:#000000"
       d="m 13.445206,968.76934 -0.03065,0.41808"
       id="path3291" />
    <path
       style="fill:none;stroke:#000000"
       d="m 13.414553,969.18742 -0.0258,0.42096"
       id="path3293" />
    <path
       style="fill:none;stroke:#000000"
       d="m 13.388756,969.60838 -0.02074,0.42471"
       id="path3295" />
    <path
       style="fill:none;stroke:#000000"
       d="m 13.368018,970.03309 -0.01547,0.42934"
       id="path3297" />
    <path
       style="fill:none;stroke:#000000"
       d="m 13.352544,970.46243 -0.01001,0.43484"
       id="path3299" />
    <path
       style="fill:none;stroke:#000000"
       d="m 13.342536,970.89727 -0.0043,0.44122"
       id="path3301" />
    <path
       style="fill:none;stroke:#000000"
       d="m 13.338199,971.33849 0.0015,0.44848"
       id="path3303" />
    <path
       style="fill:none;stroke:#000000"
       d="m 13.339737,971.78697 0.0076,0.45661"
       id="path3305" />
    <path
       style="fill:none;stroke:#000000"
       d="m 13.347351,972.24358 0.0139,0.46561"
       id="path3307" />
    <path
       style="fill:none;stroke:#000000"
       d="m 13.361247,972.70919 0.02053,0.47529"
       id="path3309" />
    <path
       style="fill:none;stroke:#000000"
       d="m 13.381781,973.18448 0.02824,0.48466"
       id="path3311" />
    <path
       style="fill:none;stroke:#000000"
       d="m 13.410019,973.66914 0.03721,0.49346"
       id="path3313" />
    <path
       style="fill:none;stroke:#000000"
       d="m 13.447231,974.1626 0.04746,0.50166"
       id="path3315" />
    <path
       style="fill:none;stroke:#000000"
       d="m 13.494687,974.66426 0.05897,0.5093"
       id="path3317" />
    <path
       style="fill:none;stroke:#000000"
       d="m 13.553656,975.17356 0.07175,0.51635"
       id="path3319" />
    <path
       style="fill:none;stroke:#000000"
       d="m 13.625409,975.68991 0.08581,0.52282"
       id="path3321" />
    <path
       style="fill:none;stroke:#000000"
       d="m 13.711216,976.21273 0.10113,0.52871"
       id="path3323" />
    <path
       style="fill:none;stroke:#000000"
       d="m 13.812346,976.74144 0.117724,0.53402"
       id="path3325" />
    <path
       style="fill:none;stroke:#000000"
       d="m 13.93007,977.27546 0.135436,0.53877"
       id="path3327" />
    <path
       style="fill:none;stroke:#000000"
       d="m 14.065506,977.81423 0.153343,0.54317"
       id="path3329" />
    <path
       style="fill:none;stroke:#000000"
       d="m 14.218849,978.3574 0.171087,0.54726"
       id="path3331" />
    <path
       style="fill:none;stroke:#000000"
       d="m 14.389936,978.90466 0.18867,0.55104"
       id="path3333" />
    <path
       style="fill:none;stroke:#000000"
       d="m 14.578606,979.4557 0.206092,0.55454"
       id="path3335" />
    <path
       style="fill:none;stroke:#000000"
       d="m 14.784698,980.01024 0.223352,0.55772"
       id="path3337" />
    <path
       style="fill:none;stroke:#000000"
       d="m 15.00805,980.56796 0.240451,0.5606"
       id="path3339" />
    <path
       style="fill:none;stroke:#000000"
       d="m 15.248501,981.12856 0.257387,0.5632"
       id="path3341" />
    <path
       style="fill:none;stroke:#000000"
       d="m 15.505888,981.69176 0.274162,0.56548"
       id="path3343" />
    <path
       style="fill:none;stroke:#000000"
       d="m 15.78005,982.25724 0.290701,0.56733"
       id="path3345" />
    <path
       style="fill:none;stroke:#000000"
       d="m 16.070751,982.82457 0.306368,0.56761"
       id="path3347" />
    <path
       style="fill:none;stroke:#000000"
       d="m 16.377119,983.39218 0.32085,0.56573"
       id="path3349" />
    <path
       style="fill:none;stroke:#000000"
       d="m 16.697969,983.95791 0.334145,0.56172"
       id="path3351" />
    <path
       style="fill:none;stroke:#000000"
       d="m 17.032114,984.51963 0.34625,0.55554"
       id="path3353" />
    <path
       style="fill:none;stroke:#000000"
       d="m 17.378364,985.07517 0.357169,0.54723"
       id="path3355" />
    <path
       style="fill:none;stroke:#000000"
       d="m 17.735533,985.6224 0.366899,0.53676"
       id="path3357" />
    <path
       style="fill:none;stroke:#000000"
       d="m 18.102432,986.15916 0.375441,0.52415"
       id="path3359" />
    <path
       style="fill:none;stroke:#000000"
       d="m 18.477873,986.68331 0.382796,0.50938"
       id="path3361" />
    <path
       style="fill:none;stroke:#000000"
       d="m 18.860669,987.19269 0.388989,0.49257"
       id="path3363" />
    <path
       style="fill:none;stroke:#000000"
       d="m 19.249658,987.68526 0.394345,0.47498"
       id="path3365" />
    <path
       style="fill:none;stroke:#000000"
       d="m 19.644003,988.16024 0.39907,0.4574"
       id="path3367" />
    <path
       style="fill:none;stroke:#000000"
       d="m 20.043073,988.61764 0.403166,0.43986"
       id="path3369" />
    <path
       style="fill:none;stroke:#000000"
       d="m 20.446239,989.0575 0.406635,0.42234"
       id="path3371" />
    <path
       style="fill:none;stroke:#000000"
       d="m 20.852874,989.47984 0.409477,0.40486"
       id="path3373" />
    <path
       style="fill:none;stroke:#000000"
       d="m 21.262351,989.8847 0.411691,0.3874"
       id="path3375" />
    <path
       style="fill:none;stroke:#000000"
       d="m 21.674042,990.2721 0.413278,0.36998"
       id="path3377" />
    <path
       style="fill:none;stroke:#000000"
       d="m 22.08732,990.64208 0.414237,0.35259"
       id="path3379" />
    <path
       style="fill:none;stroke:#000000"
       d="m 22.501557,990.99467 0.414562,0.33526"
       id="path3381" />
    <path
       style="fill:none;stroke:#000000"
       d="m 22.916119,991.32993 0.414153,0.31838"
       id="path3383" />
    <path
       style="fill:none;stroke:#000000"
       d="m 23.330272,991.64831 0.412926,0.30231"
       id="path3385" />
    <path
       style="fill:none;stroke:#000000"
       d="m 23.743198,991.95062 0.41088,0.28706"
       id="path3387" />
    <path
       style="fill:none;stroke:#000000"
       d="m 24.154078,992.23768 0.408012,0.2726"
       id="path3389" />
    <path
       style="fill:none;stroke:#000000"
       d="m 24.56209,992.51028 0.404325,0.25898"
       id="path3391" />
    <path
       style="fill:none;stroke:#000000"
       d="m 24.966415,992.76926 0.399817,0.24615"
       id="path3393" />
    <path
       style="fill:none;stroke:#000000"
       d="m 25.366232,993.01541 0.394488,0.23414"
       id="path3395" />
    <path
       style="fill:none;stroke:#000000"
       d="m 25.76072,993.24955 0.38834,0.22294"
       id="path3397" />
    <path
       style="fill:none;stroke:#000000"
       d="m 26.14906,993.47249 0.381388,0.21254"
       id="path3399" />
    <path
       style="fill:none;stroke:#000000"
       d="m 26.530448,993.68503 0.374074,0.20269"
       id="path3401" />
    <path
       style="fill:none;stroke:#000000"
       d="m 26.904522,993.88772 0.366862,0.1931"
       id="path3403" />
    <path
       style="fill:none;stroke:#000000"
       d="m 27.271384,994.08082 0.359781,0.18375"
       id="path3405" />
    <path
       style="fill:none;stroke:#000000"
       d="m 27.631165,994.26457 0.352825,0.17466"
       id="path3407" />
    <path
       style="fill:none;stroke:#000000"
       d="m 27.98399,994.43923 0.345998,0.16581"
       id="path3409" />
    <path
       style="fill:none;stroke:#000000"
       d="m 28.329988,994.60504 0.339299,0.15722"
       id="path3411" />
    <path
       style="fill:none;stroke:#000000"
       d="m 28.669287,994.76226 0.332726,0.14888"
       id="path3413" />
    <path
       style="fill:none;stroke:#000000"
       d="m 29.002013,994.91114 0.326283,0.14078"
       id="path3415" />
    <path
       style="fill:none;stroke:#000000"
       d="m 29.328296,995.05192 0.319961,0.13293"
       id="path3417" />
    <path
       style="fill:none;stroke:#000000"
       d="m 29.648257,995.18485 0.313587,0.12532"
       id="path3419" />
    <path
       style="fill:none;stroke:#000000"
       d="m 29.961844,995.31017 0.306916,0.11789"
       id="path3421" />
    <path
       style="fill:none;stroke:#000000"
       d="m 30.26876,995.42806 0.299933,0.11067"
       id="path3423" />
    <path
       style="fill:none;stroke:#000000"
       d="m 30.568693,995.53873 0.292636,0.10364"
       id="path3425" />
    <path
       style="fill:none;stroke:#000000"
       d="m 30.861329,995.64237 0.285026,0.0968"
       id="path3427" />
    <path
       style="fill:none;stroke:#000000"
       d="m 31.146355,995.73917 0.277102,0.0902"
       id="path3429" />
    <path
       style="fill:none;stroke:#000000"
       d="m 31.423457,995.82933 0.268866,0.0837"
       id="path3431" />
    <path
       style="fill:none;stroke:#000000"
       d="m 31.692323,995.91304 0.260316,0.0775"
       id="path3433" />
    <path
       style="fill:none;stroke:#000000"
       d="m 31.952639,995.9905 0.251453,0.0714"
       id="path3435" />
    <path
       style="fill:none;stroke:#000000"
       d="m 32.204092,996.06191 0.242354,0.0656"
       id="path3437" />
    <path
       style="fill:none;stroke:#000000"
       d="m 32.446446,996.12754 0.233151,0.0603"
       id="path3439" />
    <path
       style="fill:none;stroke:#000000"
       d="m 32.679597,996.18784 0.223856,0.0554"
       id="path3441" />
    <path
       style="fill:none;stroke:#000000"
       d="m 32.903453,996.24325 0.214472,0.051"
       id="path3443" />
    <path
       style="fill:none;stroke:#000000"
       d="m 33.117925,996.29424 0.204995,0.047"
       id="path3445" />
    <path
       style="fill:none;stroke:#000000"
       d="m 33.32292,996.34124 0.195429,0.0435"
       id="path3447" />
    <path
       style="fill:none;stroke:#000000"
       d="m 33.518349,996.38472 0.185771,0.0404"
       id="path3449" />
    <path
       style="fill:none;stroke:#000000"
       d="m 33.70412,996.42511 0.176024,0.0378"
       id="path3451" />
    <path
       style="fill:none;stroke:#000000"
       d="m 33.880144,996.46289 0.166186,0.0356"
       id="path3453" />
    <path
       style="fill:none;stroke:#000000"
       d="m 34.04633,996.49849 0.156545,0.0338"
       id="path3455" />
    <path
       style="fill:none;stroke:#000000"
       d="m 34.202875,996.53229 0.147758,0.0322"
       id="path3457" />
    <path
       style="fill:none;stroke:#000000"
       d="m 34.350633,996.56448 0.139917,0.0307"
       id="path3459" />
    <path
       style="fill:none;stroke:#000000"
       d="m 34.49055,996.59521 0.133021,0.0294"
       id="path3461" />
    <path
       style="fill:none;stroke:#000000"
       d="m 34.623571,996.62465 0.12707,0.0283"
       id="path3463" />
    <path
       style="fill:none;stroke:#000000"
       d="m 34.750641,996.65296 0.122065,0.0273"
       id="path3465" />
    <path
       style="fill:none;stroke:#000000"
       d="m 34.872706,996.6803 0.118005,0.0265"
       id="path3467" />
    <path
       style="fill:none;stroke:#000000"
       d="m 34.990711,996.70683 0.11489,0.0259"
       id="path3469" />
    <path
       style="fill:none;stroke:#000000"
       d="m 35.105601,996.73271 0.112722,0.0254"
       id="path3471" />
    <path
       style="fill:none;stroke:#000000"
       d="m 35.218323,996.75811 0.11121,0.025"
       id="path3473" />
    <path
       style="fill:none;stroke:#000000"
       d="m 35.329533,996.78313 0.109492,0.0246"
       id="path3475" />
    <path
       style="fill:none;stroke:#000000"
       d="m 35.439025,996.80772 0.107405,0.0241"
       id="path3477" />
    <path
       style="fill:none;stroke:#000000"
       d="m 35.54643,996.83182 0.10495,0.0235"
       id="path3479" />
    <path
       style="fill:none;stroke:#000000"
       d="m 35.65138,996.85533 0.102124,0.0229"
       id="path3481" />
    <path
       style="fill:none;stroke:#000000"
       d="m 35.753504,996.87819 0.09893,0.0221"
       id="path3483" />
    <path
       style="fill:none;stroke:#000000"
       d="m 35.852436,996.90031 0.09537,0.0213"
       id="path3485" />
    <path
       style="fill:none;stroke:#000000"
       d="m 35.947804,996.92162 0.09144,0.0204"
       id="path3487" />
    <path
       style="fill:none;stroke:#000000"
       d="m 36.039241,996.94205 0.08714,0.0195"
       id="path3489" />
    <path
       style="fill:none;stroke:#000000"
       d="m 43.926378,991.98702 0,0"
       id="path3491" />
    <path
       style="fill:none;stroke:#000000"
       d="m 43.926378,991.98702 0.453885,-0.1506"
       id="path3493" />
    <path
       style="fill:none;stroke:#000000"
       d="M 44.380263,991.83642 44.83544,991.6837"
       id="path3495" />
    <path
       style="fill:none;stroke:#000000"
       d="m 44.83544,991.6837 0.455613,-0.15627"
       id="path3497" />
    <path
       style="fill:none;stroke:#000000"
       d="m 45.291053,991.52743 0.455197,-0.16124"
       id="path3499" />
    <path
       style="fill:none;stroke:#000000"
       d="m 45.74625,991.36619 0.453925,-0.16762"
       id="path3501" />
    <path
       style="fill:none;stroke:#000000"
       d="m 46.200175,991.19857 0.451799,-0.17544"
       id="path3503" />
    <path
       style="fill:none;stroke:#000000"
       d="m 46.651974,991.02313 0.448819,-0.18467"
       id="path3505" />
    <path
       style="fill:none;stroke:#000000"
       d="m 47.100793,990.83846 0.444985,-0.19531"
       id="path3507" />
    <path
       style="fill:none;stroke:#000000"
       d="m 47.545778,990.64315 0.440296,-0.20738"
       id="path3509" />
    <path
       style="fill:none;stroke:#000000"
       d="m 47.986074,990.43577 0.435082,-0.22083"
       id="path3511" />
    <path
       style="fill:none;stroke:#000000"
       d="m 48.421156,990.21494 0.431099,-0.23548"
       id="path3513" />
    <path
       style="fill:none;stroke:#000000"
       d="m 48.852255,989.97946 0.42893,-0.25129"
       id="path3515" />
    <path
       style="fill:none;stroke:#000000"
       d="m 49.281185,989.72817 0.428575,-0.26822"
       id="path3517" />
    <path
       style="fill:none;stroke:#000000"
       d="m 49.70976,989.45995 0.430035,-0.28631"
       id="path3519" />
    <path
       style="fill:none;stroke:#000000"
       d="m 50.139795,989.17364 0.433309,-0.30554"
       id="path3521" />
    <path
       style="fill:none;stroke:#000000"
       d="m 50.573104,988.8681 0.438397,-0.32591"
       id="path3523" />
    <path
       style="fill:none;stroke:#000000"
       d="M 51.011501,988.54219 51.4568,988.19478"
       id="path3525" />
    <path
       style="fill:none;stroke:#000000"
       d="m 51.4568,988.19478 0.454016,-0.37008"
       id="path3527" />
    <path
       style="fill:none;stroke:#000000"
       d="m 51.910816,987.8247 0.464177,-0.39391"
       id="path3529" />
    <path
       style="fill:none;stroke:#000000"
       d="m 52.374993,987.43079 0.473143,-0.41928"
       id="path3531" />
    <path
       style="fill:none;stroke:#000000"
       d="m 52.848136,987.01151 0.479758,-0.44632"
       id="path3533" />
    <path
       style="fill:none;stroke:#000000"
       d="m 53.327894,986.56519 0.484017,-0.475"
       id="path3535" />
    <path
       style="fill:none;stroke:#000000"
       d="m 53.811911,986.09019 0.485923,-0.50536"
       id="path3537" />
    <path
       style="fill:none;stroke:#000000"
       d="m 54.297834,985.58483 0.485473,-0.5374"
       id="path3539" />
    <path
       style="fill:none;stroke:#000000"
       d="m 54.783307,985.04743 0.482668,-0.57107"
       id="path3541" />
    <path
       style="fill:none;stroke:#000000"
       d="m 55.265975,984.47636 0.477508,-0.60644"
       id="path3543" />
    <path
       style="fill:none;stroke:#000000"
       d="m 55.743483,983.86992 0.469993,-0.64346"
       id="path3545" />
    <path
       style="fill:none;stroke:#000000"
       d="m 56.213476,983.22646 0.460008,-0.682"
       id="path3547" />
    <path
       style="fill:none;stroke:#000000"
       d="m 56.673484,982.54446 0.446412,-0.72073"
       id="path3549" />
    <path
       style="fill:none;stroke:#000000"
       d="m 57.119896,981.82373 0.428559,-0.75887"
       id="path3551" />
    <path
       style="fill:none;stroke:#000000"
       d="m 57.548455,981.06486 0.406442,-0.7964"
       id="path3553" />
    <path
       style="fill:none;stroke:#000000"
       d="m 57.954897,980.26846 0.380061,-0.83335"
       id="path3555" />
    <path
       style="fill:none;stroke:#000000"
       d="m 58.334958,979.43511 0.349416,-0.86969"
       id="path3557" />
    <path
       style="fill:none;stroke:#000000"
       d="m 58.684374,978.56542 0.314507,-0.90544"
       id="path3559" />
    <path
       style="fill:none;stroke:#000000"
       d="m 58.998881,977.65998 0.275332,-0.94059"
       id="path3561" />
    <path
       style="fill:none;stroke:#000000"
       d="m 59.274213,976.71939 0.231896,-0.97514"
       id="path3563" />
    <path
       style="fill:none;stroke:#000000"
       d="m 59.506109,975.74425 0.184362,-1.0088"
       id="path3565" />
    <path
       style="fill:none;stroke:#000000"
       d="m 59.690471,974.73545 0.135093,-1.03757"
       id="path3567" />
    <path
       style="fill:none;stroke:#000000"
       d="m 59.825564,973.69788 0.08581,-1.05854"
       id="path3569" />
    <path
       style="fill:none;stroke:#000000"
       d="m 59.911375,972.63934 0.03656,-1.07161"
       id="path3571" />
    <path
       style="fill:none;stroke:#000000"
       d="m 59.947932,971.56773 -0.01267,-1.07679"
       id="path3573" />
    <path
       style="fill:none;stroke:#000000"
       d="m 59.935261,970.49094 -0.06187,-1.0741"
       id="path3575" />
    <path
       style="fill:none;stroke:#000000"
       d="m 59.873391,969.41684 -0.111042,-1.06352"
       id="path3577" />
    <path
       style="fill:none;stroke:#000000"
       d="m 59.762349,968.35332 -0.160186,-1.04504"
       id="path3579" />
    <path
       style="fill:none;stroke:#000000"
       d="m 59.602163,967.30828 -0.209304,-1.01869"
       id="path3581" />
    <path
       style="fill:none;stroke:#000000"
       d="m 59.392859,966.28959 -0.258277,-0.98464"
       id="path3583" />
    <path
       style="fill:none;stroke:#000000"
       d="m 59.134582,965.30495 -0.304708,-0.94678"
       id="path3585" />
    <path
       style="fill:none;stroke:#000000"
       d="m 58.829874,964.35817 -0.346347,-0.90873"
       id="path3587" />
    <path
       style="fill:none;stroke:#000000"
       d="m 58.483527,963.44944 -0.383101,-0.87067"
       id="path3589" />
    <path
       style="fill:none;stroke:#000000"
       d="m 58.100426,962.57877 -0.414975,-0.83256"
       id="path3591" />
    <path
       style="fill:none;stroke:#000000"
       d="m 57.685451,961.74621 -0.441966,-0.79444"
       id="path3593" />
    <path
       style="fill:none;stroke:#000000"
       d="m 57.243485,960.95177 -0.464076,-0.75628"
       id="path3595" />
    <path
       style="fill:none;stroke:#000000"
       d="m 56.779409,960.19549 -0.481303,-0.7181"
       id="path3597" />
    <path
       style="fill:none;stroke:#000000"
       d="m 56.298106,959.47739 -0.493648,-0.67988"
       id="path3599" />
    <path
       style="fill:none;stroke:#000000"
       d="m 55.804458,958.79751 -0.501154,-0.64165"
       id="path3601" />
    <path
       style="fill:none;stroke:#000000"
       d="m 55.303304,958.15586 -0.505177,-0.60411"
       id="path3603" />
    <path
       style="fill:none;stroke:#000000"
       d="m 54.798127,957.55175 -0.507359,-0.56803"
       id="path3605" />
    <path
       style="fill:none;stroke:#000000"
       d="m 54.290768,956.98372 -0.507797,-0.53351"
       id="path3607" />
    <path
       style="fill:none;stroke:#000000"
       d="M 53.782971,956.45021 53.27648,955.94969"
       id="path3609" />
    <path
       style="fill:none;stroke:#000000"
       d="m 53.27648,955.94969 -0.50344,-0.46906"
       id="path3611" />
    <path
       style="fill:none;stroke:#000000"
       d="m 52.77304,955.48063 -0.498645,-0.43915"
       id="path3613" />
    <path
       style="fill:none;stroke:#000000"
       d="M 52.274395,955.04148 51.782289,954.6307"
       id="path3615" />
    <path
       style="fill:none;stroke:#000000"
       d="m 51.782289,954.6307 -0.483822,-0.38393"
       id="path3617" />
    <path
       style="fill:none;stroke:#000000"
       d="m 51.298467,954.24677 -0.473812,-0.35863"
       id="path3619" />
    <path
       style="fill:none;stroke:#000000"
       d="m 50.824655,953.88814 -0.463072,-0.3347"
       id="path3621" />
    <path
       style="fill:none;stroke:#000000"
       d="m 50.361583,953.55344 -0.453154,-0.3119"
       id="path3623" />
    <path
       style="fill:none;stroke:#000000"
       d="M 49.908429,953.24154 49.46424,952.95133"
       id="path3625" />
    <path
       style="fill:none;stroke:#000000"
       d="M 49.46424,952.95133 49.028061,952.6817"
       id="path3627" />
    <path
       style="fill:none;stroke:#000000"
       d="m 49.028061,952.6817 -0.429123,-0.25014"
       id="path3629" />
    <path
       style="fill:none;stroke:#000000"
       d="m 48.598938,952.43156 -0.42302,-0.23178"
       id="path3631" />
    <path
       style="fill:none;stroke:#000000"
       d="m 48.175918,952.19978 -0.417873,-0.21452"
       id="path3633" />
    <path
       style="fill:none;stroke:#000000"
       d="M 47.758045,951.98526 47.344367,951.7869"
       id="path3635" />
    <path
       style="fill:none;stroke:#000000"
       d="m 47.344367,951.7869 -0.410435,-0.18332"
       id="path3637" />
    <path
       style="fill:none;stroke:#000000"
       d="m 46.933932,951.60358 -0.407722,-0.1693"
       id="path3639" />
    <path
       style="fill:none;stroke:#000000"
       d="m 46.52621,951.43428 -0.404694,-0.15616"
       id="path3641" />
    <path
       style="fill:none;stroke:#000000"
       d="m 46.121516,951.27812 -0.401251,-0.14388"
       id="path3643" />
    <path
       style="fill:none;stroke:#000000"
       d="m 45.720265,951.13424 -0.397392,-0.13246"
       id="path3645" />
    <path
       style="fill:none;stroke:#000000"
       d="m 45.322873,951.00178 -0.393116,-0.12189"
       id="path3647" />
    <path
       style="fill:none;stroke:#000000"
       d="M 44.929757,950.87989 44.54133,950.7677"
       id="path3649" />
    <path
       style="fill:none;stroke:#000000"
       d="m 44.54133,950.7677 -0.38332,-0.10335"
       id="path3651" />
    <path
       style="fill:none;stroke:#000000"
       d="M 44.15801,950.66435 43.780211,950.569"
       id="path3653" />
    <path
       style="fill:none;stroke:#000000"
       d="M 43.780211,950.569 43.40835,950.4808"
       id="path3655" />
    <path
       style="fill:none;stroke:#000000"
       d="m 43.40835,950.48077 -0.365614,-0.0818"
       id="path3657" />
    <path
       style="fill:none;stroke:#000000"
       d="m 43.042736,950.39902 -0.359338,-0.0754"
       id="path3659" />
    <path
       style="fill:none;stroke:#000000"
       d="m 42.683398,950.32365 -0.353075,-0.069"
       id="path3661" />
    <path
       style="fill:none;stroke:#000000"
       d="M 42.330323,950.25465 41.983496,950.192"
       id="path3663" />
    <path
       style="fill:none;stroke:#000000"
       d="m 41.983496,950.192 -0.340594,-0.0563"
       id="path3665" />
    <path
       style="fill:none;stroke:#000000"
       d="m 41.642902,950.13569 -0.334375,-0.05"
       id="path3667" />
    <path
       style="fill:none;stroke:#000000"
       d="m 41.308527,950.08571 -0.328171,-0.0437"
       id="path3669" />
    <path
       style="fill:none;stroke:#000000"
       d="m 40.980356,950.04204 -0.321981,-0.0374"
       id="path3671" />
    <path
       style="fill:none;stroke:#000000"
       d="m 40.658375,950.00468 -0.315806,-0.0311"
       id="path3673" />
    <path
       style="fill:none;stroke:#000000"
       d="m 40.342569,949.97361 -0.310174,-0.0248"
       id="path3675" />
    <path
       style="fill:none;stroke:#000000"
       d="m 40.032395,949.94885 -0.306918,-0.0183"
       id="path3677" />
    <path
       style="fill:none;stroke:#000000"
       d="m 39.725477,949.93059 -0.306435,-0.0116"
       id="path3679" />
    <path
       style="fill:none;stroke:#000000"
       d="m 39.419042,949.91901 -0.308723,-0.005"
       id="path3681" />
    <path
       style="fill:none;stroke:#000000"
       d="m 39.110319,949.91432 -0.313785,0.002"
       id="path3683" />
    <path
       style="fill:none;stroke:#000000"
       d="m 38.796534,949.91673 -0.32162,0.01"
       id="path3685" />
    <path
       style="fill:none;stroke:#000000"
       d="m 38.474914,949.92642 -0.332227,0.0172"
       id="path3687" />
    <path
       style="fill:none;stroke:#000000"
       d="m 38.142687,949.9436 -0.345608,0.0249"
       id="path3689" />
    <path
       style="fill:none;stroke:#000000"
       d="m 37.797079,949.96846 -0.36176,0.0328"
       id="path3691" />
    <path
       style="fill:none;stroke:#000000"
       d="m 37.435319,950.00122 -0.380267,0.041"
       id="path3693" />
    <path
       style="fill:none;stroke:#000000"
       d="m 37.055052,950.0422 -0.399196,0.0502"
       id="path3695" />
    <path
       style="fill:none;stroke:#000000"
       d="m 36.655856,950.09235 -0.417991,0.0604"
       id="path3697" />
    <path
       style="fill:none;stroke:#000000"
       d="m 36.237865,950.15277 -0.43665,0.0718"
       id="path3699" />
    <path
       style="fill:none;stroke:#000000"
       d="m 35.801215,950.22461 -0.455176,0.0843"
       id="path3701" />
    <path
       style="fill:none;stroke:#000000"
       d="m 35.346039,950.30896 -0.473565,0.098"
       id="path3703" />
    <path
       style="fill:none;stroke:#000000"
       d="m 34.872474,950.40696 -0.491822,0.11276"
       id="path3705" />
    <path
       style="fill:none;stroke:#000000"
       d="m 34.380652,950.51972 -0.509942,0.12864"
       id="path3707" />
    <path
       style="fill:none;stroke:#000000"
       d="m 33.87071,950.64836 -0.527928,0.14565"
       id="path3709" />
    <path
       style="fill:none;stroke:#000000"
       d="m 33.342782,950.79401 -0.545596,0.16385"
       id="path3711" />
    <path
       style="fill:none;stroke:#000000"
       d="m 32.797186,950.95786 -0.561808,0.18382"
       id="path3713" />
    <path
       style="fill:none;stroke:#000000"
       d="m 32.235378,951.14168 -0.576135,0.20575"
       id="path3715" />
    <path
       style="fill:none;stroke:#000000"
       d="m 31.659243,951.34743 -0.588574,0.22965"
       id="path3717" />
    <path
       style="fill:none;stroke:#000000"
       d="m 31.070669,951.57708 -0.599125,0.2555"
       id="path3719" />
    <path
       style="fill:none;stroke:#000000"
       d="m 30.471544,951.83258 -0.607788,0.28334"
       id="path3721" />
    <path
       style="fill:none;stroke:#000000"
       d="m 29.863756,952.11592 -0.614564,0.31314"
       id="path3723" />
    <path
       style="fill:none;stroke:#000000"
       d="m 29.249192,952.42906 -0.619452,0.34489"
       id="path3725" />
    <path
       style="fill:none;stroke:#000000"
       d="m 28.62974,952.77395 -0.622452,0.37863"
       id="path3727" />
    <path
       style="fill:none;stroke:#000000"
       d="m 28.007288,953.15258 -0.623451,0.41391"
       id="path3729" />
    <path
       style="fill:none;stroke:#000000"
       d="m 27.383837,953.56649 -0.621488,0.4474"
       id="path3731" />
    <path
       style="fill:none;stroke:#000000"
       d="m 26.762349,954.01389 -0.616089,0.47739"
       id="path3733" />
    <path
       style="fill:none;stroke:#000000"
       d="m 26.14626,954.49128 -0.607247,0.50389"
       id="path3735" />
    <path
       style="fill:none;stroke:#000000"
       d="m 25.539013,954.99517 -0.594966,0.5269"
       id="path3737" />
    <path
       style="fill:none;stroke:#000000"
       d="m 24.944047,955.52207 -0.579242,0.5464"
       id="path3739" />
    <path
       style="fill:none;stroke:#000000"
       d="m 24.364805,956.06847 -0.560077,0.56241"
       id="path3741" />
    <path
       style="fill:none;stroke:#000000"
       d="m 23.804728,956.63088 -0.537472,0.57491"
       id="path3743" />
    <path
       style="fill:none;stroke:#000000"
       d="m 23.267256,957.20579 -0.511425,0.58393"
       id="path3745" />
    <path
       style="fill:none;stroke:#000000"
       d="m 22.755831,957.78972 -0.482125,0.58955"
       id="path3747" />
    <path
       style="fill:none;stroke:#000000"
       d="m 22.273706,958.37927 -0.451761,0.59311"
       id="path3749" />
    <path
       style="fill:none;stroke:#000000"
       d="m 21.821945,958.97238 -0.421748,0.59544"
       id="path3751" />
    <path
       style="fill:none;stroke:#000000"
       d="m 21.400197,959.56782 -0.392105,0.59656"
       id="path3753" />
    <path
       style="fill:none;stroke:#000000"
       d="m 21.008092,960.16438 -0.362836,0.59648"
       id="path3755" />
    <path
       style="fill:none;stroke:#000000"
       d="m 20.645256,960.76086 -0.333939,0.59519"
       id="path3757" />
    <path
       style="fill:none;stroke:#000000"
       d="m 20.311317,961.35605 -0.305414,0.59269"
       id="path3759" />
    <path
       style="fill:none;stroke:#000000"
       d="m 20.005903,961.94874 -0.277263,0.58898"
       id="path3761" />
    <path
       style="fill:none;stroke:#000000"
       d="m 19.72864,962.53772 -0.249483,0.58406"
       id="path3763" />
    <path
       style="fill:none;stroke:#000000"
       d="m 19.479157,963.12178 -0.222126,0.57795"
       id="path3765" />
    <path
       style="fill:none;stroke:#000000"
       d="m 19.257031,963.69973 -0.196046,0.5707"
       id="path3767" />
    <path
       style="fill:none;stroke:#000000"
       d="m 19.060985,964.27043 -0.171946,0.56244"
       id="path3769" />
    <path
       style="fill:none;stroke:#000000"
       d="m 18.889039,964.83287 -0.14985,0.55313"
       id="path3771" />
    <path
       style="fill:none;stroke:#000000"
       d="m 18.739189,965.386 -0.129757,0.54278"
       id="path3773" />
    <path
       style="fill:none;stroke:#000000"
       d="m 18.609432,965.92878 -0.111668,0.5314"
       id="path3775" />
    <path
       style="fill:none;stroke:#000000"
       d="m 18.497764,966.46018 -0.09558,0.51897"
       id="path3777" />
    <path
       style="fill:none;stroke:#000000"
       d="m 18.402182,966.97915 -0.0815,0.50552"
       id="path3779" />
    <path
       style="fill:none;stroke:#000000"
       d="m 18.320683,967.48467 -0.06942,0.49103"
       id="path3781" />
    <path
       style="fill:none;stroke:#000000"
       d="m 18.251263,967.9757 -0.05931,0.47561"
       id="path3783" />
    <path
       style="fill:none;stroke:#000000"
       d="m 18.191956,968.45131 -0.05023,0.4622"
       id="path3785" />
    <path
       style="fill:none;stroke:#000000"
       d="m 18.141728,968.91351 -0.04119,0.45393"
       id="path3787" />
    <path
       style="fill:none;stroke:#000000"
       d="m 18.100543,969.36744 -0.03213,0.45091"
       id="path3789" />
    <path
       style="fill:none;stroke:#000000"
       d="m 18.068412,969.81835 -0.02307,0.4532"
       id="path3791" />
    <path
       style="fill:none;stroke:#000000"
       d="m 18.045344,970.27155 -0.01399,0.46075"
       id="path3793" />
    <path
       style="fill:none;stroke:#000000"
       d="m 18.031351,970.7323 -0.0049,0.47359"
       id="path3795" />
    <path
       style="fill:none;stroke:#000000"
       d="m 18.026443,971.20589 0.0042,0.4917"
       id="path3797" />
    <path
       style="fill:none;stroke:#000000"
       d="m 18.030631,971.69759 0.01329,0.51508"
       id="path3799" />
    <path
       style="fill:none;stroke:#000000"
       d="m 18.043926,972.21267 0.02245,0.5437"
       id="path3801" />
    <path
       style="fill:none;stroke:#000000"
       d="m 18.066377,972.75637 0.0333,0.57482"
       id="path3803" />
    <path
       style="fill:none;stroke:#000000"
       d="m 18.099677,973.33119 0.04809,0.60474"
       id="path3805" />
    <path
       style="fill:none;stroke:#000000"
       d="m 18.14777,973.93593 0.06699,0.6332"
       id="path3807" />
    <path
       style="fill:none;stroke:#000000"
       d="m 18.214762,974.56913 0.08999,0.66022"
       id="path3809" />
    <path
       style="fill:none;stroke:#000000"
       d="m 18.304756,975.22935 0.117104,0.68576"
       id="path3811" />
    <path
       style="fill:none;stroke:#000000"
       d="m 18.42186,975.91511 0.148317,0.70986"
       id="path3813" />
    <path
       style="fill:none;stroke:#000000"
       d="m 18.570177,976.62497 0.183636,0.7325"
       id="path3815" />
    <path
       style="fill:none;stroke:#000000"
       d="m 18.753813,977.35747 0.223059,0.75367"
       id="path3817" />
    <path
       style="fill:none;stroke:#000000"
       d="m 18.976872,978.11114 0.266581,0.77338"
       id="path3819" />
    <path
       style="fill:none;stroke:#000000"
       d="m 19.243453,978.88452 0.313468,0.79088"
       id="path3821" />
    <path
       style="fill:none;stroke:#000000"
       d="m 19.556921,979.6754 0.362436,0.80484"
       id="path3823" />
    <path
       style="fill:none;stroke:#000000"
       d="m 19.919357,980.48024 0.413354,0.81512"
       id="path3825" />
    <path
       style="fill:none;stroke:#000000"
       d="m 20.332711,981.29536 0.466221,0.82175"
       id="path3827" />
    <path
       style="fill:none;stroke:#000000"
       d="m 20.798932,982.11711 0.521039,0.82469"
       id="path3829" />
    <path
       style="fill:none;stroke:#000000"
       d="m 21.319971,982.9418 0.577805,0.82396"
       id="path3831" />
    <path
       style="fill:none;stroke:#000000"
       d="m 21.897776,983.76576 0.636522,0.81957"
       id="path3833" />
    <path
       style="fill:none;stroke:#000000"
       d="m 22.534298,984.58533 0.697189,0.81151"
       id="path3835" />
    <path
       style="fill:none;stroke:#000000"
       d="m 23.231487,985.39684 0.759796,0.79976"
       id="path3837" />
    <path
       style="fill:none;stroke:#000000"
       d="m 23.991283,986.1966 0.822391,0.78305"
       id="path3839" />
    <path
       style="fill:none;stroke:#000000"
       d="m 24.813674,986.97965 0.880496,0.75838"
       id="path3841" />
    <path
       style="fill:none;stroke:#000000"
       d="m 25.69417,987.73803 0.933482,0.72533"
       id="path3843" />
    <path
       style="fill:none;stroke:#000000"
       d="m 26.627652,988.46336 0.981355,0.68392"
       id="path3845" />
    <path
       style="fill:none;stroke:#000000"
       d="m 27.609007,989.14728 1.024109,0.63414"
       id="path3847" />
    <path
       style="fill:none;stroke:#000000"
       d="m 28.633116,989.78142 1.061749,0.57598"
       id="path3849" />
    <path
       style="fill:none;stroke:#000000"
       d="m 29.694865,990.3574 1.094271,0.50947"
       id="path3851" />
    <path
       style="fill:none;stroke:#000000"
       d="m 30.789136,990.86687 1.121678,0.43456"
       id="path3853" />
    <path
       style="fill:none;stroke:#000000"
       d="m 31.910814,991.30143 1.14397,0.35131"
       id="path3855" />
    <path
       style="fill:none;stroke:#000000"
       d="m 33.054784,991.65274 1.161871,0.26369"
       id="path3857" />
    <path
       style="fill:none;stroke:#000000"
       d="m 34.216655,991.91643 1.177571,0.18377"
       id="path3859" />
    <path
       style="fill:none;stroke:#000000"
       d="m 35.394226,992.1002 1.191481,0.11383"
       id="path3861" />
    <path
       style="fill:none;stroke:#000000"
       d="m 36.585707,992.21403 1.203598,0.0539"
       id="path3863" />
    <path
       style="fill:none;stroke:#000000"
       d="m 37.789305,992.26791 1.213925,0.004"
       id="path3865" />
    <path
       style="fill:none;stroke:#000000"
       d="m 39.00323,992.2718 1.222461,-0.0361"
       id="path3867" />
    <path
       style="fill:none;stroke:#000000"
       d="m 40.225691,992.23568 1.229206,-0.0661"
       id="path3869" />
    <path
       style="fill:none;stroke:#000000"
       d="m 41.454897,992.16953 1.234159,-0.0862"
       id="path3871" />
    <path
       style="fill:none;stroke:#000000"
       d="m 42.689056,992.08331 1.237322,-0.0963"
       id="path3873" />
  </g>
  <g
     inkscape:groupmode="layer"
     id="layer2"
     inkscape:label="tilda"
     style="display:inline">
    <path
       id="path4501"
       style="fill:none;stroke:#000000;display:inline"
       d="m 32.444972,973.18944 0.04386,-0.0259 m -0.08837,0.0522 0.04451,-0.0263 m -0.08962,0.0531 0.04511,-0.0268 m -0.09075,0.054 0.04564,-0.0272 m -0.09176,0.0549 0.04612,-0.0277 m -0.09265,0.0559 0.04653,-0.0282 m -0.09342,0.0569 0.04689,-0.0287 m -0.09407,0.0579 0.04718,-0.0292 m -0.09459,0.0589 0.04741,-0.0297 m -0.095,0.0599 0.04759,-0.0302 m -0.09529,0.0609 0.0477,-0.0307 m -0.09546,0.0619 0.04776,-0.0312 m -0.09551,0.063 0.04775,-0.0318 m -0.09544,0.0641 0.04769,-0.0323 m -0.09525,0.0652 0.04756,-0.0329 m -0.09494,0.0664 0.04738,-0.0335 m -0.09454,0.0675 0.04716,-0.034 m -0.0941,0.0686 0.04694,-0.0346 m -0.09368,0.0698 0.04674,-0.0352 m -0.09328,0.071 0.04654,-0.0358 m -0.09289,0.0721 0.04635,-0.0363 m -0.09252,0.0731 0.04617,-0.0368 m -0.09217,0.0742 0.046,-0.0374 m -0.09183,0.0753 0.04583,-0.0379 m -0.09151,0.0763 0.04568,-0.0384 m -0.09121,0.0774 0.04553,-0.039 m -0.09093,0.0785 0.0454,-0.0395 m -0.09067,0.0795 0.04527,-0.04 m -0.09042,0.0805 0.04515,-0.0405 m -0.09018,0.0815 0.04503,-0.041 m -0.08996,0.0825 0.04493,-0.0415 m -0.08976,0.0834 0.04483,-0.0419 m -0.08957,0.0843 0.04474,-0.0424 m -0.0894,0.0852 0.04466,-0.0428 m -0.08925,0.086 0.04459,-0.0432 m -0.0891,0.0868 0.04451,-0.0436 m -0.08896,0.0875 0.04445,-0.0439 m -0.08884,0.0881 0.04439,-0.0442 m -0.08873,0.0887 0.04434,-0.0445 m -0.08863,0.0892 0.04429,-0.0447 m -0.08854,0.0897 0.04425,-0.0449 m -0.08846,0.09 0.04421,-0.0451 m -0.08839,0.0904 0.04418,-0.0453 m -0.08833,0.0907 0.04415,-0.0454 m -0.08828,0.0909 0.04414,-0.0455 m -0.08826,0.0911 0.04412,-0.0456 m -0.08824,0.0912 0.04412,-0.0456 m 2.10122,-1.70316 0,0 m -5.170795,1.77495 0.108342,0.0693 m -0.214099,-0.13708 0.105757,0.0678 m -0.208883,-0.13413 0.103126,0.0663 m -0.203573,-0.13127 0.100447,0.065 m -0.19817,-0.12869 0.09772,0.0637 m -0.192671,-0.12621 0.09495,0.0625 m -0.187084,-0.1239 0.09213,0.0614 m -0.181398,-0.12179 0.08927,0.0604 m -0.175629,-0.11987 0.08636,0.0595 m -0.169968,-0.11812 0.08361,0.0586 m -0.165043,-0.11644 0.08143,0.0578 m -0.161314,-0.11493 0.07988,0.0571 m -0.158841,-0.11359 0.07896,0.0565 m -0.157623,-0.1124 0.07866,0.0559 m -0.157651,-0.1113 0.07899,0.0554 m -0.158935,-0.11034 0.07994,0.0549 m -0.161466,-0.10947 0.08153,0.0546 m -0.165202,-0.10888 0.08367,0.0543 m -0.168442,-0.1091 0.08477,0.0548 m -0.167839,-0.11171 0.08307,0.0569 m -0.161541,-0.11756 0.07847,0.0607 m -0.149451,-0.12672 0.07098,0.066 m 0.191747,-1.44721 -0.09543,0.16904 -0.08776,0.16456 -0.07743,0.15842 -0.06444,0.1506 -0.0488,0.14112 -0.03048,0.12995 -0.0096,0.11713 0.01211,0.1038 0.03118,0.0919 0.04732,0.0817 0.0606,0.073 m 0.363158,-1.55301 -0.100434,0.17182 m 0.203219,-0.34477 -0.102785,0.17295 m 0.205762,-0.34566 -0.102977,0.17271 m 0.206438,-0.3453 -0.103461,0.17259 m 0.208445,-0.34566 -0.104984,0.17307 m 0.212531,-0.3472 -0.107547,0.17413 m 0.218697,-0.34991 -0.11115,0.17578 m 0.226941,-0.35381 -0.115791,0.17803 m 0.237263,-0.35888 -0.121472,0.18085 m 0.249664,-0.36513 -0.128192,0.18428 m 0.264143,-0.37257 -0.135951,0.18829 m 0.280176,-0.38069 -0.144225,0.1924 m 0.295956,-0.38789 -0.151731,0.19549 m 0.310011,-0.39283 -0.15828,0.19734 m 0.322148,-0.39531 -0.163868,0.19797 m 0.332366,-0.39537 -0.168498,0.1974 m 0.340666,-0.39299 -0.172168,0.19559 m 0.347048,-0.38815 -0.17488,0.19256 m 0.351511,-0.38089 -0.176631,0.18833 m 0.354069,-0.37121 -0.177438,0.18288 m 0.355221,-0.35955 -0.177783,0.17667 m 0.356085,-0.34699 -0.178302,0.17032 m 0.35734,-0.33417 -0.179038,0.16385 m 0.359026,-0.32111 -0.179988,0.15726 m 0.361142,-0.30782 -0.181154,0.15056 m 0.36369,-0.2943 -0.182536,0.14374 m 0.36667,-0.28055 -0.184134,0.13681 m 0.370081,-0.26656 -0.185947,0.12975 m 0.373898,-0.25234 -0.187951,0.12259 m 0.377766,-0.23783 -0.189815,0.11524 m 0.381125,-0.22292 -0.19131,0.10768 m 0.383738,-0.20758 -0.192428,0.0999 m 0.385598,-0.1918 -0.19317,0.0919 m 0.386707,-0.17559 -0.193537,0.0837 m 0.387065,-0.15895 -0.193528,0.0752 m 0.386672,-0.1418 -0.193144,0.0666 m 0.385526,-0.12434 -0.192382,0.0577 m 0.383677,-0.10646 -0.191295,0.0488 m 0.381466,-0.0891 -0.190171,0.0403 m 0.379288,-0.0729 -0.189117,0.0326 m 0.377252,-0.0582 -0.188135,0.0256 m 0.375361,-0.045 -0.187226,0.0194 m 0.373613,-0.0334 -0.186387,0.014 m 0.372006,-0.0233 -0.185619,0.009 m 0.370542,-0.0143 -0.184923,0.005 m 0.369223,-0.007 -0.1843,0.002 m 0.368092,-10e-4 -0.183792,-6.5e-4 m 0.367333,0.004 -0.183541,-0.004 m 0.36711,0.0113 -0.183569,-0.007 m 0.367447,0.0185 -0.183878,-0.0115 m 0.368346,0.0276 -0.184468,-0.0161 m 0.369804,0.0374 -0.185336,-0.0213 m 0.371822,0.0482 -0.186486,-0.0269 m 0.374403,0.06 -0.187917,-0.0331 m 0.377547,0.0729 -0.18963,-0.0398 m 0.38152,0.0866 -0.19189,-0.0468 m 0.386985,0.10076 -0.195095,-0.054 m 0.394378,0.11518 -0.199283,-0.0612 m 0.403734,0.12967 -0.204451,-0.0685 m 0.415052,0.14433 -0.210601,-0.0758 m 0.428334,0.15907 -0.217733,-0.0833 m 0.443579,0.17408 -0.225846,-0.0908 m 0.460786,0.18917 -0.23494,-0.0984 m 0.479908,0.20443 -0.244968,-0.10603 m 0.500055,0.21941 -0.255087,-0.11338 m 0.519681,0.23358 -0.264594,-0.1202 m 0.53806,0.24663 -0.273466,-0.12643 m 0.555169,0.25853 -0.281703,-0.1321 m 0.571009,0.2693 -0.289306,-0.1372 m 0.585579,0.27892 -0.296273,-0.14172 m 0.598879,0.28741 -0.302606,-0.14569 m 0.61091,0.29477 -0.308304,-0.14908 m 0.621771,0.30082 -0.313467,-0.15174 m 0.632292,0.30428 -0.318825,-0.15254 m 0.643534,0.30351 -0.324709,-0.15097 m 0.655829,0.29798 -0.33112,-0.14701 m 0.669176,0.28769 -0.338056,-0.14068 m 0.683575,0.27265 -0.345519,-0.13197 m 0.699029,0.25285 -0.35351,-0.12088 m 0.715535,0.22829 -0.362025,-0.10741 m 0.733092,0.19898 -0.371067,-0.0916 m 0.750842,0.16528 -0.379775,-0.0737 m 0.764803,0.12869 -0.385028,-0.055 m 0.771148,0.0908 -0.38612,-0.0358 m 0.769171,0.0518 -0.383051,-0.016 m 0.758875,0.0118 -0.375824,0.004 m 0.740259,-0.029 -0.364435,0.025 m 0.713321,-0.0713 -0.348886,0.0463 m 0.678064,-0.11449 -0.329178,0.0682 m 0.634506,-0.15875 -0.305328,0.0906 m 0.584693,-0.2027 -0.279365,0.1121 m 0.534414,-0.24249 -0.255049,0.13039 m 0.487837,-0.27554 -0.232788,0.14515 m 0.445371,-0.30154 -0.212583,0.15639 m 0.407017,-0.3205 -0.194434,0.16411 m 0.372774,-0.3324 -0.17834,0.16829 m 0.342642,-0.33724 -0.164302,0.16895 m 0.316622,-0.33504 -0.15232,0.16609 m 0.294675,-0.32586 -0.142355,0.15977 m 0.275866,-0.31138 -0.133511,0.15161 m 0.258409,-0.29487 -0.124898,0.14326 m 0.241371,-0.27802 -0.116473,0.13476 m 0.224711,-0.26088 -0.108238,0.12612 m 0.208432,-0.24348 -0.100194,0.11736 m 0.192533,-0.22581 -0.09234,0.10845 m 0.177014,-0.20786 -0.08467,0.0994 m 0.161869,-0.18962 -0.0772,0.0902 m 0.147181,-0.17119 -0.06998,0.081 m 0.133634,-0.15349 -0.06365,0.0725 m 0.122205,-0.13765 -0.05855,0.0652 m 0.113239,-0.12418 -0.05469,0.059 m 0.106744,-0.11297 -0.05205,0.054 m 0.102703,-0.10412 -0.05065,0.0501 m 0.101134,-0.0975 -0.05048,0.0474 m 0.102027,-0.0933 -0.05155,0.0459 m 0.105392,-0.0915 -0.05384,0.0456 m 0.11108,-0.0914 -0.05724,0.0458 m 0.118408,-0.09 -0.06117,0.0442 m 0.126636,-0.0841 -0.06547,0.0399 m 0.135605,-0.073 -0.07014,0.0331 m 0.145316,-0.0569 -0.07518,0.0238 m 0.155767,-0.0356 -0.08059,0.0118 m 0.166958,-0.009 -0.08637,-0.003 m 0.178892,0.0228 -0.09252,-0.0198 m 0.191564,0.0593 -0.09904,-0.0395 m 0.204617,0.0996 -0.105577,-0.0601 m 0.216897,0.13785 -0.11132,-0.0777 m 0.227484,0.16972 -0.116164,-0.092 m 0.236275,0.19488 -0.120111,-0.10288 m 0.243271,0.2132 -0.12316,-0.11032 m 0.248469,0.22469 -0.125309,-0.11437 m 0.251871,0.22939 -0.126562,-0.11502 m 0.253477,0.22727 -0.126915,-0.11225 m 0.253313,0.21841 -0.126398,-0.10616 m 0.252293,0.20504 -0.125895,-0.0989 m 0.252353,0.19194 -0.126458,-0.093 m 0.254606,0.18174 -0.128148,-0.0887 m 0.259115,0.17473 -0.130967,-0.086 m 0.265881,0.17086 -0.134914,-0.0849 m 0.274901,0.17018 -0.139987,-0.0853 m 0.286176,0.17255 -0.146189,-0.0873 m 0.299707,0.17809 -0.153518,-0.0908 m 0.315148,0.18664 -0.16163,-0.0958 m 0.328147,0.19749 -0.166517,-0.10169 m 0.33211,0.20959 -0.165593,-0.1079 m 0.324405,0.22234 -0.158812,-0.11444 m 0.304991,0.23578 -0.146179,-0.12134 m 0.273868,0.24992 -0.127689,-0.12858 m 0.231035,0.26475 -0.103346,-0.13617 m 0.176494,0.28028 -0.07315,-0.14411 m 0.110244,0.29649 -0.03709,-0.15238 m 0.03367,0.31322 0.0034,-0.16084 m -0.04428,0.32933 0.04088,-0.16849 m -0.113626,0.34354 0.07275,-0.17505 m -0.171768,0.35554 0.09902,-0.18049 m -0.218718,0.36531 0.119698,-0.18482 m -0.254482,0.37286 0.134784,-0.18804 m -0.279062,0.37819 0.144278,-0.19015 m -0.292455,0.38131 0.148177,-0.19116 m -0.294664,0.3822 0.146487,-0.19104 m -0.287534,0.38135 0.141047,-0.19031 m -0.277871,0.38052 0.136824,-0.19021 m -0.271469,0.38121 0.134645,-0.191 m -0.269155,0.38364 0.13451,-0.19264 m -0.27093,0.38779 0.13642,-0.19515 m -0.276795,0.39369 0.140375,-0.19854 m -0.28675,0.40132 0.146375,-0.20278 m -0.300793,0.41067 0.154418,-0.20789 m -0.318905,0.42175 0.164487,-0.21386 m -0.340117,0.43375 0.17563,-0.21989 m -0.362131,0.44472 0.186501,-0.22483 m -0.383499,0.45348 0.196998,-0.22865 m -0.404117,0.45994 0.207119,-0.23129 m -0.423984,0.46408 0.216865,-0.23279 m -0.443102,0.46594 0.226237,-0.23315 m -0.461471,0.46548 0.235234,-0.23233 m -0.47909,0.46271 0.243856,-0.23038 m -0.496016,0.45761 0.25216,-0.22723 m -0.513156,0.44935 0.260996,-0.22212 m -0.532015,0.43665 0.271019,-0.21453 m -0.553266,0.41893 0.282247,-0.2044 m -0.576926,0.39615 0.294679,-0.19175 m -0.602993,0.36835 0.308314,-0.1766 m -0.631467,0.3355 0.323153,-0.1589 m -0.66235,0.2976 0.339197,-0.1387 m -0.695642,0.25467 0.356445,-0.11597 m -0.730922,0.207 0.374477,-0.091 m -0.764989,0.15689 0.390512,-0.0659 m -0.793926,0.10729 0.403414,-0.0414 m -0.816594,0.0589 0.41318,-0.0175 m -0.832989,0.0118 0.419809,0.006 m -0.84311,-0.0343 0.423301,0.0283 m -0.846959,-0.0785 0.423658,0.0503 m -0.844536,-0.12185 0.420878,0.0716 m -0.835839,-0.16384 0.414961,0.0922 m -0.821555,-0.20408 0.406594,0.11188 m -0.804622,-0.24108 0.398028,0.1292 m -0.78775,-0.27312 0.389722,0.14392 m -0.771398,-0.29997 0.381676,0.15605 m -0.755565,-0.32163 0.373889,0.16558 m -0.740252,-0.33811 0.366363,0.17253 m -0.72546,-0.3494 0.359097,0.17687 m -0.711189,-0.35549 0.352092,0.17862 m -0.697436,-0.3564 0.345344,0.17778 m -0.684075,-0.35273 0.338731,0.17495 m -0.670773,-0.34605 0.332042,0.1711 m -0.657298,-0.33743 0.325256,0.16633 m -0.643632,-0.32698 0.318376,0.16065 m -0.629773,-0.31469 0.311397,0.15404 m -0.615719,-0.30056 0.304322,0.14652 m -0.601474,-0.28461 0.297152,0.13809 m -0.587036,-0.26682 0.289884,0.12873 m -0.572409,-0.2472 0.282525,0.11847 m -0.55767,-0.22587 0.275145,0.1074 m -0.542957,-0.20305 0.267812,0.0956 m -0.528339,-0.17881 0.260527,0.0832 m -0.51382,-0.15328 0.253293,0.0701 m -0.4994,-0.12636 0.246107,0.0563 m -0.485077,-0.0981 0.23897,0.0418 m -0.470853,-0.0684 0.231883,0.0266 m -0.456727,-0.0373 0.224844,0.0107 m -0.442732,-0.005 0.217888,-0.006 m -0.429172,0.0268 0.211284,-0.0208 m -0.416448,0.0548 0.205164,-0.034 m -0.404694,0.0791 0.19953,-0.0451 m -0.393911,0.0992 0.194381,-0.0541 m -0.3841,0.11529 0.189719,-0.0612 m -0.375261,0.12741 0.185542,-0.0662 m -0.367394,0.13539 0.181852,-0.0692 m -0.360497,0.13936 0.178645,-0.0702 m -3.441097,3.0798 1.117112,-1.26084 m -2.917113,0.0955 1.800001,1.16534 m -2.500401,-0.57253 0,0"
       sodipodi:nodetypes="cccccccccccccccccccccccccccccccccccccccccccccccccccccccccccccccccccccccccccccccccccccccccccccccccccccccccccccccccccccccccccccccccccccccccccccccccccccccccccccccccccccccccccccccccccccccccccccccccccccccccccccccccccccccccccccccccccccccccccccccccccccccccccccccccccccccccccccccccccccccccccccccccccccccccccccccccccccccccccccccccccccccccccccccccccccccccccccccccccccccccccccccccccccccccccccccccccccccccccccccccccccccccccccccccccccccccccccccccccccccccccccccccccccccccccccccccccccccccccccccccccccccccccccccccccccccccccccccccccccccccccccccccccccccccccccccccccccccccccccccccccccccccccccccccccccccccccccccccccccccccccccccccccccccccc" />
  </g>
  <g
     inkscape:groupmode="layer"
     id="layer1"
     inkscape:label="outline"
     style="display:none"
     sodipodi:insensitive="true">
    <path
       id="path2837"
       style="fill:none;stroke:#000000"
       d="m 0.00195363,875.19685 70.86418837,0 c 11.243059,27.92068 13.1738,59.5003 5.415841,88.58268 -7.252843,29.25074 -4.762437,60.83037 6.985734,88.58267 l -70.866142,0 C 0.65340408,1024.6099 -1.8370023,993.03027 5.415841,963.77953 13.1738,934.69715 11.245013,903.11753 0.00195363,875.19685 z"
       sodipodi:nodetypes="ccccccc" />
  </g>
</svg>
