999
dxflib 2.0.4.8
  0
SECTION
  2
HEADER
  9
$ACADVER
  1
AC1009
  9
$CLAYER
  8
0
  9
$DIMASZ
 40
2.5
  9
$DIMGAP
 40
0.625
  9
$DIMEXO
 40
0.625
  9
$DIMTXT
 40
2.5
  9
$DIMSTYLE
  2
Standard
  9
$PLIMMAX
 10
210.0
 20
297.0
  9
$PLIMMIN
 10
0.0
 20
0.0
  9
$DIMEXE
 40
1.25
  0
ENDSEC
  0
SECTION
  2
TABLES
  0
TABLE
  2
VPORT
 70
1
  0
VPORT
  2
*Active
 70
0
 10
0.0
 20
0.0
 11
1.0
 21
1.0
 12
286.3055555555554861
 22
148.5
 13
0.0
 23
0.0
 14
10.0
 24
10.0
 15
10.0
 25
10.0
 16
0.0
 26
0.0
 36
1.0
 17
0.0
 27
0.0
 37
0.0
 40
297.0
 41
1.92798353909465
 42
50.0
 43
0.0
 44
0.0
 50
0.0
 51
0.0
 71
0
 72
100
 73
1
 74
3
 75
1
 76
1
 77
0
 78
0
  0
ENDTAB
  0
TABLE
  2
LTYPE
 70
19
  0
LTYPE
  2
CONTINUOUS
 70
0
  3
Solid line
 72
65
 73
0
 40
0.0
  0
LTYPE
  2
DOT
 70
0
  3
Dot . . . . . . . . . . . . . . . . . . . . . .
 72
65
 73
2
 40
6.3499999999999996
 49
0.0
 49
-6.3499999999999996
  0
LTYPE
  2
DOT2
 70
0
  3
Dot (.5x) .....................................
 72
65
 73
2
 40
3.1749999999999998
 49
0.0
 49
-3.1749999999999998
  0
LTYPE
  2
DOTX2
 70
0
  3
Dot (2x) .  .  .  .  .  .  .  .  .  .  .  .  .
 72
65
 73
2
 40
12.6999999999999993
 49
0.0
 49
-12.6999999999999993
  0
LTYPE
  2
DASHED
 70
0
  3
Dashed __ __ __ __ __ __ __ __ __ __ __ __ __ _
 72
65
 73
2
 40
19.0500000000000007
 49
12.6999999999999993
 49
-6.3499999999999996
  0
LTYPE
  2
DASHED2
 70
0
  3
Dashed (.5x) _ _ _ _ _ _ _ _ _ _ _ _ _ _ _ _ _
 72
65
 73
2
 40
9.5250000000000004
 49
6.3499999999999996
 49
-3.1749999999999998
  0
LTYPE
  2
DASHEDX2
 70
0
  3
Dashed (2x) ____  ____  ____  ____  ____  ___
 72
65
 73
2
 40
38.1000000000000014
 49
25.3999999999999986
 49
-12.6999999999999993
  0
LTYPE
  2
DASHDOT
 70
0
  3
Dash dot __ . __ . __ . __ . __ . __ . __ . __
 72
65
 73
4
 40
25.3999999999999986
 49
12.6999999999999993
 49
-6.3499999999999996
 49
0.0
 49
-6.3499999999999996
  0
LTYPE
  2
DASHDOT2
 70
0
  3
Dash dot (.5x) _._._._._._._._._._._._._._._.
 72
65
 73
4
 40
12.6999999999999993
 49
6.3499999999999996
 49
-3.1749999999999998
 49
0.0
 49
-3.1749999999999998
  0
LTYPE
  2
DASHDOTX2
 70
0
  3
Dash dot (2x) ____  .  ____  .  ____  .  ___
 72
65
 73
4
 40
50.7999999999999972
 49
25.3999999999999986
 49
-12.6999999999999993
 49
0.0
 49
-12.6999999999999993
  0
LTYPE
  2
DIVIDE
 70
0
  3
Divide ____ . . ____ . . ____ . . ____ . . ____
 72
65
 73
6
 40
31.75
 49
12.6999999999999993
 49
-6.3499999999999996
 49
0.0
 49
-6.3499999999999996
 49
0.0
 49
-6.3499999999999996
  0
LTYPE
  2
DIVIDE2
 70
0
  3
Divide (.5x) __..__..__..__..__..__..__..__.._
 72
65
 73
6
 40
15.875
 49
6.3499999999999996
 49
-3.1749999999999998
 49
0.0
 49
-3.1749999999999998
 49
0.0
 49
-3.1749999999999998
  0
LTYPE
  2
DIVIDEX2
 70
0
  3
Divide (2x) ________  .  .  ________  .  .  _
 72
65
 73
6
 40
63.5
 49
25.3999999999999986
 49
-12.6999999999999993
 49
0.0
 49
-12.6999999999999993
 49
0.0
 49
-12.6999999999999993
  0
LTYPE
  2
CENTER
 70
0
  3
Center ____ _ ____ _ ____ _ ____ _ ____ _ ____
 72
65
 73
4
 40
50.7999999999999972
 49
31.75
 49
-6.3499999999999996
 49
6.3499999999999996
 49
-6.3499999999999996
  0
LTYPE
  2
CENTER2
 70
0
  3
Center (.5x) ___ _ ___ _ ___ _ ___ _ ___ _ ___
 72
65
 73
4
 40
28.5749999999999993
 49
19.0500000000000007
 49
-3.1749999999999998
 49
3.1749999999999998
 49
-3.1749999999999998
  0
LTYPE
  2
CENTERX2
 70
0
  3
Center (2x) ________  __  ________  __  _____
 72
65
 73
4
 40
101.5999999999999943
 49
63.5
 49
-12.6999999999999993
 49
12.6999999999999993
 49
-12.6999999999999993
  0
LTYPE
  2
BORDER
 70
0
  3
Border __ __ . __ __ . __ __ . __ __ . __ __ .
 72
65
 73
6
 40
44.4500000000000028
 49
12.6999999999999993
 49
-6.3499999999999996
 49
12.6999999999999993
 49
-6.3499999999999996
 49
0.0
 49
-6.3499999999999996
  0
LTYPE
  2
BORDER2
 70
0
  3
Border (.5x) __.__.__.__.__.__.__.__.__.__.__.
 72
65
 73
6
 40
22.2250000000000014
 49
6.3499999999999996
 49
-3.1749999999999998
 49
6.3499999999999996
 49
-3.1749999999999998
 49
0.0
 49
-3.1749999999999998
  0
LTYPE
  2
BORDERX2
 70
0
  3
Border (2x) ____  ____  .  ____  ____  .  ___
 72
65
 73
6
 40
88.9000000000000057
 49
25.3999999999999986
 49
-12.6999999999999993
 49
25.3999999999999986
 49
-12.6999999999999993
 49
0.0
 49
-12.6999999999999993
  0
ENDTAB
  0
TABLE
  2
LAYER
 70
4
  0
LAYER
  2
0
 70
0
 62
7
  6
CONTINUOUS
  0
LAYER
  2
dimentions
 70
0
 62
1
  6
CONTINUOUS
  0
LAYER
  2
logo placements
 70
0
 62
3
  6
CONTINUOUS
  0
LAYER
  2
Layer_1
 70
0
 62
7
  6
CONTINUOUS
  0
ENDTAB
  0
TABLE
  2
STYLE
 70
1
  0
STYLE
  2
Standard
 70
0
 40
0.0
 41
0.75
 50
0.0
 71
0
 42
2.5
  3
txt
  4

  0
ENDTAB
  0
TABLE
  2
VIEW
 70
0
  0
ENDTAB
  0
TABLE
  2
UCS
 70
0
  0
ENDTAB
  0
TABLE
  2
APPID
 70
1
  0
APPID
  2
ACAD
 70
0
  0
ENDTAB
  0
TABLE
  2
DIMSTYLE
 70
1
  0
DIMSTYLE
  2
Standard
  3

  4

  5

  6

  7

 40
1.0
 41
2.5
 42
0.625
 43
3.75
 44
1.25
 45
0.0
 46
0.0
 47
0.0
 48
0.0
 70
0
 71
0
 72
0
 73
0
 74
0
 75
0
 76
0
 77
1
 78
8
140
2.5
141
2.5
142
0.0
143
0.03937007874016
144
1.0
145
0.0
146
1.0
147
0.625
170
0
171
3
172
1
173
0
174
0
175
0
176
0
177
0
178
0
  0
ENDTAB
  0
ENDSEC
  0
SECTION
  2
BLOCKS
  0
ENDSEC
  0
SECTION
  2
ENTITIES
  0
ARC
  8
0
 10
60.014236111626488
 20
15.4572937749537118
 30
0.0
 40
39.6511963280260034
 50
166.0741325623266391
 51
202.9440290874339894
  0
ARC
  8
0
 10
-16.7357638883735405
 20
35.2072937532875301
 30
0.0
 40
39.6022790576988726
 50
345.0636920176972922
 51
21.9335907842780387
  0
LINE
  8
0
 10
0.0
 20
50.0
 30
0.0
 11
20.0
 21
50.0
 31
0.0
  0
LINE
  8
0
 10
3.5000001556752096
 20
-0.0000003865992113
 30
0.0
 11
23.5000001556752238
 21
-0.0000003865992113
 31
0.0
  0
ARC
  8
0
 10
40.014236111626488
 20
15.4572937749537118
 30
0.0
 40
39.6511963280260034
 50
166.0741325623266391
 51
202.9440290874339894
  0
ARC
  8
0
 10
-36.7357638883735333
 20
35.2072937532875301
 30
0.0
 40
39.6022790576988726
 50
345.0636920176972922
 51
21.9335907842780387
  0
LINE
  8
0
 62
7
 10
11.5286629999999946
 20
8.794500199999991
 30
0.0
 11
11.5503332000000007
 21
15.5890000999999856
 31
0.0
  0
LINE
  8
0
 62
7
 10
11.5503332000000007
 20
15.5890000999999856
 30
0.0
 11
12.2276666000000027
 21
15.7221400999999954
 31
0.0
  0
LINE
  8
0
 62
7
 10
12.1711931000000053
 20
30.052889599999979
 30
0.0
 11
11.5503332000000078
 21
30.1568374999999911
 31
0.0
  0
LINE
  8
0
 62
7
 10
11.5503332000000078
 20
30.1568374999999911
 30
0.0
 11
11.5286714000000092
 21
37.0757524999999859
 31
0.0
  0
LINE
  8
0
 62
7
 10
11.5286714000000092
 20
37.0757524999999859
 30
0.0
 11
11.5070102000000052
 21
43.9946668999999915
 31
0.0
  0
LINE
  8
0
 62
7
 10
11.5070102000000052
 20
43.9946668999999915
 30
0.0
 11
11.0000000000000089
 21
43.9946668999999915
 31
0.0
  0
LINE
  8
0
 62
7
 10
11.0000000000000089
 20
43.9946668999999915
 30
0.0
 11
10.4929898000000055
 21
43.9946668999999915
 31
0.0
  0
LINE
  8
0
 62
7
 10
10.4929898000000055
 20
43.9946668999999915
 30
0.0
 11
10.4713286000000014
 21
37.0756195999999889
 31
0.0
  0
LINE
  8
0
 62
7
 10
10.4713286000000014
 20
37.0756195999999889
 30
0.0
 11
10.4496665000000082
 21
30.1565731999999969
 31
0.0
  0
LINE
  8
0
 62
7
 10
10.4496665000000082
 20
30.1565731999999969
 30
0.0
 11
9.7833968000000073
 21
30.0454432999999881
 31
0.0
  0
LINE
  8
0
 62
7
 10
12.2276666000000027
 20
15.7221400999999954
 30
0.0
 11
12.3015505348415228
 21
15.7369504951570089
 31
0.0
  0
LINE
  8
0
 62
7
 10
12.3015505348415228
 20
15.7369504951570089
 30
0.0
 11
12.3742724031442783
 21
15.7516252316819312
 31
0.0
  0
LINE
  8
0
 62
7
 10
12.3742724031442783
 20
15.7516252316819312
 30
0.0
 11
12.4459526484747176
 21
15.7662854714496898
 31
0.0
  0
LINE
  8
0
 62
7
 10
12.4459526484747176
 20
15.7662854714496898
 30
0.0
 11
12.5167117143992996
 21
15.7810523763352233
 31
0.0
  0
LINE
  8
0
 62
7
 10
12.5167117143992996
 20
15.7810523763352233
 30
0.0
 11
12.586670044484471
 21
15.7960471082134628
 31
0.0
  0
LINE
  8
0
 62
7
 10
12.586670044484471
 20
15.7960471082134628
 30
0.0
 11
12.6559480822966908
 21
15.8113908289593379
 31
0.0
  0
LINE
  8
0
 62
7
 10
12.6559480822966908
 20
15.8113908289593379
 30
0.0
 11
12.7246662714024055
 21
15.8272047004477852
 31
0.0
  0
LINE
  8
0
 62
7
 10
12.7246662714024055
 20
15.8272047004477852
 30
0.0
 11
12.7929450553680741
 21
15.8436098845537359
 31
0.0
  0
LINE
  8
0
 62
7
 10
12.7929450553680741
 20
15.8436098845537359
 30
0.0
 11
12.8609048777601433
 21
15.8607275431521249
 31
0.0
  0
LINE
  8
0
 62
7
 10
12.8609048777601433
 20
15.8607275431521249
 30
0.0
 11
12.9286662676116055
 21
15.8786788706220552
 31
0.0
  0
LINE
  8
0
 62
7
 10
12.9286662676116055
 20
15.8786788706220552
 30
0.0
 11
12.9965371820658504
 21
15.8976563429944537
 31
0.0
  0
LINE
  8
0
 62
7
 10
12.9965371820658504
 20
15.8976563429944537
 30
0.0
 11
13.065410425762618
 21
15.9180748623574342
 31
0.0
  0
LINE
  8
0
 62
7
 10
13.065410425762618
 20
15.9180748623574342
 30
0.0
 11
13.1362925592992159
 21
15.9403925938536322
 31
0.0
  0
LINE
  8
0
 62
7
 10
13.1362925592992159
 20
15.9403925938536322
 30
0.0
 11
13.2101901432729534
 21
15.9650677026256815
 31
0.0
  0
LINE
  8
0
 62
7
 10
13.2101901432729534
 20
15.9650677026256815
 30
0.0
 11
13.288109738281138
 21
15.9925583538162215
 31
0.0
  0
LINE
  8
0
 62
7
 10
13.288109738281138
 20
15.9925583538162215
 30
0.0
 11
13.3710579049210825
 21
16.0233227125678894
 31
0.0
  0
LINE
  8
0
 62
7
 10
13.3710579049210825
 20
16.0233227125678894
 30
0.0
 11
13.4600412037900927
 21
16.0578189440233174
 31
0.0
  0
LINE
  8
0
 62
7
 10
13.4600412037900927
 20
16.0578189440233174
 30
0.0
 11
13.5560661954854744
 21
16.0965052133251483
 31
0.0
  0
LINE
  8
0
 62
7
 10
13.5560661954854744
 20
16.0965052133251483
 30
0.0
 11
13.6601394406045422
 21
16.1398396856160105
 31
0.0
  0
LINE
  8
0
 62
7
 10
13.6601394406045422
 20
16.1398396856160105
 30
0.0
 11
13.7732664717416622
 21
16.1882807676233469
 31
0.0
  0
LINE
  8
0
 62
7
 10
13.7732664717416622
 20
16.1882807676233469
 30
0.0
 11
13.8961043284958325
 21
16.2423687633217924
 31
0.0
  0
LINE
  8
0
 62
7
 10
13.8961043284958325
 20
16.2423687633217924
 30
0.0
 11
14.0284557800260448
 21
16.3028447336548012
 31
0.0
  0
LINE
  8
0
 62
7
 10
14.0284557800260448
 20
16.3028447336548012
 30
0.0
 11
14.1699950951242659
 21
16.3704799376658201
 31
0.0
  0
LINE
  8
0
 62
7
 10
14.1699950951242659
 20
16.3704799376658201
 30
0.0
 11
14.3203965425824578
 21
16.4460456343982919
 31
0.0
  0
LINE
  8
0
 62
7
 10
14.3203965425824578
 20
16.4460456343982919
 30
0.0
 11
14.4793343911925891
 21
16.5303130828956739
 31
0.0
  0
LINE
  8
0
 62
7
 10
14.4793343911925891
 20
16.5303130828956739
 30
0.0
 11
14.6464829097466271
 21
16.6240535422014126
 31
0.0
  0
LINE
  8
0
 62
7
 10
14.6464829097466271
 20
16.6240535422014126
 30
0.0
 11
14.8215163670365317
 21
16.7280382713589582
 31
0.0
  0
LINE
  8
0
 62
7
 10
14.8215163670365317
 20
16.7280382713589582
 30
0.0
 11
15.0041090318542736
 21
16.8430385294117606
 31
0.0
  0
LINE
  8
0
 62
7
 10
15.0041090318542736
 20
16.8430385294117606
 30
0.0
 11
15.193935172991818
 21
16.9698255754032665
 31
0.0
  0
LINE
  8
0
 62
7
 10
15.193935172991818
 20
16.9698255754032665
 30
0.0
 11
15.3906650107400047
 21
17.1091705589867722
 31
0.0
  0
LINE
  8
0
 62
7
 10
15.3906650107400047
 20
17.1091705589867722
 30
0.0
 11
15.5934788967540854
 21
17.2618313936071281
 31
0.0
  0
LINE
  8
0
 62
7
 10
15.5934788967540854
 20
17.2618313936071281
 30
0.0
 11
15.8006057849259438
 21
17.4285402860233347
 31
0.0
  0
LINE
  8
0
 62
7
 10
15.8006057849259438
 20
17.4285402860233347
 30
0.0
 11
16.0101653196172116
 21
17.6100264894602816
 31
0.0
  0
LINE
  8
0
 62
7
 10
16.0101653196172116
 20
17.6100264894602816
 30
0.0
 11
16.2202771451895167
 21
17.8070192571428549
 31
0.0
  0
LINE
  8
0
 62
7
 10
16.2202771451895167
 20
17.8070192571428549
 30
0.0
 11
16.4290609060044872
 21
18.0202478422959445
 31
0.0
  0
LINE
  8
0
 62
7
 10
16.4290609060044872
 20
18.0202478422959445
 30
0.0
 11
16.6346362464237636
 21
18.2504414981444398
 31
0.0
  0
LINE
  8
0
 62
7
 10
16.6346362464237636
 20
18.2504414981444398
 30
0.0
 11
16.8351228108089614
 21
18.4983294779132272
 31
0.0
  0
LINE
  8
0
 62
7
 10
16.8351228108089614
 20
18.4983294779132272
 30
0.0
 11
17.0286402435217212
 21
18.7646410348271999
 31
0.0
  0
LINE
  8
0
 62
7
 10
17.0286402435217212
 20
18.7646410348271999
 30
0.0
 11
17.2133081889236657
 21
19.0501054221112405
 31
0.0
  0
LINE
  8
0
 62
7
 10
17.2133081889236657
 20
19.0501054221112405
 30
0.0
 11
17.387252509147455
 21
19.3554288131408043
 31
0.0
  0
LINE
  8
0
 62
7
 10
17.387252509147455
 20
19.3554288131408043
 30
0.0
 11
17.5489721325871422
 21
19.67993259032502
 31
0.0
  0
LINE
  8
0
 62
7
 10
17.5489721325871422
 20
19.67993259032502
 30
0.0
 11
17.6975442403419585
 21
20.020791710075251
 31
0.0
  0
LINE
  8
0
 62
7
 10
17.6975442403419585
 20
20.020791710075251
 30
0.0
 11
17.832095755679326
 21
20.3749964900073373
 31
0.0
  0
LINE
  8
0
 62
7
 10
17.832095755679326
 20
20.3749964900073373
 30
0.0
 11
17.9517536018666561
 21
20.7395372477371254
 31
0.0
  0
LINE
  8
0
 62
7
 10
17.9517536018666561
 20
20.7395372477371254
 30
0.0
 11
18.055644702171378
 21
21.1114043008804657
 31
0.0
  0
LINE
  8
0
 62
7
 10
18.055644702171378
 20
21.1114043008804657
 30
0.0
 11
18.1428959798608993
 21
21.487587967053198
 31
0.0
  0
LINE
  8
0
 62
7
 10
18.1428959798608993
 20
21.487587967053198
 30
0.0
 11
18.2126343582026458
 21
21.8650785638711689
 31
0.0
  0
LINE
  8
0
 62
7
 10
18.2126343582026458
 20
21.8650785638711689
 30
0.0
 11
18.2639867604640358
 21
22.2408664089502324
 31
0.0
  0
LINE
  8
0
 62
7
 10
18.2639867604640358
 20
22.2408664089502324
 30
0.0
 11
18.2960801099124879
 21
22.6119418199062245
 31
0.0
  0
LINE
  8
0
 62
7
 10
18.2960801099124879
 20
22.6119418199062245
 30
0.0
 11
18.3080711175683817
 21
22.975325090636165
 31
0.0
  0
LINE
  8
0
 62
7
 10
18.3080711175683817
 20
22.975325090636165
 30
0.0
 11
18.3001681212828089
 21
23.3290947976674907
 31
0.0
  0
LINE
  8
0
 62
7
 10
18.3001681212828089
 20
23.3290947976674907
 30
0.0
 11
18.2738870221110403
 21
23.6726453563658765
 31
0.0
  0
LINE
  8
0
 62
7
 10
18.2738870221110403
 20
23.6726453563658765
 30
0.0
 11
18.2308254587024834
 21
24.0054534370125161
 31
0.0
  0
LINE
  8
0
 62
7
 10
18.2308254587024834
 20
24.0054534370125161
 30
0.0
 11
18.1725810697065491
 21
24.3269957098886174
 31
0.0
  0
LINE
  8
0
 62
7
 10
18.1725810697065491
 20
24.3269957098886174
 30
0.0
 11
18.1007514937726448
 21
24.6367488452753776
 31
0.0
  0
LINE
  8
0
 62
7
 10
18.1007514937726448
 20
24.6367488452753776
 30
0.0
 11
18.0169343695501851
 21
24.934189513454001
 31
0.0
  0
LINE
  8
0
 62
7
 10
18.0169343695501851
 20
24.934189513454001
 30
0.0
 11
17.9227273356885739
 21
25.2187943847056886
 31
0.0
  0
LINE
  8
0
 62
7
 10
17.9227273356885739
 20
25.2187943847056886
 30
0.0
 11
17.8197280308372221
 21
25.4900401293116374
 31
0.0
  0
LINE
  8
0
 62
7
 10
17.8197280308372221
 20
25.4900401293116374
 30
0.0
 11
17.7095340936455372
 21
25.7474034175530555
 31
0.0
  0
LINE
  8
0
 62
7
 10
17.7095340936455372
 20
25.7474034175530555
 30
0.0
 11
17.5937303341887734
 21
25.990384345168323
 31
0.0
  0
LINE
  8
0
 62
7
 10
17.5937303341887734
 20
25.990384345168323
 30
0.0
 11
17.4736065053365444
 21
26.2190217934110201
 31
0.0
  0
LINE
  8
0
 62
7
 10
17.4736065053365444
 20
26.2190217934110201
 30
0.0
 11
17.3501573027528089
 21
26.4338934290499168
 31
0.0
  0
LINE
  8
0
 62
7
 10
17.3501573027528089
 20
26.4338934290499168
 30
0.0
 11
17.2243645935273904
 21
26.6356003443109763
 31
0.0
  0
LINE
  8
0
 62
7
 10
17.2243645935273904
 20
26.6356003443109763
 30
0.0
 11
17.0972102447500944
 21
26.8247436314201479
 31
0.0
  0
LINE
  8
0
 62
7
 10
17.0972102447500944
 20
26.8247436314201479
 30
0.0
 11
16.9696761235107338
 21
27.001924382603395
 31
0.0
  0
LINE
  8
0
 62
7
 10
16.9696761235107338
 20
27.001924382603395
 30
0.0
 11
16.8427440968991213
 21
27.1677436900866667
 31
0.0
  0
LINE
  8
0
 62
7
 10
16.8427440968991213
 20
27.1677436900866667
 30
0.0
 11
16.7173960320050661
 21
27.3228026460959228
 31
0.0
  0
LINE
  8
0
 62
7
 10
16.7173960320050661
 20
27.3228026460959228
 30
0.0
 11
16.5946137959183844
 21
27.4677023428571196
 31
0.0
  0
LINE
  8
0
 62
7
 10
16.5946137959183844
 20
27.4677023428571196
 30
0.0
 11
16.4753792557288818
 21
27.6030438725962135
 31
0.0
  0
LINE
  8
0
 62
7
 10
16.4753792557288818
 20
27.6030438725962135
 30
0.0
 11
16.3606244342764242
 21
27.7294301820069009
 31
0.0
  0
LINE
  8
0
 62
7
 10
16.3606244342764242
 20
27.7294301820069009
 30
0.0
 11
16.250483991720202
 21
27.847493883860075
 31
0.0
  0
LINE
  8
0
 62
7
 10
16.250483991720202
 20
27.847493883860075
 30
0.0
 11
16.1444512976216643
 21
27.9578914503031264
 31
0.0
  0
LINE
  8
0
 62
7
 10
16.1444512976216643
 20
27.9578914503031264
 30
0.0
 11
16.0420015567281347
 21
28.0612800293098559
 31
0.0
  0
LINE
  8
0
 62
7
 10
16.0420015567281347
 20
28.0612800293098559
 30
0.0
 11
15.94260997378694
 21
28.1583167688540748
 31
0.0
  0
LINE
  8
0
 62
7
 10
15.94260997378694
 20
28.1583167688540748
 30
0.0
 11
15.8457517535454091
 21
28.2496588169096015
 31
0.0
  0
LINE
  8
0
 62
7
 10
15.8457517535454091
 20
28.2496588169096015
 30
0.0
 11
15.7509021007508654
 21
28.3359633214502402
 31
0.0
  0
LINE
  8
0
 62
7
 10
15.7509021007508654
 20
28.3359633214502402
 30
0.0
 11
15.6575362201506376
 21
28.4178874304498095
 31
0.0
  0
LINE
  8
0
 62
7
 10
15.6575362201506376
 20
28.4178874304498095
 30
0.0
 11
15.5651293164920528
 21
28.4960882918821135
 31
0.0
  0
LINE
  8
0
 62
7
 10
15.5651293164920528
 20
28.4960882918821135
 30
0.0
 11
15.4731565945224343
 21
28.5712230537209635
 31
0.0
  0
LINE
  8
0
 62
7
 10
15.4731565945224343
 20
28.5712230537209635
 30
0.0
 11
15.3811248801334663
 21
28.6439160472594985
 31
0.0
  0
LINE
  8
0
 62
7
 10
15.3811248801334663
 20
28.6439160472594985
 30
0.0
 11
15.2889085950199544
 21
28.714410109877921
 31
0.0
  0
LINE
  8
0
 62
7
 10
15.2889085950199544
 20
28.714410109877921
 30
0.0
 11
15.1966193194593693
 21
28.7827019538513369
 31
0.0
  0
LINE
  8
0
 62
7
 10
15.1966193194593693
 20
28.7827019538513369
 30
0.0
 11
15.1043725863722251
 21
28.8487841893697698
 31
0.0
  0
LINE
  8
0
 62
7
 10
15.1043725863722251
 20
28.8487841893697698
 30
0.0
 11
15.0122839286790342
 21
28.9126494266232257
 31
0.0
  0
LINE
  8
0
 62
7
 10
15.0122839286790342
 20
28.9126494266232257
 30
0.0
 11
14.9204688793003122
 21
28.9742902758017316
 31
0.0
  0
LINE
  8
0
 62
7
 10
14.9204688793003122
 20
28.9742902758017316
 30
0.0
 11
14.8290429711565697
 21
29.0336993470952969
 31
0.0
  0
LINE
  8
0
 62
7
 10
14.8290429711565697
 20
29.0336993470952969
 30
0.0
 11
14.7381217371683224
 21
29.0908692506939524
 31
0.0
  0
LINE
  8
0
 62
7
 10
14.7381217371683224
 20
29.0908692506939524
 30
0.0
 11
14.6478207102560845
 21
29.1457925967877003
 31
0.0
  0
LINE
  8
0
 62
7
 10
14.6478207102560845
 20
29.1457925967877003
 30
0.0
 11
14.5582554233403698
 21
29.1984619955665714
 31
0.0
  0
LINE
  8
0
 62
7
 10
14.5582554233403698
 20
29.1984619955665714
 30
0.0
 11
14.4695331717700437
 21
29.2488777054394369
 31
0.0
  0
LINE
  8
0
 62
7
 10
14.4695331717700437
 20
29.2488777054394369
 30
0.0
 11
14.381689553511114
 21
29.2971065526460244
 31
0.0
  0
LINE
  8
0
 62
7
 10
14.381689553511114
 20
29.2971065526460244
 30
0.0
 11
14.2947232500047985
 21
29.3432496387772446
 31
0.0
  0
LINE
  8
0
 62
7
 10
14.2947232500047985
 20
29.3432496387772446
 30
0.0
 11
14.2086326375970664
 21
29.387408348691384
 31
0.0
  0
LINE
  8
0
 62
7
 10
14.2086326375970664
 20
29.387408348691384
 30
0.0
 11
14.1234160926338923
 21
29.4296840672467255
 31
0.0
  0
LINE
  8
0
 62
7
 10
14.1234160926338923
 20
29.4296840672467255
 30
0.0
 11
14.0390719914612436
 21
29.470178179301552
 31
0.0
  0
LINE
  8
0
 62
7
 10
14.0390719914612436
 20
29.470178179301552
 30
0.0
 11
13.9555987104250914
 21
29.5089920697141501
 31
0.0
  0
LINE
  8
0
 62
7
 10
13.9555987104250914
 20
29.5089920697141501
 30
0.0
 11
13.8729946258714101
 21
29.5462271233427991
 31
0.0
  0
LINE
  8
0
 62
7
 10
13.8729946258714101
 20
29.5462271233427991
 30
0.0
 11
13.7912581141461654
 21
29.5819847250457819
 31
0.0
  0
LINE
  8
0
 62
7
 10
13.7912581141461654
 20
29.5819847250457819
 30
0.0
 11
13.710387551595332
 21
29.616366259681385
 31
0.0
  0
LINE
  8
0
 62
7
 10
13.710387551595332
 20
29.616366259681385
 30
0.0
 11
13.6303734076700405
 21
29.649462498183631
 31
0.0
  0
LINE
  8
0
 62
7
 10
13.6303734076700405
 20
29.649462498183631
 30
0.0
 11
13.5511535867845332
 21
29.6812936501180182
 31
0.0
  0
LINE
  8
0
 62
7
 10
13.5511535867845332
 20
29.6812936501180182
 30
0.0
 11
13.4726445498542517
 21
29.7118511400874539
 31
0.0
  0
LINE
  8
0
 62
7
 10
13.4726445498542517
 20
29.7118511400874539
 30
0.0
 11
13.3947626945394695
 21
29.7411263077834391
 31
0.0
  0
LINE
  8
0
 62
7
 10
13.3947626945394695
 20
29.7411263077834391
 30
0.0
 11
13.3174244185004724
 21
29.7691104928974859
 31
0.0
  0
LINE
  8
0
 62
7
 10
13.3174244185004724
 20
29.7691104928974859
 30
0.0
 11
13.2405461193975391
 21
29.7957950351210954
 31
0.0
  0
LINE
  8
0
 62
7
 10
13.2405461193975391
 20
29.7957950351210954
 30
0.0
 11
13.1640441948909519
 21
29.8211712741457831
 31
0.0
  0
LINE
  8
0
 62
7
 10
13.1640441948909519
 20
29.8211712741457831
 30
0.0
 11
13.0878350426409842
 21
29.8452305496630501
 31
0.0
  0
LINE
  8
0
 62
7
 10
13.0878350426409842
 20
29.8452305496630501
 30
0.0
 11
13.0118350603079236
 21
29.8679642013644013
 31
0.0
  0
LINE
  8
0
 62
7
 10
13.0118350603079236
 20
29.8679642013644013
 30
0.0
 11
12.9359606455520471
 21
29.8893635689413486
 31
0.0
  0
LINE
  8
0
 62
7
 10
12.9359606455520471
 20
29.8893635689413486
 30
0.0
 11
12.8601325108311695
 21
29.9094395983930212
 31
0.0
  0
LINE
  8
0
 62
7
 10
12.8601325108311695
 20
29.9094395983930212
 30
0.0
 11
12.7842935520437777
 21
29.9283040365923831
 31
0.0
  0
LINE
  8
0
 62
7
 10
12.7842935520437777
 20
29.9283040365923831
 30
0.0
 11
12.708393774292718
 21
29.9461009344188795
 31
0.0
  0
LINE
  8
0
 62
7
 10
12.708393774292718
 20
29.9461009344188795
 30
0.0
 11
12.632383185922599
 21
29.9629743574824587
 31
0.0
  0
LINE
  8
0
 62
7
 10
12.632383185922599
 20
29.9629743574824587
 30
0.0
 11
12.5562117952780383
 21
29.9790683713930761
 31
0.0
  0
LINE
  8
0
 62
7
 10
12.5562117952780383
 20
29.9790683713930761
 30
0.0
 11
12.4798296107036446
 21
29.9945270417606764
 31
0.0
  0
LINE
  8
0
 62
7
 10
12.4798296107036446
 20
29.9945270417606764
 30
0.0
 11
12.4031866405440319
 21
30.009494434195215
 31
0.0
  0
LINE
  8
0
 62
7
 10
12.4031866405440319
 20
30.009494434195215
 30
0.0
 11
12.3262328931438176
 21
30.0241146143066473
 31
0.0
  0
LINE
  8
0
 62
7
 10
12.3262328931438176
 20
30.0241146143066473
 30
0.0
 11
12.2489183768476106
 21
30.0385316477049145
 31
0.0
  0
LINE
  8
0
 62
7
 10
12.2489183768476106
 20
30.0385316477049145
 30
0.0
 11
12.1711931000000053
 21
30.052889599999979
 31
0.0
  0
LINE
  8
0
 62
7
 10
10.1956667000000074
 20
15.6353077999999925
 30
0.0
 11
10.4496665000000082
 21
15.5782456999999894
 31
0.0
  0
LINE
  8
0
 62
7
 10
10.4496665000000082
 20
15.5782456999999894
 30
0.0
 11
10.4713370000000019
 21
8.7891229999999894
 31
0.0
  0
LINE
  8
0
 62
7
 10
10.4713370000000019
 20
8.7891229999999894
 30
0.0
 11
10.4930075000000045
 21
1.9999999999999964
 31
0.0
  0
LINE
  8
0
 62
7
 10
10.4930075000000045
 20
1.9999999999999964
 30
0.0
 11
11.0
 21
2.0
 31
0.0
  0
LINE
  8
0
 62
7
 10
11.0
 20
2.0
 30
0.0
 11
11.5069924999999902
 21
1.9999999999999929
 31
0.0
  0
LINE
  8
0
 62
7
 10
11.5069924999999902
 20
1.9999999999999929
 30
0.0
 11
11.5286629999999946
 21
8.794500199999991
 31
0.0
  0
LINE
  8
0
 62
7
 10
9.7833968000000073
 20
30.0454432999999881
 30
0.0
 11
9.6906980945982859
 21
30.0254504391883827
 31
0.0
  0
LINE
  8
0
 62
7
 10
9.6906980945982859
 20
30.0254504391883827
 30
0.0
 11
9.5973978690474127
 21
30.0051369316947145
 31
0.0
  0
LINE
  8
0
 62
7
 10
9.5973978690474127
 20
30.0051369316947145
 30
0.0
 11
9.5036228860303904
 21
29.9843389281505885
 31
0.0
  0
LINE
  8
0
 62
7
 10
9.5036228860303904
 20
29.9843389281505885
 30
0.0
 11
9.4094999082302273
 21
29.96289257918761
 31
0.0
  0
LINE
  8
0
 62
7
 10
9.4094999082302273
 20
29.96289257918761
 30
0.0
 11
9.315155698329928
 21
29.9406340354373874
 31
0.0
  0
LINE
  8
0
 62
7
 10
9.315155698329928
 20
29.9406340354373874
 30
0.0
 11
9.2207170190125023
 21
29.9173994475315261
 31
0.0
  0
LINE
  8
0
 62
7
 10
9.2207170190125023
 20
29.9173994475315261
 30
0.0
 11
9.1263106329609514
 21
29.8930249661016347
 31
0.0
  0
LINE
  8
0
 62
7
 10
9.1263106329609514
 20
29.8930249661016347
 30
0.0
 11
9.0320633028582851
 21
29.8673467417793113
 31
0.0
  0
LINE
  8
0
 62
7
 10
9.0320633028582851
 20
29.8673467417793113
 30
0.0
 11
8.938101791387508
 21
29.8402009251961715
 31
0.0
  0
LINE
  8
0
 62
7
 10
8.938101791387508
 20
29.8402009251961715
 30
0.0
 11
8.8445330062344745
 21
29.8114542914403309
 31
0.0
  0
LINE
  8
0
 62
7
 10
8.8445330062344745
 20
29.8114542914403309
 30
0.0
 11
8.7513580119423349
 21
29.7811368686438058
 31
0.0
  0
LINE
  8
0
 62
7
 10
8.7513580119423349
 20
29.7811368686438058
 30
0.0
 11
8.658542745427706
 21
29.749332865982467
 31
0.0
  0
LINE
  8
0
 62
7
 10
8.658542745427706
 20
29.749332865982467
 30
0.0
 11
8.5660531204493093
 21
29.7161265283510545
 31
0.0
  0
LINE
  8
0
 62
7
 10
8.5660531204493093
 20
29.7161265283510545
 30
0.0
 11
8.4738550507658648
 21
29.6816021006442909
 31
0.0
  0
LINE
  8
0
 62
7
 10
8.4738550507658648
 20
29.6816021006442909
 30
0.0
 11
8.3819144501360956
 21
29.645843827756913
 31
0.0
  0
LINE
  8
0
 62
7
 10
8.3819144501360956
 20
29.645843827756913
 30
0.0
 11
8.2901972323187234
 21
29.6089359545836537
 31
0.0
  0
LINE
  8
0
 62
7
 10
8.2901972323187234
 20
29.6089359545836537
 30
0.0
 11
8.1986693110724715
 21
29.5709627260192427
 31
0.0
  0
LINE
  8
0
 62
7
 10
8.1986693110724715
 20
29.5709627260192427
 30
0.0
 11
8.1072966001560598
 21
29.5320083869584096
 31
0.0
  0
LINE
  8
0
 62
7
 10
8.1072966001560598
 20
29.5320083869584096
 30
0.0
 11
8.0160528356698766
 21
29.4921355875407016
 31
0.0
  0
LINE
  8
0
 62
7
 10
8.0160528356698766
 20
29.4921355875407016
 30
0.0
 11
7.9249678300166719
 21
29.4512521708066295
 31
0.0
  0
LINE
  8
0
 62
7
 10
7.9249678300166719
 20
29.4512521708066295
 30
0.0
 11
7.8340958656926345
 21
29.4091984264092723
 31
0.0
  0
LINE
  8
0
 62
7
 10
7.8340958656926345
 20
29.4091984264092723
 30
0.0
 11
7.7434913270929675
 21
29.3658143626940955
 31
0.0
  0
LINE
  8
0
 62
7
 10
7.7434913270929675
 20
29.3658143626940955
 30
0.0
 11
7.6532085986128759
 21
29.320939988006554
 31
0.0
  0
LINE
  8
0
 62
7
 10
7.6532085986128759
 20
29.320939988006554
 30
0.0
 11
7.5633020646475657
 21
29.2744153106921132
 31
0.0
  0
LINE
  8
0
 62
7
 10
7.5633020646475657
 20
29.2744153106921132
 30
0.0
 11
7.4738261095922418
 21
29.2260803390962352
 31
0.0
  0
LINE
  8
0
 62
7
 10
7.4738261095922418
 20
29.2260803390962352
 30
0.0
 11
7.3848351178421083
 21
29.1757750815643817
 31
0.0
  0
LINE
  8
0
 62
7
 10
7.3848351178421083
 20
29.1757750815643817
 30
0.0
 11
7.2963834737923685
 21
29.1233395464420077
 31
0.0
  0
LINE
  8
0
 62
7
 10
7.2963834737923685
 20
29.1233395464420077
 30
0.0
 11
7.2085224793086091
 21
29.0686334714896049
 31
0.0
  0
LINE
  8
0
 62
7
 10
7.2085224793086091
 20
29.0686334714896049
 30
0.0
 11
7.1212731534854194
 21
29.0117104162407777
 31
0.0
  0
LINE
  8
0
 62
7
 10
7.1212731534854194
 20
29.0117104162407777
 30
0.0
 11
7.0346393272322292
 21
28.9527339514472892
 31
0.0
  0
LINE
  8
0
 62
7
 10
7.0346393272322292
 20
28.9527339514472892
 30
0.0
 11
6.9486246341765669
 21
28.8918689105434474
 31
0.0
  0
LINE
  8
0
 62
7
 10
6.9486246341765669
 20
28.8918689105434474
 30
0.0
 11
6.8632327079459641
 21
28.8292801269635675
 31
0.0
  0
LINE
  8
0
 62
7
 10
6.8632327079459641
 20
28.8292801269635675
 30
0.0
 11
6.7784671821679536
 21
28.7651324341419716
 31
0.0
  0
LINE
  8
0
 62
7
 10
6.7784671821679536
 20
28.7651324341419716
 30
0.0
 11
6.6943316904700669
 21
28.6995906655129787
 31
0.0
  0
LINE
  8
0
 62
7
 10
6.6943316904700669
 20
28.6995906655129787
 30
0.0
 11
6.6108298664798335
 21
28.6328196545108931
 31
0.0
  0
LINE
  8
0
 62
7
 10
6.6108298664798335
 20
28.6328196545108931
 30
0.0
 11
6.5279653438247855
 21
28.5649842345700407
 31
0.0
  0
LINE
  8
0
 62
7
 10
6.5279653438247855
 20
28.5649842345700407
 30
0.0
 11
6.4457420308571312
 21
28.4962439409712331
 31
0.0
  0
LINE
  8
0
 62
7
 10
6.4457420308571312
 20
28.4962439409712331
 30
0.0
 11
6.3641676518135526
 21
28.4266847184390414
 31
0.0
  0
LINE
  8
0
 62
7
 10
6.3641676518135526
 20
28.4266847184390414
 30
0.0
 11
6.2832527245693273
 21
28.3563386354817091
 31
0.0
  0
LINE
  8
0
 62
7
 10
6.2832527245693273
 20
28.3563386354817091
 30
0.0
 11
6.2030078310229557
 21
28.2852365258989664
 31
0.0
  0
LINE
  8
0
 62
7
 10
6.2030078310229557
 20
28.2852365258989664
 30
0.0
 11
6.1234435530729403
 21
28.2134092234905545
 31
0.0
  0
LINE
  8
0
 62
7
 10
6.1234435530729403
 20
28.2134092234905545
 30
0.0
 11
6.0445704726177842
 21
28.1408875620562036
 31
0.0
  0
LINE
  8
0
 62
7
 10
6.0445704726177842
 20
28.1408875620562036
 30
0.0
 11
5.966399171555989
 21
28.0677023753956583
 31
0.0
  0
LINE
  8
0
 62
7
 10
5.966399171555989
 20
28.0677023753956583
 30
0.0
 11
5.8889402317860577
 21
27.9938844973086489
 31
0.0
  0
LINE
  8
0
 62
7
 10
5.8889402317860577
 20
27.9938844973086489
 30
0.0
 11
5.812204235206492
 21
27.9194647615949094
 31
0.0
  0
LINE
  8
0
 62
7
 10
5.812204235206492
 20
27.9194647615949094
 30
0.0
 11
5.7362056534576631
 21
27.8444718837613223
 31
0.0
  0
LINE
  8
0
 62
7
 10
5.7362056534576631
 20
27.8444718837613223
 30
0.0
 11
5.6610391610918738
 21
27.7688909020575849
 31
0.0
  0
LINE
  8
0
 62
7
 10
5.6610391610918738
 20
27.7688909020575849
 30
0.0
 11
5.5868748048120578
 21
27.692665808233631
 31
0.0
  0
LINE
  8
0
 62
7
 10
5.5868748048120578
 20
27.692665808233631
 30
0.0
 11
5.5138855537417806
 21
27.6157390025346174
 31
0.0
  0
LINE
  8
0
 62
7
 10
5.5138855537417806
 20
27.6157390025346174
 30
0.0
 11
5.4422443770046112
 21
27.5380528852056976
 31
0.0
  0
LINE
  8
0
 62
7
 10
5.4422443770046112
 20
27.5380528852056976
 30
0.0
 11
5.372124243724115
 21
27.4595498564920213
 31
0.0
  0
LINE
  8
0
 62
7
 10
5.372124243724115
 20
27.4595498564920213
 30
0.0
 11
5.3036981230238611
 21
27.3801723166387418
 31
0.0
  0
LINE
  8
0
 62
7
 10
5.3036981230238611
 20
27.3801723166387418
 30
0.0
 11
5.2371389840274158
 21
27.2998626658910197
 31
0.0
  0
LINE
  8
0
 62
7
 10
5.2371389840274158
 20
27.2998626658910197
 30
0.0
 11
5.1726197958583464
 21
27.2185633044940012
 31
0.0
  0
LINE
  8
0
 62
7
 10
5.1726197958583464
 20
27.2185633044940012
 30
0.0
 11
5.1103093942027478
 21
27.1362184427241324
 31
0.0
  0
LINE
  8
0
 62
7
 10
5.1103093942027478
 20
27.1362184427241324
 30
0.0
 11
5.0502400582198197
 21
27.0528320889284437
 31
0.0
  0
LINE
  8
0
 62
7
 10
5.0502400582198197
 20
27.0528320889284437
 30
0.0
 11
4.9922794950212186
 21
26.968480317514409
 31
0.0
  0
LINE
  8
0
 62
7
 10
4.9922794950212186
 20
26.968480317514409
 30
0.0
 11
4.9362856139408855
 21
26.8832434933340103
 31
0.0
  0
LINE
  8
0
 62
7
 10
4.9362856139408855
 20
26.8832434933340103
 30
0.0
 11
4.8821163243127623
 21
26.7972019812392404
 31
0.0
  0
LINE
  8
0
 62
7
 10
4.8821163243127623
 20
26.7972019812392404
 30
0.0
 11
4.829629535470791
 21
26.7104361460820918
 31
0.0
  0
LINE
  8
0
 62
7
 10
4.829629535470791
 20
26.7104361460820918
 30
0.0
 11
4.7786831567489116
 21
26.6230263527145432
 31
0.0
  0
LINE
  8
0
 62
7
 10
4.7786831567489116
 20
26.6230263527145432
 30
0.0
 11
4.7291350974810662
 21
26.5350529659886014
 31
0.0
  0
LINE
  8
0
 62
7
 10
4.7291350974810662
 20
26.5350529659886014
 30
0.0
 11
4.6808432670011966
 21
26.4465963507562414
 31
0.0
  0
LINE
  8
0
 62
7
 10
4.6808432670011966
 20
26.4465963507562414
 30
0.0
 11
4.6336661850572076
 21
26.3577358445240968
 31
0.0
  0
LINE
  8
0
 62
7
 10
4.6336661850572076
 20
26.3577358445240968
 30
0.0
 11
4.5874989962347748
 21
26.2684891440766712
 31
0.0
  0
LINE
  8
0
 62
7
 10
4.5874989962347748
 20
26.2684891440766712
 30
0.0
 11
4.542293613618126
 21
26.1787784030792139
 31
0.0
  0
LINE
  8
0
 62
7
 10
4.542293613618126
 20
26.1787784030792139
 30
0.0
 11
4.4980068336031911
 21
26.0885175564340202
 31
0.0
  0
LINE
  8
0
 62
7
 10
4.4980068336031911
 20
26.0885175564340202
 30
0.0
 11
4.4545954525858971
 21
25.9976205390433854
 31
0.0
  0
LINE
  8
0
 62
7
 10
4.4545954525858971
 20
25.9976205390433854
 30
0.0
 11
4.4120162669621754
 21
25.9060012858096087
 31
0.0
  0
LINE
  8
0
 62
7
 10
4.4120162669621754
 20
25.9060012858096087
 30
0.0
 11
4.3702260731279541
 21
25.8135737316349818
 31
0.0
  0
LINE
  8
0
 62
7
 10
4.3702260731279541
 20
25.8135737316349818
 30
0.0
 11
4.3291816674791628
 21
25.7202518114218073
 31
0.0
  0
LINE
  8
0
 62
7
 10
4.3291816674791628
 20
25.7202518114218073
 30
0.0
 11
4.2888398464117303
 21
25.6259494600723734
 31
0.0
  0
LINE
  8
0
 62
7
 10
4.2888398464117303
 20
25.6259494600723734
 30
0.0
 11
4.249157928546202
 21
25.5305806965542992
 31
0.0
  0
LINE
  8
0
 62
7
 10
4.249157928546202
 20
25.5305806965542992
 30
0.0
 11
4.2101645725633201
 21
25.4340710238293362
 31
0.0
  0
LINE
  8
0
 62
7
 10
4.2101645725633201
 20
25.4340710238293362
 30
0.0
 11
4.1720316060664668
 21
25.3363689915326766
 31
0.0
  0
LINE
  8
0
 62
7
 10
4.1720316060664668
 20
25.3363689915326766
 30
0.0
 11
4.1349479689152053
 21
25.2374259039516566
 31
0.0
  0
LINE
  8
0
 62
7
 10
4.1349479689152053
 20
25.2374259039516566
 30
0.0
 11
4.0991026009690996
 21
25.1371930653736086
 31
0.0
  0
LINE
  8
0
 62
7
 10
4.0991026009690996
 20
25.1371930653736086
 30
0.0
 11
4.0646844420877137
 21
25.0356217800858651
 31
0.0
  0
LINE
  8
0
 62
7
 10
4.0646844420877137
 20
25.0356217800858651
 30
0.0
 11
4.0318824321306117
 21
24.9326633523757693
 31
0.0
  0
LINE
  8
0
 62
7
 10
4.0318824321306117
 20
24.9326633523757693
 30
0.0
 11
4.0008855109573584
 21
24.828269086530657
 31
0.0
  0
LINE
  8
0
 62
7
 10
4.0008855109573584
 20
24.828269086530657
 30
0.0
 11
3.9718826184275171
 21
24.7223902868378538
 31
0.0
  0
LINE
  8
0
 62
7
 10
3.9718826184275171
 20
24.7223902868378538
 30
0.0
 11
3.9450625473211636
 21
24.6149783358828635
 31
0.0
  0
LINE
  8
0
 62
7
 10
3.9450625473211636
 20
24.6149783358828635
 30
0.0
 11
3.9205393740384062
 21
24.506024391714373
 31
0.0
  0
LINE
  8
0
 62
7
 10
3.9205393740384062
 20
24.506024391714373
 30
0.0
 11
3.8982311180216835
 21
24.3956239838229401
 31
0.0
  0
LINE
  8
0
 62
7
 10
3.8982311180216835
 20
24.3956239838229401
 30
0.0
 11
3.8780240295439978
 21
24.2838895541007744
 31
0.0
  0
LINE
  8
0
 62
7
 10
3.8780240295439978
 20
24.2838895541007744
 30
0.0
 11
3.8598043588783524
 21
24.1709335444400999
 31
0.0
  0
LINE
  8
0
 62
7
 10
3.8598043588783524
 20
24.1709335444400999
 30
0.0
 11
3.8434583562977509
 21
24.0568683967331474
 31
0.0
  0
LINE
  8
0
 62
7
 10
3.8434583562977509
 20
24.0568683967331474
 30
0.0
 11
3.8288722720751962
 21
23.9418065528721336
 31
0.0
  0
LINE
  8
0
 62
7
 10
3.8288722720751962
 20
23.9418065528721336
 30
0.0
 11
3.8159323564836902
 21
23.8258604547492787
 31
0.0
  0
LINE
  8
0
 62
7
 10
3.8159323564836902
 20
23.8258604547492787
 30
0.0
 11
3.8045248597962371
 21
23.7091425442568102
 31
0.0
  0
LINE
  8
0
 62
7
 10
3.8045248597962371
 20
23.7091425442568102
 30
0.0
 11
3.7945360353668813
 21
23.5917652568135523
 31
0.0
  0
LINE
  8
0
 62
7
 10
3.7945360353668813
 20
23.5917652568135523
 30
0.0
 11
3.7858849311558247
 21
23.4737721249933671
 31
0.0
  0
LINE
  8
0
 62
7
 10
3.7858849311558247
 20
23.4737721249933671
 30
0.0
 11
3.7786043502579862
 21
23.3549676770541978
 31
0.0
  0
LINE
  8
0
 62
7
 10
3.7786043502579862
 20
23.3549676770541978
 30
0.0
 11
3.77275174410061
 21
23.2351046540725115
 31
0.0
  0
LINE
  8
0
 62
7
 10
3.77275174410061
 20
23.2351046540725115
 30
0.0
 11
3.7683845641109399
 21
23.1139357971247676
 31
0.0
  0
LINE
  8
0
 62
7
 10
3.7683845641109399
 20
23.1139357971247676
 30
0.0
 11
3.7655602617162196
 21
22.9912138472874297
 31
0.0
  0
LINE
  8
0
 62
7
 10
3.7655602617162196
 20
22.9912138472874297
 30
0.0
 11
3.7643362883436926
 21
22.8666915456369644
 31
0.0
  0
LINE
  8
0
 62
7
 10
3.7643362883436926
 20
22.8666915456369644
 30
0.0
 11
3.7647700954206029
 21
22.7401216332498315
 31
0.0
  0
LINE
  8
0
 62
7
 10
3.7647700954206029
 20
22.7401216332498315
 30
0.0
 11
3.7669191343741932
 21
22.6112568512024943
 31
0.0
  0
LINE
  8
0
 62
7
 10
3.7669191343741932
 20
22.6112568512024943
 30
0.0
 11
3.7708408566317093
 21
22.4798499405714196
 31
0.0
  0
LINE
  8
0
 62
7
 10
3.7708408566317093
 20
22.4798499405714196
 30
0.0
 11
3.7766360428955759
 21
22.3457128234368483
 31
0.0
  0
LINE
  8
0
 62
7
 10
3.7766360428955759
 20
22.3457128234368483
 30
0.0
 11
3.7846054438893506
 21
22.2089305496091036
 31
0.0
  0
LINE
  8
0
 62
7
 10
3.7846054438893506
 20
22.2089305496091036
 30
0.0
 11
3.7951074599372219
 21
22.0696669092240398
 31
0.0
  0
LINE
  8
0
 62
7
 10
3.7951074599372219
 20
22.0696669092240398
 30
0.0
 11
3.8085004967795366
 21
21.928085699815135
 31
0.0
  0
LINE
  8
0
 62
7
 10
3.8085004967795366
 20
21.928085699815135
 30
0.0
 11
3.8251429601566418
 21
21.7843507189158743
 31
0.0
  0
LINE
  8
0
 62
7
 10
3.8251429601566418
 20
21.7843507189158743
 30
0.0
 11
3.8453932558088852
 21
21.6386257640597286
 31
0.0
  0
LINE
  8
0
 62
7
 10
3.8453932558088852
 20
21.6386257640597286
 30
0.0
 11
3.8696097894766144
 21
21.4910746327801832
 31
0.0
  0
LINE
  8
0
 62
7
 10
3.8696097894766144
 20
21.4910746327801832
 30
0.0
 11
3.8981509669001762
 21
21.341861122610716
 31
0.0
  0
LINE
  8
0
 62
7
 10
3.8981509669001762
 20
21.341861122610716
 30
0.0
 11
3.9313751938199184
 21
21.1911490310848087
 31
0.0
  0
LINE
  8
0
 62
7
 10
3.9313751938199184
 20
21.1911490310848087
 30
0.0
 11
3.96959847270948
 21
21.0390938610103362
 31
0.0
  0
LINE
  8
0
 62
7
 10
3.96959847270948
 20
21.0390938610103362
 30
0.0
 11
4.0128751229197146
 21
20.8857999259857543
 31
0.0
  0
LINE
  8
0
 62
7
 10
4.0128751229197146
 20
20.8857999259857543
 30
0.0
 11
4.0611597376001445
 21
20.7313520316437625
 31
0.0
  0
LINE
  8
0
 62
7
 10
4.0611597376001445
 20
20.7313520316437625
 30
0.0
 11
4.1144067135888704
 21
20.5758349452155365
 31
0.0
  0
LINE
  8
0
 62
7
 10
4.1144067135888704
 20
20.5758349452155365
 30
0.0
 11
4.1725704477239933
 21
20.4193334339322554
 31
0.0
  0
LINE
  8
0
 62
7
 10
4.1725704477239933
 20
20.4193334339322554
 30
0.0
 11
4.2356053368436166
 21
20.2619322650251057
 31
0.0
  0
LINE
  8
0
 62
7
 10
4.2356053368436166
 20
20.2619322650251057
 30
0.0
 11
4.3034657777858412
 21
20.1037162057252701
 31
0.0
  0
LINE
  8
0
 62
7
 10
4.3034657777858412
 20
20.1037162057252701
 30
0.0
 11
4.3761061673887678
 21
19.9447700232639207
 31
0.0
  0
LINE
  8
0
 62
7
 10
4.3761061673887678
 20
19.9447700232639207
 30
0.0
 11
4.4534809024904991
 21
19.7851784848722509
 31
0.0
  0
LINE
  8
0
 62
7
 10
4.4534809024904991
 20
19.7851784848722509
 30
0.0
 11
4.5355230273115579
 21
19.6250648134554808
 31
0.0
  0
LINE
  8
0
 62
7
 10
4.5355230273115579
 20
19.6250648134554808
 30
0.0
 11
4.6219869403566953
 21
19.4648739695882895
 31
0.0
  0
LINE
  8
0
 62
7
 10
4.6219869403566953
 20
19.4648739695882895
 30
0.0
 11
4.7125380222356998
 21
19.305211233447416
 31
0.0
  0
LINE
  8
0
 62
7
 10
4.7125380222356998
 20
19.305211233447416
 30
0.0
 11
4.8068410019281824
 21
19.1466830587836441
 31
0.0
  0
LINE
  8
0
 62
7
 10
4.8068410019281824
 20
19.1466830587836441
 30
0.0
 11
4.904560608413755
 21
18.9898958993477471
 31
0.0
  0
LINE
  8
0
 62
7
 10
4.904560608413755
 20
18.9898958993477471
 30
0.0
 11
5.005361570672032
 21
18.8354562088905126
 31
0.0
  0
LINE
  8
0
 62
7
 10
5.005361570672032
 20
18.8354562088905126
 30
0.0
 11
5.1089086176826237
 21
18.6839704411627139
 31
0.0
  0
LINE
  8
0
 62
7
 10
5.1089086176826237
 20
18.6839704411627139
 30
0.0
 11
5.2148664784251428
 21
18.5360450499151348
 31
0.0
  0
LINE
  8
0
 62
7
 10
5.2148664784251428
 20
18.5360450499151348
 30
0.0
 11
5.3228998818792022
 21
18.3922864888985558
 31
0.0
  0
LINE
  8
0
 62
7
 10
5.3228998818792022
 20
18.3922864888985558
 30
0.0
 11
5.4326813672514396
 21
18.2532708295741841
 31
0.0
  0
LINE
  8
0
 62
7
 10
5.4326813672514396
 20
18.2532708295741841
 30
0.0
 11
5.5439742676376751
 21
18.1192209492869978
 31
0.0
  0
LINE
  8
0
 62
7
 10
5.5439742676376751
 20
18.1192209492869978
 30
0.0
 11
5.6566004928364251
 21
17.990131858210205
 31
0.0
  0
LINE
  8
0
 62
7
 10
5.6566004928364251
 20
17.990131858210205
 30
0.0
 11
5.770382928924584
 21
17.8659947687308112
 31
0.0
  0
LINE
  8
0
 62
7
 10
5.770382928924584
 20
17.8659947687308112
 30
0.0
 11
5.8851444619790483
 21
17.7468008932358323
 31
0.0
  0
LINE
  8
0
 62
7
 10
5.8851444619790483
 20
17.7468008932358323
 30
0.0
 11
6.0007079780767114
 21
17.6325414441122845
 31
0.0
  0
LINE
  8
0
 62
7
 10
6.0007079780767114
 20
17.6325414441122845
 30
0.0
 11
6.1168963632944688
 21
17.5232076337471732
 31
0.0
  0
LINE
  8
0
 62
7
 10
6.1168963632944688
 20
17.5232076337471732
 30
0.0
 11
6.2335325037092151
 21
17.4187906745275107
 31
0.0
  0
LINE
  8
0
 62
7
 10
6.2335325037092151
 20
17.4187906745275107
 30
0.0
 11
6.3504392853978464
 21
17.3192817788403133
 31
0.0
  0
LINE
  8
0
 62
7
 10
6.3504392853978464
 20
17.3192817788403133
 30
0.0
 11
6.4674379027365916
 21
17.2246653062279229
 31
0.0
  0
LINE
  8
0
 62
7
 10
6.4674379027365916
 20
17.2246653062279229
 30
0.0
 11
6.5843211348170856
 21
17.1348105098574841
 31
0.0
  0
LINE
  8
0
 62
7
 10
6.5843211348170856
 20
17.1348105098574841
 30
0.0
 11
6.7008581826529525
 21
17.0494911313736246
 31
0.0
  0
LINE
  8
0
 62
7
 10
6.7008581826529525
 20
17.0494911313736246
 30
0.0
 11
6.8168175335715961
 21
16.9684780213771376
 31
0.0
  0
LINE
  8
0
 62
7
 10
6.8168175335715961
 20
16.9684780213771376
 30
0.0
 11
6.9319676749004255
 21
16.8915420304688233
 31
0.0
  0
LINE
  8
0
 62
7
 10
6.9319676749004255
 20
16.8915420304688233
 30
0.0
 11
7.0460770939668445
 21
16.8184540092494714
 31
0.0
  0
LINE
  8
0
 62
7
 10
7.0460770939668445
 20
16.8184540092494714
 30
0.0
 11
7.1589142780982602
 21
16.7489848083198751
 31
0.0
  0
LINE
  8
0
 62
7
 10
7.1589142780982602
 20
16.7489848083198751
 30
0.0
 11
7.2702477146220774
 21
16.6829052782808311
 31
0.0
  0
LINE
  8
0
 62
7
 10
7.2702477146220774
 20
16.6829052782808311
 30
0.0
 11
7.3798458908657043
 21
16.6199862697331255
 31
0.0
  0
LINE
  8
0
 62
7
 10
7.3798458908657043
 20
16.6199862697331255
 30
0.0
 11
7.4874821088337971
 21
16.5600014892431702
 31
0.0
  0
LINE
  8
0
 62
7
 10
7.4874821088337971
 20
16.5600014892431702
 30
0.0
 11
7.5930538458720278
 21
16.5027983015866084
 31
0.0
  0
LINE
  8
0
 62
7
 10
7.5930538458720278
 20
16.5027983015866084
 30
0.0
 11
7.6965907133285745
 21
16.4483024506594759
 31
0.0
  0
LINE
  8
0
 62
7
 10
7.6965907133285745
 20
16.4483024506594759
 30
0.0
 11
7.7981287308870382
 21
16.3964434816480349
 31
0.0
  0
LINE
  8
0
 62
7
 10
7.7981287308870382
 20
16.3964434816480349
 30
0.0
 11
7.8977039182310227
 21
16.3471509397385582
 31
0.0
  0
LINE
  8
0
 62
7
 10
7.8977039182310227
 20
16.3471509397385582
 30
0.0
 11
7.9953522950441283
 21
16.3003543701173186
 31
0.0
  0
LINE
  8
0
 62
7
 10
7.9953522950441283
 20
16.3003543701173186
 30
0.0
 11
8.0911098810099578
 21
16.2559833179705855
 31
0.0
  0
LINE
  8
0
 62
7
 10
8.0911098810099578
 20
16.2559833179705855
 30
0.0
 11
8.1850126958121141
 21
16.2139673284846282
 31
0.0
  0
LINE
  8
0
 62
7
 10
8.1850126958121141
 20
16.2139673284846282
 30
0.0
 11
8.2770967591341975
 21
16.174235946845716
 31
0.0
  0
LINE
  8
0
 62
7
 10
8.2770967591341975
 20
16.174235946845716
 30
0.0
 11
8.3673969441458187
 21
16.136718860189017
 31
0.0
  0
LINE
  8
0
 62
7
 10
8.3673969441458187
 20
16.136718860189017
 30
0.0
 11
8.4558980961472354
 21
16.1013519495565269
 31
0.0
  0
LINE
  8
0
 62
7
 10
8.4558980961472354
 20
16.1013519495565269
 30
0.0
 11
8.5425167264133179
 21
16.0680795563662819
 31
0.0
  0
LINE
  8
0
 62
7
 10
8.5425167264133179
 20
16.0680795563662819
 30
0.0
 11
8.6271644265094807
 21
16.0368466311412448
 31
0.0
  0
LINE
  8
0
 62
7
 10
8.6271644265094807
 20
16.0368466311412448
 30
0.0
 11
8.7097527880011434
 21
16.0075981244043781
 31
0.0
  0
LINE
  8
0
 62
7
 10
8.7097527880011434
 20
16.0075981244043781
 30
0.0
 11
8.7901934024537152
 21
15.9802789866786519
 31
0.0
  0
LINE
  8
0
 62
7
 10
8.7901934024537152
 20
15.9802789866786519
 30
0.0
 11
8.868397861432614
 21
15.954834168487027
 31
0.0
  0
LINE
  8
0
 62
7
 10
8.868397861432614
 20
15.954834168487027
 30
0.0
 11
8.9442777565032543
 21
15.9312086203524643
 31
0.0
  0
LINE
  8
0
 62
7
 10
8.9442777565032543
 20
15.9312086203524643
 30
0.0
 11
9.0177446792310523
 21
15.9093472927979356
 31
0.0
  0
LINE
  8
0
 62
7
 10
9.0177446792310523
 20
15.9093472927979356
 30
0.0
 11
9.0887104652925998
 21
15.8891948545492223
 31
0.0
  0
LINE
  8
0
 62
7
 10
9.0887104652925998
 20
15.8891948545492223
 30
0.0
 11
9.1571082185508992
 21
15.8706714227527801
 31
0.0
  0
LINE
  8
0
 62
7
 10
9.1571082185508992
 20
15.8706714227527801
 30
0.0
 11
9.2229085139348204
 21
15.8536538586879026
 31
0.0
  0
LINE
  8
0
 62
7
 10
9.2229085139348204
 20
15.8536538586879026
 30
0.0
 11
9.2860857406103943
 21
15.83801462055294
 31
0.0
  0
LINE
  8
0
 62
7
 10
9.2860857406103943
 20
15.83801462055294
 30
0.0
 11
9.3466142877436518
 21
15.8236261665462408
 31
0.0
  0
LINE
  8
0
 62
7
 10
9.3466142877436518
 20
15.8236261665462408
 30
0.0
 11
9.4044685445006238
 21
15.8103609548661588
 31
0.0
  0
LINE
  8
0
 62
7
 10
9.4044685445006238
 20
15.8103609548661588
 30
0.0
 11
9.4596229000473411
 21
15.7980914437110442
 31
0.0
  0
LINE
  8
0
 62
7
 10
9.4596229000473411
 20
15.7980914437110442
 30
0.0
 11
9.5120517435498346
 21
15.7866900912792456
 31
0.0
  0
LINE
  8
0
 62
7
 10
9.5120517435498346
 20
15.7866900912792456
 30
0.0
 11
9.5617294641741335
 21
15.7760293557691167
 31
0.0
  0
LINE
  8
0
 62
7
 10
9.5617294641741335
 20
15.7760293557691167
 30
0.0
 11
9.6086307878897497
 21
15.7659817898783441
 31
0.0
  0
LINE
  8
0
 62
7
 10
9.6086307878897497
 20
15.7659817898783441
 30
0.0
 11
9.65281132086435
 21
15.7564426394348178
 31
0.0
  0
LINE
  8
0
 62
7
 10
9.65281132086435
 20
15.7564426394348178
 30
0.0
 11
9.6945120164306093
 21
15.7473591544336298
 31
0.0
  0
LINE
  8
0
 62
7
 10
9.6945120164306093
 20
15.7473591544336298
 30
0.0
 11
9.7339996828508326
 21
15.7386858391706426
 31
0.0
  0
LINE
  8
0
 62
7
 10
9.7339996828508326
 20
15.7386858391706426
 30
0.0
 11
9.7715411283873319
 21
15.7303771979417242
 31
0.0
  0
LINE
  8
0
 62
7
 10
9.7715411283873319
 20
15.7303771979417242
 30
0.0
 11
9.8074031613024157
 21
15.7223877350427461
 31
0.0
  0
LINE
  8
0
 62
7
 10
9.8074031613024157
 20
15.7223877350427461
 30
0.0
 11
9.8418525898583926
 21
15.714671954769571
 31
0.0
  0
LINE
  8
0
 62
7
 10
9.8418525898583926
 20
15.714671954769571
 30
0.0
 11
9.8751562223175675
 21
15.7071843614180686
 31
0.0
  0
LINE
  8
0
 62
7
 10
9.8751562223175675
 20
15.7071843614180686
 30
0.0
 11
9.9075808669422543
 21
15.6998794592841051
 31
0.0
  0
LINE
  8
0
 62
7
 10
9.9075808669422543
 20
15.6998794592841051
 30
0.0
 11
9.9393932785906678
 21
15.6927117623519035
 31
0.0
  0
LINE
  8
0
 62
7
 10
9.9393932785906678
 20
15.6927117623519035
 30
0.0
 11
9.970779204794189
 21
15.6856504806274675
 31
0.0
  0
LINE
  8
0
 62
7
 10
9.970779204794189
 20
15.6856504806274675
 30
0.0
 11
10.0016803096974023
 21
15.6787091047381857
 31
0.0
  0
LINE
  8
0
 62
7
 10
10.0016803096974023
 20
15.6787091047381857
 30
0.0
 11
10.0319924701144583
 21
15.6719094318638508
 31
0.0
  0
LINE
  8
0
 62
7
 10
10.0319924701144583
 20
15.6719094318638508
 30
0.0
 11
10.0616115628595111
 21
15.6652732591842501
 31
0.0
  0
LINE
  8
0
 62
7
 10
10.0616115628595111
 20
15.6652732591842501
 30
0.0
 11
10.0904334647467078
 21
15.6588223838791762
 31
0.0
  0
LINE
  8
0
 62
7
 10
10.0904334647467078
 20
15.6588223838791762
 30
0.0
 11
10.1183540525902043
 21
15.6525786031284238
 31
0.0
  0
LINE
  8
0
 62
7
 10
10.1183540525902043
 20
15.6525786031284238
 30
0.0
 11
10.1452692032041529
 21
15.6465637141117817
 31
0.0
  0
LINE
  8
0
 62
7
 10
10.1452692032041529
 20
15.6465637141117817
 30
0.0
 11
10.1710747934027008
 21
15.640799514009041
 31
0.0
  0
LINE
  8
0
 62
7
 10
10.1710747934027008
 20
15.640799514009041
 30
0.0
 11
10.1956667000000074
 21
15.6353077999999925
 31
0.0
  0
LINE
  8
0
 62
7
 10
12.397000100000005
 20
17.039219899999992
 30
0.0
 11
12.397000100000005
 21
17.039219899999992
 31
0.0
  0
LINE
  8
0
 62
7
 10
12.397000100000005
 20
17.039219899999992
 30
0.0
 11
12.5250964937479488
 21
17.0817199740263561
 31
0.0
  0
LINE
  8
0
 62
7
 10
12.5250964937479488
 20
17.0817199740263561
 30
0.0
 11
12.653557405911295
 21
17.1248212150693995
 31
0.0
  0
LINE
  8
0
 62
7
 10
12.653557405911295
 20
17.1248212150693995
 30
0.0
 11
12.7821417182096333
 21
17.168924245815866
 31
0.0
  0
LINE
  8
0
 62
7
 10
12.7821417182096333
 20
17.168924245815866
 30
0.0
 11
12.9106083123625481
 21
17.2144296889525101
 31
0.0
  0
LINE
  8
0
 62
7
 10
12.9106083123625481
 20
17.2144296889525101
 30
0.0
 11
13.0387160700896327
 21
17.2617381671660794
 31
0.0
  0
LINE
  8
0
 62
7
 10
13.0387160700896327
 20
17.2617381671660794
 30
0.0
 11
13.1662238731104733
 21
17.3112503031433285
 31
0.0
  0
LINE
  8
0
 62
7
 10
13.1662238731104733
 20
17.3112503031433285
 30
0.0
 11
13.2928906031446576
 21
17.3633667195710046
 31
0.0
  0
LINE
  8
0
 62
7
 10
13.2928906031446576
 20
17.3633667195710046
 30
0.0
 11
13.4184751419117756
 21
17.418488039135859
 31
0.0
  0
LINE
  8
0
 62
7
 10
13.4184751419117756
 20
17.418488039135859
 30
0.0
 11
13.542736371131415
 21
17.4770148845246425
 31
0.0
  0
LINE
  8
0
 62
7
 10
13.542736371131415
 20
17.4770148845246425
 30
0.0
 11
13.6655261387461522
 21
17.5393382379939702
 31
0.0
  0
LINE
  8
0
 62
7
 10
13.6655261387461522
 20
17.5393382379939702
 30
0.0
 11
13.7871918776201881
 21
17.6057976905353506
 31
0.0
  0
LINE
  8
0
 62
7
 10
13.7871918776201881
 20
17.6057976905353506
 30
0.0
 11
13.90824549723472
 21
17.6767157772109123
 31
0.0
  0
LINE
  8
0
 62
7
 10
13.90824549723472
 20
17.6767157772109123
 30
0.0
 11
14.0291990155021686
 21
17.7524150218386509
 31
0.0
  0
LINE
  8
0
 62
7
 10
14.0291990155021686
 20
17.7524150218386509
 30
0.0
 11
14.1505644503349561
 21
17.833217948236566
 31
0.0
  0
LINE
  8
0
 62
7
 10
14.1505644503349561
 20
17.833217948236566
 30
0.0
 11
14.2728538196455066
 21
17.9194470802226569
 31
0.0
  0
LINE
  8
0
 62
7
 10
14.2728538196455066
 20
17.9194470802226569
 30
0.0
 11
14.3965791413462441
 21
18.0114249416149299
 31
0.0
  0
LINE
  8
0
 62
7
 10
14.3965791413462441
 20
18.0114249416149299
 30
0.0
 11
14.5222524333495873
 21
18.109474056231381
 31
0.0
  0
LINE
  8
0
 62
7
 10
14.5222524333495873
 20
18.109474056231381
 30
0.0
 11
14.6503857135679603
 21
18.2139169478900058
 31
0.0
  0
LINE
  8
0
 62
7
 10
14.6503857135679603
 20
18.2139169478900058
 30
0.0
 11
14.7813869645605571
 21
18.3250891784146432
 31
0.0
  0
LINE
  8
0
 62
7
 10
14.7813869645605571
 20
18.3250891784146432
 30
0.0
 11
14.9149183669039473
 21
18.4434197756510372
 31
0.0
  0
LINE
  8
0
 62
7
 10
14.9149183669039473
 20
18.4434197756510372
 30
0.0
 11
15.0503166545344094
 21
18.5693785533418776
 31
0.0
  0
LINE
  8
0
 62
7
 10
15.0503166545344094
 20
18.5693785533418776
 30
0.0
 11
15.1869172061546323
 21
18.7034354950715738
 31
0.0
  0
LINE
  8
0
 62
7
 10
15.1869172061546323
 20
18.7034354950715738
 30
0.0
 11
15.3240554004673069
 21
18.8460605844245421
 31
0.0
  0
LINE
  8
0
 62
7
 10
15.3240554004673069
 20
18.8460605844245421
 30
0.0
 11
15.461066616175124
 21
18.997723804985192
 31
0.0
  0
LINE
  8
0
 62
7
 10
15.461066616175124
 20
18.997723804985192
 30
0.0
 11
15.5972862319807763
 21
19.1588951403379326
 31
0.0
  0
LINE
  8
0
 62
7
 10
15.5972862319807763
 20
19.1588951403379326
 30
0.0
 11
15.7320496265869565
 21
19.330044574067184
 31
0.0
  0
LINE
  8
0
 62
7
 10
15.7320496265869565
 20
19.330044574067184
 30
0.0
 11
15.8646921786963517
 21
19.5116420897573484
 31
0.0
  0
LINE
  8
0
 62
7
 10
15.8646921786963517
 20
19.5116420897573484
 30
0.0
 11
15.9945165393194415
 21
19.7041188778028236
 31
0.0
  0
LINE
  8
0
 62
7
 10
15.9945165393194415
 20
19.7041188778028236
 30
0.0
 11
16.1205038426183478
 21
19.9075250242992183
 31
0.0
  0
LINE
  8
0
 62
7
 10
16.1205038426183478
 20
19.9075250242992183
 30
0.0
 11
16.2414527331433973
 21
20.1216943045145982
 31
0.0
  0
LINE
  8
0
 62
7
 10
16.2414527331433973
 20
20.1216943045145982
 30
0.0
 11
16.3561597608726039
 21
20.3464580109528477
 31
0.0
  0
LINE
  8
0
 62
7
 10
16.3561597608726039
 20
20.3464580109528477
 30
0.0
 11
16.4634214757839956
 21
20.5816474361178656
 31
0.0
  0
LINE
  8
0
 62
7
 10
16.4634214757839956
 20
20.5816474361178656
 30
0.0
 11
16.5620344278555898
 21
20.8270938725135437
 31
0.0
  0
LINE
  8
0
 62
7
 10
16.5620344278555898
 20
20.8270938725135437
 30
0.0
 11
16.6507951670654073
 21
21.0826286126437807
 31
0.0
  0
LINE
  8
0
 62
7
 10
16.6507951670654073
 20
21.0826286126437807
 30
0.0
 11
16.7285002433914691
 21
21.3480829490124648
 31
0.0
  0
LINE
  8
0
 62
7
 10
16.7285002433914691
 20
21.3480829490124648
 30
0.0
 11
16.7939462068117962
 21
21.6232881741234912
 31
0.0
  0
LINE
  8
0
 62
7
 10
16.7939462068117962
 20
21.6232881741234912
 30
0.0
 11
16.8459774966584384
 21
21.9079942609520444
 31
0.0
  0
LINE
  8
0
 62
7
 10
16.8459774966584384
 20
21.9079942609520444
 30
0.0
 11
16.8841037281976973
 21
22.2008216664340701
 31
0.0
  0
LINE
  8
0
 62
7
 10
16.8841037281976973
 20
22.2008216664340701
 30
0.0
 11
16.9083214971503111
 21
22.4995639200631139
 31
0.0
  0
LINE
  8
0
 62
7
 10
16.9083214971503111
 20
22.4995639200631139
 30
0.0
 11
16.918638559614454
 21
22.8019956002181523
 31
0.0
  0
LINE
  8
0
 62
7
 10
16.918638559614454
 20
22.8019956002181523
 30
0.0
 11
16.9150626716883146
 21
23.1058912852781582
 31
0.0
  0
LINE
  8
0
 62
7
 10
16.9150626716883146
 20
23.1058912852781582
 30
0.0
 11
16.8976015894700708
 21
23.409025553622115
 31
0.0
  0
LINE
  8
0
 62
7
 10
16.8976015894700708
 20
23.409025553622115
 30
0.0
 11
16.8662630690579114
 21
23.7091729836289886
 31
0.0
  0
LINE
  8
0
 62
7
 10
16.8662630690579114
 20
23.7091729836289886
 30
0.0
 11
16.8210548665500141
 21
24.0041081536777696
 31
0.0
  0
LINE
  8
0
 62
7
 10
16.8210548665500141
 20
24.0041081536777696
 30
0.0
 11
16.7619847380445641
 21
24.2916056421474273
 31
0.0
  0
LINE
  8
0
 62
7
 10
16.7619847380445641
 20
24.2916056421474273
 30
0.0
 11
16.6890932569710841
 21
24.5694931350040555
 31
0.0
  0
LINE
  8
0
 62
7
 10
16.6890932569710841
 20
24.5694931350040555
 30
0.0
 11
16.6030976600508531
 21
24.8366933479814627
 31
0.0
  0
LINE
  8
0
 62
7
 10
16.6030976600508531
 20
24.8366933479814627
 30
0.0
 11
16.5053510906863146
 21
25.0931580710278261
 31
0.0
  0
LINE
  8
0
 62
7
 10
16.5053510906863146
 20
25.0931580710278261
 30
0.0
 11
16.3972313484266721
 21
25.338878994607569
 31
0.0
  0
LINE
  8
0
 62
7
 10
16.3972313484266721
 20
25.338878994607569
 30
0.0
 11
16.280116232821122
 21
25.5738478091851036
 31
0.0
  0
LINE
  8
0
 62
7
 10
16.280116232821122
 20
25.5738478091851036
 30
0.0
 11
16.1553835434188713
 21
25.7980562052248565
 31
0.0
  0
LINE
  8
0
 62
7
 10
16.1553835434188713
 20
25.7980562052248565
 30
0.0
 11
16.0244110797691199
 21
26.0114958731912402
 31
0.0
  0
LINE
  8
0
 62
7
 10
16.0244110797691199
 20
26.0114958731912402
 30
0.0
 11
15.8885766414210732
 21
26.2141585035486742
 31
0.0
  0
LINE
  8
0
 62
7
 10
15.8885766414210732
 20
26.2141585035486742
 30
0.0
 11
15.7492580279239291
 21
26.4060357867615814
 31
0.0
  0
LINE
  8
0
 62
7
 10
15.7492580279239291
 20
26.4060357867615814
 30
0.0
 11
15.6078214210322042
 21
26.5871252156841678
 31
0.0
  0
LINE
  8
0
 62
7
 10
15.6078214210322042
 20
26.5871252156841678
 30
0.0
 11
15.465249184986968
 21
26.7576159769370427
 31
0.0
  0
LINE
  8
0
 62
7
 10
15.465249184986968
 20
26.7576159769370427
 30
0.0
 11
15.3220611236851791
 21
26.917928278215804
 31
0.0
  0
LINE
  8
0
 62
7
 10
15.3220611236851791
 20
26.917928278215804
 30
0.0
 11
15.178749502547495
 21
27.0684960810288793
 31
0.0
  0
LINE
  8
0
 62
7
 10
15.178749502547495
 20
27.0684960810288793
 30
0.0
 11
15.0358065869945747
 21
27.2097533468846962
 31
0.0
  0
LINE
  8
0
 62
7
 10
15.0358065869945747
 20
27.2097533468846962
 30
0.0
 11
14.8937246424470739
 21
27.3421340372916895
 31
0.0
  0
LINE
  8
0
 62
7
 10
14.8937246424470739
 20
27.3421340372916895
 30
0.0
 11
14.7529959343256447
 21
27.4660721137582797
 31
0.0
  0
LINE
  8
0
 62
7
 10
14.7529959343256447
 20
27.4660721137582797
 30
0.0
 11
14.6141127280509533
 21
27.5820015377929018
 31
0.0
  0
LINE
  8
0
 62
7
 10
14.6141127280509533
 20
27.5820015377929018
 30
0.0
 11
14.47756728904365
 21
27.6903562709039832
 31
0.0
  0
LINE
  8
0
 62
7
 10
14.47756728904365
 20
27.6903562709039832
 30
0.0
 11
14.3438471819793989
 21
27.7915695254845225
 31
0.0
  0
LINE
  8
0
 62
7
 10
14.3438471819793989
 20
27.7915695254845225
 30
0.0
 11
14.2131579268339738
 21
27.8860295670015432
 31
0.0
  0
LINE
  8
0
 62
7
 10
14.2131579268339738
 20
27.8860295670015432
 30
0.0
 11
14.0852678742983439
 21
27.9740549931868223
 31
0.0
  0
LINE
  8
0
 62
7
 10
14.0852678742983439
 20
27.9740549931868223
 30
0.0
 11
13.9599077691034861
 21
28.0559584088486744
 31
0.0
  0
LINE
  8
0
 62
7
 10
13.9599077691034861
 20
28.0559584088486744
 30
0.0
 11
13.8368083559803825
 21
28.1320524187954071
 31
0.0
  0
LINE
  8
0
 62
7
 10
13.8368083559803825
 20
28.1320524187954071
 30
0.0
 11
13.7157003796600119
 21
28.2026496278353385
 31
0.0
  0
LINE
  8
0
 62
7
 10
13.7157003796600119
 20
28.2026496278353385
 30
0.0
 11
13.5963145848733529
 21
28.2680626407767726
 31
0.0
  0
LINE
  8
0
 62
7
 10
13.5963145848733529
 20
28.2680626407767726
 30
0.0
 11
13.4783817163513913
 21
28.3286040624280275
 31
0.0
  0
LINE
  8
0
 62
7
 10
13.4783817163513913
 20
28.3286040624280275
 30
0.0
 11
13.3616325188251022
 21
28.3845864975974145
 31
0.0
  0
LINE
  8
0
 62
7
 10
13.3616325188251022
 20
28.3845864975974145
 30
0.0
 11
13.2457986066356046
 21
28.4363223930015572
 31
0.0
  0
LINE
  8
0
 62
7
 10
13.2457986066356046
 20
28.4363223930015572
 30
0.0
 11
13.1307303898255139
 21
28.4841025987675316
 31
0.0
  0
LINE
  8
0
 62
7
 10
13.1307303898255139
 20
28.4841025987675316
 30
0.0
 11
13.0165166837955315
 21
28.5281746238694964
 31
0.0
  0
LINE
  8
0
 62
7
 10
13.0165166837955315
 20
28.5281746238694964
 30
0.0
 11
12.9032747993313048
 21
28.568780796933126
 31
0.0
  0
LINE
  8
0
 62
7
 10
12.9032747993313048
 20
28.568780796933126
 30
0.0
 11
12.7911220472184795
 21
28.6061634465840946
 31
0.0
  0
LINE
  8
0
 62
7
 10
12.7911220472184795
 20
28.6061634465840946
 30
0.0
 11
12.6801757382427027
 21
28.640564901448073
 31
0.0
  0
LINE
  8
0
 62
7
 10
12.6801757382427027
 20
28.640564901448073
 30
0.0
 11
12.5705531831896256
 21
28.6722274901507426
 31
0.0
  0
LINE
  8
0
 62
7
 10
12.5705531831896256
 20
28.6722274901507426
 30
0.0
 11
12.4623716928448918
 21
28.7013935413177705
 31
0.0
  0
LINE
  8
0
 62
7
 10
12.4623716928448918
 20
28.7013935413177705
 30
0.0
 11
12.3557485779941523
 21
28.7283053835748312
 31
0.0
  0
LINE
  8
0
 62
7
 10
12.3557485779941523
 20
28.7283053835748312
 30
0.0
 11
12.2508010904210689
 21
28.7532052295169436
 31
0.0
  0
LINE
  8
0
 62
7
 10
12.2508010904210689
 20
28.7532052295169436
 30
0.0
 11
12.147616508902404
 21
28.7762763481653643
 31
0.0
  0
LINE
  8
0
 62
7
 10
12.147616508902404
 20
28.7762763481653643
 30
0.0
 11
12.0462034625727803
 21
28.7975473396755852
 31
0.0
  0
LINE
  8
0
 62
7
 10
12.0462034625727803
 20
28.7975473396755852
 30
0.0
 11
11.9465578361386875
 21
28.8170217415811756
 31
0.0
  0
LINE
  8
0
 62
7
 10
11.9465578361386875
 20
28.8170217415811756
 30
0.0
 11
11.8486755143066169
 21
28.8347030914157045
 31
0.0
  0
LINE
  8
0
 62
7
 10
11.8486755143066169
 20
28.8347030914157045
 30
0.0
 11
11.7525523817830599
 21
28.8505949267127555
 31
0.0
  0
LINE
  8
0
 62
7
 10
11.7525523817830599
 20
28.8505949267127555
 30
0.0
 11
11.6581843232745097
 21
28.8647007850059012
 31
0.0
  0
LINE
  8
0
 62
7
 10
11.6581843232745097
 20
28.8647007850059012
 30
0.0
 11
11.5655672234874505
 21
28.8770242038287108
 31
0.0
  0
LINE
  8
0
 62
7
 10
11.5655672234874505
 20
28.8770242038287108
 30
0.0
 11
11.4746969671283789
 21
28.8875687207147571
 31
0.0
  0
LINE
  8
0
 62
7
 10
11.4746969671283789
 20
28.8875687207147571
 30
0.0
 11
11.3855694248949764
 21
28.8963378721175168
 31
0.0
  0
LINE
  8
0
 62
7
 10
11.3855694248949764
 20
28.8963378721175168
 30
0.0
 11
11.2980313577585605
 21
28.903323697902195
 31
0.0
  0
LINE
  8
0
 62
7
 10
11.2980313577585605
 20
28.903323697902195
 30
0.0
 11
11.2114123075803924
 21
28.908478359548468
 31
0.0
  0
LINE
  8
0
 62
7
 10
11.2114123075803924
 20
28.908478359548468
 30
0.0
 11
11.1249297457772673
 21
28.9117453777331193
 31
0.0
  0
LINE
  8
0
 62
7
 10
11.1249297457772673
 20
28.9117453777331193
 30
0.0
 11
11.0378011437659804
 21
28.9130682731329181
 31
0.0
  0
LINE
  8
0
 62
7
 10
11.0378011437659804
 20
28.9130682731329181
 30
0.0
 11
10.9492439729633197
 21
28.9123905664246408
 31
0.0
  0
LINE
  8
0
 62
7
 10
10.9492439729633197
 20
28.9123905664246408
 30
0.0
 11
10.858475704786084
 21
28.9096557782850638
 31
0.0
  0
LINE
  8
0
 62
7
 10
10.858475704786084
 20
28.9096557782850638
 30
0.0
 11
10.7647138106510614
 21
28.9048074293909636
 31
0.0
  0
LINE
  8
0
 62
7
 10
10.7647138106510614
 20
28.9048074293909636
 30
0.0
 11
10.6671757619750451
 21
28.8977890404191058
 31
0.0
  0
LINE
  8
0
 62
7
 10
10.6671757619750451
 20
28.8977890404191058
 30
0.0
 11
10.5650790301748323
 21
28.8885441320462775
 31
0.0
  0
LINE
  8
0
 62
7
 10
10.5650790301748323
 20
28.8885441320462775
 30
0.0
 11
10.4577592246178135
 21
28.8769788715596647
 31
0.0
  0
LINE
  8
0
 62
7
 10
10.4577592246178135
 20
28.8769788715596647
 30
0.0
 11
10.3450971760806585
 21
28.8628270356843863
 31
0.0
  0
LINE
  8
0
 62
7
 10
10.3450971760806585
 20
28.8628270356843863
 30
0.0
 11
10.2271308978833115
 21
28.8457727024607244
 31
0.0
  0
LINE
  8
0
 62
7
 10
10.2271308978833115
 20
28.8457727024607244
 30
0.0
 11
10.1038984181129567
 21
28.8254999452597822
 31
0.0
  0
LINE
  8
0
 62
7
 10
10.1038984181129567
 20
28.8254999452597822
 30
0.0
 11
9.9754377648567853
 21
28.8016928374526628
 31
0.0
  0
LINE
  8
0
 62
7
 10
9.9754377648567853
 20
28.8016928374526628
 30
0.0
 11
9.8417869662019832
 21
28.7740354524104696
 31
0.0
  0
LINE
  8
0
 62
7
 10
9.8417869662019832
 20
28.7740354524104696
 30
0.0
 11
9.7029840502357381
 21
28.7422118635043198
 31
0.0
  0
LINE
  8
0
 62
7
 10
9.7029840502357381
 20
28.7422118635043198
 30
0.0
 11
9.5590670450452393
 21
28.7059061441053096
 31
0.0
  0
LINE
  8
0
 62
7
 10
9.5590670450452393
 20
28.7059061441053096
 30
0.0
 11
9.4100739787176728
 21
28.6648023675845529
 31
0.0
  0
LINE
  8
0
 62
7
 10
9.4100739787176728
 20
28.6648023675845529
 30
0.0
 11
9.2560948026778416
 21
28.6185595329315987
 31
0.0
  0
LINE
  8
0
 62
7
 10
9.2560948026778416
 20
28.6185595329315987
 30
0.0
 11
9.0975399026516737
 21
28.5666818976980714
 31
0.0
  0
LINE
  8
0
 62
7
 10
9.0975399026516737
 20
28.5666818976980714
 30
0.0
 11
8.9349417803628217
 21
28.5086147482049057
 31
0.0
  0
LINE
  8
0
 62
7
 10
8.9349417803628217
 20
28.5086147482049057
 30
0.0
 11
8.7688331779207669
 21
28.4438032546879498
 31
0.0
  0
LINE
  8
0
 62
7
 10
8.7688331779207669
 20
28.4438032546879498
 30
0.0
 11
8.5997468374349797
 21
28.3716925873830448
 31
0.0
  0
LINE
  8
0
 62
7
 10
8.5997468374349797
 20
28.3716925873830448
 30
0.0
 11
8.4282155010149395
 21
28.2917279165260389
 31
0.0
  0
LINE
  8
0
 62
7
 10
8.4282155010149395
 20
28.2917279165260389
 30
0.0
 11
8.2547719107701241
 21
28.2033544123527768
 31
0.0
  0
LINE
  8
0
 62
7
 10
8.2547719107701241
 20
28.2033544123527768
 30
0.0
 11
8.0799488088100073
 21
28.1060172450990926
 31
0.0
  0
LINE
  8
0
 62
7
 10
8.0799488088100073
 20
28.1060172450990926
 30
0.0
 11
7.9042789372440669
 21
27.9991615850008415
 31
0.0
  0
LINE
  8
0
 62
7
 10
7.9042789372440669
 20
27.9991615850008415
 30
0.0
 11
7.7283273572958375
 21
27.8823462705731977
 31
0.0
  0
LINE
  8
0
 62
7
 10
7.7283273572958375
 20
27.8823462705731977
 30
0.0
 11
7.5529295266047995
 21
27.7560811408842056
 31
0.0
  0
LINE
  8
0
 62
7
 10
7.5529295266047995
 20
27.7560811408842056
 30
0.0
 11
7.3790556394294926
 21
27.621349911842227
 31
0.0
  0
LINE
  8
0
 62
7
 10
7.3790556394294926
 20
27.621349911842227
 30
0.0
 11
7.2076768763295442
 21
27.4791397682362124
 31
0.0
  0
LINE
  8
0
 62
7
 10
7.2076768763295442
 20
27.4791397682362124
 30
0.0
 11
7.0397644178645837
 21
27.3304378948551232
 31
0.0
  0
LINE
  8
0
 62
7
 10
7.0397644178645837
 20
27.3304378948551232
 30
0.0
 11
6.8762894445942404
 21
27.17623147648791
 31
0.0
  0
LINE
  8
0
 62
7
 10
6.8762894445942404
 20
27.17623147648791
 30
0.0
 11
6.7182231370781409
 21
27.0175076979235307
 31
0.0
  0
LINE
  8
0
 62
7
 10
6.7182231370781409
 20
27.0175076979235307
 30
0.0
 11
6.5665366758759163
 21
26.8552537439509358
 31
0.0
  0
LINE
  8
0
 62
7
 10
6.5665366758759163
 20
26.8552537439509358
 30
0.0
 11
6.4222012415471932
 21
26.6904567993590831
 31
0.0
  0
LINE
  8
0
 62
7
 10
6.4222012415471932
 20
26.6904567993590831
 30
0.0
 11
6.2861348638879884
 21
26.5240721394224153
 31
0.0
  0
LINE
  8
0
 62
7
 10
6.2861348638879884
 20
26.5240721394224153
 30
0.0
 11
6.1586376950673305
 21
26.3566840913091589
 31
0.0
  0
LINE
  8
0
 62
7
 10
6.1586376950673305
 20
26.3566840913091589
 30
0.0
 11
6.0396112565271558
 21
26.188637660828693
 31
0.0
  0
LINE
  8
0
 62
7
 10
6.0396112565271558
 20
26.188637660828693
 30
0.0
 11
5.9289504258639489
 21
26.0202738651010783
 31
0.0
  0
LINE
  8
0
 62
7
 10
5.9289504258639489
 20
26.0202738651010783
 30
0.0
 11
5.8265500806741954
 21
25.8519337212463789
 31
0.0
  0
LINE
  8
0
 62
7
 10
5.8265500806741954
 20
25.8519337212463789
 30
0.0
 11
5.7323050985543818
 21
25.6839582463846696
 31
0.0
  0
LINE
  8
0
 62
7
 10
5.7323050985543818
 20
25.6839582463846696
 30
0.0
 11
5.6461103571009925
 21
25.5166884576360005
 31
0.0
  0
LINE
  8
0
 62
7
 10
5.6461103571009925
 20
25.5166884576360005
 30
0.0
 11
5.5678607339105133
 21
25.3504653721204463
 31
0.0
  0
LINE
  8
0
 62
7
 10
5.5678607339105133
 20
25.3504653721204463
 30
0.0
 11
5.4974511065794287
 21
25.1856300069580676
 31
0.0
  0
LINE
  8
0
 62
7
 10
5.4974511065794287
 20
25.1856300069580676
 30
0.0
 11
5.4347620395005505
 21
25.0225218739616118
 31
0.0
  0
LINE
  8
0
 62
7
 10
5.4347620395005505
 20
25.0225218739616118
 30
0.0
 11
5.3794336799737206
 21
24.8614552004849862
 31
0.0
  0
LINE
  8
0
 62
7
 10
5.3794336799737206
 20
24.8614552004849862
 30
0.0
 11
5.3309066850225699
 21
24.70272323366137
 31
0.0
  0
LINE
  8
0
 62
7
 10
5.3309066850225699
 20
24.70272323366137
 30
0.0
 11
5.2886156732879286
 21
24.5466185855724142
 31
0.0
  0
LINE
  8
0
 62
7
 10
5.2886156732879286
 20
24.5466185855724142
 30
0.0
 11
5.2519952634106266
 21
24.3934338682997698
 31
0.0
  0
LINE
  8
0
 62
7
 10
5.2519952634106266
 20
24.3934338682997698
 30
0.0
 11
5.2204800740314941
 21
24.2434616939250915
 31
0.0
  0
LINE
  8
0
 62
7
 10
5.2204800740314941
 20
24.2434616939250915
 30
0.0
 11
5.1935047237913619
 21
24.0969946745300341
 31
0.0
  0
LINE
  8
0
 62
7
 10
5.1935047237913619
 20
24.0969946745300341
 30
0.0
 11
5.1705038313310592
 21
23.9543254221962485
 31
0.0
  0
LINE
  8
0
 62
7
 10
5.1705038313310592
 20
23.9543254221962485
 30
0.0
 11
5.150912015291417
 21
23.8157465490053895
 31
0.0
  0
LINE
  8
0
 62
7
 10
5.150912015291417
 20
23.8157465490053895
 30
0.0
 11
5.1341741236358223
 21
23.6815185900101248
 31
0.0
  0
LINE
  8
0
 62
7
 10
5.1341741236358223
 20
23.6815185900101248
 30
0.0
 11
5.1199988287857519
 21
23.5510747816086905
 31
0.0
  0
LINE
  8
0
 62
7
 10
5.1199988287857519
 20
23.5510747816086905
 30
0.0
 11
5.1083755366909553
 21
23.4229680382159771
 31
0.0
  0
LINE
  8
0
 62
7
 10
5.1083755366909553
 20
23.4229680382159771
 30
0.0
 11
5.0993072685295102
 21
23.2957085797213068
 31
0.0
  0
LINE
  8
0
 62
7
 10
5.0993072685295102
 20
23.2957085797213068
 30
0.0
 11
5.0927970454794913
 21
23.167806626013995
 31
0.0
  0
LINE
  8
0
 62
7
 10
5.0927970454794913
 20
23.167806626013995
 30
0.0
 11
5.0888478887189743
 21
23.0377723969833568
 31
0.0
  0
LINE
  8
0
 62
7
 10
5.0888478887189743
 20
23.0377723969833568
 30
0.0
 11
5.0874628194260358
 21
22.9041161125187145
 31
0.0
  0
LINE
  8
0
 62
7
 10
5.0874628194260358
 20
22.9041161125187145
 30
0.0
 11
5.0886448587787507
 21
22.7653479925093833
 31
0.0
  0
LINE
  8
0
 62
7
 10
5.0886448587787507
 20
22.7653479925093833
 30
0.0
 11
5.0923970279551956
 21
22.6199782568446857
 31
0.0
  0
LINE
  8
0
 62
7
 10
5.0923970279551956
 20
22.6199782568446857
 30
0.0
 11
5.0987329955976133
 21
22.4665346438461739
 31
0.0
  0
LINE
  8
0
 62
7
 10
5.0987329955976133
 20
22.4665346438461739
 30
0.0
 11
5.1081310299517213
 21
22.3043093045205119
 31
0.0
  0
LINE
  8
0
 62
7
 10
5.1081310299517213
 20
22.3043093045205119
 30
0.0
 11
5.1217040047643119
 21
22.1336385158086593
 31
0.0
  0
LINE
  8
0
 62
7
 10
5.1217040047643119
 20
22.1336385158086593
 30
0.0
 11
5.1406104822172933
 21
21.954933726518064
 31
0.0
  0
LINE
  8
0
 62
7
 10
5.1406104822172933
 20
21.954933726518064
 30
0.0
 11
5.1660090244925714
 21
21.7686063854561773
 31
0.0
  0
LINE
  8
0
 62
7
 10
5.1660090244925714
 20
21.7686063854561773
 30
0.0
 11
5.1990581937720508
 21
21.57506794143044
 31
0.0
  0
LINE
  8
0
 62
7
 10
5.1990581937720508
 20
21.57506794143044
 30
0.0
 11
5.2409165522376391
 21
21.3747298432483106
 31
0.0
  0
LINE
  8
0
 62
7
 10
5.2409165522376391
 20
21.3747298432483106
 30
0.0
 11
5.292742662071241
 21
21.1680035397172226
 31
0.0
  0
LINE
  8
0
 62
7
 10
5.292742662071241
 20
21.1680035397172226
 30
0.0
 11
5.355695085454764
 21
20.9553004796446345
 31
0.0
  0
LINE
  8
0
 62
7
 10
5.355695085454764
 20
20.9553004796446345
 30
0.0
 11
5.4309300198982653
 21
20.7370345394185307
 31
0.0
  0
LINE
  8
0
 62
7
 10
5.4309300198982653
 20
20.7370345394185307
 30
0.0
 11
5.5193976408769716
 21
20.5138310983808694
 31
0.0
  0
LINE
  8
0
 62
7
 10
5.5193976408769716
 20
20.5138310983808694
 30
0.0
 11
5.6216851467373159
 21
20.2866881694855259
 31
0.0
  0
LINE
  8
0
 62
7
 10
5.6216851467373159
 20
20.2866881694855259
 30
0.0
 11
5.738342787828091
 21
20.0566416966322087
 31
0.0
  0
LINE
  8
0
 62
7
 10
5.738342787828091
 20
20.0566416966322087
 30
0.0
 11
5.8699208144980917
 21
19.8247276237206229
 31
0.0
  0
LINE
  8
0
 62
7
 10
5.8699208144980917
 20
19.8247276237206229
 30
0.0
 11
6.0169694770961106
 21
19.5919818946504805
 31
0.0
  0
LINE
  8
0
 62
7
 10
6.0169694770961106
 20
19.5919818946504805
 30
0.0
 11
6.1800390259709435
 21
19.3594404533214863
 31
0.0
  0
LINE
  8
0
 62
7
 10
6.1800390259709435
 20
19.3594404533214863
 30
0.0
 11
6.3596797114713812
 21
19.1281392436333455
 31
0.0
  0
LINE
  8
0
 62
7
 10
6.3596797114713812
 20
19.1281392436333455
 30
0.0
 11
6.5564417839462195
 21
18.8991142094857665
 31
0.0
  0
LINE
  8
0
 62
7
 10
6.5564417839462195
 20
18.8991142094857665
 30
0.0
 11
6.7708731969253826
 21
18.6734028224271782
 31
0.0
  0
LINE
  8
0
 62
7
 10
6.7708731969253826
 20
18.6734028224271782
 30
0.0
 11
7.002970344419718
 21
18.4524094045239124
 31
0.0
  0
LINE
  8
0
 62
7
 10
7.002970344419718
 20
18.4524094045239124
 30
0.0
 11
7.2514656523054066
 21
18.2383789620274044
 31
0.0
  0
LINE
  8
0
 62
7
 10
7.2514656523054066
 20
18.2383789620274044
 30
0.0
 11
7.5149152297225212
 21
18.0336737720976963
 31
0.0
  0
LINE
  8
0
 62
7
 10
7.5149152297225212
 20
18.0336737720976963
 30
0.0
 11
7.7918751858111328
 21
17.8406561118948339
 31
0.0
  0
LINE
  8
0
 62
7
 10
7.7918751858111328
 20
17.8406561118948339
 30
0.0
 11
8.0809016297113185
 21
17.6616882585788737
 31
0.0
  0
LINE
  8
0
 62
7
 10
8.0809016297113185
 20
17.6616882585788737
 30
0.0
 11
8.3805506705631476
 21
17.4991324893098508
 31
0.0
  0
LINE
  8
0
 62
7
 10
8.3805506705631476
 20
17.4991324893098508
 30
0.0
 11
8.6893784175066937
 21
17.3553510812478144
 31
0.0
  0
LINE
  8
0
 62
7
 10
8.6893784175066937
 20
17.3553510812478144
 30
0.0
 11
9.0059409796820322
 21
17.2327063115528141
 31
0.0
  0
LINE
  8
0
 62
7
 10
9.0059409796820322
 20
17.2327063115528141
 30
0.0
 11
9.3287946013346605
 21
17.1335597119580072
 31
0.0
  0
LINE
  8
0
 62
7
 10
9.3287946013346605
 20
17.1335597119580072
 30
0.0
 11
9.6567004647575558
 21
17.0591420947848427
 31
0.0
  0
LINE
  8
0
 62
7
 10
9.6567004647575558
 20
17.0591420947848427
 30
0.0
 11
9.9890372516064847
 21
17.0072772987602185
 31
0.0
  0
LINE
  8
0
 62
7
 10
9.9890372516064847
 20
17.0072772987602185
 30
0.0
 11
10.3252994795543316
 21
16.975150052232383
 31
0.0
  0
LINE
  8
0
 62
7
 10
10.3252994795543316
 20
16.975150052232383
 30
0.0
 11
10.6649816662739738
 21
16.9599450835495915
 31
0.0
  0
LINE
  8
0
 62
7
 10
10.6649816662739738
 20
16.9599450835495915
 30
0.0
 11
11.0075783294382958
 21
16.9588471210600886
 31
0.0
  0
LINE
  8
0
 62
7
 10
11.0075783294382958
 20
16.9588471210600886
 30
0.0
 11
11.3525839867201732
 21
16.9690408931121262
 31
0.0
  0
LINE
  8
0
 62
7
 10
11.3525839867201732
 20
16.9690408931121262
 30
0.0
 11
11.6994931557924904
 21
16.9877111280539559
 31
0.0
  0
LINE
  8
0
 62
7
 10
11.6994931557924904
 20
16.9877111280539559
 30
0.0
 11
12.0478003543281265
 21
17.0120425542338261
 31
0.0
  0
LINE
  8
0
 62
7
 10
12.0478003543281265
 20
17.0120425542338261
 30
0.0
 11
12.397000100000005
 21
17.039219899999992
 31
0.0
  0
LINE
  8
0
 62
7
 10
7.5426647000000084
 20
21.6638335999999896
 30
0.0
 11
7.5426647000000084
 21
21.6638335999999896
 31
0.0
  0
LINE
  8
0
 62
7
 10
7.7403332000000091
 20
21.8311372999999378
 30
0.0
 11
8.248333400000007
 21
21.5022530000000351
 31
0.0
  0
LINE
  8
0
 62
7
 10
8.248333400000007
 20
21.5022530000000351
 30
0.0
 11
8.5636073000000046
 21
21.858090200000035
 31
0.0
  0
LINE
  8
0
 62
7
 10
9.1690697000000103
 20
22.3516298000000546
 30
0.0
 11
9.2194875077784673
 21
22.3714281451880268
 31
0.0
  0
LINE
  8
0
 62
7
 10
9.2194875077784673
 20
22.3714281451880268
 30
0.0
 11
9.2708099451072847
 21
22.3909565388059022
 31
0.0
  0
LINE
  8
0
 62
7
 10
9.2708099451072847
 20
22.3909565388059022
 30
0.0
 11
9.323174091911989
 21
22.4096420331436974
 31
0.0
  0
LINE
  8
0
 62
7
 10
9.323174091911989
 20
22.4096420331436974
 30
0.0
 11
9.3767170281181098
 21
22.4269116804914219
 31
0.0
  0
LINE
  8
0
 62
7
 10
9.3767170281181098
 20
22.4269116804914219
 30
0.0
 11
9.4315758336511717
 21
22.4421925331390923
 31
0.0
  0
LINE
  8
0
 62
7
 10
9.4315758336511717
 20
22.4421925331390923
 30
0.0
 11
9.4878875884367027
 21
22.4549116433767146
 31
0.0
  0
LINE
  8
0
 62
7
 10
9.4878875884367027
 20
22.4549116433767146
 30
0.0
 11
9.5457893724002343
 21
22.4644960634943125
 31
0.0
  0
LINE
  8
0
 62
7
 10
9.5457893724002343
 20
22.4644960634943125
 30
0.0
 11
9.6054182654672875
 21
22.4703728457818848
 31
0.0
  0
LINE
  8
0
 62
7
 10
9.6054182654672875
 20
22.4703728457818848
 30
0.0
 11
9.6669110866863566
 21
22.4719706662196188
 31
0.0
  0
LINE
  8
0
 62
7
 10
9.6669110866863566
 20
22.4719706662196188
 30
0.0
 11
9.7303671732359032
 21
22.4689514867200479
 31
0.0
  0
LINE
  8
0
 62
7
 10
9.7303671732359032
 20
22.4689514867200479
 30
0.0
 11
9.795809645888216
 21
22.4614516376134929
 31
0.0
  0
LINE
  8
0
 62
7
 10
9.795809645888216
 20
22.4614516376134929
 30
0.0
 11
9.8632523715061122
 21
22.4496650452599624
 31
0.0
  0
LINE
  8
0
 62
7
 10
9.8632523715061122
 20
22.4496650452599624
 30
0.0
 11
9.9327092169524089
 21
22.4337856360194614
 31
0.0
  0
LINE
  8
0
 62
7
 10
9.9327092169524089
 20
22.4337856360194614
 30
0.0
 11
10.004194049089925
 21
22.4140073362519985
 31
0.0
  0
LINE
  8
0
 62
7
 10
10.004194049089925
 20
22.4140073362519985
 30
0.0
 11
10.0777207347814741
 21
22.3905240723175858
 31
0.0
  0
LINE
  8
0
 62
7
 10
10.0777207347814741
 20
22.3905240723175858
 30
0.0
 11
10.1533031408898786
 21
22.3635297705762284
 31
0.0
  0
LINE
  8
0
 62
7
 10
10.1533031408898786
 20
22.3635297705762284
 30
0.0
 11
10.2309551342779521
 21
22.3332183573879348
 31
0.0
  0
LINE
  8
0
 62
7
 10
10.2309551342779521
 20
22.3332183573879348
 30
0.0
 11
10.31068988623948
 21
22.2997848594084083
 31
0.0
  0
LINE
  8
0
 62
7
 10
10.31068988623948
 20
22.2997848594084083
 30
0.0
 11
10.3925017572858831
 21
22.2634540593949737
 31
0.0
  0
LINE
  8
0
 62
7
 10
10.3925017572858831
 20
22.2634540593949737
 30
0.0
 11
10.4763645876281597
 21
22.2244832004318589
 31
0.0
  0
LINE
  8
0
 62
7
 10
10.4763645876281597
 20
22.2244832004318589
 30
0.0
 11
10.5622511791934972
 21
22.1831311680271774
 31
0.0
  0
LINE
  8
0
 62
7
 10
10.5622511791934972
 20
22.1831311680271774
 30
0.0
 11
10.6501343339090901
 21
22.1396568476890536
 31
0.0
  0
LINE
  8
0
 62
7
 10
10.6501343339090901
 20
22.1396568476890536
 30
0.0
 11
10.7399868537021277
 21
22.0943191249255975
 31
0.0
  0
LINE
  8
0
 62
7
 10
10.7399868537021277
 20
22.0943191249255975
 30
0.0
 11
10.8317815404998026
 21
22.0473768852449368
 31
0.0
  0
LINE
  8
0
 62
7
 10
10.8317815404998026
 20
22.0473768852449368
 30
0.0
 11
10.925491196229304
 21
21.9990890141551851
 31
0.0
  0
LINE
  8
0
 62
7
 10
10.925491196229304
 20
21.9990890141551851
 30
0.0
 11
11.0210886228178264
 21
21.9497143971644597
 31
0.0
  0
LINE
  8
0
 62
7
 10
11.0210886228178264
 20
21.9497143971644597
 30
0.0
 11
11.1185523735593677
 21
21.8995389734442725
 31
0.0
  0
LINE
  8
0
 62
7
 10
11.1185523735593677
 20
21.8995389734442725
 30
0.0
 11
11.2179203766454876
 21
21.8491279737756336
 31
0.0
  0
LINE
  8
0
 62
7
 10
11.2179203766454876
 20
21.8491279737756336
 30
0.0
 11
11.3192655882714224
 21
21.7992113960031766
 31
0.0
  0
LINE
  8
0
 62
7
 10
11.3192655882714224
 20
21.7992113960031766
 30
0.0
 11
11.4226614173639085
 21
21.7505213675601929
 31
0.0
  0
LINE
  8
0
 62
7
 10
11.4226614173639085
 20
21.7505213675601929
 30
0.0
 11
11.5281812728496753
 21
21.7037900158799744
 31
0.0
  0
LINE
  8
0
 62
7
 10
11.5281812728496753
 20
21.7037900158799744
 30
0.0
 11
11.6358985636554593
 21
21.6597494683958196
 31
0.0
  0
LINE
  8
0
 62
7
 10
11.6358985636554593
 20
21.6597494683958196
 30
0.0
 11
11.7458866987079933
 21
21.6191318525410168
 31
0.0
  0
LINE
  8
0
 62
7
 10
11.7458866987079933
 20
21.6191318525410168
 30
0.0
 11
11.8582190869340085
 21
21.5826692957488575
 31
0.0
  0
LINE
  8
0
 62
7
 10
11.8582190869340085
 20
21.5826692957488575
 30
0.0
 11
11.9729691372602414
 21
21.5510939254526406
 31
0.0
  0
LINE
  8
0
 62
7
 10
11.9729691372602414
 20
21.5510939254526406
 30
0.0
 11
12.0900803651201585
 21
21.5250630232451456
 31
0.0
  0
LINE
  8
0
 62
7
 10
12.0900803651201585
 20
21.5250630232451456
 30
0.0
 11
12.2088613510255133
 21
21.504868015304158
 31
0.0
  0
LINE
  8
0
 62
7
 10
12.2088613510255133
 20
21.504868015304158
 30
0.0
 11
12.3284269713428518
 21
21.4906887136750449
 31
0.0
  0
LINE
  8
0
 62
7
 10
12.3284269713428518
 20
21.4906887136750449
 30
0.0
 11
12.4478920551014447
 21
21.482704903126983
 31
0.0
  0
LINE
  8
0
 62
7
 10
12.4478920551014447
 20
21.482704903126983
 30
0.0
 11
12.566371431330559
 21
21.4810963684291671
 31
0.0
  0
LINE
  8
0
 62
7
 10
12.566371431330559
 20
21.4810963684291671
 30
0.0
 11
12.6829799290594654
 21
21.4860428943507671
 31
0.0
  0
LINE
  8
0
 62
7
 10
12.6829799290594654
 20
21.4860428943507671
 30
0.0
 11
12.7968323773174291
 21
21.4977242656609775
 31
0.0
  0
LINE
  8
0
 62
7
 10
12.7968323773174291
 20
21.4977242656609775
 30
0.0
 11
12.9070436051337207
 21
21.5163202671289682
 31
0.0
  0
LINE
  8
0
 62
7
 10
12.9070436051337207
 20
21.5163202671289682
 30
0.0
 11
13.0127293867249278
 21
21.5420099958580522
 31
0.0
  0
LINE
  8
0
 62
7
 10
13.0127293867249278
 20
21.5420099958580522
 30
0.0
 11
13.1133259148084278
 21
21.5747394302165141
 31
0.0
  0
LINE
  8
0
 62
7
 10
13.1133259148084278
 20
21.5747394302165141
 30
0.0
 11
13.2090548327628365
 21
21.613883098222253
 31
0.0
  0
LINE
  8
0
 62
7
 10
13.2090548327628365
 20
21.613883098222253
 30
0.0
 11
13.3002559323815213
 21
21.6587295696575381
 31
0.0
  0
LINE
  8
0
 62
7
 10
13.3002559323815213
 20
21.6587295696575381
 30
0.0
 11
13.3872690054578403
 21
21.708567414304639
 31
0.0
  0
LINE
  8
0
 62
7
 10
13.3872690054578403
 20
21.708567414304639
 30
0.0
 11
13.470433843785159
 21
21.7626852019458283
 31
0.0
  0
LINE
  8
0
 62
7
 10
13.470433843785159
 20
21.7626852019458283
 30
0.0
 11
13.550090239156841
 21
21.8203715023633826
 31
0.0
  0
LINE
  8
0
 62
7
 10
13.550090239156841
 20
21.8203715023633826
 30
0.0
 11
13.6265779833662481
 21
21.8809148853395676
 31
0.0
  0
LINE
  8
0
 62
7
 10
13.6265779833662481
 20
21.8809148853395676
 30
0.0
 11
13.7002368682067459
 21
21.9436039206566633
 31
0.0
  0
LINE
  8
0
 62
7
 10
13.7002368682067459
 20
21.9436039206566633
 30
0.0
 11
13.7714019325768202
 21
22.0077312984934252
 31
0.0
  0
LINE
  8
0
 62
7
 10
13.7714019325768202
 20
22.0077312984934252
 30
0.0
 11
13.8402234465867284
 21
22.0727498894422354
 31
0.0
  0
LINE
  8
0
 62
7
 10
13.8402234465867284
 20
22.0727498894422354
 30
0.0
 11
13.9066116591555797
 21
22.1383206441183233
 31
0.0
  0
LINE
  8
0
 62
7
 10
13.9066116591555797
 20
22.1383206441183233
 30
0.0
 11
13.9704607781822858
 21
22.2041184194750585
 31
0.0
  0
LINE
  8
0
 62
7
 10
13.9704607781822858
 20
22.2041184194750585
 30
0.0
 11
14.0316650115657549
 21
22.2698180724658279
 31
0.0
  0
LINE
  8
0
 62
7
 10
14.0316650115657549
 20
22.2698180724658279
 30
0.0
 11
14.0901185672048967
 21
22.3350944600440009
 31
0.0
  0
LINE
  8
0
 62
7
 10
14.0901185672048967
 20
22.3350944600440009
 30
0.0
 11
14.1457156529986214
 21
22.3996224391629681
 31
0.0
  0
LINE
  8
0
 62
7
 10
14.1457156529986214
 20
22.3996224391629681
 30
0.0
 11
14.1983504768458388
 21
22.4630768667760989
 31
0.0
  0
LINE
  8
0
 62
7
 10
14.1983504768458388
 20
22.4630768667760989
 30
0.0
 11
14.2479172466454589
 21
22.5251325998367804
 31
0.0
  0
LINE
  8
0
 62
7
 10
14.2479172466454589
 20
22.5251325998367804
 30
0.0
 11
14.294339080510424
 21
22.5854886228244673
 31
0.0
  0
LINE
  8
0
 62
7
 10
14.294339080510424
 20
22.5854886228244673
 30
0.0
 11
14.3379193381542507
 21
22.6441612575142059
 31
0.0
  0
LINE
  8
0
 62
7
 10
14.3379193381542507
 20
22.6441612575142059
 30
0.0
 11
14.3792294362786048
 21
22.7013905373410729
 31
0.0
  0
LINE
  8
0
 62
7
 10
14.3792294362786048
 20
22.7013905373410729
 30
0.0
 11
14.4188464016587652
 21
22.7574211777254618
 31
0.0
  0
LINE
  8
0
 62
7
 10
14.4188464016587652
 20
22.7574211777254618
 30
0.0
 11
14.4573472610700016
 21
22.8124978940877483
 31
0.0
  0
LINE
  8
0
 62
7
 10
14.4573472610700016
 20
22.8124978940877483
 30
0.0
 11
14.4953090412875962
 21
22.8668654018483331
 31
0.0
  0
LINE
  8
0
 62
7
 10
14.4953090412875962
 20
22.8668654018483331
 30
0.0
 11
14.533308769086819
 21
22.9207684164275953
 31
0.0
  0
LINE
  8
0
 62
7
 10
14.533308769086819
 20
22.9207684164275953
 30
0.0
 11
14.5719234712429468
 21
22.9744516532459215
 31
0.0
  0
LINE
  8
0
 62
7
 10
14.5719234712429468
 20
22.9744516532459215
 30
0.0
 11
14.6117301745312567
 21
23.0281598277237016
 31
0.0
  0
LINE
  8
0
 62
7
 10
14.6117301745312567
 20
23.0281598277237016
 30
0.0
 11
14.6530720406727237
 21
23.0820771148354957
 31
0.0
  0
LINE
  8
0
 62
7
 10
14.6530720406727237
 20
23.0820771148354957
 30
0.0
 11
14.6948909571166997
 21
23.1360249428881986
 31
0.0
  0
LINE
  8
0
 62
7
 10
14.6948909571166997
 20
23.1360249428881986
 30
0.0
 11
14.7356092412943127
 21
23.1896902395441487
 31
0.0
  0
LINE
  8
0
 62
7
 10
14.7356092412943127
 20
23.1896902395441487
 30
0.0
 11
14.7736483590570735
 21
23.2427597120180103
 31
0.0
  0
LINE
  8
0
 62
7
 10
14.7736483590570735
 20
23.2427597120180103
 30
0.0
 11
14.8074297762564857
 21
23.294920067524437
 31
0.0
  0
LINE
  8
0
 62
7
 10
14.8074297762564857
 20
23.294920067524437
 30
0.0
 11
14.8353749587440582
 21
23.345858013278086
 31
0.0
  0
LINE
  8
0
 62
7
 10
14.8353749587440582
 20
23.345858013278086
 30
0.0
 11
14.8559053723712964
 21
23.3952602564936107
 31
0.0
  0
LINE
  8
0
 62
7
 10
14.8559053723712964
 20
23.3952602564936107
 30
0.0
 11
14.8674424829897127
 21
23.4428135043856756
 31
0.0
  0
LINE
  8
0
 62
7
 10
14.8674424829897127
 20
23.4428135043856756
 30
0.0
 11
14.8684082949272742
 21
23.4882045326573881
 31
0.0
  0
LINE
  8
0
 62
7
 10
14.8684082949272742
 20
23.4882045326573881
 30
0.0
 11
14.8579393707865801
 21
23.5312110011990114
 31
0.0
  0
LINE
  8
0
 62
7
 10
14.8579393707865801
 20
23.5312110011990114
 30
0.0
 11
14.8372954858882284
 21
23.5718806199006998
 31
0.0
  0
LINE
  8
0
 62
7
 10
14.8372954858882284
 20
23.5718806199006998
 30
0.0
 11
14.8081289648988577
 21
23.6103110267403409
 31
0.0
  0
LINE
  8
0
 62
7
 10
14.8081289648988577
 20
23.6103110267403409
 30
0.0
 11
14.7720921324851151
 21
23.6465998596958364
 31
0.0
  0
LINE
  8
0
 62
7
 10
14.7720921324851151
 20
23.6465998596958364
 30
0.0
 11
14.7308373133136392
 21
23.6808447567450742
 31
0.0
  0
LINE
  8
0
 62
7
 10
14.7308373133136392
 20
23.6808447567450742
 30
0.0
 11
14.686016832051072
 21
23.7131433558659488
 31
0.0
  0
LINE
  8
0
 62
7
 10
14.686016832051072
 20
23.7131433558659488
 30
0.0
 11
14.6392830133640537
 21
23.743593295036348
 31
0.0
  0
LINE
  8
0
 62
7
 10
14.6392830133640537
 20
23.743593295036348
 30
0.0
 11
14.5922881819192281
 21
23.7722922122341664
 31
0.0
  0
LINE
  8
0
 62
7
 10
14.5922881819192281
 20
23.7722922122341664
 30
0.0
 11
14.5466724982271884
 21
23.7993398700841183
 31
0.0
  0
LINE
  8
0
 62
7
 10
14.5466724982271884
 20
23.7993398700841183
 30
0.0
 11
14.5033462734358043
 21
23.8249635100200408
 31
0.0
  0
LINE
  8
0
 62
7
 10
14.5033462734358043
 20
23.8249635100200408
 30
0.0
 11
14.4620885521807274
 21
23.8495879656299472
 31
0.0
  0
LINE
  8
0
 62
7
 10
14.4620885521807274
 20
23.8495879656299472
 30
0.0
 11
14.4225810658492399
 21
23.8736550676763919
 31
0.0
  0
LINE
  8
0
 62
7
 10
14.4225810658492399
 20
23.8736550676763919
 30
0.0
 11
14.3845055458286222
 21
23.897606646921929
 31
0.0
  0
LINE
  8
0
 62
7
 10
14.3845055458286222
 20
23.897606646921929
 30
0.0
 11
14.3475437235061598
 21
23.9218845341291164
 31
0.0
  0
LINE
  8
0
 62
7
 10
14.3475437235061598
 20
23.9218845341291164
 30
0.0
 11
14.3113773302691349
 21
23.9469305600605047
 31
0.0
  0
LINE
  8
0
 62
7
 10
14.3113773302691349
 20
23.9469305600605047
 30
0.0
 11
14.2756880975048297
 21
23.9731865554786516
 31
0.0
  0
LINE
  8
0
 62
7
 10
14.2756880975048297
 20
23.9731865554786516
 30
0.0
 11
14.2401577566005315
 21
24.001094351146115
 31
0.0
  0
LINE
  8
0
 62
7
 10
14.2401577566005315
 20
24.001094351146115
 30
0.0
 11
14.204485378712052
 21
24.0310532358450537
 31
0.0
  0
LINE
  8
0
 62
7
 10
14.204485378712052
 20
24.0310532358450537
 30
0.0
 11
14.1686671051472821
 21
24.0627336562993754
 31
0.0
  0
LINE
  8
0
 62
7
 10
14.1686671051472821
 20
24.0627336562993754
 30
0.0
 11
14.1329486703528975
 21
24.0951936989008537
 31
0.0
  0
LINE
  8
0
 62
7
 10
14.1329486703528975
 20
24.0951936989008537
 30
0.0
 11
14.0975835627897101
 21
24.127472426078107
 31
0.0
  0
LINE
  8
0
 62
7
 10
14.0975835627897101
 20
24.127472426078107
 30
0.0
 11
14.0628252709185375
 21
24.1586089002597717
 31
0.0
  0
LINE
  8
0
 62
7
 10
14.0628252709185375
 20
24.1586089002597717
 30
0.0
 11
14.0289272832001863
 21
24.1876421838744555
 31
0.0
  0
LINE
  8
0
 62
7
 10
14.0289272832001863
 20
24.1876421838744555
 30
0.0
 11
13.9961430880954758
 21
24.2136113393507912
 31
0.0
  0
LINE
  8
0
 62
7
 10
13.9961430880954758
 20
24.2136113393507912
 30
0.0
 11
13.964726174065218
 21
24.2355554291174045
 31
0.0
  0
LINE
  8
0
 62
7
 10
13.964726174065218
 20
24.2355554291174045
 30
0.0
 11
13.934930029570225
 21
24.2525135156029137
 31
0.0
  0
LINE
  8
0
 62
7
 10
13.934930029570225
 20
24.2525135156029137
 30
0.0
 11
13.9069775788831205
 21
24.2636687452907402
 31
0.0
  0
LINE
  8
0
 62
7
 10
13.9069775788831205
 20
24.2636687452907402
 30
0.0
 11
13.8808658578231636
 21
24.2692691358817996
 31
0.0
  0
LINE
  8
0
 62
7
 10
13.8808658578231636
 20
24.2692691358817996
 30
0.0
 11
13.8564906583362273
 21
24.2700399835085143
 31
0.0
  0
LINE
  8
0
 62
7
 10
13.8564906583362273
 20
24.2700399835085143
 30
0.0
 11
13.83374729480275
 21
24.2667088356166794
 31
0.0
  0
LINE
  8
0
 62
7
 10
13.83374729480275
 20
24.2667088356166794
 30
0.0
 11
13.8125310816031615
 21
24.2600032396520753
 31
0.0
  0
LINE
  8
0
 62
7
 10
13.8125310816031615
 20
24.2600032396520753
 30
0.0
 11
13.7927373331178984
 21
24.2506507430604898
 31
0.0
  0
LINE
  8
0
 62
7
 10
13.7927373331178984
 20
24.2506507430604898
 30
0.0
 11
13.7742613637273923
 21
24.2393788932877072
 31
0.0
  0
LINE
  8
0
 62
7
 10
13.7742613637273923
 20
24.2393788932877072
 30
0.0
 11
13.7569984878120799
 21
24.2269152377795152
 31
0.0
  0
LINE
  8
0
 62
7
 10
13.7569984878120799
 20
24.2269152377795152
 30
0.0
 11
13.7408440182516873
 21
24.213987317463225
 31
0.0
  0
LINE
  8
0
 62
7
 10
13.7408440182516873
 20
24.213987317463225
 30
0.0
 11
13.7256485664186911
 21
24.2011285074390123
 31
0.0
  0
LINE
  8
0
 62
7
 10
13.7256485664186911
 20
24.2011285074390123
 30
0.0
 11
13.7111009331435039
 21
24.1881693412325767
 31
0.0
  0
LINE
  8
0
 62
7
 10
13.7111009331435039
 20
24.1881693412325767
 30
0.0
 11
13.6968533185562205
 21
24.1747813732727685
 31
0.0
  0
LINE
  8
0
 62
7
 10
13.6968533185562205
 20
24.1747813732727685
 30
0.0
 11
13.6825579227869341
 21
24.160636157988435
 31
0.0
  0
LINE
  8
0
 62
7
 10
13.6825579227869341
 20
24.160636157988435
 30
0.0
 11
13.6678669459657396
 21
24.1454052498084231
 31
0.0
  0
LINE
  8
0
 62
7
 10
13.6678669459657396
 20
24.1454052498084231
 30
0.0
 11
13.6524325882227284
 21
24.1287602031615798
 31
0.0
  0
LINE
  8
0
 62
7
 10
13.6524325882227284
 20
24.1287602031615798
 30
0.0
 11
13.635907049687999
 21
24.1103725724767592
 31
0.0
  0
LINE
  8
0
 62
7
 10
13.635907049687999
 20
24.1103725724767592
 30
0.0
 11
13.6179425304916428
 21
24.089913912182805
 31
0.0
  0
LINE
  8
0
 62
7
 10
13.6179425304916428
 20
24.089913912182805
 30
0.0
 11
13.5981921606762786
 21
24.0670569370674947
 31
0.0
  0
LINE
  8
0
 62
7
 10
13.5981921606762786
 20
24.0670569370674947
 30
0.0
 11
13.5764050111032404
 21
24.0415940783252253
 31
0.0
  0
LINE
  8
0
 62
7
 10
13.5764050111032404
 20
24.0415940783252253
 30
0.0
 11
13.5525081727627281
 21
24.0135399033633057
 31
0.0
  0
LINE
  8
0
 62
7
 10
13.5525081727627281
 20
24.0135399033633057
 30
0.0
 11
13.5264480759194701
 21
23.9829331114286965
 31
0.0
  0
LINE
  8
0
 62
7
 10
13.5264480759194701
 20
23.9829331114286965
 30
0.0
 11
13.4981711508381945
 21
23.9498124017683551
 31
0.0
  0
LINE
  8
0
 62
7
 10
13.4981711508381945
 20
23.9498124017683551
 30
0.0
 11
13.4676238277836298
 21
23.9142164736292457
 31
0.0
  0
LINE
  8
0
 62
7
 10
13.4676238277836298
 20
23.9142164736292457
 30
0.0
 11
13.4347525370205041
 21
23.876184026258322
 31
0.0
  0
LINE
  8
0
 62
7
 10
13.4347525370205041
 20
23.876184026258322
 30
0.0
 11
13.3995037088135458
 21
23.8357537589025377
 31
0.0
  0
LINE
  8
0
 62
7
 10
13.3995037088135458
 20
23.8357537589025377
 30
0.0
 11
13.3618237734274832
 21
23.7929643708088641
 31
0.0
  0
LINE
  8
0
 62
7
 10
13.3618237734274832
 20
23.7929643708088641
 30
0.0
 11
13.3216481907634705
 21
23.7478744853962382
 31
0.0
  0
LINE
  8
0
 62
7
 10
13.3216481907634705
 20
23.7478744853962382
 30
0.0
 11
13.2786601023604973
 21
23.7010009820393499
 31
0.0
  0
LINE
  8
0
 62
7
 10
13.2786601023604973
 20
23.7010009820393499
 30
0.0
 11
13.2322903313953848
 21
23.6533189960686272
 31
0.0
  0
LINE
  8
0
 62
7
 10
13.2322903313953848
 20
23.6533189960686272
 30
0.0
 11
13.1819587306813784
 21
23.6058235869864816
 31
0.0
  0
LINE
  8
0
 62
7
 10
13.1819587306813784
 20
23.6058235869864816
 30
0.0
 11
13.1270851530317287
 21
23.5595098142953283
 31
0.0
  0
LINE
  8
0
 62
7
 10
13.1270851530317287
 20
23.5595098142953283
 30
0.0
 11
13.0670894512596831
 21
23.5153727374975787
 31
0.0
  0
LINE
  8
0
 62
7
 10
13.0670894512596831
 20
23.5153727374975787
 30
0.0
 11
13.0013914781784887
 21
23.4744074160956515
 31
0.0
  0
LINE
  8
0
 62
7
 10
13.0013914781784887
 20
23.4744074160956515
 30
0.0
 11
12.9294110866013927
 21
23.4376089095919511
 31
0.0
  0
LINE
  8
0
 62
7
 10
12.9294110866013927
 20
23.4376089095919511
 30
0.0
 11
12.8505681293416441
 21
23.4059722774889032
 31
0.0
  0
LINE
  8
0
 62
7
 10
12.8505681293416441
 20
23.4059722774889032
 30
0.0
 11
12.7643977638410018
 21
23.3804174215976133
 31
0.0
  0
LINE
  8
0
 62
7
 10
12.7643977638410018
 20
23.3804174215976133
 30
0.0
 11
12.6714965392080181
 21
23.3611724089930028
 31
0.0
  0
LINE
  8
0
 62
7
 10
12.6714965392080181
 20
23.3611724089930028
 30
0.0
 11
12.5730330229299589
 21
23.3480924545819555
 31
0.0
  0
LINE
  8
0
 62
7
 10
12.5730330229299589
 20
23.3480924545819555
 30
0.0
 11
12.4701813268188122
 21
23.3410291593778396
 31
0.0
  0
LINE
  8
0
 62
7
 10
12.4701813268188122
 20
23.3410291593778396
 30
0.0
 11
12.3641155626865817
 21
23.3398341243940415
 31
0.0
  0
LINE
  8
0
 62
7
 10
12.3641155626865817
 20
23.3398341243940415
 30
0.0
 11
12.256009842345259
 21
23.3443589506439295
 31
0.0
  0
LINE
  8
0
 62
7
 10
12.256009842345259
 20
23.3443589506439295
 30
0.0
 11
12.1470382776068426
 21
23.3544552391408899
 31
0.0
  0
LINE
  8
0
 62
7
 10
12.1470382776068426
 20
23.3544552391408899
 30
0.0
 11
12.038374980283324
 21
23.3699745908982877
 31
0.0
  0
LINE
  8
0
 62
7
 10
12.038374980283324
 20
23.3699745908982877
 30
0.0
 11
11.9311940621867034
 21
23.3907686069295053
 31
0.0
  0
LINE
  8
0
 62
7
 10
11.9311940621867034
 20
23.3907686069295053
 30
0.0
 11
11.8264705054660819
 21
23.4166101651020782
 31
0.0
  0
LINE
  8
0
 62
7
 10
11.8264705054660819
 20
23.4166101651020782
 30
0.0
 11
11.7242989463095721
 21
23.4469241107379105
 31
0.0
  0
LINE
  8
0
 62
7
 10
11.7242989463095721
 20
23.4469241107379105
 30
0.0
 11
11.6245308180159288
 21
23.4810391422752609
 31
0.0
  0
LINE
  8
0
 62
7
 10
11.6245308180159288
 20
23.4810391422752609
 30
0.0
 11
11.5270175457191737
 21
23.5182839549245877
 31
0.0
  0
LINE
  8
0
 62
7
 10
11.5270175457191737
 20
23.5182839549245877
 30
0.0
 11
11.4316105545533251
 21
23.5579872438963278
 31
0.0
  0
LINE
  8
0
 62
7
 10
11.4316105545533251
 20
23.5579872438963278
 30
0.0
 11
11.3381612696524048
 21
23.599477704400929
 31
0.0
  0
LINE
  8
0
 62
7
 10
11.3381612696524048
 20
23.599477704400929
 30
0.0
 11
11.246521116150431
 21
23.6420840316488423
 31
0.0
  0
LINE
  8
0
 62
7
 10
11.246521116150431
 20
23.6420840316488423
 30
0.0
 11
11.1565415191814274
 21
23.6851349208505155
 31
0.0
  0
LINE
  8
0
 62
7
 10
11.1565415191814274
 20
23.6851349208505155
 30
0.0
 11
11.0680743408516005
 21
23.7279597479897184
 31
0.0
  0
LINE
  8
0
 62
7
 10
11.0680743408516005
 20
23.7279597479897184
 30
0.0
 11
10.9810640813710325
 21
23.7700322129967638
 31
0.0
  0
LINE
  8
0
 62
7
 10
10.9810640813710325
 20
23.7700322129967638
 30
0.0
 11
10.8956619287947696
 21
23.8111480215882949
 31
0.0
  0
LINE
  8
0
 62
7
 10
10.8956619287947696
 20
23.8111480215882949
 30
0.0
 11
10.8120470373978943
 21
23.851146448974248
 31
0.0
  0
LINE
  8
0
 62
7
 10
10.8120470373978943
 20
23.851146448974248
 30
0.0
 11
10.7303985614554911
 21
23.8898667703645664
 31
0.0
  0
LINE
  8
0
 62
7
 10
10.7303985614554911
 20
23.8898667703645664
 30
0.0
 11
10.6508956552426426
 21
23.9271482609691901
 31
0.0
  0
LINE
  8
0
 62
7
 10
10.6508956552426426
 20
23.9271482609691901
 30
0.0
 11
10.5737174730344314
 21
23.9628301959980483
 31
0.0
  0
LINE
  8
0
 62
7
 10
10.5737174730344314
 20
23.9628301959980483
 30
0.0
 11
10.499043169105942
 21
23.996751850661088
 31
0.0
  0
LINE
  8
0
 62
7
 10
10.499043169105942
 20
23.996751850661088
 30
0.0
 11
10.427051897732257
 21
24.0287525001682418
 31
0.0
  0
LINE
  8
0
 62
7
 10
10.427051897732257
 20
24.0287525001682418
 30
0.0
 11
10.3579166270360581
 21
24.0586738889477374
 31
0.0
  0
LINE
  8
0
 62
7
 10
10.3579166270360581
 20
24.0586738889477374
 30
0.0
 11
10.2916111997364315
 21
24.086437242833469
 31
0.0
  0
LINE
  8
0
 62
7
 10
10.2916111997364315
 20
24.086437242833469
 30
0.0
 11
10.2278724559881464
 21
24.1120583878289452
 31
0.0
  0
LINE
  8
0
 62
7
 10
10.2278724559881464
 20
24.1120583878289452
 30
0.0
 11
10.1664234022788129
 21
24.1355586716807196
 31
0.0
  0
LINE
  8
0
 62
7
 10
10.1664234022788129
 20
24.1355586716807196
 30
0.0
 11
10.1069870450960373
 21
24.1569594421353457
 31
0.0
  0
LINE
  8
0
 62
7
 10
10.1069870450960373
 20
24.1569594421353457
 30
0.0
 11
10.049286390927433
 21
24.1762820469393809
 31
0.0
  0
LINE
  8
0
 62
7
 10
10.049286390927433
 20
24.1762820469393809
 30
0.0
 11
9.9930444462606065
 21
24.193547833839375
 31
0.0
  0
LINE
  8
0
 62
7
 10
9.9930444462606065
 20
24.193547833839375
 30
0.0
 11
9.9379842175831676
 21
24.2087781505818818
 31
0.0
  0
LINE
  8
0
 62
7
 10
9.9379842175831676
 20
24.2087781505818818
 30
0.0
 11
9.8838287113827263
 21
24.2219943449134547
 31
0.0
  0
LINE
  8
0
 62
7
 10
9.8838287113827263
 20
24.2219943449134547
 30
0.0
 11
9.8303107065635658
 21
24.2332238756503173
 31
0.0
  0
LINE
  8
0
 62
7
 10
9.8303107065635658
 20
24.2332238756503173
 30
0.0
 11
9.777276586373814
 21
24.2425652427935958
 31
0.0
  0
LINE
  8
0
 62
7
 10
9.777276586373814
 20
24.2425652427935958
 30
0.0
 11
9.7246460271866582
 21
24.2501627793669385
 31
0.0
  0
LINE
  8
0
 62
7
 10
9.7246460271866582
 20
24.2501627793669385
 30
0.0
 11
9.6723399269273713
 21
24.256161582277695
 31
0.0
  0
LINE
  8
0
 62
7
 10
9.6723399269273713
 20
24.256161582277695
 30
0.0
 11
9.6202791835212249
 21
24.2607067484332219
 31
0.0
  0
LINE
  8
0
 62
7
 10
9.6202791835212249
 20
24.2607067484332219
 30
0.0
 11
9.5683846948934921
 21
24.2639433747408759
 31
0.0
  0
LINE
  8
0
 62
7
 10
9.5683846948934921
 20
24.2639433747408759
 30
0.0
 11
9.5165773589694442
 21
24.2660165581080065
 31
0.0
  0
LINE
  8
0
 62
7
 10
9.5165773589694442
 20
24.2660165581080065
 30
0.0
 11
9.4647780736743563
 21
24.2670713954419739
 31
0.0
  0
LINE
  8
0
 62
7
 10
9.4647780736743563
 20
24.2670713954419739
 30
0.0
 11
9.4129077369334961
 21
24.2672529836501312
 31
0.0
  0
LINE
  8
0
 62
7
 10
9.4129077369334961
 20
24.2672529836501312
 30
0.0
 11
9.3608944073492495
 21
24.2666630352773716
 31
0.0
  0
LINE
  8
0
 62
7
 10
9.3608944073492495
 20
24.2666630352773716
 30
0.0
 11
9.3087048740450555
 21
24.2651686064335301
 31
0.0
  0
LINE
  8
0
 62
7
 10
9.3087048740450555
 20
24.2651686064335301
 30
0.0
 11
9.2563189607376639
 21
24.2625577805960901
 31
0.0
  0
LINE
  8
0
 62
7
 10
9.2563189607376639
 20
24.2625577805960901
 30
0.0
 11
9.2037165009664328
 21
24.2586185817303814
 31
0.0
  0
LINE
  8
0
 62
7
 10
9.2037165009664328
 20
24.2586185817303814
 30
0.0
 11
9.150877328270715
 21
24.2531390338017303
 31
0.0
  0
LINE
  8
0
 62
7
 10
9.150877328270715
 20
24.2531390338017303
 30
0.0
 11
9.0977812761898669
 21
24.2459071607754701
 31
0.0
  0
LINE
  8
0
 62
7
 10
9.0977812761898669
 20
24.2459071607754701
 30
0.0
 11
9.0444081782632431
 21
24.2367109866169237
 31
0.0
  0
LINE
  8
0
 62
7
 10
9.0444081782632431
 20
24.2367109866169237
 30
0.0
 11
8.9907378680301981
 21
24.2253385352914208
 31
0.0
  0
LINE
  8
0
 62
7
 10
8.9907378680301981
 20
24.2253385352914208
 30
0.0
 11
8.936750228894752
 21
24.2115779387427708
 31
0.0
  0
LINE
  8
0
 62
7
 10
8.936750228894752
 20
24.2115779387427708
 30
0.0
 11
8.8824555679393029
 21
24.195283209285023
 31
0.0
  0
LINE
  8
0
 62
7
 10
8.8824555679393029
 20
24.195283209285023
 30
0.0
 11
8.8279462445515602
 21
24.1764860378214266
 31
0.0
  0
LINE
  8
0
 62
7
 10
8.8279462445515602
 20
24.1764860378214266
 30
0.0
 11
8.7733283122026933
 21
24.1552477688453529
 31
0.0
  0
LINE
  8
0
 62
7
 10
8.7733283122026933
 20
24.1552477688453529
 30
0.0
 11
8.7187078243638751
 21
24.1316297468501837
 31
0.0
  0
LINE
  8
0
 62
7
 10
8.7187078243638751
 20
24.1316297468501837
 30
0.0
 11
8.6641908345062788
 21
24.1056933163292975
 31
0.0
  0
LINE
  8
0
 62
7
 10
8.6641908345062788
 20
24.1056933163292975
 30
0.0
 11
8.6098833961010772
 21
24.0774998217760619
 31
0.0
  0
LINE
  8
0
 62
7
 10
8.6098833961010772
 20
24.0774998217760619
 30
0.0
 11
8.5558915626194416
 21
24.0471106076838623
 31
0.0
  0
LINE
  8
0
 62
7
 10
8.5558915626194416
 20
24.0471106076838623
 30
0.0
 11
8.502321387532545
 21
24.0145870185460666
 31
0.0
  0
LINE
  8
0
 62
7
 10
8.502321387532545
 20
24.0145870185460666
 30
0.0
 11
8.449277552971127
 21
23.9799901630339072
 31
0.0
  0
LINE
  8
0
 62
7
 10
8.449277552971127
 20
23.9799901630339072
 30
0.0
 11
8.3967992165448937
 21
23.9433698819139416
 31
0.0
  0
LINE
  8
0
 62
7
 10
8.3967992165448937
 20
23.9433698819139416
 30
0.0
 11
8.3448325886550947
 21
23.9047600323137956
 31
0.0
  0
LINE
  8
0
 62
7
 10
8.3448325886550947
 20
23.9047600323137956
 30
0.0
 11
8.2933168128179098
 21
23.8641932561063292
 31
0.0
  0
LINE
  8
0
 62
7
 10
8.2933168128179098
 20
23.8641932561063292
 30
0.0
 11
8.242191032549524
 21
23.8217021951643915
 31
0.0
  0
LINE
  8
0
 62
7
 10
8.242191032549524
 20
23.8217021951643915
 30
0.0
 11
8.1913943913661154
 21
23.777319491360835
 31
0.0
  0
LINE
  8
0
 62
7
 10
8.1913943913661154
 20
23.777319491360835
 30
0.0
 11
8.1408660327838653
 21
23.7310777865685196
 31
0.0
  0
LINE
  8
0
 62
7
 10
8.1408660327838653
 20
23.7310777865685196
 30
0.0
 11
8.0905451003189537
 21
23.6830097226602945
 31
0.0
  0
LINE
  8
0
 62
7
 10
8.0905451003189537
 20
23.6830097226602945
 30
0.0
 11
8.0403707374875637
 21
23.6331479415090122
 31
0.0
  0
LINE
  8
0
 62
7
 10
8.0403707374875637
 20
23.6331479415090122
 30
0.0
 11
7.9902940237324245
 21
23.581536302551541
 31
0.0
  0
LINE
  8
0
 62
7
 10
7.9902940237324245
 20
23.581536302551541
 30
0.0
 11
7.9404446353231348
 21
23.5283865132196013
 31
0.0
  0
LINE
  8
0
 62
7
 10
7.9404446353231348
 20
23.5283865132196013
 30
0.0
 11
7.8910897327202791
 21
23.4740394906637135
 31
0.0
  0
LINE
  8
0
 62
7
 10
7.8910897327202791
 20
23.4740394906637135
 30
0.0
 11
7.8425000129552709
 21
23.4188394757570819
 31
0.0
  0
LINE
  8
0
 62
7
 10
7.8425000129552709
 20
23.4188394757570819
 30
0.0
 11
7.7949461730595218
 21
23.3631307093729035
 31
0.0
  0
LINE
  8
0
 62
7
 10
7.7949461730595218
 20
23.3631307093729035
 30
0.0
 11
7.7486989100644452
 21
23.3072574323843753
 31
0.0
  0
LINE
  8
0
 62
7
 10
7.7486989100644452
 20
23.3072574323843753
 30
0.0
 11
7.7040289210014512
 21
23.2515638856646909
 31
0.0
  0
LINE
  8
0
 62
7
 10
7.7040289210014512
 20
23.2515638856646909
 30
0.0
 11
7.6612069029019567
 21
23.1963943100870544
 31
0.0
  0
LINE
  8
0
 62
7
 10
7.6612069029019567
 20
23.1963943100870544
 30
0.0
 11
7.6205035527973708
 21
23.1420929465246594
 31
0.0
  0
LINE
  8
0
 62
7
 10
7.6205035527973708
 20
23.1420929465246594
 30
0.0
 11
7.5821351651353694
 21
23.0889548047821158
 31
0.0
  0
LINE
  8
0
 62
7
 10
7.5821351651353694
 20
23.0889548047821158
 30
0.0
 11
7.5459563659869282
 21
23.0369476065200516
 31
0.0
  0
LINE
  8
0
 62
7
 10
7.5459563659869282
 20
23.0369476065200516
 30
0.0
 11
7.5116742416159257
 21
22.9859055587410666
 31
0.0
  0
LINE
  8
0
 62
7
 10
7.5116742416159257
 20
22.9859055587410666
 30
0.0
 11
7.4789954430655676
 21
22.9356624745992264
 31
0.0
  0
LINE
  8
0
 62
7
 10
7.4789954430655676
 20
22.9356624745992264
 30
0.0
 11
7.4476266213790634
 21
22.886052167248593
 31
0.0
  0
LINE
  8
0
 62
7
 10
7.4476266213790634
 20
22.886052167248593
 30
0.0
 11
7.4172744275996187
 21
22.8369084498432251
 31
0.0
  0
LINE
  8
0
 62
7
 10
7.4172744275996187
 20
22.8369084498432251
 30
0.0
 11
7.3876455127704403
 21
22.788065135537181
 31
0.0
  0
LINE
  8
0
 62
7
 10
7.3876455127704403
 20
22.788065135537181
 30
0.0
 11
7.3584465279347375
 21
22.7393560374845194
 31
0.0
  0
LINE
  8
0
 62
7
 10
7.3584465279347375
 20
22.7393560374845194
 30
0.0
 11
7.329384175681434
 21
22.6906150003684743
 31
0.0
  0
LINE
  8
0
 62
7
 10
7.329384175681434
 20
22.6906150003684743
 30
0.0
 11
7.3003760836781693
 21
22.6418048862302825
 31
0.0
  0
LINE
  8
0
 62
7
 10
7.3003760836781693
 20
22.6418048862302825
 30
0.0
 11
7.2720312623102767
 21
22.5933114578499676
 31
0.0
  0
LINE
  8
0
 62
7
 10
7.2720312623102767
 20
22.5933114578499676
 30
0.0
 11
7.245100163413718
 21
22.5456069940462385
 31
0.0
  0
LINE
  8
0
 62
7
 10
7.245100163413718
 20
22.5456069940462385
 30
0.0
 11
7.220333238824459
 21
22.4991637736378287
 31
0.0
  0
LINE
  8
0
 62
7
 10
7.220333238824459
 20
22.4991637736378287
 30
0.0
 11
7.1984809403784631
 21
22.4544540754434543
 31
0.0
  0
LINE
  8
0
 62
7
 10
7.1984809403784631
 20
22.4544540754434543
 30
0.0
 11
7.1802937199116954
 21
22.4119501782818347
 31
0.0
  0
LINE
  8
0
 62
7
 10
7.1802937199116954
 20
22.4119501782818347
 30
0.0
 11
7.1665220292601211
 21
22.3721243609717
 31
0.0
  0
LINE
  8
0
 62
7
 10
7.1665220292601211
 20
22.3721243609717
 30
0.0
 11
7.1579163202597025
 21
22.3354489023317626
 31
0.0
  0
LINE
  8
0
 62
7
 10
7.1579163202597025
 20
22.3354489023317626
 30
0.0
 11
7.1552199931901921
 21
22.3023918863058128
 31
0.0
  0
LINE
  8
0
 62
7
 10
7.1552199931901921
 20
22.3023918863058128
 30
0.0
 11
7.1586308668153071
 21
22.2730968378096073
 31
0.0
  0
LINE
  8
0
 62
7
 10
7.1586308668153071
 20
22.2730968378096073
 30
0.0
 11
7.1674219613596266
 21
22.2471571316784171
 31
0.0
  0
LINE
  8
0
 62
7
 10
7.1674219613596266
 20
22.2471571316784171
 30
0.0
 11
7.1807767161669265
 21
22.2241128522991502
 31
0.0
  0
LINE
  8
0
 62
7
 10
7.1807767161669265
 20
22.2241128522991502
 30
0.0
 11
7.1978785705809809
 21
22.2035040840587179
 31
0.0
  0
LINE
  8
0
 62
7
 10
7.1978785705809809
 20
22.2035040840587179
 30
0.0
 11
7.217910963945565
 21
22.1848709113440314
 31
0.0
  0
LINE
  8
0
 62
7
 10
7.217910963945565
 20
22.1848709113440314
 30
0.0
 11
7.2400573356044555
 21
22.1677534185419987
 31
0.0
  0
LINE
  8
0
 62
7
 10
7.2400573356044555
 20
22.1677534185419987
 30
0.0
 11
7.263501124901425
 21
22.1516916900395309
 31
0.0
  0
LINE
  8
0
 62
7
 10
7.263501124901425
 20
22.1516916900395309
 30
0.0
 11
7.2874257711802501
 21
22.1362258102235359
 31
0.0
  0
LINE
  8
0
 62
7
 10
7.2874257711802501
 20
22.1362258102235359
 30
0.0
 11
7.3110398256375904
 21
22.1209070195097617
 31
0.0
  0
LINE
  8
0
 62
7
 10
7.3110398256375904
 20
22.1209070195097617
 30
0.0
 11
7.334048141890662
 21
22.1055070424071793
 31
0.0
  0
LINE
  8
0
 62
7
 10
7.334048141890662
 20
22.1055070424071793
 30
0.0
 11
7.3566105297038469
 21
22.0899997192908337
 31
0.0
  0
LINE
  8
0
 62
7
 10
7.3566105297038469
 20
22.0899997192908337
 30
0.0
 11
7.3789036218210926
 21
22.0743663642035308
 31
0.0
  0
LINE
  8
0
 62
7
 10
7.3789036218210926
 20
22.0743663642035308
 30
0.0
 11
7.4011040509863477
 21
22.0585882911880731
 31
0.0
  0
LINE
  8
0
 62
7
 10
7.4011040509863477
 20
22.0585882911880731
 30
0.0
 11
7.4233884499435607
 21
22.0426468142872629
 31
0.0
  0
LINE
  8
0
 62
7
 10
7.4233884499435607
 20
22.0426468142872629
 30
0.0
 11
7.4459334514366793
 21
22.0265232475438957
 31
0.0
  0
LINE
  8
0
 62
7
 10
7.4459334514366793
 20
22.0265232475438957
 30
0.0
 11
7.4689156882096528
 21
22.0101989050007845
 31
0.0
  0
LINE
  8
0
 62
7
 10
7.4689156882096528
 20
22.0101989050007845
 30
0.0
 11
7.4925117930064289
 21
21.9936551007007211
 31
0.0
  0
LINE
  8
0
 62
7
 10
7.4925117930064289
 20
21.9936551007007211
 30
0.0
 11
7.5168841444490049
 21
21.976872704181563
 31
0.0
  0
LINE
  8
0
 62
7
 10
7.5168841444490049
 20
21.976872704181563
 30
0.0
 11
7.5420777223505864
 21
21.9598289239804032
 31
0.0
  0
LINE
  8
0
 62
7
 10
7.5420777223505864
 20
21.9598289239804032
 30
0.0
 11
7.5680797718828199
 21
21.9424991682194026
 31
0.0
  0
LINE
  8
0
 62
7
 10
7.5680797718828199
 20
21.9424991682194026
 30
0.0
 11
7.594877136379278
 21
21.9248588324896971
 31
0.0
  0
LINE
  8
0
 62
7
 10
7.594877136379278
 20
21.9248588324896971
 30
0.0
 11
7.6224566591735341
 21
21.9068833123824049
 31
0.0
  0
LINE
  8
0
 62
7
 10
7.6224566591735341
 20
21.9068833123824049
 30
0.0
 11
7.6508051835991608
 21
21.8885480034886584
 31
0.0
  0
LINE
  8
0
 62
7
 10
7.6508051835991608
 20
21.8885480034886584
 30
0.0
 11
7.6799095529897325
 21
21.8698283013995827
 31
0.0
  0
LINE
  8
0
 62
7
 10
7.6799095529897325
 20
21.8698283013995827
 30
0.0
 11
7.7097566106788218
 21
21.8506996017063031
 31
0.0
  0
LINE
  8
0
 62
7
 10
7.7097566106788218
 20
21.8506996017063031
 30
0.0
 11
7.7403332000000091
 21
21.8311372999999378
 31
0.0
  0
LINE
  8
0
 62
7
 10
9.1690697000000103
 20
22.3516298000000546
 30
0.0
 11
9.1690697000000103
 21
22.3516298000000546
 31
0.0
  0
LINE
  8
0
 62
7
 10
8.5636073000000046
 20
21.858090200000035
 30
0.0
 11
8.5760576940687567
 21
21.8709547471735704
 31
0.0
  0
LINE
  8
0
 62
7
 10
8.5760576940687567
 20
21.8709547471735704
 30
0.0
 11
8.58851011112856
 21
21.8838110619515902
 31
0.0
  0
LINE
  8
0
 62
7
 10
8.58851011112856
 20
21.8838110619515902
 30
0.0
 11
8.600966192821442
 21
21.8966505159222784
 31
0.0
  0
LINE
  8
0
 62
7
 10
8.600966192821442
 20
21.8966505159222784
 30
0.0
 11
8.6134275807894269
 21
21.9094644806738152
 31
0.0
  0
LINE
  8
0
 62
7
 10
8.6134275807894269
 20
21.9094644806738152
 30
0.0
 11
8.6258959166745406
 21
21.9222443277943846
 31
0.0
  0
LINE
  8
0
 62
7
 10
8.6258959166745406
 20
21.9222443277943846
 30
0.0
 11
8.6383728421188071
 21
21.9349814288721738
 31
0.0
  0
LINE
  8
0
 62
7
 10
8.6383728421188071
 20
21.9349814288721738
 30
0.0
 11
8.6508599987642505
 21
21.9476671554953633
 31
0.0
  0
LINE
  8
0
 62
7
 10
8.6508599987642505
 20
21.9476671554953633
 30
0.0
 11
8.6633590282529003
 21
21.9602928792521404
 31
0.0
  0
LINE
  8
0
 62
7
 10
8.6633590282529003
 20
21.9602928792521404
 30
0.0
 11
8.6758715722267787
 21
21.9728499717306818
 31
0.0
  0
LINE
  8
0
 62
7
 10
8.6758715722267787
 20
21.9728499717306818
 30
0.0
 11
8.6883992723279135
 21
21.985329804519175
 31
0.0
  0
LINE
  8
0
 62
7
 10
8.6883992723279135
 20
21.985329804519175
 30
0.0
 11
8.700943770198327
 21
21.9977237492058038
 31
0.0
  0
LINE
  8
0
 62
7
 10
8.700943770198327
 20
21.9977237492058038
 30
0.0
 11
8.7135067074800467
 21
22.010023177378752
 31
0.0
  0
LINE
  8
0
 62
7
 10
8.7135067074800467
 20
22.010023177378752
 30
0.0
 11
8.7260897258150987
 21
22.0222194606262036
 31
0.0
  0
LINE
  8
0
 62
7
 10
8.7260897258150987
 20
22.0222194606262036
 30
0.0
 11
8.7386944668455069
 21
22.0343039705363424
 31
0.0
  0
LINE
  8
0
 62
7
 10
8.7386944668455069
 20
22.0343039705363424
 30
0.0
 11
8.7513225722132955
 21
22.0462680786973486
 31
0.0
  0
LINE
  8
0
 62
7
 10
8.7513225722132955
 20
22.0462680786973486
 30
0.0
 11
8.7639756882328665
 21
22.058103198461275
 31
0.0
  0
LINE
  8
0
 62
7
 10
8.7639756882328665
 20
22.058103198461275
 30
0.0
 11
8.776655741561127
 21
22.0698032490122138
 31
0.0
  0
LINE
  8
0
 62
7
 10
8.776655741561127
 20
22.0698032490122138
 30
0.0
 11
8.789365093385868
 21
22.0813660335739215
 31
0.0
  0
LINE
  8
0
 62
7
 10
8.789365093385868
 20
22.0813660335739215
 30
0.0
 11
8.80210614227388
 21
22.0927896894810907
 31
0.0
  0
LINE
  8
0
 62
7
 10
8.80210614227388
 20
22.0927896894810907
 30
0.0
 11
8.8148812867919535
 21
22.1040723540684176
 31
0.0
  0
LINE
  8
0
 62
7
 10
8.8148812867919535
 20
22.1040723540684176
 30
0.0
 11
8.8276929255068826
 21
22.1152121646705986
 31
0.0
  0
LINE
  8
0
 62
7
 10
8.8276929255068826
 20
22.1152121646705986
 30
0.0
 11
8.840543456985456
 21
22.1262072586223226
 31
0.0
  0
LINE
  8
0
 62
7
 10
8.840543456985456
 20
22.1262072586223226
 30
0.0
 11
8.8534352797944678
 21
22.1370557732582931
 31
0.0
  0
LINE
  8
0
 62
7
 10
8.8534352797944678
 20
22.1370557732582931
 30
0.0
 11
8.8663707925007067
 21
22.1477558459131956
 31
0.0
  0
LINE
  8
0
 62
7
 10
8.8663707925007067
 20
22.1477558459131956
 30
0.0
 11
8.8793523936709686
 21
22.1583056139217334
 31
0.0
  0
LINE
  8
0
 62
7
 10
8.8793523936709686
 20
22.1583056139217334
 30
0.0
 11
8.8923824818720405
 21
22.1687032146185921
 31
0.0
  0
LINE
  8
0
 62
7
 10
8.8923824818720405
 20
22.1687032146185921
 30
0.0
 11
8.9054634556707182
 21
22.1789467853384714
 31
0.0
  0
LINE
  8
0
 62
7
 10
8.9054634556707182
 20
22.1789467853384714
 30
0.0
 11
8.9185977136337904
 21
22.1890344634160677
 31
0.0
  0
LINE
  8
0
 62
7
 10
8.9185977136337904
 20
22.1890344634160677
 30
0.0
 11
8.9317876543280477
 21
22.1989643861860699
 31
0.0
  0
LINE
  8
0
 62
7
 10
8.9317876543280477
 20
22.1989643861860699
 30
0.0
 11
8.9450356763202858
 21
22.2087346909831744
 31
0.0
  0
LINE
  8
0
 62
7
 10
8.9450356763202858
 20
22.2087346909831744
 30
0.0
 11
8.9583441781772919
 21
22.2183435151420809
 31
0.0
  0
LINE
  8
0
 62
7
 10
8.9583441781772919
 20
22.2183435151420809
 30
0.0
 11
8.9717146035329449
 21
22.2277892291943608
 31
0.0
  0
LINE
  8
0
 62
7
 10
8.9717146035329449
 20
22.2277892291943608
 30
0.0
 11
8.9851372949259893
 21
22.2370729145853652
 31
0.0
  0
LINE
  8
0
 62
7
 10
8.9851372949259893
 20
22.2370729145853652
 30
0.0
 11
8.9985954328983073
 21
22.246197401737053
 31
0.0
  0
LINE
  8
0
 62
7
 10
8.9985954328983073
 20
22.246197401737053
 30
0.0
 11
9.0120720786251685
 21
22.2551655502210117
 31
0.0
  0
LINE
  8
0
 62
7
 10
9.0120720786251685
 20
22.2551655502210117
 30
0.0
 11
9.0255502932818441
 21
22.2639802196088183
 31
0.0
  0
LINE
  8
0
 62
7
 10
9.0255502932818441
 20
22.2639802196088183
 30
0.0
 11
9.0390131380436021
 21
22.2726442694720497
 31
0.0
  0
LINE
  8
0
 62
7
 10
9.0390131380436021
 20
22.2726442694720497
 30
0.0
 11
9.0524436740857119
 21
22.2811605593822826
 31
0.0
  0
LINE
  8
0
 62
7
 10
9.0524436740857119
 20
22.2811605593822826
 30
0.0
 11
9.0658249625834433
 21
22.2895319489110975
 31
0.0
  0
LINE
  8
0
 62
7
 10
9.0658249625834433
 20
22.2895319489110975
 30
0.0
 11
9.0791400647120675
 21
22.2977612976300783
 31
0.0
  0
LINE
  8
0
 62
7
 10
9.0791400647120675
 20
22.2977612976300783
 30
0.0
 11
9.0923720416468505
 21
22.3058514651107949
 31
0.0
  0
LINE
  8
0
 62
7
 10
9.0923720416468505
 20
22.3058514651107949
 30
0.0
 11
9.1055039545630621
 21
22.3138053109248311
 31
0.0
  0
LINE
  8
0
 62
7
 10
9.1055039545630621
 20
22.3138053109248311
 30
0.0
 11
9.1185188646359752
 21
22.3216256946437674
 31
0.0
  0
LINE
  8
0
 62
7
 10
9.1185188646359752
 20
22.3216256946437674
 30
0.0
 11
9.1313998330408577
 21
22.3293154758391772
 31
0.0
  0
LINE
  8
0
 62
7
 10
9.1313998330408577
 20
22.3293154758391772
 30
0.0
 11
9.1441299209529774
 21
22.3368775140826443
 31
0.0
  0
LINE
  8
0
 62
7
 10
9.1441299209529774
 20
22.3368775140826443
 30
0.0
 11
9.1566921895476057
 21
22.3443146689457457
 31
0.0
  0
LINE
  8
0
 62
7
 10
9.1566921895476057
 20
22.3443146689457457
 30
0.0
 11
9.1690697000000103
 21
22.3516298000000546
 31
0.0
  0
CIRCLE
  8
0
 10
11.0
 20
46.0
 30
0.0
 40
1.5
  0
ENDSEC
  0
EOF
