999
dxflib 2.0.4.8
  0
SECTION
  2
HEADER
  9
$ACADVER
  1
AC1015
  9
$HANDSEED
  5
FFFF
  9
$DIMASZ
 40
2.5
  9
$MEASUREMENT
 70
1
  9
$DIMGAP
 40
0.625
  9
$DIMEXO
 40
0.625
  9
$INSUNITS
 70
4
  9
$DIMTXT
 40
2.5
  9
$DIMSTYLE
  2
Standard
  9
$PLIMMAX
 10
210.0
 20
297.0
  9
$PLIMMIN
 10
0.0
 20
0.0
  9
$DIMEXE
 40
1.25
  0
ENDSEC
  0
SECTION
  2
TABLES
  0
TABLE
  2
VPORT
  5
8
100
AcDbSymbolTable
 70
1
  0
VPORT
  5
30
100
AcDbSymbolTableRecord
100
AcDbViewportTableRecord
  2
*Active
 70
0
 10
0.0
 20
0.0
 11
1.0
 21
1.0
 12
286.3055555555554861
 22
148.5
 13
0.0
 23
0.0
 14
10.0
 24
10.0
 15
10.0
 25
10.0
 16
0.0
 26
0.0
 36
1.0
 17
0.0
 27
0.0
 37
0.0
 40
297.0
 41
1.92798353909465
 42
50.0
 43
0.0
 44
0.0
 50
0.0
 51
0.0
 71
0
 72
100
 73
1
 74
3
 75
1
 76
1
 77
0
 78
0
281
0
 65
1
110
0.0
120
0.0
130
0.0
111
1.0
121
0.0
131
0.0
112
0.0
122
1.0
132
0.0
 79
0
146
0.0
  0
ENDTAB
  0
TABLE
  2
LTYPE
  5
5
100
AcDbSymbolTable
 70
21
  0
LTYPE
  5
14
100
AcDbSymbolTableRecord
100
AcDbLinetypeTableRecord
  2
ByBlock
 70
0
  3

 72
65
 73
0
 40
0.0
  0
LTYPE
  5
15
100
AcDbSymbolTableRecord
100
AcDbLinetypeTableRecord
  2
ByLayer
 70
0
  3

 72
65
 73
0
 40
0.0
  0
LTYPE
  5
16
100
AcDbSymbolTableRecord
100
AcDbLinetypeTableRecord
  2
CONTINUOUS
 70
0
  3
Solid line
 72
65
 73
0
 40
0.0
  0
LTYPE
  5
31
100
AcDbSymbolTableRecord
100
AcDbLinetypeTableRecord
  2
DOT
 70
0
  3
Dot . . . . . . . . . . . . . . . . . . . . . .
 72
65
 73
2
 40
6.3499999999999996
 49
0.0
 74
0
 49
-6.3499999999999996
 74
0
  0
LTYPE
  5
32
100
AcDbSymbolTableRecord
100
AcDbLinetypeTableRecord
  2
DOT2
 70
0
  3
Dot (.5x) .....................................
 72
65
 73
2
 40
3.1749999999999998
 49
0.0
 74
0
 49
-3.1749999999999998
 74
0
  0
LTYPE
  5
33
100
AcDbSymbolTableRecord
100
AcDbLinetypeTableRecord
  2
DOTX2
 70
0
  3
Dot (2x) .  .  .  .  .  .  .  .  .  .  .  .  .
 72
65
 73
2
 40
12.6999999999999993
 49
0.0
 74
0
 49
-12.6999999999999993
 74
0
  0
LTYPE
  5
34
100
AcDbSymbolTableRecord
100
AcDbLinetypeTableRecord
  2
DASHED
 70
0
  3
Dashed __ __ __ __ __ __ __ __ __ __ __ __ __ _
 72
65
 73
2
 40
19.0500000000000007
 49
12.6999999999999993
 74
0
 49
-6.3499999999999996
 74
0
  0
LTYPE
  5
35
100
AcDbSymbolTableRecord
100
AcDbLinetypeTableRecord
  2
DASHED2
 70
0
  3
Dashed (.5x) _ _ _ _ _ _ _ _ _ _ _ _ _ _ _ _ _
 72
65
 73
2
 40
9.5250000000000004
 49
6.3499999999999996
 74
0
 49
-3.1749999999999998
 74
0
  0
LTYPE
  5
36
100
AcDbSymbolTableRecord
100
AcDbLinetypeTableRecord
  2
DASHEDX2
 70
0
  3
Dashed (2x) ____  ____  ____  ____  ____  ___
 72
65
 73
2
 40
38.1000000000000014
 49
25.3999999999999986
 74
0
 49
-12.6999999999999993
 74
0
  0
LTYPE
  5
37
100
AcDbSymbolTableRecord
100
AcDbLinetypeTableRecord
  2
DASHDOT
 70
0
  3
Dash dot __ . __ . __ . __ . __ . __ . __ . __
 72
65
 73
4
 40
25.3999999999999986
 49
12.6999999999999993
 74
0
 49
-6.3499999999999996
 74
0
 49
0.0
 74
0
 49
-6.3499999999999996
 74
0
  0
LTYPE
  5
38
100
AcDbSymbolTableRecord
100
AcDbLinetypeTableRecord
  2
DASHDOT2
 70
0
  3
Dash dot (.5x) _._._._._._._._._._._._._._._.
 72
65
 73
4
 40
12.6999999999999993
 49
6.3499999999999996
 74
0
 49
-3.1749999999999998
 74
0
 49
0.0
 74
0
 49
-3.1749999999999998
 74
0
  0
LTYPE
  5
39
100
AcDbSymbolTableRecord
100
AcDbLinetypeTableRecord
  2
DASHDOTX2
 70
0
  3
Dash dot (2x) ____  .  ____  .  ____  .  ___
 72
65
 73
4
 40
50.7999999999999972
 49
25.3999999999999986
 74
0
 49
-12.6999999999999993
 74
0
 49
0.0
 74
0
 49
-12.6999999999999993
 74
0
  0
LTYPE
  5
3A
100
AcDbSymbolTableRecord
100
AcDbLinetypeTableRecord
  2
DIVIDE
 70
0
  3
Divide ____ . . ____ . . ____ . . ____ . . ____
 72
65
 73
6
 40
31.75
 49
12.6999999999999993
 74
0
 49
-6.3499999999999996
 74
0
 49
0.0
 74
0
 49
-6.3499999999999996
 74
0
 49
0.0
 74
0
 49
-6.3499999999999996
 74
0
  0
LTYPE
  5
3B
100
AcDbSymbolTableRecord
100
AcDbLinetypeTableRecord
  2
DIVIDE2
 70
0
  3
Divide (.5x) __..__..__..__..__..__..__..__.._
 72
65
 73
6
 40
15.875
 49
6.3499999999999996
 74
0
 49
-3.1749999999999998
 74
0
 49
0.0
 74
0
 49
-3.1749999999999998
 74
0
 49
0.0
 74
0
 49
-3.1749999999999998
 74
0
  0
LTYPE
  5
3C
100
AcDbSymbolTableRecord
100
AcDbLinetypeTableRecord
  2
DIVIDEX2
 70
0
  3
Divide (2x) ________  .  .  ________  .  .  _
 72
65
 73
6
 40
63.5
 49
25.3999999999999986
 74
0
 49
-12.6999999999999993
 74
0
 49
0.0
 74
0
 49
-12.6999999999999993
 74
0
 49
0.0
 74
0
 49
-12.6999999999999993
 74
0
  0
LTYPE
  5
3D
100
AcDbSymbolTableRecord
100
AcDbLinetypeTableRecord
  2
CENTER
 70
0
  3
Center ____ _ ____ _ ____ _ ____ _ ____ _ ____
 72
65
 73
4
 40
50.7999999999999972
 49
31.75
 74
0
 49
-6.3499999999999996
 74
0
 49
6.3499999999999996
 74
0
 49
-6.3499999999999996
 74
0
  0
LTYPE
  5
3E
100
AcDbSymbolTableRecord
100
AcDbLinetypeTableRecord
  2
CENTER2
 70
0
  3
Center (.5x) ___ _ ___ _ ___ _ ___ _ ___ _ ___
 72
65
 73
4
 40
28.5749999999999993
 49
19.0500000000000007
 74
0
 49
-3.1749999999999998
 74
0
 49
3.1749999999999998
 74
0
 49
-3.1749999999999998
 74
0
  0
LTYPE
  5
3F
100
AcDbSymbolTableRecord
100
AcDbLinetypeTableRecord
  2
CENTERX2
 70
0
  3
Center (2x) ________  __  ________  __  _____
 72
65
 73
4
 40
101.5999999999999943
 49
63.5
 74
0
 49
-12.6999999999999993
 74
0
 49
12.6999999999999993
 74
0
 49
-12.6999999999999993
 74
0
  0
LTYPE
  5
40
100
AcDbSymbolTableRecord
100
AcDbLinetypeTableRecord
  2
BORDER
 70
0
  3
Border __ __ . __ __ . __ __ . __ __ . __ __ .
 72
65
 73
6
 40
44.4500000000000028
 49
12.6999999999999993
 74
0
 49
-6.3499999999999996
 74
0
 49
12.6999999999999993
 74
0
 49
-6.3499999999999996
 74
0
 49
0.0
 74
0
 49
-6.3499999999999996
 74
0
  0
LTYPE
  5
41
100
AcDbSymbolTableRecord
100
AcDbLinetypeTableRecord
  2
BORDER2
 70
0
  3
Border (.5x) __.__.__.__.__.__.__.__.__.__.__.
 72
65
 73
6
 40
22.2250000000000014
 49
6.3499999999999996
 74
0
 49
-3.1749999999999998
 74
0
 49
6.3499999999999996
 74
0
 49
-3.1749999999999998
 74
0
 49
0.0
 74
0
 49
-3.1749999999999998
 74
0
  0
LTYPE
  5
42
100
AcDbSymbolTableRecord
100
AcDbLinetypeTableRecord
  2
BORDERX2
 70
0
  3
Border (2x) ____  ____  .  ____  ____  .  ___
 72
65
 73
6
 40
88.9000000000000057
 49
25.3999999999999986
 74
0
 49
-12.6999999999999993
 74
0
 49
25.3999999999999986
 74
0
 49
-12.6999999999999993
 74
0
 49
0.0
 74
0
 49
-12.6999999999999993
 74
0
  0
ENDTAB
  0
TABLE
  2
LAYER
  5
2
100
AcDbSymbolTable
 70
3
  0
LAYER
  5
10
100
AcDbSymbolTableRecord
100
AcDbLayerTableRecord
  2
0
 70
0
 62
7
  6
CONTINUOUS
390
F
  0
LAYER
  5
43
100
AcDbSymbolTableRecord
100
AcDbLayerTableRecord
  2
tgroove
 70
0
 62
7
  6
CONTINUOUS
390
F
  0
LAYER
  5
44
100
AcDbSymbolTableRecord
100
AcDbLayerTableRecord
  2
cut
 70
0
 62
7
  6
CONTINUOUS
390
F
  0
ENDTAB
  0
TABLE
  2
STYLE
  5
3
100
AcDbSymbolTable
 70
1
  0
STYLE
  5
11
100
AcDbSymbolTableRecord
100
AcDbTextStyleTableRecord
  2
Standard
 70
0
 40
0.0
 41
0.75
 50
0.0
 71
0
 42
2.5
  3
txt
  4

  0
ENDTAB
  0
TABLE
  2
VIEW
  5
6
100
AcDbSymbolTable
 70
0
  0
ENDTAB
  0
TABLE
  2
UCS
  5
7
100
AcDbSymbolTable
 70
0
  0
ENDTAB
  0
TABLE
  2
APPID
  5
9
100
AcDbSymbolTable
 70
1
  0
APPID
  5
12
100
AcDbSymbolTableRecord
100
AcDbRegAppTableRecord
  2
ACAD
 70
0
  0
ENDTAB
  0
TABLE
  2
DIMSTYLE
  5
A
100
AcDbSymbolTable
 70
1
100
AcDbDimStyleTable
 71
0
  0
DIMSTYLE
105
27
100
AcDbSymbolTableRecord
100
AcDbDimStyleTableRecord
  2
Standard
 41
2.5
 42
0.625
 43
3.75
 44
1.25
 70
0
 73
0
 74
0
 77
1
 78
8
140
2.5
141
2.5
143
0.03937007874016
147
0.625
171
3
172
1
271
2
272
2
274
3
278
44
283
0
284
8
340
11
  0
ENDTAB
  0
TABLE
  2
BLOCK_RECORD
  5
1
100
AcDbSymbolTable
 70
1
  0
BLOCK_RECORD
  5
1F
100
AcDbSymbolTableRecord
100
AcDbBlockTableRecord
  2
*Model_Space
340
22
  0
BLOCK_RECORD
  5
1B
100
AcDbSymbolTableRecord
100
AcDbBlockTableRecord
  2
*Paper_Space
340
1E
  0
BLOCK_RECORD
  5
23
100
AcDbSymbolTableRecord
100
AcDbBlockTableRecord
  2
*Paper_Space0
340
26
  0
ENDTAB
  0
ENDSEC
  0
SECTION
  2
BLOCKS
  0
BLOCK
  5
20
100
AcDbEntity
  8
0
100
AcDbBlockBegin
  2
*Model_Space
 70
0
 10
0.0
 20
0.0
 30
0.0
  3
*Model_Space
  1

  0
ENDBLK
  5
21
100
AcDbEntity
  8
0
100
AcDbBlockEnd
  0
BLOCK
  5
1C
100
AcDbEntity
 67
1
  8
0
100
AcDbBlockBegin
  2
*Paper_Space
 70
0
 10
0.0
 20
0.0
 30
0.0
  3
*Paper_Space
  1

  0
ENDBLK
  5
1D
100
AcDbEntity
 67
1
  8
0
100
AcDbBlockEnd
  0
BLOCK
  5
24
100
AcDbEntity
  8
0
100
AcDbBlockBegin
  2
*Paper_Space0
 70
0
 10
0.0
 20
0.0
 30
0.0
  3
*Paper_Space0
  1

  0
ENDBLK
  5
25
100
AcDbEntity
  8
0
100
AcDbBlockEnd
  0
ENDSEC
  0
SECTION
  2
ENTITIES
  0
SPLINE
  5
45
  8
cut
 62
7
370
-1
  6
ByLayer
100
AcDbEntity
100
AcDbSpline
 70
8
 71
3
 72
8
 73
4
 74
0
 40
0.0
 40
0.0
 40
0.0
 40
0.0
 40
1.0
 40
1.0
 40
1.0
 40
1.0
 10
68.5823709999999949
 20
36.0765329999999977
 30
0.0
 10
69.2765610000000009
 20
37.5771930000000012
 30
0.0
 10
70.0643790000000024
 20
38.233666999999997
 30
0.0
 10
71.0211379999999934
 20
38.233666999999997
 30
0.0
  0
SPLINE
  5
46
  8
cut
 62
7
370
-1
  6
ByLayer
100
AcDbEntity
100
AcDbSpline
 70
8
 71
3
 72
8
 73
4
 74
0
 40
0.0
 40
0.0
 40
0.0
 40
0.0
 40
1.0
 40
1.0
 40
1.0
 40
1.0
 10
71.0211379999999934
 20
38.233666999999997
 30
0.0
 10
72.0526739999999961
 20
38.233666999999997
 30
0.0
 10
73.0843150000000037
 20
37.2395110000000003
 30
0.0
 10
73.8347459999999955
 20
37.2395110000000003
 30
0.0
  0
SPLINE
  5
47
  8
cut
 62
7
370
-1
  6
ByLayer
100
AcDbEntity
100
AcDbSpline
 70
8
 71
3
 72
8
 73
4
 74
0
 40
0.0
 40
0.0
 40
0.0
 40
0.0
 40
1.0
 40
1.0
 40
1.0
 40
1.0
 10
73.8347459999999955
 20
37.2395110000000003
 30
0.0
 10
74.2847919999999959
 20
37.2395110000000003
 30
0.0
 10
74.7164109999999937
 20
37.4646120000000025
 30
0.0
 10
75.2789400000000057
 20
38.2901430000000005
 30
0.0
  0
SPLINE
  5
48
  8
cut
 62
7
370
-1
  6
ByLayer
100
AcDbEntity
100
AcDbSpline
 70
8
 71
3
 72
8
 73
4
 74
0
 40
0.0
 40
0.0
 40
0.0
 40
0.0
 40
1.0
 40
1.0
 40
1.0
 40
1.0
 10
76.5733659999999929
 20
37.4271069999999995
 30
0.0
 10
75.8604299999999938
 20
36.0577929999999967
 30
0.0
 10
75.1290680000000037
 20
35.2324910000000031
 30
0.0
 10
73.9848350000000039
 20
35.2324910000000031
 30
0.0
  0
SPLINE
  5
49
  8
cut
 62
7
370
-1
  6
ByLayer
100
AcDbEntity
100
AcDbSpline
 70
8
 71
3
 72
8
 73
4
 74
0
 40
0.0
 40
0.0
 40
0.0
 40
0.0
 40
1.0
 40
1.0
 40
1.0
 40
1.0
 10
73.9848350000000039
 20
35.2324910000000031
 30
0.0
 10
72.877988000000002
 20
35.2324910000000031
 30
0.0
 10
71.9215509999999938
 20
36.2643520000000024
 30
0.0
 10
71.3023490000000066
 20
36.2643520000000024
 30
0.0
  0
SPLINE
  5
4A
  8
cut
 62
7
370
-1
  6
ByLayer
100
AcDbEntity
100
AcDbSpline
 70
8
 71
3
 72
8
 73
4
 74
0
 40
0.0
 40
0.0
 40
0.0
 40
0.0
 40
1.0
 40
1.0
 40
1.0
 40
1.0
 10
71.3023490000000066
 20
36.2643520000000024
 30
0.0
 10
70.8521970000000039
 20
36.2643520000000024
 30
0.0
 10
70.4207940000000008
 20
35.9075920000000011
 30
0.0
 10
69.8955449999999985
 20
35.2137230000000017
 30
0.0
  0
LWPOLYLINE
  5
4B
  8
cut
 62
7
370
-1
  6
ByLayer
100
AcDbEntity
100
AcDbPolyline
 90
2
 70
0
 10
75.2789400000000057
 20
38.2901430000000005
 10
76.5733659999999929
 20
37.4271069999999995
  0
LWPOLYLINE
  5
4C
  8
cut
 62
7
370
-1
  6
ByLayer
100
AcDbEntity
100
AcDbPolyline
 90
2
 70
0
 10
69.8955449999999985
 20
35.2137230000000017
 10
68.5823709999999949
 20
36.0765329999999977
  0
SPLINE
  5
4D
  8
cut
 62
7
370
-1
  6
ByLayer
100
AcDbEntity
100
AcDbSpline
 70
8
 71
3
 72
8
 73
4
 74
0
 40
0.0
 40
0.0
 40
0.0
 40
0.0
 40
1.0
 40
1.0
 40
1.0
 40
1.0
 10
73.1966929999999962
 20
43.9548509999999979
 30
0.0
 10
76.8736480000000029
 20
43.6547640000000001
 30
0.0
 10
79.8185940000000045
 20
40.559745999999997
 30
0.0
 10
79.8185940000000045
 20
36.751888000000001
 30
0.0
  0
SPLINE
  5
4E
  8
cut
 62
7
370
-1
  6
ByLayer
100
AcDbEntity
100
AcDbSpline
 70
8
 71
3
 72
8
 73
4
 74
0
 40
0.0
 40
0.0
 40
0.0
 40
0.0
 40
1.0
 40
1.0
 40
1.0
 40
1.0
 10
79.8185940000000045
 20
36.751888000000001
 30
0.0
 10
79.8185940000000045
 20
32.9814020000000028
 30
0.0
 10
76.8736480000000029
 20
29.811278999999999
 30
0.0
 10
73.1966929999999962
 20
29.5110789999999987
 30
0.0
  0
LWPOLYLINE
  5
4F
  8
cut
 62
7
370
-1
  6
ByLayer
100
AcDbEntity
100
AcDbPolyline
 90
3
 70
0
 10
71.940298999999996
 20
48.6700080000000028
 10
73.1966929999999962
 20
48.6700080000000028
 10
73.1966929999999962
 20
43.9548509999999979
  0
SPLINE
  5
50
  8
cut
 62
7
370
-1
  6
ByLayer
100
AcDbEntity
100
AcDbSpline
 70
8
 71
3
 72
8
 73
4
 74
0
 40
0.0
 40
0.0
 40
0.0
 40
0.0
 40
1.0
 40
1.0
 40
1.0
 40
1.0
 10
71.940298999999996
 20
29.5110789999999987
 30
0.0
 10
68.225954999999999
 20
29.8300209999999986
 30
0.0
 10
65.3183939999999978
 20
32.9814020000000028
 30
0.0
 10
65.3183939999999978
 20
36.751888000000001
 30
0.0
  0
SPLINE
  5
51
  8
cut
 62
7
370
-1
  6
ByLayer
100
AcDbEntity
100
AcDbSpline
 70
8
 71
3
 72
8
 73
4
 74
0
 40
0.0
 40
0.0
 40
0.0
 40
0.0
 40
1.0
 40
1.0
 40
1.0
 40
1.0
 10
65.3183939999999978
 20
36.751888000000001
 30
0.0
 10
65.3183939999999978
 20
40.541006000000003
 30
0.0
 10
68.225954999999999
 20
43.636136999999998
 30
0.0
 10
71.940298999999996
 20
43.9548509999999979
 30
0.0
  0
LWPOLYLINE
  5
52
  8
cut
 62
7
370
-1
  6
ByLayer
100
AcDbEntity
100
AcDbPolyline
 90
4
 70
0
 10
73.1966929999999962
 20
29.5110789999999987
 10
73.1966929999999962
 20
24.8462110000000003
 10
71.940298999999996
 20
24.8462110000000003
 10
71.940298999999996
 20
29.5110789999999987
  0
SPLINE
  5
53
  8
cut
 62
7
370
-1
  6
ByLayer
100
AcDbEntity
100
AcDbSpline
 70
8
 71
3
 72
8
 73
4
 74
0
 40
0.0
 40
0.0
 40
0.0
 40
0.0
 40
1.0
 40
1.0
 40
1.0
 40
1.0
 10
66.5940760000000012
 20
36.751888000000001
 30
0.0
 10
66.5940760000000012
 20
33.4879090000000019
 30
0.0
 10
69.2953059999999965
 20
30.6930540000000001
 30
0.0
 10
72.5780309999999957
 20
30.6930540000000001
 30
0.0
  0
SPLINE
  5
54
  8
cut
 62
7
370
-1
  6
ByLayer
100
AcDbEntity
100
AcDbSpline
 70
8
 71
3
 72
8
 73
4
 74
0
 40
0.0
 40
0.0
 40
0.0
 40
0.0
 40
1.0
 40
1.0
 40
1.0
 40
1.0
 10
72.5780309999999957
 20
30.6930540000000001
 30
0.0
 10
75.8230410000000035
 20
30.6930540000000001
 30
0.0
 10
78.5057390000000055
 20
33.4879090000000019
 30
0.0
 10
78.5057390000000055
 20
36.751888000000001
 30
0.0
  0
SPLINE
  5
55
  8
cut
 62
7
370
-1
  6
ByLayer
100
AcDbEntity
100
AcDbSpline
 70
8
 71
3
 72
8
 73
4
 74
0
 40
0.0
 40
0.0
 40
0.0
 40
0.0
 40
1.0
 40
1.0
 40
1.0
 40
1.0
 10
78.5057390000000055
 20
36.751888000000001
 30
0.0
 10
78.5057390000000055
 20
40.0156470000000013
 30
0.0
 10
75.8230410000000035
 20
42.7732120000000009
 30
0.0
 10
72.5780309999999957
 20
42.7732120000000009
 30
0.0
  0
SPLINE
  5
56
  8
cut
 62
7
370
-1
  6
ByLayer
100
AcDbEntity
100
AcDbSpline
 70
8
 71
3
 72
8
 73
4
 74
0
 40
0.0
 40
0.0
 40
0.0
 40
0.0
 40
1.0
 40
1.0
 40
1.0
 40
1.0
 10
72.5780309999999957
 20
42.7732120000000009
 30
0.0
 10
69.2953059999999965
 20
42.7732120000000009
 30
0.0
 10
66.5940760000000012
 20
40.0156470000000013
 30
0.0
 10
66.5940760000000012
 20
36.751888000000001
 30
0.0
  0
LWPOLYLINE
  5
57
  8
cut
 62
7
370
-1
  6
ByLayer
100
AcDbEntity
100
AcDbPolyline
 90
2
 70
0
 10
71.940298999999996
 20
43.9548509999999979
 10
71.940298999999996
 20
48.6700080000000028
  0
SPLINE
  5
58
  8
cut
 62
7
370
-1
  6
ByLayer
100
AcDbEntity
100
AcDbSpline
 70
8
 71
3
 72
8
 73
4
 74
0
 40
0.0
 40
0.0
 40
0.0
 40
0.0
 40
1.0
 40
1.0
 40
1.0
 40
1.0
 10
68.355994999999993
 20
17.610634000000001
 30
0.0
 10
68.2293300000000045
 20
18.1012120000000003
 30
0.0
 10
67.7868310000000065
 20
18.4439710000000012
 30
0.0
 10
67.2801649999999967
 20
18.4439710000000012
 30
0.0
  0
SPLINE
  5
59
  8
cut
 62
7
370
-1
  6
ByLayer
100
AcDbEntity
100
AcDbSpline
 70
8
 71
3
 72
8
 73
4
 74
0
 40
0.0
 40
0.0
 40
0.0
 40
0.0
 40
1.0
 40
1.0
 40
1.0
 40
1.0
 10
67.2801649999999967
 20
18.4439710000000012
 30
0.0
 10
66.773499000000001
 20
18.4439710000000012
 30
0.0
 10
66.3310000000000031
 20
18.1012120000000003
 30
0.0
 10
66.2043350000000004
 20
17.610634000000001
 30
0.0
  0
SPLINE
  5
5A
  8
cut
 62
7
370
-1
  6
ByLayer
100
AcDbEntity
100
AcDbSpline
 70
8
 71
3
 72
8
 73
4
 74
0
 40
0.0
 40
0.0
 40
0.0
 40
0.0
 40
1.0
 40
1.0
 40
1.0
 40
1.0
 10
68.3159979999999933
 20
17.1365629999999989
 30
0.0
 10
68.3997399999999942
 20
17.2805929999999996
 30
0.0
 10
68.4144210000000044
 20
17.4546029999999988
 30
0.0
 10
68.355994999999993
 20
17.6106279999999984
 30
0.0
  0
LWPOLYLINE
  5
5B
  8
cut
 62
7
370
-1
  6
ByLayer
100
AcDbEntity
100
AcDbPolyline
 90
2
 70
0
 10
66.5940760000000012
 20
36.751888000000001
 10
66.5940760000000012
 20
36.751888000000001
  0
LWPOLYLINE
  5
5C
  8
cut
 62
7
370
-1
  6
ByLayer
100
AcDbEntity
100
AcDbPolyline
 90
2
 70
0
 10
66.1690550000000002
 20
13.4439670000000007
 10
68.3159979999999933
 20
17.1365659999999984
  0
SPLINE
  5
5D
  8
cut
 62
7
370
-1
  6
ByLayer
100
AcDbEntity
100
AcDbSpline
 70
8
 71
3
 72
8
 73
4
 74
0
 40
0.0
 40
0.0
 40
0.0
 40
0.0
 40
1.0
 40
1.0
 40
1.0
 40
1.0
 10
70.1737339999999961
 20
17.0552099999999989
 30
0.0
 10
70.0955270000000041
 20
16.6899979999999992
 30
0.0
 10
70.0567049999999938
 20
16.3174540000000015
 30
0.0
 10
70.0579330000000056
 20
15.9439650000000004
 30
0.0
  0
SPLINE
  5
5E
  8
cut
 62
7
370
-1
  6
ByLayer
100
AcDbEntity
100
AcDbSpline
 70
8
 71
3
 72
8
 73
4
 74
0
 40
0.0
 40
0.0
 40
0.0
 40
0.0
 40
1.0
 40
1.0
 40
1.0
 40
1.0
 10
70.0579330000000056
 20
15.9439679999999999
 30
0.0
 10
70.0567049999999938
 20
15.5704790000000006
 30
0.0
 10
70.0955270000000041
 20
15.1979349999999993
 30
0.0
 10
70.1737339999999961
 20
14.8327240000000007
 30
0.0
  0
SPLINE
  5
5F
  8
cut
 62
7
370
-1
  6
ByLayer
100
AcDbEntity
100
AcDbSpline
 70
8
 71
3
 72
8
 73
4
 74
0
 40
0.0
 40
0.0
 40
0.0
 40
0.0
 40
1.0
 40
1.0
 40
1.0
 40
1.0
 10
72.1644059999999996
 20
17.0550770000000007
 30
0.0
 10
72.0896919999999994
 20
17.457851999999999
 30
0.0
 10
71.923293000000001
 20
17.8380329999999994
 30
0.0
 10
71.6780920000000066
 20
18.1661889999999993
 30
0.0
  0
SPLINE
  5
60
  8
cut
 62
7
370
-1
  6
ByLayer
100
AcDbEntity
100
AcDbSpline
 70
8
 71
3
 72
8
 73
4
 74
0
 40
0.0
 40
0.0
 40
0.0
 40
0.0
 40
1.0
 40
1.0
 40
1.0
 40
1.0
 10
72.2801730000000049
 20
15.9439650000000004
 30
0.0
 10
72.2814019999999999
 20
16.3174540000000015
 30
0.0
 10
72.2425810000000013
 20
16.6899979999999992
 30
0.0
 10
72.1643750000000068
 20
17.0552099999999989
 30
0.0
  0
SPLINE
  5
61
  8
cut
 62
7
370
-1
  6
ByLayer
100
AcDbEntity
100
AcDbSpline
 70
8
 71
3
 72
8
 73
4
 74
0
 40
0.0
 40
0.0
 40
0.0
 40
0.0
 40
1.0
 40
1.0
 40
1.0
 40
1.0
 10
72.1643750000000068
 20
14.8327240000000007
 30
0.0
 10
72.2425810000000013
 20
15.1979349999999993
 30
0.0
 10
72.2814019999999999
 20
15.5704790000000006
 30
0.0
 10
72.2801730000000049
 20
15.9439679999999999
 30
0.0
  0
SPLINE
  5
62
  8
cut
 62
7
370
-1
  6
ByLayer
100
AcDbEntity
100
AcDbSpline
 70
8
 71
3
 72
8
 73
4
 74
0
 40
0.0
 40
0.0
 40
0.0
 40
0.0
 40
1.0
 40
1.0
 40
1.0
 40
1.0
 10
71.6780920000000066
 20
13.7217300000000009
 30
0.0
 10
71.923294999999996
 20
14.0498899999999995
 30
0.0
 10
72.0896929999999969
 20
14.4300739999999994
 30
0.0
 10
72.1644059999999996
 20
14.8328530000000001
 30
0.0
  0
SPLINE
  5
63
  8
cut
 62
7
370
-1
  6
ByLayer
100
AcDbEntity
100
AcDbSpline
 70
8
 71
3
 72
8
 73
4
 74
0
 40
0.0
 40
0.0
 40
0.0
 40
0.0
 40
1.0
 40
1.0
 40
1.0
 40
1.0
 10
70.660026000000002
 20
13.7217590000000005
 30
0.0
 10
70.7714200000000062
 20
13.5486240000000002
 30
0.0
 10
70.9631779999999992
 20
13.4439799999999998
 30
0.0
 10
71.1690530000000052
 20
13.4439799999999998
 30
0.0
  0
SPLINE
  5
64
  8
cut
 62
7
370
-1
  6
ByLayer
100
AcDbEntity
100
AcDbSpline
 70
8
 71
3
 72
8
 73
4
 74
0
 40
0.0
 40
0.0
 40
0.0
 40
0.0
 40
1.0
 40
1.0
 40
1.0
 40
1.0
 10
71.1690530000000052
 20
13.4439799999999998
 30
0.0
 10
71.374927999999997
 20
13.4439799999999998
 30
0.0
 10
71.5666860000000042
 20
13.5486240000000002
 30
0.0
 10
71.6780799999999942
 20
13.7217590000000005
 30
0.0
  0
SPLINE
  5
65
  8
cut
 62
7
370
-1
  6
ByLayer
100
AcDbEntity
100
AcDbSpline
 70
8
 71
3
 72
8
 73
4
 74
0
 40
0.0
 40
0.0
 40
0.0
 40
0.0
 40
1.0
 40
1.0
 40
1.0
 40
1.0
 10
70.1736999999999966
 20
14.8328559999999996
 30
0.0
 10
70.2484129999999993
 20
14.4300759999999997
 30
0.0
 10
70.4148129999999952
 20
14.0498899999999995
 30
0.0
 10
70.6600169999999963
 20
13.7217300000000009
 30
0.0
  0
SPLINE
  5
66
  8
cut
 62
7
370
-1
  6
ByLayer
100
AcDbEntity
100
AcDbSpline
 70
8
 71
3
 72
8
 73
4
 74
0
 40
0.0
 40
0.0
 40
0.0
 40
0.0
 40
1.0
 40
1.0
 40
1.0
 40
1.0
 10
70.6600169999999963
 20
18.1661889999999993
 30
0.0
 10
70.4148150000000044
 20
17.8380329999999994
 30
0.0
 10
70.2484149999999943
 20
17.457851999999999
 30
0.0
 10
70.1736999999999966
 20
17.0550770000000007
 30
0.0
  0
SPLINE
  5
67
  8
cut
 62
7
370
-1
  6
ByLayer
100
AcDbEntity
100
AcDbSpline
 70
8
 71
3
 72
8
 73
4
 74
0
 40
0.0
 40
0.0
 40
0.0
 40
0.0
 40
1.0
 40
1.0
 40
1.0
 40
1.0
 10
71.6780799999999942
 20
18.1661889999999993
 30
0.0
 10
71.5666860000000042
 20
18.3393240000000013
 30
0.0
 10
71.374927999999997
 20
18.4439670000000007
 30
0.0
 10
71.1690530000000052
 20
18.4439670000000007
 30
0.0
  0
SPLINE
  5
68
  8
cut
 62
7
370
-1
  6
ByLayer
100
AcDbEntity
100
AcDbSpline
 70
8
 71
3
 72
8
 73
4
 74
0
 40
0.0
 40
0.0
 40
0.0
 40
0.0
 40
1.0
 40
1.0
 40
1.0
 40
1.0
 10
71.1690530000000052
 20
18.4439670000000007
 30
0.0
 10
70.9631779999999992
 20
18.4439670000000007
 30
0.0
 10
70.7714200000000062
 20
18.3393240000000013
 30
0.0
 10
70.660026000000002
 20
18.1661889999999993
 30
0.0
  0
LWPOLYLINE
  5
69
  8
cut
 62
7
370
-1
  6
ByLayer
100
AcDbEntity
100
AcDbPolyline
 90
2
 70
0
 10
68.3912749999999932
 20
13.4439670000000007
 10
66.1690550000000002
 20
13.4439670000000007
  0
SPLINE
  5
6A
  8
cut
 62
7
370
-1
  6
ByLayer
100
AcDbEntity
100
AcDbSpline
 70
8
 71
3
 72
8
 73
4
 74
0
 40
0.0
 40
0.0
 40
0.0
 40
0.0
 40
1.0
 40
1.0
 40
1.0
 40
1.0
 10
78.9115850000000023
 20
17.610634000000001
 30
0.0
 10
78.7849190000000021
 20
18.1012090000000008
 30
0.0
 10
78.3424210000000016
 20
18.4439659999999996
 30
0.0
 10
77.835757000000001
 20
18.4439659999999996
 30
0.0
  0
SPLINE
  5
6B
  8
cut
 62
7
370
-1
  6
ByLayer
100
AcDbEntity
100
AcDbSpline
 70
8
 71
3
 72
8
 73
4
 74
0
 40
0.0
 40
0.0
 40
0.0
 40
0.0
 40
1.0
 40
1.0
 40
1.0
 40
1.0
 10
77.835757000000001
 20
18.4439659999999996
 30
0.0
 10
77.3290930000000003
 20
18.4439659999999996
 30
0.0
 10
76.8865959999999973
 20
18.1012090000000008
 30
0.0
 10
76.7599289999999996
 20
17.610634000000001
 30
0.0
  0
SPLINE
  5
6C
  8
cut
 62
7
370
-1
  6
ByLayer
100
AcDbEntity
100
AcDbSpline
 70
8
 71
3
 72
8
 73
4
 74
0
 40
0.0
 40
0.0
 40
0.0
 40
0.0
 40
1.0
 40
1.0
 40
1.0
 40
1.0
 10
78.8715890000000002
 20
17.1365629999999989
 30
0.0
 10
78.955331000000001
 20
17.2805929999999996
 30
0.0
 10
78.9700140000000061
 20
17.4546029999999988
 30
0.0
 10
78.9115879999999947
 20
17.6106279999999984
 30
0.0
  0
LWPOLYLINE
  5
6D
  8
cut
 62
7
370
-1
  6
ByLayer
100
AcDbEntity
100
AcDbPolyline
 90
3
 70
0
 10
73.9468679999999949
 20
17.3328540000000011
 10
75.0579790000000031
 20
18.4439659999999996
 10
75.0579790000000031
 20
13.4439670000000007
  0
LWPOLYLINE
  5
6E
  8
cut
 62
7
370
-1
  6
ByLayer
100
AcDbEntity
100
AcDbPolyline
 90
2
 70
0
 10
76.7246449999999953
 20
13.4439670000000007
 10
78.8715920000000068
 20
17.1365659999999984
  0
LWPOLYLINE
  5
6F
  8
cut
 62
7
370
-1
  6
ByLayer
100
AcDbEntity
100
AcDbPolyline
 90
2
 70
0
 10
78.9468690000000066
 20
13.4439670000000007
 10
76.7246449999999953
 20
13.4439670000000007
  0
LWPOLYLINE
  5
70
  8
cut
 62
7
370
-1
  6
ByLayer
100
AcDbEntity
100
AcDbPolyline
 90
2
 70
0
 10
67.2490339999999946
 20
22.0914900000000003
 10
68.9157009999999985
 20
22.0914900000000003
  0
LWPOLYLINE
  5
71
  8
cut
 62
7
370
-1
  6
ByLayer
100
AcDbEntity
100
AcDbPolyline
 90
2
 70
0
 10
67.2490339999999946
 20
19.3137129999999999
 10
69.4712549999999993
 20
19.3137129999999999
  0
LWPOLYLINE
  5
72
  8
cut
 62
7
370
-1
  6
ByLayer
100
AcDbEntity
100
AcDbPolyline
 90
2
 70
0
 10
67.2490339999999946
 20
24.3137140000000009
 10
67.2490339999999946
 20
19.3137129999999999
  0
LWPOLYLINE
  5
73
  8
cut
 62
7
370
-1
  6
ByLayer
100
AcDbEntity
100
AcDbPolyline
 90
2
 70
0
 10
69.4712549999999993
 20
24.3137140000000009
 10
67.2490339999999946
 20
24.3137140000000009
  0
LWPOLYLINE
  5
74
  8
cut
 62
7
370
-1
  6
ByLayer
100
AcDbEntity
100
AcDbPolyline
 90
2
 70
0
 10
74.4712559999999968
 20
24.3137140000000009
 10
74.4712559999999968
 20
19.3137129999999999
  0
LWPOLYLINE
  5
75
  8
cut
 62
7
370
-1
  6
ByLayer
100
AcDbEntity
100
AcDbPolyline
 90
2
 70
0
 10
72.8045900000000046
 20
21.5359359999999995
 10
74.4712559999999968
 20
24.3137140000000009
  0
LWPOLYLINE
  5
76
  8
cut
 62
7
370
-1
  6
ByLayer
100
AcDbEntity
100
AcDbPolyline
 90
2
 70
0
 10
71.1379239999999982
 20
24.3137140000000009
 10
72.8045900000000046
 20
21.5359359999999995
  0
LWPOLYLINE
  5
77
  8
cut
 62
7
370
-1
  6
ByLayer
100
AcDbEntity
100
AcDbPolyline
 90
2
 70
0
 10
71.1379239999999982
 20
19.3137129999999999
 10
71.1379239999999982
 20
24.3137140000000009
  0
LWPOLYLINE
  5
78
  8
cut
 62
7
370
-1
  6
ByLayer
100
AcDbEntity
100
AcDbPolyline
 90
2
 70
0
 10
76.1379220000000032
 20
22.0914900000000003
 10
78.3601460000000003
 20
22.0914900000000003
  0
LWPOLYLINE
  5
79
  8
cut
 62
7
370
-1
  6
ByLayer
100
AcDbEntity
100
AcDbPolyline
 90
2
 70
0
 10
76.1379220000000032
 20
24.3137140000000009
 10
76.1379220000000032
 20
19.3137129999999999
  0
LWPOLYLINE
  5
7A
  8
cut
 62
7
370
-1
  6
ByLayer
100
AcDbEntity
100
AcDbPolyline
 90
2
 70
0
 10
78.3601460000000003
 20
24.3137140000000009
 10
76.1379220000000032
 20
24.3137140000000009
  0
SPLINE
  5
7B
  8
cut
 62
7
370
-1
  6
ByLayer
100
AcDbEntity
100
AcDbSpline
 70
8
 71
3
 72
8
 73
4
 74
0
 40
0.0
 40
0.0
 40
0.0
 40
0.0
 40
1.0
 40
1.0
 40
1.0
 40
1.0
 10
64.3182209999999941
 20
12.2264320000000009
 30
0.0
 10
61.0026269999999968
 20
20.0587060000000008
 30
0.0
 10
60.2997780000000034
 20
28.9711880000000015
 30
0.0
 10
62.3466900000000024
 20
37.2264079999999993
 30
0.0
  0
SPLINE
  5
7C
  8
cut
 62
7
370
-1
  6
ByLayer
100
AcDbEntity
100
AcDbSpline
 70
8
 71
3
 72
8
 73
4
 74
0
 40
0.0
 40
0.0
 40
0.0
 40
0.0
 40
1.0
 40
1.0
 40
1.0
 40
1.0
 10
62.3466900000000024
 20
37.2264079999999993
 30
0.0
 10
64.5361589999999978
 20
45.4341020000000029
 30
0.0
 10
63.991812000000003
 20
54.3465720000000019
 30
0.0
 10
60.8187700000000007
 20
62.2264059999999972
 30
0.0
  0
LWPOLYLINE
  5
7D
  8
cut
 62
7
370
-1
  6
ByLayer
100
AcDbEntity
100
AcDbPolyline
 90
2
 70
0
 10
84.3182209999999941
 20
12.2264320000000009
 10
64.3182209999999941
 20
12.2264320000000009
  0
SPLINE
  5
7E
  8
cut
 62
7
370
-1
  6
ByLayer
100
AcDbEntity
100
AcDbSpline
 70
8
 71
3
 72
8
 73
4
 74
0
 40
0.0
 40
0.0
 40
0.0
 40
0.0
 40
1.0
 40
1.0
 40
1.0
 40
1.0
 10
74.5616629999999958
 20
57.7922969999999978
 30
0.0
 10
74.5616629999999958
 20
58.8930900000000008
 30
0.0
 10
73.6692910000000012
 20
59.7854659999999996
 30
0.0
 10
72.5684940000000012
 20
59.7854659999999996
 30
0.0
  0
SPLINE
  5
7F
  8
cut
 62
7
370
-1
  6
ByLayer
100
AcDbEntity
100
AcDbSpline
 70
8
 71
3
 72
8
 73
4
 74
0
 40
0.0
 40
0.0
 40
0.0
 40
0.0
 40
1.0
 40
1.0
 40
1.0
 40
1.0
 10
72.5684940000000012
 20
59.7854659999999996
 30
0.0
 10
71.4676979999999986
 20
59.7854659999999996
 30
0.0
 10
70.5753250000000065
 20
58.8930900000000008
 30
0.0
 10
70.5753250000000065
 20
57.7922969999999978
 30
0.0
  0
SPLINE
  5
80
  8
cut
 62
7
370
-1
  6
ByLayer
100
AcDbEntity
100
AcDbSpline
 70
8
 71
3
 72
8
 73
4
 74
0
 40
0.0
 40
0.0
 40
0.0
 40
0.0
 40
1.0
 40
1.0
 40
1.0
 40
1.0
 10
70.5753250000000065
 20
57.7922969999999978
 30
0.0
 10
70.5753250000000065
 20
56.6914950000000033
 30
0.0
 10
71.4676979999999986
 20
55.7991280000000032
 30
0.0
 10
72.5684940000000012
 20
55.7991280000000032
 30
0.0
  0
SPLINE
  5
81
  8
cut
 62
7
370
-1
  6
ByLayer
100
AcDbEntity
100
AcDbSpline
 70
8
 71
3
 72
8
 73
4
 74
0
 40
0.0
 40
0.0
 40
0.0
 40
0.0
 40
1.0
 40
1.0
 40
1.0
 40
1.0
 10
72.5684940000000012
 20
55.7991280000000032
 30
0.0
 10
73.6692910000000012
 20
55.7991280000000032
 30
0.0
 10
74.5616629999999958
 20
56.6914950000000033
 30
0.0
 10
74.5616629999999958
 20
57.7922969999999978
 30
0.0
  0
LWPOLYLINE
  5
82
  8
cut
 62
7
370
-1
  6
ByLayer
100
AcDbEntity
100
AcDbPolyline
 90
3
 70
0
 10
74.5616629999999958
 20
57.7922969999999978
 10
74.5616629999999958
 20
57.7922969999999978
 10
74.5616629999999958
 20
57.7922969999999978
  0
LWPOLYLINE
  5
83
  8
cut
 62
7
370
-1
  6
ByLayer
100
AcDbEntity
100
AcDbPolyline
 90
2
 70
0
 10
86.7626609999999943
 20
19.7392439999999993
 10
89.3889219999999938
 20
19.7392439999999993
  0
LWPOLYLINE
  5
84
  8
cut
 62
7
370
-1
  6
ByLayer
100
AcDbEntity
100
AcDbPolyline
 90
2
 70
0
 10
86.7626609999999943
 20
21.961468
 10
88.3788200000000046
 20
21.961468
  0
LWPOLYLINE
  5
85
  8
cut
 62
7
370
-1
  6
ByLayer
100
AcDbEntity
100
AcDbPolyline
 90
2
 70
0
 10
86.7626609999999943
 20
23.9816709999999986
 10
89.3889219999999938
 20
23.9816709999999986
  0
LWPOLYLINE
  5
86
  8
cut
 62
7
370
-1
  6
ByLayer
100
AcDbEntity
100
AcDbPolyline
 90
2
 70
0
 10
86.7626609999999943
 20
23.9816709999999986
 10
86.7626609999999943
 20
19.7392439999999993
  0
LWPOLYLINE
  5
87
  8
cut
 62
7
370
-1
  6
ByLayer
100
AcDbEntity
100
AcDbPolyline
 90
2
 70
0
 10
94.2879130000000032
 20
23.9816709999999986
 10
94.2879130000000032
 20
19.7392439999999993
  0
LWPOLYLINE
  5
88
  8
cut
 62
7
370
-1
  6
ByLayer
100
AcDbEntity
100
AcDbPolyline
 90
2
 70
0
 10
94.2879130000000032
 20
23.9816709999999986
 10
92.671750000000003
 20
19.7392439999999993
  0
LWPOLYLINE
  5
89
  8
cut
 62
7
370
-1
  6
ByLayer
100
AcDbEntity
100
AcDbPolyline
 90
2
 70
0
 10
91.0555910000000068
 20
23.9816709999999986
 10
92.671750000000003
 20
19.7392439999999993
  0
LWPOLYLINE
  5
8A
  8
cut
 62
7
370
-1
  6
ByLayer
100
AcDbEntity
100
AcDbPolyline
 90
2
 70
0
 10
91.0555910000000068
 20
23.9816709999999986
 10
91.0555910000000068
 20
19.7392439999999993
  0
LWPOLYLINE
  5
8B
  8
cut
 62
7
370
-1
  6
ByLayer
100
AcDbEntity
100
AcDbPolyline
 90
2
 70
0
 10
95.9545789999999954
 20
21.961468
 10
97.5707419999999956
 20
21.961468
  0
LWPOLYLINE
  5
8C
  8
cut
 62
7
370
-1
  6
ByLayer
100
AcDbEntity
100
AcDbPolyline
 90
2
 70
0
 10
95.9545789999999954
 20
23.9816709999999986
 10
98.5808430000000016
 20
23.9816709999999986
  0
LWPOLYLINE
  5
8D
  8
cut
 62
7
370
-1
  6
ByLayer
100
AcDbEntity
100
AcDbPolyline
 90
2
 70
0
 10
95.9545789999999954
 20
23.9816709999999986
 10
95.9545789999999954
 20
19.7392439999999993
  0
LWPOLYLINE
  5
8E
  8
cut
 62
7
370
-1
  6
ByLayer
100
AcDbEntity
100
AcDbPolyline
 90
2
 70
0
 10
86.0673160000000053
 20
13.6803279999999994
 10
88.8956000000000017
 20
13.6803279999999994
  0
LWPOLYLINE
  5
8F
  8
cut
 62
7
370
-1
  6
ByLayer
100
AcDbEntity
100
AcDbPolyline
 90
2
 70
0
 10
88.0875190000000003
 20
15.7005540000000003
 10
86.0673160000000053
 20
13.6803279999999994
  0
LWPOLYLINE
  5
90
  8
cut
 62
7
370
-1
  6
ByLayer
100
AcDbEntity
100
AcDbPolyline
 90
2
 70
0
 10
88.4915600000000069
 20
16.3066150000000007
 10
88.0875190000000003
 20
15.7005540000000003
  0
LWPOLYLINE
  5
91
  8
cut
 62
7
370
-1
  6
ByLayer
100
AcDbEntity
100
AcDbPolyline
 90
2
 70
0
 10
88.6935799999999972
 20
16.7106560000000002
 10
88.4915600000000069
 20
16.3066150000000007
  0
LWPOLYLINE
  5
92
  8
cut
 62
7
370
-1
  6
ByLayer
100
AcDbEntity
100
AcDbPolyline
 90
2
 70
0
 10
88.6935799999999972
 20
17.1146959999999986
 10
88.6935799999999972
 20
16.7106560000000002
  0
LWPOLYLINE
  5
93
  8
cut
 62
7
370
-1
  6
ByLayer
100
AcDbEntity
100
AcDbPolyline
 90
2
 70
0
 10
88.4915600000000069
 20
17.5187370000000016
 10
88.6935799999999972
 20
17.1146959999999986
  0
LWPOLYLINE
  5
94
  8
cut
 62
7
370
-1
  6
ByLayer
100
AcDbEntity
100
AcDbPolyline
 90
2
 70
0
 10
88.2895390000000049
 20
17.720756999999999
 10
88.4915600000000069
 20
17.5187370000000016
  0
LWPOLYLINE
  5
95
  8
cut
 62
7
370
-1
  6
ByLayer
100
AcDbEntity
100
AcDbPolyline
 90
2
 70
0
 10
87.8854989999999958
 20
17.922778000000001
 10
88.2895390000000049
 20
17.720756999999999
  0
LWPOLYLINE
  5
96
  8
cut
 62
7
370
-1
  6
ByLayer
100
AcDbEntity
100
AcDbPolyline
 90
2
 70
0
 10
87.077416999999997
 20
17.922778000000001
 10
87.8854989999999958
 20
17.922778000000001
  0
LWPOLYLINE
  5
97
  8
cut
 62
7
370
-1
  6
ByLayer
100
AcDbEntity
100
AcDbPolyline
 90
2
 70
0
 10
86.6733770000000021
 20
17.720756999999999
 10
87.077416999999997
 20
17.922778000000001
  0
LWPOLYLINE
  5
98
  8
cut
 62
7
370
-1
  6
ByLayer
100
AcDbEntity
100
AcDbPolyline
 90
2
 70
0
 10
86.4713560000000001
 20
17.5187370000000016
 10
86.6733770000000021
 20
17.720756999999999
  0
LWPOLYLINE
  5
99
  8
cut
 62
7
370
-1
  6
ByLayer
100
AcDbEntity
100
AcDbPolyline
 90
2
 70
0
 10
86.2693359999999956
 20
17.1146959999999986
 10
86.4713560000000001
 20
17.5187370000000016
  0
LWPOLYLINE
  5
9A
  8
cut
 62
7
370
-1
  6
ByLayer
100
AcDbEntity
100
AcDbPolyline
 90
2
 70
0
 10
86.2693359999999956
 20
16.9126760000000012
 10
86.2693359999999956
 20
17.1146959999999986
  0
LWPOLYLINE
  5
9B
  8
cut
 62
7
370
-1
  6
ByLayer
100
AcDbEntity
100
AcDbPolyline
 90
2
 70
0
 10
92.1784289999999942
 20
17.922778000000001
 10
91.7743880000000019
 20
17.922778000000001
  0
LWPOLYLINE
  5
9C
  8
cut
 62
7
370
-1
  6
ByLayer
100
AcDbEntity
100
AcDbPolyline
 90
2
 70
0
 10
92.7844869999999986
 20
17.720756999999999
 10
92.1784289999999942
 20
17.922778000000001
  0
LWPOLYLINE
  5
9D
  8
cut
 62
7
370
-1
  6
ByLayer
100
AcDbEntity
100
AcDbPolyline
 90
2
 70
0
 10
93.1885280000000051
 20
17.1146959999999986
 10
92.7844869999999986
 20
17.720756999999999
  0
LWPOLYLINE
  5
9E
  8
cut
 62
7
370
-1
  6
ByLayer
100
AcDbEntity
100
AcDbPolyline
 90
2
 70
0
 10
93.3905479999999955
 20
16.1045949999999998
 10
93.1885280000000051
 20
17.1146959999999986
  0
LWPOLYLINE
  5
9F
  8
cut
 62
7
370
-1
  6
ByLayer
100
AcDbEntity
100
AcDbPolyline
 90
2
 70
0
 10
93.3905479999999955
 20
15.4985339999999994
 10
93.3905479999999955
 20
16.1045949999999998
  0
LWPOLYLINE
  5
A0
  8
cut
 62
7
370
-1
  6
ByLayer
100
AcDbEntity
100
AcDbPolyline
 90
2
 70
0
 10
93.1885280000000051
 20
14.4884149999999998
 10
93.3905479999999955
 20
15.4985339999999994
  0
LWPOLYLINE
  5
A1
  8
cut
 62
7
370
-1
  6
ByLayer
100
AcDbEntity
100
AcDbPolyline
 90
2
 70
0
 10
92.7844869999999986
 20
13.8823709999999991
 10
93.1885280000000051
 20
14.4884149999999998
  0
LWPOLYLINE
  5
A2
  8
cut
 62
7
370
-1
  6
ByLayer
100
AcDbEntity
100
AcDbPolyline
 90
2
 70
0
 10
92.1784289999999942
 20
13.6803279999999994
 10
92.7844869999999986
 20
13.8823709999999991
  0
LWPOLYLINE
  5
A3
  8
cut
 62
7
370
-1
  6
ByLayer
100
AcDbEntity
100
AcDbPolyline
 90
2
 70
0
 10
91.7743880000000019
 20
13.6803279999999994
 10
92.1784289999999942
 20
13.6803279999999994
  0
LWPOLYLINE
  5
A4
  8
cut
 62
7
370
-1
  6
ByLayer
100
AcDbEntity
100
AcDbPolyline
 90
2
 70
0
 10
91.168327000000005
 20
13.8823709999999991
 10
91.7743880000000019
 20
13.6803279999999994
  0
LWPOLYLINE
  5
A5
  8
cut
 62
7
370
-1
  6
ByLayer
100
AcDbEntity
100
AcDbPolyline
 90
2
 70
0
 10
90.7642869999999959
 20
14.4884149999999998
 10
91.168327000000005
 20
13.8823709999999991
  0
LWPOLYLINE
  5
A6
  8
cut
 62
7
370
-1
  6
ByLayer
100
AcDbEntity
100
AcDbPolyline
 90
2
 70
0
 10
90.5622659999999939
 20
15.4985339999999994
 10
90.7642869999999959
 20
14.4884149999999998
  0
LWPOLYLINE
  5
A7
  8
cut
 62
7
370
-1
  6
ByLayer
100
AcDbEntity
100
AcDbPolyline
 90
2
 70
0
 10
90.5622659999999939
 20
16.1045949999999998
 10
90.5622659999999939
 20
15.4985339999999994
  0
LWPOLYLINE
  5
A8
  8
cut
 62
7
370
-1
  6
ByLayer
100
AcDbEntity
100
AcDbPolyline
 90
2
 70
0
 10
90.7642869999999959
 20
17.1146959999999986
 10
90.5622659999999939
 20
16.1045949999999998
  0
LWPOLYLINE
  5
A9
  8
cut
 62
7
370
-1
  6
ByLayer
100
AcDbEntity
100
AcDbPolyline
 90
2
 70
0
 10
91.168327000000005
 20
17.720756999999999
 10
90.7642869999999959
 20
17.1146959999999986
  0
LWPOLYLINE
  5
AA
  8
cut
 62
7
370
-1
  6
ByLayer
100
AcDbEntity
100
AcDbPolyline
 90
2
 70
0
 10
91.7743880000000019
 20
17.922778000000001
 10
91.168327000000005
 20
17.720756999999999
  0
LWPOLYLINE
  5
AB
  8
cut
 62
7
370
-1
  6
ByLayer
100
AcDbEntity
100
AcDbPolyline
 90
2
 70
0
 10
96.0673160000000053
 20
17.922778000000001
 10
96.0673160000000053
 20
13.6803279999999994
  0
LWPOLYLINE
  5
AC
  8
cut
 62
7
370
-1
  6
ByLayer
100
AcDbEntity
100
AcDbPolyline
 90
2
 70
0
 10
95.4612549999999942
 20
17.3167170000000006
 10
96.0673160000000053
 20
17.922778000000001
  0
LWPOLYLINE
  5
AD
  8
cut
 62
7
370
-1
  6
ByLayer
100
AcDbEntity
100
AcDbPolyline
 90
2
 70
0
 10
95.0572140000000019
 20
17.1146959999999986
 10
95.4612549999999942
 20
17.3167170000000006
  0
LWPOLYLINE
  5
AE
  8
cut
 62
7
370
-1
  6
ByLayer
100
AcDbEntity
100
AcDbPolyline
 90
2
 70
0
 10
97.7339850000000041
 20
13.6803279999999994
 10
100.5622659999999939
 20
13.6803279999999994
  0
LWPOLYLINE
  5
AF
  8
cut
 62
7
370
-1
  6
ByLayer
100
AcDbEntity
100
AcDbPolyline
 90
2
 70
0
 10
99.7541850000000068
 20
15.7005540000000003
 10
97.7339850000000041
 20
13.6803279999999994
  0
LWPOLYLINE
  5
B0
  8
cut
 62
7
370
-1
  6
ByLayer
100
AcDbEntity
100
AcDbPolyline
 90
2
 70
0
 10
100.1582250000000016
 20
16.3066150000000007
 10
99.7541850000000068
 20
15.7005540000000003
  0
LWPOLYLINE
  5
B1
  8
cut
 62
7
370
-1
  6
ByLayer
100
AcDbEntity
100
AcDbPolyline
 90
2
 70
0
 10
100.3602460000000036
 20
16.7106560000000002
 10
100.1582250000000016
 20
16.3066150000000007
  0
LWPOLYLINE
  5
B2
  8
cut
 62
7
370
-1
  6
ByLayer
100
AcDbEntity
100
AcDbPolyline
 90
2
 70
0
 10
100.3602460000000036
 20
17.1146959999999986
 10
100.3602460000000036
 20
16.7106560000000002
  0
LWPOLYLINE
  5
B3
  8
cut
 62
7
370
-1
  6
ByLayer
100
AcDbEntity
100
AcDbPolyline
 90
2
 70
0
 10
100.1582250000000016
 20
17.5187370000000016
 10
100.3602460000000036
 20
17.1146959999999986
  0
LWPOLYLINE
  5
B4
  8
cut
 62
7
370
-1
  6
ByLayer
100
AcDbEntity
100
AcDbPolyline
 90
2
 70
0
 10
99.9562049999999971
 20
17.720756999999999
 10
100.1582250000000016
 20
17.5187370000000016
  0
LWPOLYLINE
  5
B5
  8
cut
 62
7
370
-1
  6
ByLayer
100
AcDbEntity
100
AcDbPolyline
 90
2
 70
0
 10
99.5521650000000022
 20
17.922778000000001
 10
99.9562049999999971
 20
17.720756999999999
  0
LWPOLYLINE
  5
B6
  8
cut
 62
7
370
-1
  6
ByLayer
100
AcDbEntity
100
AcDbPolyline
 90
2
 70
0
 10
98.7440830000000034
 20
17.922778000000001
 10
99.5521650000000022
 20
17.922778000000001
  0
LWPOLYLINE
  5
B7
  8
cut
 62
7
370
-1
  6
ByLayer
100
AcDbEntity
100
AcDbPolyline
 90
2
 70
0
 10
98.3400429999999943
 20
17.720756999999999
 10
98.7440830000000034
 20
17.922778000000001
  0
LWPOLYLINE
  5
B8
  8
cut
 62
7
370
-1
  6
ByLayer
100
AcDbEntity
100
AcDbPolyline
 90
2
 70
0
 10
98.1380220000000065
 20
17.5187370000000016
 10
98.3400429999999943
 20
17.720756999999999
  0
LWPOLYLINE
  5
B9
  8
cut
 62
7
370
-1
  6
ByLayer
100
AcDbEntity
100
AcDbPolyline
 90
2
 70
0
 10
97.936002000000002
 20
17.1146959999999986
 10
98.1380220000000065
 20
17.5187370000000016
  0
SPLINE
  5
BA
  8
cut
 62
7
370
-1
  6
ByLayer
100
AcDbEntity
100
AcDbSpline
 70
8
 71
3
 72
8
 73
4
 74
0
 40
0.0
 40
0.0
 40
0.0
 40
0.0
 40
1.0
 40
1.0
 40
1.0
 40
1.0
 10
88.635910999999993
 20
36.0014109999999974
 30
0.0
 10
89.3301009999999991
 20
37.5020710000000008
 30
0.0
 10
90.1179190000000006
 20
38.1585460000000012
 30
0.0
 10
91.0746769999999941
 20
38.1585460000000012
 30
0.0
  0
SPLINE
  5
BB
  8
cut
 62
7
370
-1
  6
ByLayer
100
AcDbEntity
100
AcDbSpline
 70
8
 71
3
 72
8
 73
4
 74
0
 40
0.0
 40
0.0
 40
0.0
 40
0.0
 40
1.0
 40
1.0
 40
1.0
 40
1.0
 10
91.0746769999999941
 20
38.1585460000000012
 30
0.0
 10
92.1062139999999943
 20
38.1585460000000012
 30
0.0
 10
93.1378550000000018
 20
37.1643899999999974
 30
0.0
 10
93.8882859999999937
 20
37.1643899999999974
 30
0.0
  0
SPLINE
  5
BC
  8
cut
 62
7
370
-1
  6
ByLayer
100
AcDbEntity
100
AcDbSpline
 70
8
 71
3
 72
8
 73
4
 74
0
 40
0.0
 40
0.0
 40
0.0
 40
0.0
 40
1.0
 40
1.0
 40
1.0
 40
1.0
 10
93.8882859999999937
 20
37.1643899999999974
 30
0.0
 10
94.3383319999999941
 20
37.1643899999999974
 30
0.0
 10
94.769951000000006
 20
37.3894900000000021
 30
0.0
 10
95.3324790000000064
 20
38.2150210000000001
 30
0.0
  0
LWPOLYLINE
  5
BD
  8
cut
 62
7
370
-1
  6
ByLayer
100
AcDbEntity
100
AcDbPolyline
 90
2
 70
0
 10
97.936002000000002
 20
16.9126760000000012
 10
97.936002000000002
 20
17.1146959999999986
  0
SPLINE
  5
BE
  8
cut
 62
7
370
-1
  6
ByLayer
100
AcDbEntity
100
AcDbSpline
 70
8
 71
3
 72
8
 73
4
 74
0
 40
0.0
 40
0.0
 40
0.0
 40
0.0
 40
1.0
 40
1.0
 40
1.0
 40
1.0
 10
96.6269060000000053
 20
37.3519849999999991
 30
0.0
 10
95.9139700000000062
 20
35.9826710000000034
 30
0.0
 10
95.1826080000000019
 20
35.1573690000000028
 30
0.0
 10
94.038375000000002
 20
35.1573690000000028
 30
0.0
  0
SPLINE
  5
BF
  8
cut
 62
7
370
-1
  6
ByLayer
100
AcDbEntity
100
AcDbSpline
 70
8
 71
3
 72
8
 73
4
 74
0
 40
0.0
 40
0.0
 40
0.0
 40
0.0
 40
1.0
 40
1.0
 40
1.0
 40
1.0
 10
94.038375000000002
 20
35.1573690000000028
 30
0.0
 10
92.9315280000000001
 20
35.1573690000000028
 30
0.0
 10
91.9750910000000061
 20
36.189230000000002
 30
0.0
 10
91.3558890000000048
 20
36.189230000000002
 30
0.0
  0
SPLINE
  5
C0
  8
cut
 62
7
370
-1
  6
ByLayer
100
AcDbEntity
100
AcDbSpline
 70
8
 71
3
 72
8
 73
4
 74
0
 40
0.0
 40
0.0
 40
0.0
 40
0.0
 40
1.0
 40
1.0
 40
1.0
 40
1.0
 10
91.3558890000000048
 20
36.189230000000002
 30
0.0
 10
90.9057360000000045
 20
36.189230000000002
 30
0.0
 10
90.4743339999999989
 20
35.8324700000000007
 30
0.0
 10
89.9490849999999966
 20
35.1386010000000013
 30
0.0
  0
LWPOLYLINE
  5
C1
  8
cut
 62
7
370
-1
  6
ByLayer
100
AcDbEntity
100
AcDbPolyline
 90
2
 70
0
 10
95.3324790000000064
 20
38.2150210000000001
 10
96.6269060000000053
 20
37.3519849999999991
  0
LWPOLYLINE
  5
C2
  8
cut
 62
7
370
-1
  6
ByLayer
100
AcDbEntity
100
AcDbPolyline
 90
2
 70
0
 10
89.9490849999999966
 20
35.1386010000000013
 10
88.635910999999993
 20
36.0014109999999974
  0
SPLINE
  5
C3
  8
cut
 62
7
370
-1
  6
ByLayer
100
AcDbEntity
100
AcDbSpline
 70
8
 71
3
 72
8
 73
4
 74
0
 40
0.0
 40
0.0
 40
0.0
 40
0.0
 40
1.0
 40
1.0
 40
1.0
 40
1.0
 10
93.2502329999999944
 20
43.8797289999999975
 30
0.0
 10
96.9271870000000035
 20
43.5796419999999998
 30
0.0
 10
99.8721340000000026
 20
40.4846239999999966
 30
0.0
 10
99.8721340000000026
 20
36.6767660000000006
 30
0.0
  0
SPLINE
  5
C4
  8
cut
 62
7
370
-1
  6
ByLayer
100
AcDbEntity
100
AcDbSpline
 70
8
 71
3
 72
8
 73
4
 74
0
 40
0.0
 40
0.0
 40
0.0
 40
0.0
 40
1.0
 40
1.0
 40
1.0
 40
1.0
 10
99.8721340000000026
 20
36.6767660000000006
 30
0.0
 10
99.8721340000000026
 20
32.9062800000000024
 30
0.0
 10
96.9271870000000035
 20
29.7361569999999986
 30
0.0
 10
93.2502329999999944
 20
29.4359569999999984
 30
0.0
  0
LWPOLYLINE
  5
C5
  8
cut
 62
7
370
-1
  6
ByLayer
100
AcDbEntity
100
AcDbPolyline
 90
3
 70
0
 10
91.9938389999999941
 20
48.5948860000000025
 10
93.2502329999999944
 20
48.5948860000000025
 10
93.2502329999999944
 20
43.8797289999999975
  0
SPLINE
  5
C6
  8
cut
 62
7
370
-1
  6
ByLayer
100
AcDbEntity
100
AcDbSpline
 70
8
 71
3
 72
8
 73
4
 74
0
 40
0.0
 40
0.0
 40
0.0
 40
0.0
 40
1.0
 40
1.0
 40
1.0
 40
1.0
 10
91.9938389999999941
 20
29.4359569999999984
 30
0.0
 10
88.2794949999999972
 20
29.7548990000000018
 30
0.0
 10
85.371933999999996
 20
32.9062800000000024
 30
0.0
 10
85.371933999999996
 20
36.6767660000000006
 30
0.0
  0
SPLINE
  5
C7
  8
cut
 62
7
370
-1
  6
ByLayer
100
AcDbEntity
100
AcDbSpline
 70
8
 71
3
 72
8
 73
4
 74
0
 40
0.0
 40
0.0
 40
0.0
 40
0.0
 40
1.0
 40
1.0
 40
1.0
 40
1.0
 10
85.371933999999996
 20
36.6767660000000006
 30
0.0
 10
85.371933999999996
 20
40.4658840000000026
 30
0.0
 10
88.2794949999999972
 20
43.5610149999999976
 30
0.0
 10
91.9938389999999941
 20
43.8797289999999975
 30
0.0
  0
LWPOLYLINE
  5
C8
  8
cut
 62
7
370
-1
  6
ByLayer
100
AcDbEntity
100
AcDbPolyline
 90
4
 70
0
 10
93.2502329999999944
 20
29.4359569999999984
 10
93.2502329999999944
 20
24.7710889999999999
 10
91.9938389999999941
 20
24.7710889999999999
 10
91.9938389999999941
 20
29.4359569999999984
  0
SPLINE
  5
C9
  8
cut
 62
7
370
-1
  6
ByLayer
100
AcDbEntity
100
AcDbSpline
 70
8
 71
3
 72
8
 73
4
 74
0
 40
0.0
 40
0.0
 40
0.0
 40
0.0
 40
1.0
 40
1.0
 40
1.0
 40
1.0
 10
86.6476150000000018
 20
36.6767660000000006
 30
0.0
 10
86.6476150000000018
 20
33.4127870000000016
 30
0.0
 10
89.3488459999999947
 20
30.6179319999999997
 30
0.0
 10
92.6315699999999964
 20
30.6179319999999997
 30
0.0
  0
SPLINE
  5
CA
  8
cut
 62
7
370
-1
  6
ByLayer
100
AcDbEntity
100
AcDbSpline
 70
8
 71
3
 72
8
 73
4
 74
0
 40
0.0
 40
0.0
 40
0.0
 40
0.0
 40
1.0
 40
1.0
 40
1.0
 40
1.0
 10
92.6315699999999964
 20
30.6179319999999997
 30
0.0
 10
95.8765810000000016
 20
30.6179319999999997
 30
0.0
 10
98.5592790000000036
 20
33.4127870000000016
 30
0.0
 10
98.5592790000000036
 20
36.6767660000000006
 30
0.0
  0
SPLINE
  5
CB
  8
cut
 62
7
370
-1
  6
ByLayer
100
AcDbEntity
100
AcDbSpline
 70
8
 71
3
 72
8
 73
4
 74
0
 40
0.0
 40
0.0
 40
0.0
 40
0.0
 40
1.0
 40
1.0
 40
1.0
 40
1.0
 10
98.5592790000000036
 20
36.6767660000000006
 30
0.0
 10
98.5592790000000036
 20
39.9405250000000009
 30
0.0
 10
95.8765810000000016
 20
42.6980900000000005
 30
0.0
 10
92.6315699999999964
 20
42.6980900000000005
 30
0.0
  0
SPLINE
  5
CC
  8
cut
 62
7
370
-1
  6
ByLayer
100
AcDbEntity
100
AcDbSpline
 70
8
 71
3
 72
8
 73
4
 74
0
 40
0.0
 40
0.0
 40
0.0
 40
0.0
 40
1.0
 40
1.0
 40
1.0
 40
1.0
 10
92.6315699999999964
 20
42.6980900000000005
 30
0.0
 10
89.3488459999999947
 20
42.6980900000000005
 30
0.0
 10
86.6476150000000018
 20
39.9405250000000009
 30
0.0
 10
86.6476150000000018
 20
36.6767660000000006
 30
0.0
  0
LWPOLYLINE
  5
CD
  8
cut
 62
7
370
-1
  6
ByLayer
100
AcDbEntity
100
AcDbPolyline
 90
2
 70
0
 10
91.9938389999999941
 20
43.8797289999999975
 10
91.9938389999999941
 20
48.5948860000000025
  0
LWPOLYLINE
  5
CE
  8
cut
 62
7
370
-1
  6
ByLayer
100
AcDbEntity
100
AcDbPolyline
 90
2
 70
0
 10
86.6476150000000018
 20
36.6767660000000006
 10
86.6476150000000018
 20
36.6767660000000006
  0
SPLINE
  5
CF
  8
cut
 62
7
370
-1
  6
ByLayer
100
AcDbEntity
100
AcDbSpline
 70
8
 71
3
 72
8
 73
4
 74
0
 40
0.0
 40
0.0
 40
0.0
 40
0.0
 40
1.0
 40
1.0
 40
1.0
 40
1.0
 10
84.4416590000000014
 20
12.2264320000000009
 30
0.0
 10
81.126064999999997
 20
20.0587260000000001
 30
0.0
 10
80.4232159999999965
 20
28.9712069999999997
 30
0.0
 10
82.4701280000000025
 20
37.2264279999999985
 30
0.0
  0
SPLINE
  5
D0
  8
cut
 62
7
370
-1
  6
ByLayer
100
AcDbEntity
100
AcDbSpline
 70
8
 71
3
 72
8
 73
4
 74
0
 40
0.0
 40
0.0
 40
0.0
 40
0.0
 40
1.0
 40
1.0
 40
1.0
 40
1.0
 10
82.4701280000000025
 20
37.2264279999999985
 30
0.0
 10
84.6595970000000051
 20
45.4341220000000021
 30
0.0
 10
84.1152500000000032
 20
54.3465920000000011
 30
0.0
 10
80.9422079999999937
 20
62.2264259999999965
 30
0.0
  0
LWPOLYLINE
  5
D1
  8
cut
 62
7
370
-1
  6
ByLayer
100
AcDbEntity
100
AcDbPolyline
 90
2
 70
0
 10
104.4416590000000014
 20
12.2264320000000009
 10
84.4416590000000014
 20
12.2264320000000009
  0
SPLINE
  5
D2
  8
cut
 62
7
370
-1
  6
ByLayer
100
AcDbEntity
100
AcDbSpline
 70
8
 71
3
 72
8
 73
4
 74
0
 40
0.0
 40
0.0
 40
0.0
 40
0.0
 40
1.0
 40
1.0
 40
1.0
 40
1.0
 10
94.6851010000000031
 20
57.7923169999999971
 30
0.0
 10
94.6851010000000031
 20
58.8931100000000001
 30
0.0
 10
93.7927289999999942
 20
59.7854859999999988
 30
0.0
 10
92.6919319999999942
 20
59.7854859999999988
 30
0.0
  0
SPLINE
  5
D3
  8
cut
 62
7
370
-1
  6
ByLayer
100
AcDbEntity
100
AcDbSpline
 70
8
 71
3
 72
8
 73
4
 74
0
 40
0.0
 40
0.0
 40
0.0
 40
0.0
 40
1.0
 40
1.0
 40
1.0
 40
1.0
 10
92.6919319999999942
 20
59.7854859999999988
 30
0.0
 10
91.5911360000000059
 20
59.7854859999999988
 30
0.0
 10
90.6987629999999996
 20
58.8931100000000001
 30
0.0
 10
90.6987629999999996
 20
57.7923169999999971
 30
0.0
  0
SPLINE
  5
D4
  8
cut
 62
7
370
-1
  6
ByLayer
100
AcDbEntity
100
AcDbSpline
 70
8
 71
3
 72
8
 73
4
 74
0
 40
0.0
 40
0.0
 40
0.0
 40
0.0
 40
1.0
 40
1.0
 40
1.0
 40
1.0
 10
90.6987629999999996
 20
57.7923169999999971
 30
0.0
 10
90.6987629999999996
 20
56.691513999999998
 30
0.0
 10
91.5911360000000059
 20
55.7991469999999978
 30
0.0
 10
92.6919319999999942
 20
55.7991469999999978
 30
0.0
  0
SPLINE
  5
D5
  8
cut
 62
7
370
-1
  6
ByLayer
100
AcDbEntity
100
AcDbSpline
 70
8
 71
3
 72
8
 73
4
 74
0
 40
0.0
 40
0.0
 40
0.0
 40
0.0
 40
1.0
 40
1.0
 40
1.0
 40
1.0
 10
92.6919319999999942
 20
55.7991469999999978
 30
0.0
 10
93.7927289999999942
 20
55.7991469999999978
 30
0.0
 10
94.6851010000000031
 20
56.691513999999998
 30
0.0
 10
94.6851010000000031
 20
57.7923169999999971
 30
0.0
  0
SPLINE
  5
D6
  8
cut
 62
7
370
-1
  6
ByLayer
100
AcDbEntity
100
AcDbSpline
 70
8
 71
3
 72
8
 73
4
 74
0
 40
0.0
 40
0.0
 40
0.0
 40
0.0
 40
1.0
 40
1.0
 40
1.0
 40
1.0
 10
104.2089500000000015
 20
12.2264320000000009
 30
0.0
 10
100.8933549999999997
 20
20.0587370000000007
 30
0.0
 10
100.1905059999999992
 20
28.9712190000000014
 30
0.0
 10
102.2374190000000027
 20
37.2264389999999992
 30
0.0
  0
SPLINE
  5
D7
  8
cut
 62
7
370
-1
  6
ByLayer
100
AcDbEntity
100
AcDbSpline
 70
8
 71
3
 72
8
 73
4
 74
0
 40
0.0
 40
0.0
 40
0.0
 40
0.0
 40
1.0
 40
1.0
 40
1.0
 40
1.0
 10
102.2374190000000027
 20
37.2264389999999992
 30
0.0
 10
104.4268869999999936
 20
45.4341330000000028
 30
0.0
 10
103.8825400000000059
 20
54.3466030000000018
 30
0.0
 10
100.7094989999999939
 20
62.2264369999999971
 30
0.0
  0
LWPOLYLINE
  5
D8
  8
cut
 62
7
370
-1
  6
ByLayer
100
AcDbEntity
100
AcDbPolyline
 90
3
 70
0
 10
94.6851010000000031
 20
57.7923169999999971
 10
94.6851010000000031
 20
57.7923169999999971
 10
94.6851010000000031
 20
57.7923169999999971
  0
LWPOLYLINE
  5
D9
  8
cut
 62
7
370
-1
  6
ByLayer
100
AcDbEntity
100
AcDbPolyline
 90
2
 70
0
 10
60.8187700000000007
 20
62.2264059999999972
 10
100.7094989999999939
 20
62.2264369999999971
  0
ENDSEC
  0
SECTION
  2
OBJECTS
  0
DICTIONARY
  5
C
100
AcDbDictionary
280
0
281
1
  3
ACAD_GROUP
350
D
  3
ACAD_LAYOUT
350
1A
  3
ACAD_MLINESTYLE
350
17
  3
ACAD_PLOTSETTINGS
350
19
  3
ACAD_PLOTSTYLENAME
350
E
  3
AcDbVariableDictionary
350
DA
  0
DICTIONARY
  5
D
100
AcDbDictionary
280
0
281
1
  0
ACDBDICTIONARYWDFLT
  5
E
100
AcDbDictionary
281
1
  3
Normal
350
F
100
AcDbDictionaryWithDefault
340
F
  0
ACDBPLACEHOLDER
  5
F
  0
DICTIONARY
  5
17
100
AcDbDictionary
280
0
281
1
  3
Standard
350
18
  0
MLINESTYLE
  5
18
100
AcDbMlineStyle
  2
STANDARD
 70
0
  3

 62
256
 51
90.0
 52
90.0
 71
2
 49
0.5
 62
256
  6
BYLAYER
 49
-0.5
 62
256
  6
BYLAYER
  0
DICTIONARY
  5
19
100
AcDbDictionary
280
0
281
1
  0
DICTIONARY
  5
1A
100
AcDbDictionary
281
1
  3
Layout1
350
1E
  3
Layout2
350
26
  3
Model
350
22
  0
LAYOUT
  5
1E
100
AcDbPlotSettings
  1

  2
C:\Program Files\AutoCAD 2002\plotters\DWF ePlot (optimized for plotting).pc3
  4

  6

 40
0.0
 41
0.0
 42
0.0
 43
0.0
 44
0.0
 45
0.0
 46
0.0
 47
0.0
 48
0.0
 49
0.0
140
0.0
141
0.0
142
1.0
143
1.0
 70
688
 72
0
 73
0
 74
5
  7

 75
16
147
1.0
148
0.0
149
0.0
100
AcDbLayout
  1
Layout1
 70
1
 71
1
 10
0.0
 20
0.0
 11
420.0
 21
297.0
 12
0.0
 22
0.0
 32
0.0
 14
100000000000000000000.0
 24
100000000000000000000.0
 34
100000000000000000000.0
 15
-100000000000000000000.0
 25
-100000000000000000000.0
 35
-100000000000000000000.0
146
0.0
 13
0.0
 23
0.0
 33
0.0
 16
1.0
 26
0.0
 36
0.0
 17
0.0
 27
1.0
 37
0.0
 76
0
330
1B
  0
LAYOUT
  5
22
100
AcDbPlotSettings
  1

  2
C:\Program Files\AutoCAD 2002\plotters\DWF ePlot (optimized for plotting).pc3
  4

  6

 40
0.0
 41
0.0
 42
0.0
 43
0.0
 44
0.0
 45
0.0
 46
0.0
 47
0.0
 48
0.0
 49
0.0
140
0.0
141
0.0
142
1.0
143
1.0
 70
1712
 72
0
 73
0
 74
0
  7

 75
0
147
1.0
148
0.0
149
0.0
100
AcDbLayout
  1
Model
 70
1
 71
0
 10
0.0
 20
0.0
 11
12.0
 21
9.0
 12
0.0
 22
0.0
 32
0.0
 14
0.0
 24
0.0
 34
0.0
 15
0.0
 25
0.0
 35
0.0
146
0.0
 13
0.0
 23
0.0
 33
0.0
 16
1.0
 26
0.0
 36
0.0
 17
0.0
 27
1.0
 37
0.0
 76
0
330
1F
  0
LAYOUT
  5
26
100
AcDbPlotSettings
  1

  2
C:\Program Files\AutoCAD 2002\plotters\DWF ePlot (optimized for plotting).pc3
  4

  6

 40
0.0
 41
0.0
 42
0.0
 43
0.0
 44
0.0
 45
0.0
 46
0.0
 47
0.0
 48
0.0
 49
0.0
140
0.0
141
0.0
142
1.0
143
1.0
 70
688
 72
0
 73
0
 74
5
  7

 75
16
147
1.0
148
0.0
149
0.0
100
AcDbLayout
  1
Layout2
 70
1
 71
2
 10
0.0
 20
0.0
 11
12.0
 21
9.0
 12
0.0
 22
0.0
 32
0.0
 14
0.0
 24
0.0
 34
0.0
 15
0.0
 25
0.0
 35
0.0
146
0.0
 13
0.0
 23
0.0
 33
0.0
 16
1.0
 26
0.0
 36
0.0
 17
0.0
 27
1.0
 37
0.0
 76
0
330
23
  0
DICTIONARY
  5
DA
100
AcDbDictionary
281
1
  3
DIMASSOC
350
DC
  3
HIDETEXT
350
DB
  0
DICTIONARYVAR
  5
DB
100
DictionaryVariables
280
0
  1
2
  0
DICTIONARYVAR
  5
DC
100
DictionaryVariables
280
0
  1
1
  0
ENDSEC
  0
EOF
