999
dxflib 2.0.4.8
  0
SECTION
  2
HEADER
  9
$ACADVER
  1
AC1015
  9
$HANDSEED
  5
FFFF
  9
$DIMASZ
 40
2.5
  9
$MEASUREMENT
 70
1
  9
$DIMGAP
 40
0.625
  9
$DIMEXO
 40
0.625
  9
$INSUNITS
 70
4
  9
$GRIDMODE
 70
1
  9
$DIMTXT
 40
2.5
  9
$DIMSTYLE
  2
Standard
  9
$PLIMMAX
 10
210.0
 20
297.0
  9
$PLIMMIN
 10
0.0
 20
0.0
  9
$DIMEXE
 40
1.25
  0
ENDSEC
  0
SECTION
  2
TABLES
  0
TABLE
  2
VPORT
  5
8
100
AcDbSymbolTable
 70
1
  0
VPORT
  5
30
100
AcDbSymbolTableRecord
100
AcDbViewportTableRecord
  2
*Active
 70
0
 10
0.0
 20
0.0
 11
1.0
 21
1.0
 12
286.3055555555554861
 22
148.5
 13
0.0
 23
0.0
 14
10.0
 24
10.0
 15
10.0
 25
10.0
 16
0.0
 26
0.0
 36
1.0
 17
0.0
 27
0.0
 37
0.0
 40
297.0
 41
1.92798353909465
 42
50.0
 43
0.0
 44
0.0
 50
0.0
 51
0.0
 71
0
 72
100
 73
1
 74
3
 75
1
 76
1
 77
0
 78
0
281
0
 65
1
110
0.0
120
0.0
130
0.0
111
1.0
121
0.0
131
0.0
112
0.0
122
1.0
132
0.0
 79
0
146
0.0
  0
ENDTAB
  0
TABLE
  2
LTYPE
  5
5
100
AcDbSymbolTable
 70
21
  0
LTYPE
  5
14
100
AcDbSymbolTableRecord
100
AcDbLinetypeTableRecord
  2
ByBlock
 70
0
  3

 72
65
 73
0
 40
0.0
  0
LTYPE
  5
15
100
AcDbSymbolTableRecord
100
AcDbLinetypeTableRecord
  2
ByLayer
 70
0
  3

 72
65
 73
0
 40
0.0
  0
LTYPE
  5
16
100
AcDbSymbolTableRecord
100
AcDbLinetypeTableRecord
  2
CONTINUOUS
 70
0
  3
Solid line
 72
65
 73
0
 40
0.0
  0
LTYPE
  5
31
100
AcDbSymbolTableRecord
100
AcDbLinetypeTableRecord
  2
DOT
 70
0
  3
Dot . . . . . . . . . . . . . . . . . . . . . .
 72
65
 73
2
 40
6.3499999999999996
 49
0.0
 74
0
 49
-6.3499999999999996
 74
0
  0
LTYPE
  5
32
100
AcDbSymbolTableRecord
100
AcDbLinetypeTableRecord
  2
DOT2
 70
0
  3
Dot (.5x) .....................................
 72
65
 73
2
 40
3.1749999999999998
 49
0.0
 74
0
 49
-3.1749999999999998
 74
0
  0
LTYPE
  5
33
100
AcDbSymbolTableRecord
100
AcDbLinetypeTableRecord
  2
DOTX2
 70
0
  3
Dot (2x) .  .  .  .  .  .  .  .  .  .  .  .  .
 72
65
 73
2
 40
12.6999999999999993
 49
0.0
 74
0
 49
-12.6999999999999993
 74
0
  0
LTYPE
  5
34
100
AcDbSymbolTableRecord
100
AcDbLinetypeTableRecord
  2
DASHED
 70
0
  3
Dashed __ __ __ __ __ __ __ __ __ __ __ __ __ _
 72
65
 73
2
 40
19.0500000000000007
 49
12.6999999999999993
 74
0
 49
-6.3499999999999996
 74
0
  0
LTYPE
  5
35
100
AcDbSymbolTableRecord
100
AcDbLinetypeTableRecord
  2
DASHED2
 70
0
  3
Dashed (.5x) _ _ _ _ _ _ _ _ _ _ _ _ _ _ _ _ _
 72
65
 73
2
 40
9.5250000000000004
 49
6.3499999999999996
 74
0
 49
-3.1749999999999998
 74
0
  0
LTYPE
  5
36
100
AcDbSymbolTableRecord
100
AcDbLinetypeTableRecord
  2
DASHEDX2
 70
0
  3
Dashed (2x) ____  ____  ____  ____  ____  ___
 72
65
 73
2
 40
38.1000000000000014
 49
25.3999999999999986
 74
0
 49
-12.6999999999999993
 74
0
  0
LTYPE
  5
37
100
AcDbSymbolTableRecord
100
AcDbLinetypeTableRecord
  2
DASHDOT
 70
0
  3
Dash dot __ . __ . __ . __ . __ . __ . __ . __
 72
65
 73
4
 40
25.3999999999999986
 49
12.6999999999999993
 74
0
 49
-6.3499999999999996
 74
0
 49
0.0
 74
0
 49
-6.3499999999999996
 74
0
  0
LTYPE
  5
38
100
AcDbSymbolTableRecord
100
AcDbLinetypeTableRecord
  2
DASHDOT2
 70
0
  3
Dash dot (.5x) _._._._._._._._._._._._._._._.
 72
65
 73
4
 40
12.6999999999999993
 49
6.3499999999999996
 74
0
 49
-3.1749999999999998
 74
0
 49
0.0
 74
0
 49
-3.1749999999999998
 74
0
  0
LTYPE
  5
39
100
AcDbSymbolTableRecord
100
AcDbLinetypeTableRecord
  2
DASHDOTX2
 70
0
  3
Dash dot (2x) ____  .  ____  .  ____  .  ___
 72
65
 73
4
 40
50.7999999999999972
 49
25.3999999999999986
 74
0
 49
-12.6999999999999993
 74
0
 49
0.0
 74
0
 49
-12.6999999999999993
 74
0
  0
LTYPE
  5
3A
100
AcDbSymbolTableRecord
100
AcDbLinetypeTableRecord
  2
DIVIDE
 70
0
  3
Divide ____ . . ____ . . ____ . . ____ . . ____
 72
65
 73
6
 40
31.75
 49
12.6999999999999993
 74
0
 49
-6.3499999999999996
 74
0
 49
0.0
 74
0
 49
-6.3499999999999996
 74
0
 49
0.0
 74
0
 49
-6.3499999999999996
 74
0
  0
LTYPE
  5
3B
100
AcDbSymbolTableRecord
100
AcDbLinetypeTableRecord
  2
DIVIDE2
 70
0
  3
Divide (.5x) __..__..__..__..__..__..__..__.._
 72
65
 73
6
 40
15.875
 49
6.3499999999999996
 74
0
 49
-3.1749999999999998
 74
0
 49
0.0
 74
0
 49
-3.1749999999999998
 74
0
 49
0.0
 74
0
 49
-3.1749999999999998
 74
0
  0
LTYPE
  5
3C
100
AcDbSymbolTableRecord
100
AcDbLinetypeTableRecord
  2
DIVIDEX2
 70
0
  3
Divide (2x) ________  .  .  ________  .  .  _
 72
65
 73
6
 40
63.5
 49
25.3999999999999986
 74
0
 49
-12.6999999999999993
 74
0
 49
0.0
 74
0
 49
-12.6999999999999993
 74
0
 49
0.0
 74
0
 49
-12.6999999999999993
 74
0
  0
LTYPE
  5
3D
100
AcDbSymbolTableRecord
100
AcDbLinetypeTableRecord
  2
CENTER
 70
0
  3
Center ____ _ ____ _ ____ _ ____ _ ____ _ ____
 72
65
 73
4
 40
50.7999999999999972
 49
31.75
 74
0
 49
-6.3499999999999996
 74
0
 49
6.3499999999999996
 74
0
 49
-6.3499999999999996
 74
0
  0
LTYPE
  5
3E
100
AcDbSymbolTableRecord
100
AcDbLinetypeTableRecord
  2
CENTER2
 70
0
  3
Center (.5x) ___ _ ___ _ ___ _ ___ _ ___ _ ___
 72
65
 73
4
 40
28.5749999999999993
 49
19.0500000000000007
 74
0
 49
-3.1749999999999998
 74
0
 49
3.1749999999999998
 74
0
 49
-3.1749999999999998
 74
0
  0
LTYPE
  5
3F
100
AcDbSymbolTableRecord
100
AcDbLinetypeTableRecord
  2
CENTERX2
 70
0
  3
Center (2x) ________  __  ________  __  _____
 72
65
 73
4
 40
101.5999999999999943
 49
63.5
 74
0
 49
-12.6999999999999993
 74
0
 49
12.6999999999999993
 74
0
 49
-12.6999999999999993
 74
0
  0
LTYPE
  5
40
100
AcDbSymbolTableRecord
100
AcDbLinetypeTableRecord
  2
BORDER
 70
0
  3
Border __ __ . __ __ . __ __ . __ __ . __ __ .
 72
65
 73
6
 40
44.4500000000000028
 49
12.6999999999999993
 74
0
 49
-6.3499999999999996
 74
0
 49
12.6999999999999993
 74
0
 49
-6.3499999999999996
 74
0
 49
0.0
 74
0
 49
-6.3499999999999996
 74
0
  0
LTYPE
  5
41
100
AcDbSymbolTableRecord
100
AcDbLinetypeTableRecord
  2
BORDER2
 70
0
  3
Border (.5x) __.__.__.__.__.__.__.__.__.__.__.
 72
65
 73
6
 40
22.2250000000000014
 49
6.3499999999999996
 74
0
 49
-3.1749999999999998
 74
0
 49
6.3499999999999996
 74
0
 49
-3.1749999999999998
 74
0
 49
0.0
 74
0
 49
-3.1749999999999998
 74
0
  0
LTYPE
  5
42
100
AcDbSymbolTableRecord
100
AcDbLinetypeTableRecord
  2
BORDERX2
 70
0
  3
Border (2x) ____  ____  .  ____  ____  .  ___
 72
65
 73
6
 40
88.9000000000000057
 49
25.3999999999999986
 74
0
 49
-12.6999999999999993
 74
0
 49
25.3999999999999986
 74
0
 49
-12.6999999999999993
 74
0
 49
0.0
 74
0
 49
-12.6999999999999993
 74
0
  0
ENDTAB
  0
TABLE
  2
LAYER
  5
2
100
AcDbSymbolTable
 70
3
  0
LAYER
  5
10
100
AcDbSymbolTableRecord
100
AcDbLayerTableRecord
  2
0
 70
0
 62
7
  6
CONTINUOUS
390
F
  0
LAYER
  5
43
100
AcDbSymbolTableRecord
100
AcDbLayerTableRecord
  2
tilda
 70
0
 62
7
  6
CONTINUOUS
390
F
  0
LAYER
  5
44
100
AcDbSymbolTableRecord
100
AcDbLayerTableRecord
  2
outline
 70
0
 62
7
  6
CONTINUOUS
390
F
  0
ENDTAB
  0
TABLE
  2
STYLE
  5
3
100
AcDbSymbolTable
 70
1
  0
STYLE
  5
11
100
AcDbSymbolTableRecord
100
AcDbTextStyleTableRecord
  2
Standard
 70
0
 40
0.0
 41
0.75
 50
0.0
 71
0
 42
2.5
  3
txt
  4

  0
ENDTAB
  0
TABLE
  2
VIEW
  5
6
100
AcDbSymbolTable
 70
0
  0
ENDTAB
  0
TABLE
  2
UCS
  5
7
100
AcDbSymbolTable
 70
0
  0
ENDTAB
  0
TABLE
  2
APPID
  5
9
100
AcDbSymbolTable
 70
1
  0
APPID
  5
12
100
AcDbSymbolTableRecord
100
AcDbRegAppTableRecord
  2
ACAD
 70
0
  0
ENDTAB
  0
TABLE
  2
DIMSTYLE
  5
A
100
AcDbSymbolTable
 70
1
100
AcDbDimStyleTable
 71
0
  0
DIMSTYLE
105
27
100
AcDbSymbolTableRecord
100
AcDbDimStyleTableRecord
  2
Standard
 41
2.5
 42
0.625
 43
3.75
 44
1.25
 70
0
 73
0
 74
0
 77
1
 78
8
140
2.5
141
2.5
143
0.03937007874016
147
0.625
171
3
172
1
271
2
272
2
274
3
278
44
283
0
284
8
340
11
  0
ENDTAB
  0
TABLE
  2
BLOCK_RECORD
  5
1
100
AcDbSymbolTable
 70
1
  0
BLOCK_RECORD
  5
1F
100
AcDbSymbolTableRecord
100
AcDbBlockTableRecord
  2
*Model_Space
340
22
  0
BLOCK_RECORD
  5
1B
100
AcDbSymbolTableRecord
100
AcDbBlockTableRecord
  2
*Paper_Space
340
1E
  0
BLOCK_RECORD
  5
23
100
AcDbSymbolTableRecord
100
AcDbBlockTableRecord
  2
*Paper_Space0
340
26
  0
ENDTAB
  0
ENDSEC
  0
SECTION
  2
BLOCKS
  0
BLOCK
  5
20
100
AcDbEntity
  8
0
100
AcDbBlockBegin
  2
*Model_Space
 70
0
 10
0.0
 20
0.0
 30
0.0
  3
*Model_Space
  1

  0
ENDBLK
  5
21
100
AcDbEntity
  8
0
100
AcDbBlockEnd
  0
BLOCK
  5
1C
100
AcDbEntity
 67
1
  8
0
100
AcDbBlockBegin
  2
*Paper_Space
 70
0
 10
0.0
 20
0.0
 30
0.0
  3
*Paper_Space
  1

  0
ENDBLK
  5
1D
100
AcDbEntity
 67
1
  8
0
100
AcDbBlockEnd
  0
BLOCK
  5
24
100
AcDbEntity
  8
0
100
AcDbBlockBegin
  2
*Paper_Space0
 70
0
 10
0.0
 20
0.0
 30
0.0
  3
*Paper_Space0
  1

  0
ENDBLK
  5
25
100
AcDbEntity
  8
0
100
AcDbBlockEnd
  0
ENDSEC
  0
SECTION
  2
ENTITIES
  0
SPLINE
  5
45
  8
outline
 62
7
370
-1
  6
ByLayer
100
AcDbEntity
100
AcDbSpline
 70
8
 71
3
 72
8
 73
4
 74
0
 40
0.0
 40
0.0
 40
0.0
 40
0.0
 40
1.0
 40
1.0
 40
1.0
 40
1.0
 10
64.3182209999999941
 20
12.2146340000000002
 30
0.0
 10
61.0026269999999968
 20
20.0469100000000005
 30
0.0
 10
60.2997780000000034
 20
28.9593920000000011
 30
0.0
 10
62.3466900000000024
 20
37.2146100000000004
 30
0.0
  0
SPLINE
  5
46
  8
outline
 62
7
370
-1
  6
ByLayer
100
AcDbEntity
100
AcDbSpline
 70
8
 71
3
 72
8
 73
4
 74
0
 40
0.0
 40
0.0
 40
0.0
 40
0.0
 40
1.0
 40
1.0
 40
1.0
 40
1.0
 10
62.3466900000000024
 20
37.2146100000000004
 30
0.0
 10
64.5361589999999978
 20
45.4223039999999969
 30
0.0
 10
63.991812000000003
 20
54.334774000000003
 30
0.0
 10
60.8187700000000007
 20
62.2146100000000004
 30
0.0
  0
SPLINE
  5
47
  8
outline
 62
7
370
-1
  6
ByLayer
100
AcDbEntity
100
AcDbSpline
 70
8
 71
3
 72
8
 73
4
 74
0
 40
0.0
 40
0.0
 40
0.0
 40
0.0
 40
1.0
 40
1.0
 40
1.0
 40
1.0
 10
71.3023490000000066
 20
36.2525540000000035
 30
0.0
 10
70.8521970000000039
 20
36.2525540000000035
 30
0.0
 10
70.4207940000000008
 20
35.8957959999999972
 30
0.0
 10
69.8955449999999985
 20
35.2019250000000028
 30
0.0
  0
LWPOLYLINE
  5
48
  8
outline
 62
7
370
-1
  6
ByLayer
100
AcDbEntity
100
AcDbPolyline
 90
2
 70
0
 10
84.3182209999999941
 20
12.2146340000000002
 10
64.3182209999999941
 20
12.2146340000000002
  0
SPLINE
  5
49
  8
outline
 62
7
370
-1
  6
ByLayer
100
AcDbEntity
100
AcDbSpline
 70
8
 71
3
 72
8
 73
4
 74
0
 40
0.0
 40
0.0
 40
0.0
 40
0.0
 40
1.0
 40
1.0
 40
1.0
 40
1.0
 10
68.5823709999999949
 20
36.0647349999999989
 30
0.0
 10
69.2765610000000009
 20
37.5653950000000023
 30
0.0
 10
70.0643790000000024
 20
38.2218719999999976
 30
0.0
 10
71.0211379999999934
 20
38.2218719999999976
 30
0.0
  0
SPLINE
  5
4A
  8
outline
 62
7
370
-1
  6
ByLayer
100
AcDbEntity
100
AcDbSpline
 70
8
 71
3
 72
8
 73
4
 74
0
 40
0.0
 40
0.0
 40
0.0
 40
0.0
 40
1.0
 40
1.0
 40
1.0
 40
1.0
 10
71.0211379999999934
 20
38.2218719999999976
 30
0.0
 10
72.0526739999999961
 20
38.2218719999999976
 30
0.0
 10
73.0843150000000037
 20
37.2277160000000009
 30
0.0
 10
73.8347459999999955
 20
37.2277160000000009
 30
0.0
  0
SPLINE
  5
4B
  8
outline
 62
7
370
-1
  6
ByLayer
100
AcDbEntity
100
AcDbSpline
 70
8
 71
3
 72
8
 73
4
 74
0
 40
0.0
 40
0.0
 40
0.0
 40
0.0
 40
1.0
 40
1.0
 40
1.0
 40
1.0
 10
73.8347459999999955
 20
37.2277160000000009
 30
0.0
 10
74.2847919999999959
 20
37.2277160000000009
 30
0.0
 10
74.7164109999999937
 20
37.4528159999999986
 30
0.0
 10
75.2789400000000057
 20
38.2783450000000016
 30
0.0
  0
LWPOLYLINE
  5
4C
  8
outline
 62
7
370
-1
  6
ByLayer
100
AcDbEntity
100
AcDbPolyline
 90
2
 70
0
 10
69.8955449999999985
 20
35.2019250000000028
 10
68.5823709999999949
 20
36.0647349999999989
  0
SPLINE
  5
4D
  8
outline
 62
7
370
-1
  6
ByLayer
100
AcDbEntity
100
AcDbSpline
 70
8
 71
3
 72
8
 73
4
 74
0
 40
0.0
 40
0.0
 40
0.0
 40
0.0
 40
1.0
 40
1.0
 40
1.0
 40
1.0
 10
76.5733659999999929
 20
37.4153090000000006
 30
0.0
 10
75.8604299999999938
 20
36.0459949999999978
 30
0.0
 10
75.1290680000000037
 20
35.2206929999999971
 30
0.0
 10
73.9848350000000039
 20
35.2206929999999971
 30
0.0
  0
SPLINE
  5
4E
  8
outline
 62
7
370
-1
  6
ByLayer
100
AcDbEntity
100
AcDbSpline
 70
8
 71
3
 72
8
 73
4
 74
0
 40
0.0
 40
0.0
 40
0.0
 40
0.0
 40
1.0
 40
1.0
 40
1.0
 40
1.0
 10
73.9848350000000039
 20
35.2206929999999971
 30
0.0
 10
72.877988000000002
 20
35.2206929999999971
 30
0.0
 10
71.9215509999999938
 20
36.2525540000000035
 30
0.0
 10
71.3023490000000066
 20
36.2525540000000035
 30
0.0
  0
LWPOLYLINE
  5
4F
  8
outline
 62
7
370
-1
  6
ByLayer
100
AcDbEntity
100
AcDbPolyline
 90
2
 70
0
 10
75.2789400000000057
 20
38.2783450000000016
 10
76.5733659999999929
 20
37.4153090000000006
  0
SPLINE
  5
50
  8
outline
 62
7
370
-1
  6
ByLayer
100
AcDbEntity
100
AcDbSpline
 70
8
 71
3
 72
8
 73
4
 74
0
 40
0.0
 40
0.0
 40
0.0
 40
0.0
 40
1.0
 40
1.0
 40
1.0
 40
1.0
 10
71.940298999999996
 20
29.4992829999999984
 30
0.0
 10
68.225954999999999
 20
29.8182229999999997
 30
0.0
 10
65.3183939999999978
 20
32.9696059999999989
 30
0.0
 10
65.3183939999999978
 20
36.7400919999999971
 30
0.0
  0
SPLINE
  5
51
  8
outline
 62
7
370
-1
  6
ByLayer
100
AcDbEntity
100
AcDbSpline
 70
8
 71
3
 72
8
 73
4
 74
0
 40
0.0
 40
0.0
 40
0.0
 40
0.0
 40
1.0
 40
1.0
 40
1.0
 40
1.0
 10
65.3183939999999978
 20
36.7400919999999971
 30
0.0
 10
65.3183939999999978
 20
40.529207999999997
 30
0.0
 10
68.225954999999999
 20
43.6243389999999991
 30
0.0
 10
71.940298999999996
 20
43.943052999999999
 30
0.0
  0
LWPOLYLINE
  5
52
  8
outline
 62
7
370
-1
  6
ByLayer
100
AcDbEntity
100
AcDbPolyline
 90
3
 70
0
 10
73.1966929999999962
 20
24.8344149999999999
 10
71.940298999999996
 20
24.8344149999999999
 10
71.940298999999996
 20
29.4992829999999984
  0
SPLINE
  5
53
  8
outline
 62
7
370
-1
  6
ByLayer
100
AcDbEntity
100
AcDbSpline
 70
8
 71
3
 72
8
 73
4
 74
0
 40
0.0
 40
0.0
 40
0.0
 40
0.0
 40
1.0
 40
1.0
 40
1.0
 40
1.0
 10
73.1966929999999962
 20
43.943052999999999
 30
0.0
 10
76.8736480000000029
 20
43.6429660000000013
 30
0.0
 10
79.8185940000000045
 20
40.5479479999999981
 30
0.0
 10
79.8185940000000045
 20
36.7400919999999971
 30
0.0
  0
SPLINE
  5
54
  8
outline
 62
7
370
-1
  6
ByLayer
100
AcDbEntity
100
AcDbSpline
 70
8
 71
3
 72
8
 73
4
 74
0
 40
0.0
 40
0.0
 40
0.0
 40
0.0
 40
1.0
 40
1.0
 40
1.0
 40
1.0
 10
79.8185940000000045
 20
36.7400919999999971
 30
0.0
 10
79.8185940000000045
 20
32.9696059999999989
 30
0.0
 10
76.8736480000000029
 20
29.7994829999999986
 30
0.0
 10
73.1966929999999962
 20
29.4992829999999984
 30
0.0
  0
LWPOLYLINE
  5
55
  8
outline
 62
7
370
-1
  6
ByLayer
100
AcDbEntity
100
AcDbPolyline
 90
4
 70
0
 10
71.940298999999996
 20
43.943052999999999
 10
71.940298999999996
 20
54.2944639999999978
 10
73.1966929999999962
 20
54.2944639999999978
 10
73.1966929999999962
 20
43.943052999999999
  0
SPLINE
  5
56
  8
outline
 62
7
370
-1
  6
ByLayer
100
AcDbEntity
100
AcDbSpline
 70
8
 71
3
 72
8
 73
4
 74
0
 40
0.0
 40
0.0
 40
0.0
 40
0.0
 40
1.0
 40
1.0
 40
1.0
 40
1.0
 10
72.5780309999999957
 20
42.761415999999997
 30
0.0
 10
69.2953059999999965
 20
42.761415999999997
 30
0.0
 10
66.5940760000000012
 20
40.0038509999999974
 30
0.0
 10
66.5940760000000012
 20
36.7400919999999971
 30
0.0
  0
SPLINE
  5
57
  8
outline
 62
7
370
-1
  6
ByLayer
100
AcDbEntity
100
AcDbSpline
 70
8
 71
3
 72
8
 73
4
 74
0
 40
0.0
 40
0.0
 40
0.0
 40
0.0
 40
1.0
 40
1.0
 40
1.0
 40
1.0
 10
66.5940760000000012
 20
36.7400919999999971
 30
0.0
 10
66.5940760000000012
 20
33.4761110000000031
 30
0.0
 10
69.2953059999999965
 20
30.6812579999999997
 30
0.0
 10
72.5780309999999957
 20
30.6812579999999997
 30
0.0
  0
SPLINE
  5
58
  8
outline
 62
7
370
-1
  6
ByLayer
100
AcDbEntity
100
AcDbSpline
 70
8
 71
3
 72
8
 73
4
 74
0
 40
0.0
 40
0.0
 40
0.0
 40
0.0
 40
1.0
 40
1.0
 40
1.0
 40
1.0
 10
72.5780309999999957
 20
30.6812579999999997
 30
0.0
 10
75.8230410000000035
 20
30.6812579999999997
 30
0.0
 10
78.5057390000000055
 20
33.4761110000000031
 30
0.0
 10
78.5057390000000055
 20
36.7400919999999971
 30
0.0
  0
SPLINE
  5
59
  8
outline
 62
7
370
-1
  6
ByLayer
100
AcDbEntity
100
AcDbSpline
 70
8
 71
3
 72
8
 73
4
 74
0
 40
0.0
 40
0.0
 40
0.0
 40
0.0
 40
1.0
 40
1.0
 40
1.0
 40
1.0
 10
78.5057390000000055
 20
36.7400919999999971
 30
0.0
 10
78.5057390000000055
 20
40.0038509999999974
 30
0.0
 10
75.8230410000000035
 20
42.761415999999997
 30
0.0
 10
72.5780309999999957
 20
42.761415999999997
 30
0.0
  0
SPLINE
  5
5A
  8
outline
 62
7
370
-1
  6
ByLayer
100
AcDbEntity
100
AcDbSpline
 70
8
 71
3
 72
8
 73
4
 74
0
 40
0.0
 40
0.0
 40
0.0
 40
0.0
 40
1.0
 40
1.0
 40
1.0
 40
1.0
 10
74.5616639999999933
 20
57.7804989999999989
 30
0.0
 10
74.5616639999999933
 20
56.6796989999999994
 30
0.0
 10
73.6692919999999987
 20
55.7873299999999972
 30
0.0
 10
72.5684949999999986
 20
55.7873299999999972
 30
0.0
  0
SPLINE
  5
5B
  8
outline
 62
7
370
-1
  6
ByLayer
100
AcDbEntity
100
AcDbSpline
 70
8
 71
3
 72
8
 73
4
 74
0
 40
0.0
 40
0.0
 40
0.0
 40
0.0
 40
1.0
 40
1.0
 40
1.0
 40
1.0
 10
72.5684949999999986
 20
55.7873299999999972
 30
0.0
 10
71.4676979999999986
 20
55.7873299999999972
 30
0.0
 10
70.575326000000004
 20
56.6796989999999994
 30
0.0
 10
70.575326000000004
 20
57.7804989999999989
 30
0.0
  0
SPLINE
  5
5C
  8
outline
 62
7
370
-1
  6
ByLayer
100
AcDbEntity
100
AcDbSpline
 70
8
 71
3
 72
8
 73
4
 74
0
 40
0.0
 40
0.0
 40
0.0
 40
0.0
 40
1.0
 40
1.0
 40
1.0
 40
1.0
 10
70.575326000000004
 20
57.7804989999999989
 30
0.0
 10
70.575326000000004
 20
58.8812950000000015
 30
0.0
 10
71.4676979999999986
 20
59.7736680000000007
 30
0.0
 10
72.5684949999999986
 20
59.7736680000000007
 30
0.0
  0
SPLINE
  5
5D
  8
outline
 62
7
370
-1
  6
ByLayer
100
AcDbEntity
100
AcDbSpline
 70
8
 71
3
 72
8
 73
4
 74
0
 40
0.0
 40
0.0
 40
0.0
 40
0.0
 40
1.0
 40
1.0
 40
1.0
 40
1.0
 10
72.5684949999999986
 20
59.7736680000000007
 30
0.0
 10
73.6692919999999987
 20
59.7736680000000007
 30
0.0
 10
74.5616639999999933
 20
58.8812950000000015
 30
0.0
 10
74.5616639999999933
 20
57.7804989999999989
 30
0.0
  0
LWPOLYLINE
  5
5E
  8
outline
 62
7
370
-1
  6
ByLayer
100
AcDbEntity
100
AcDbPolyline
 90
2
 70
0
 10
73.1966929999999962
 20
29.4992829999999984
 10
73.1966929999999962
 20
24.8344149999999999
  0
LWPOLYLINE
  5
5F
  8
outline
 62
7
370
-1
  6
ByLayer
100
AcDbEntity
100
AcDbPolyline
 90
2
 70
0
 10
74.5616639999999933
 20
57.7804989999999989
 10
74.5616639999999933
 20
57.7804989999999989
  0
LINE
  5
60
100
AcDbEntity
100
AcDbLine
  8
outline
 62
256
370
-1
  6
CONTINUOUS
 10
90.6154308310859449
 20
28.3358644598588114
 30
0.0
 11
90.6154308310859449
 21
24.093440015414366
 31
0.0
  0
LINE
  5
61
100
AcDbEntity
100
AcDbLine
  8
outline
 62
256
370
-1
  6
CONTINUOUS
 10
90.6154308310859449
 20
28.3358644598588114
 30
0.0
 11
93.2416936088637271
 21
28.3358644598588114
 31
0.0
  0
LINE
  5
62
100
AcDbEntity
100
AcDbLine
  8
outline
 62
256
370
-1
  6
CONTINUOUS
 10
90.6154308310859449
 20
26.3156622376365874
 30
0.0
 11
92.2315924977526151
 21
26.3156622376365874
 31
0.0
  0
LINE
  5
63
100
AcDbEntity
100
AcDbLine
  8
outline
 62
256
370
-1
  6
CONTINUOUS
 10
90.6154308310859449
 20
24.093440015414366
 30
0.0
 11
93.2416936088637271
 21
24.093440015414366
 31
0.0
  0
LINE
  5
64
100
AcDbEntity
100
AcDbLine
  8
outline
 62
256
370
-1
  6
CONTINUOUS
 10
94.9083602755303843
 20
28.3358644598588114
 30
0.0
 11
94.9083602755303843
 21
24.093440015414366
 31
0.0
  0
LINE
  5
65
100
AcDbEntity
100
AcDbLine
  8
outline
 62
256
370
-1
  6
CONTINUOUS
 10
94.9083602755303843
 20
28.3358644598588114
 30
0.0
 11
96.5245219421970546
 21
24.093440015414366
 31
0.0
  0
LINE
  5
66
100
AcDbEntity
100
AcDbLine
  8
outline
 62
256
370
-1
  6
CONTINUOUS
 10
98.1406836088637249
 20
28.3358644598588114
 30
0.0
 11
96.5245219421970546
 21
24.093440015414366
 31
0.0
  0
LINE
  5
67
100
AcDbEntity
100
AcDbLine
  8
outline
 62
256
370
-1
  6
CONTINUOUS
 10
98.1406836088637249
 20
28.3358644598588114
 30
0.0
 11
98.1406836088637249
 21
24.093440015414366
 31
0.0
  0
LINE
  5
68
100
AcDbEntity
100
AcDbLine
  8
outline
 62
256
370
-1
  6
CONTINUOUS
 10
99.8073502755303821
 20
28.3358644598588114
 30
0.0
 11
99.8073502755303821
 21
24.093440015414366
 31
0.0
  0
LINE
  5
69
100
AcDbEntity
100
AcDbLine
  8
outline
 62
256
370
-1
  6
CONTINUOUS
 10
99.8073502755303821
 20
28.3358644598588114
 30
0.0
 11
102.4336130533081644
 21
28.3358644598588114
 31
0.0
  0
LINE
  5
6A
100
AcDbEntity
100
AcDbLine
  8
outline
 62
256
370
-1
  6
CONTINUOUS
 10
99.8073502755303821
 20
26.3156622376365874
 30
0.0
 11
101.4235119421970523
 21
26.3156622376365874
 31
0.0
  0
LINE
  5
6B
100
AcDbEntity
100
AcDbLine
  8
outline
 62
256
370
-1
  6
CONTINUOUS
 10
85.7290672199748371
 20
19.3257633487476994
 30
0.0
 11
85.7290672199748371
 21
19.5277833487477004
 31
0.0
  0
LINE
  5
6C
100
AcDbEntity
100
AcDbLine
  8
outline
 62
256
370
-1
  6
CONTINUOUS
 10
85.7290672199748371
 20
19.5277833487477004
 30
0.0
 11
85.9310877755303864
 21
19.9318239043032541
 31
0.0
  0
LINE
  5
6D
100
AcDbEntity
100
AcDbLine
  8
outline
 62
256
370
-1
  6
CONTINUOUS
 10
85.9310877755303864
 20
19.9318239043032541
 30
0.0
 11
86.1331077755303909
 21
20.1338439043032551
 31
0.0
  0
LINE
  5
6E
100
AcDbEntity
100
AcDbLine
  8
outline
 62
256
370
-1
  6
CONTINUOUS
 10
86.1331077755303909
 20
20.1338439043032551
 30
0.0
 11
86.5371483310859446
 21
20.3358644598588114
 31
0.0
  0
LINE
  5
6F
100
AcDbEntity
100
AcDbLine
  8
outline
 62
256
370
-1
  6
CONTINUOUS
 10
86.5371483310859446
 20
20.3358644598588114
 30
0.0
 11
87.3452288866415074
 21
20.3358644598588114
 31
0.0
  0
LINE
  5
70
100
AcDbEntity
100
AcDbLine
  8
outline
 62
256
370
-1
  6
CONTINUOUS
 10
87.3452288866415074
 20
20.3358644598588114
 30
0.0
 11
87.7492694421970612
 21
20.1338439043032551
 31
0.0
  0
LINE
  5
71
100
AcDbEntity
100
AcDbLine
  8
outline
 62
256
370
-1
  6
CONTINUOUS
 10
87.7492694421970612
 20
20.1338439043032551
 30
0.0
 11
87.9512894421970515
 21
19.9318239043032541
 31
0.0
  0
LINE
  5
72
100
AcDbEntity
100
AcDbLine
  8
outline
 62
256
370
-1
  6
CONTINUOUS
 10
87.9512894421970515
 20
19.9318239043032541
 30
0.0
 11
88.1533099977526149
 21
19.5277833487477004
 31
0.0
  0
LINE
  5
73
100
AcDbEntity
100
AcDbLine
  8
outline
 62
256
370
-1
  6
CONTINUOUS
 10
88.1533099977526149
 20
19.5277833487477004
 30
0.0
 11
88.1533099977526149
 21
19.1237427931921431
 31
0.0
  0
LINE
  5
74
100
AcDbEntity
100
AcDbLine
  8
outline
 62
256
370
-1
  6
CONTINUOUS
 10
88.1533099977526149
 20
19.1237427931921431
 30
0.0
 11
87.9512894421970515
 21
18.7197027931921447
 31
0.0
  0
LINE
  5
75
100
AcDbEntity
100
AcDbLine
  8
outline
 62
256
370
-1
  6
CONTINUOUS
 10
87.9512894421970515
 20
18.7197027931921447
 30
0.0
 11
87.5472494421970566
 21
18.11364223763659
 31
0.0
  0
LINE
  5
76
100
AcDbEntity
100
AcDbLine
  8
outline
 62
256
370
-1
  6
CONTINUOUS
 10
87.5472494421970566
 20
18.11364223763659
 30
0.0
 11
85.5270472199748326
 21
16.093440015414366
 31
0.0
  0
LINE
  5
77
100
AcDbEntity
100
AcDbLine
  8
outline
 62
256
370
-1
  6
CONTINUOUS
 10
85.5270472199748326
 20
16.093440015414366
 30
0.0
 11
88.3553299977526052
 21
16.093440015414366
 31
0.0
  0
LINE
  5
78
100
AcDbEntity
100
AcDbLine
  8
outline
 62
256
370
-1
  6
CONTINUOUS
 10
91.2341177755303789
 20
20.3358644598588114
 30
0.0
 11
90.6280572199748349
 21
20.1338439043032551
 31
0.0
  0
LINE
  5
79
100
AcDbEntity
100
AcDbLine
  8
outline
 62
256
370
-1
  6
CONTINUOUS
 10
90.6280572199748349
 20
20.1338439043032551
 30
0.0
 11
90.2240166644192811
 21
19.5277833487477004
 31
0.0
  0
LINE
  5
7A
100
AcDbEntity
100
AcDbLine
  8
outline
 62
256
370
-1
  6
CONTINUOUS
 10
90.2240166644192811
 20
19.5277833487477004
 30
0.0
 11
90.0219966644192766
 21
18.5176822376365884
 31
0.0
  0
LINE
  5
7B
100
AcDbEntity
100
AcDbLine
  8
outline
 62
256
370
-1
  6
CONTINUOUS
 10
90.0219966644192766
 20
18.5176822376365884
 30
0.0
 11
90.0219966644192766
 21
17.9116216820810337
 31
0.0
  0
LINE
  5
7C
100
AcDbEntity
100
AcDbLine
  8
outline
 62
256
370
-1
  6
CONTINUOUS
 10
90.0219966644192766
 20
17.9116216820810337
 30
0.0
 11
90.2240166644192811
 21
16.9015205709699217
 31
0.0
  0
LINE
  5
7D
100
AcDbEntity
100
AcDbLine
  8
outline
 62
256
370
-1
  6
CONTINUOUS
 10
90.2240166644192811
 20
16.9015205709699217
 30
0.0
 11
90.6280572199748349
 21
16.2954600154143669
 31
0.0
  0
LINE
  5
7E
100
AcDbEntity
100
AcDbLine
  8
outline
 62
256
370
-1
  6
CONTINUOUS
 10
90.6280572199748349
 20
16.2954600154143669
 30
0.0
 11
91.2341177755303789
 21
16.093440015414366
 31
0.0
  0
LINE
  5
7F
100
AcDbEntity
100
AcDbLine
  8
outline
 62
256
370
-1
  6
CONTINUOUS
 10
91.2341177755303789
 20
16.093440015414366
 30
0.0
 11
91.6381583310859469
 21
16.093440015414366
 31
0.0
  0
LINE
  5
80
100
AcDbEntity
100
AcDbLine
  8
outline
 62
256
370
-1
  6
CONTINUOUS
 10
91.6381583310859469
 20
16.093440015414366
 30
0.0
 11
92.2442188866415052
 21
16.2954600154143669
 31
0.0
  0
LINE
  5
81
100
AcDbEntity
100
AcDbLine
  8
outline
 62
256
370
-1
  6
CONTINUOUS
 10
92.2442188866415052
 20
16.2954600154143669
 30
0.0
 11
92.6482594421970589
 21
16.9015205709699217
 31
0.0
  0
LINE
  5
82
100
AcDbEntity
100
AcDbLine
  8
outline
 62
256
370
-1
  6
CONTINUOUS
 10
92.6482594421970589
 20
16.9015205709699217
 30
0.0
 11
92.8502794421970492
 21
17.9116216820810337
 31
0.0
  0
LINE
  5
83
100
AcDbEntity
100
AcDbLine
  8
outline
 62
256
370
-1
  6
CONTINUOUS
 10
92.8502794421970492
 20
17.9116216820810337
 30
0.0
 11
92.8502794421970492
 21
18.5176822376365884
 31
0.0
  0
LINE
  5
84
100
AcDbEntity
100
AcDbLine
  8
outline
 62
256
370
-1
  6
CONTINUOUS
 10
92.8502794421970492
 20
18.5176822376365884
 30
0.0
 11
92.6482594421970589
 21
19.5277833487477004
 31
0.0
  0
LINE
  5
85
100
AcDbEntity
100
AcDbLine
  8
outline
 62
256
370
-1
  6
CONTINUOUS
 10
92.6482594421970589
 20
19.5277833487477004
 30
0.0
 11
92.2442188866415052
 21
20.1338439043032551
 31
0.0
  0
LINE
  5
86
100
AcDbEntity
100
AcDbLine
  8
outline
 62
256
370
-1
  6
CONTINUOUS
 10
92.2442188866415052
 20
20.1338439043032551
 30
0.0
 11
91.6381583310859469
 21
20.3358644598588114
 31
0.0
  0
LINE
  5
87
100
AcDbEntity
100
AcDbLine
  8
outline
 62
256
370
-1
  6
CONTINUOUS
 10
91.6381583310859469
 20
20.3358644598588114
 30
0.0
 11
91.2341177755303789
 21
20.3358644598588114
 31
0.0
  0
LINE
  5
88
100
AcDbEntity
100
AcDbLine
  8
outline
 62
256
370
-1
  6
CONTINUOUS
 10
94.5169461088637206
 20
19.5277833487476968
 30
0.0
 11
94.9209866644192743
 21
19.7298039043032531
 31
0.0
  0
LINE
  5
89
100
AcDbEntity
100
AcDbLine
  8
outline
 62
256
370
-1
  6
CONTINUOUS
 10
94.9209866644192743
 20
19.7298039043032531
 30
0.0
 11
95.5270472199748326
 21
20.3358644598588079
 31
0.0
  0
LINE
  5
8A
100
AcDbEntity
100
AcDbLine
  8
outline
 62
256
370
-1
  6
CONTINUOUS
 10
95.5270472199748326
 20
20.3358644598588079
 30
0.0
 11
95.5270472199748326
 21
16.0934400154143624
 31
0.0
  0
LINE
  5
8B
100
AcDbEntity
100
AcDbLine
  8
outline
 62
256
370
-1
  6
CONTINUOUS
 10
97.3957338866415085
 20
19.3257633487476959
 30
0.0
 11
97.3957338866415085
 21
19.5277833487476968
 31
0.0
  0
LINE
  5
8C
100
AcDbEntity
100
AcDbLine
  8
outline
 62
256
370
-1
  6
CONTINUOUS
 10
97.3957338866415085
 20
19.5277833487476968
 30
0.0
 11
97.5977544421970578
 21
19.9318239043032506
 31
0.0
  0
LINE
  5
8D
100
AcDbEntity
100
AcDbLine
  8
outline
 62
256
370
-1
  6
CONTINUOUS
 10
97.5977544421970578
 20
19.9318239043032506
 30
0.0
 11
97.7997744421970623
 21
20.1338439043032515
 31
0.0
  0
LINE
  5
8E
100
AcDbEntity
100
AcDbLine
  8
outline
 62
256
370
-1
  6
CONTINUOUS
 10
97.7997744421970623
 20
20.1338439043032515
 30
0.0
 11
98.203814997752616
 21
20.3358644598588079
 31
0.0
  0
LINE
  5
8F
100
AcDbEntity
100
AcDbLine
  8
outline
 62
256
370
-1
  6
CONTINUOUS
 10
98.203814997752616
 20
20.3358644598588079
 30
0.0
 11
99.0118955533081788
 21
20.3358644598588079
 31
0.0
  0
LINE
  5
90
100
AcDbEntity
100
AcDbLine
  8
outline
 62
256
370
-1
  6
CONTINUOUS
 10
99.0118955533081788
 20
20.3358644598588079
 30
0.0
 11
99.4159361088637326
 21
20.1338439043032515
 31
0.0
  0
LINE
  5
91
100
AcDbEntity
100
AcDbLine
  8
outline
 62
256
370
-1
  6
CONTINUOUS
 10
99.4159361088637326
 20
20.1338439043032515
 30
0.0
 11
99.6179561088637229
 21
19.9318239043032506
 31
0.0
  0
LINE
  5
92
100
AcDbEntity
100
AcDbLine
  8
outline
 62
256
370
-1
  6
CONTINUOUS
 10
99.6179561088637229
 20
19.9318239043032506
 30
0.0
 11
99.8199766644192863
 21
19.5277833487476968
 31
0.0
  0
LINE
  5
93
100
AcDbEntity
100
AcDbLine
  8
outline
 62
256
370
-1
  6
CONTINUOUS
 10
99.8199766644192863
 20
19.5277833487476968
 30
0.0
 11
99.8199766644192863
 21
19.1237427931921395
 31
0.0
  0
LINE
  5
94
100
AcDbEntity
100
AcDbLine
  8
outline
 62
256
370
-1
  6
CONTINUOUS
 10
99.8199766644192863
 20
19.1237427931921395
 30
0.0
 11
99.6179561088637229
 21
18.7197027931921411
 31
0.0
  0
LINE
  5
95
100
AcDbEntity
100
AcDbLine
  8
outline
 62
256
370
-1
  6
CONTINUOUS
 10
99.6179561088637229
 20
18.7197027931921411
 30
0.0
 11
99.213916108863728
 21
18.1136422376365864
 31
0.0
  0
LINE
  5
96
100
AcDbEntity
100
AcDbLine
  8
outline
 62
256
370
-1
  6
CONTINUOUS
 10
99.213916108863728
 20
18.1136422376365864
 30
0.0
 11
97.193713886641504
 21
16.0934400154143624
 31
0.0
  0
LINE
  5
97
100
AcDbEntity
100
AcDbLine
  8
outline
 62
256
370
-1
  6
CONTINUOUS
 10
97.193713886641504
 20
16.0934400154143624
 30
0.0
 11
100.0219966644192766
 21
16.0934400154143624
 31
0.0
  0
LINE
  5
98
100
AcDbEntity
100
AcDbLine
  8
outline
 62
256
370
-1
  6
ByLayer
 10
68.3912760408199034
 20
13.4321696165241669
 30
0.0
 11
66.1690538185976749
 21
13.4321696165241669
 31
0.0
  0
LINE
  5
99
100
AcDbEntity
100
AcDbLine
  8
outline
 62
256
370
-1
  6
ByLayer
 10
66.1690538185976749
 20
13.4321696165241669
 30
0.0
 11
68.3159993741532361
 21
17.1247696165241656
 31
0.0
  0
ARC
  5
9A
100
AcDbEntity
  8
outline
 62
256
370
-1
  6
ByLayer
100
AcDbCircle
 10
67.8357204852643463
 20
17.4040085054130564
 30
0.0
 40
0.5555555555555556
100
AcDbArc
 50
329.8254699999999957
 51
20.5291099999999993
  0
ARC
  5
9B
100
AcDbEntity
  8
outline
 62
256
370
-1
  6
ByLayer
100
AcDbCircle
 10
67.2801649297087891
 20
17.3210585054130561
 30
0.0
 40
1.1111111111111112
100
AcDbArc
 50
14.4775100000000005
 51
165.5224910000000023
  0
ARC
  5
9C
100
AcDbEntity
  8
outline
 62
256
370
-1
  6
ByLayer
100
AcDbCircle
 10
71.1690538185976749
 20
17.8268862831908308
 30
0.0
 40
0.6052833333333334
100
AcDbArc
 50
32.7569500000000033
 51
147.2430420000000026
  0
ARC
  5
9D
100
AcDbEntity
  8
outline
 62
256
370
-1
  6
ByLayer
100
AcDbCircle
 10
72.7986927074865662
 20
16.5563473943019446
 30
0.0
 40
2.669772222222222
100
AcDbArc
 50
143.2324680000000114
 51
169.4911350000000141
  0
ARC
  5
9E
100
AcDbEntity
  8
outline
 62
256
370
-1
  6
ByLayer
100
AcDbCircle
 10
72.7986927074865662
 20
15.3079918387463874
 30
0.0
 40
2.669772222222222
100
AcDbArc
 50
190.5088649999999859
 51
216.7675319999999886
  0
ARC
  5
9F
100
AcDbEntity
  8
outline
 62
256
370
-1
  6
ByLayer
100
AcDbCircle
 10
71.1690538185976749
 20
14.0374529498574994
 30
0.0
 40
0.6052833333333334
100
AcDbArc
 50
212.7569579999999974
 51
327.2430420000000026
  0
ARC
  5
A0
100
AcDbEntity
  8
outline
 62
256
370
-1
  6
ByLayer
100
AcDbCircle
 10
69.5394149297087836
 20
15.3079918387463874
 30
0.0
 40
2.669772222222222
100
AcDbArc
 50
323.2324520000000234
 51
349.4911190000000261
  0
ARC
  5
A1
100
AcDbEntity
  8
outline
 62
256
370
-1
  6
ByLayer
100
AcDbCircle
 10
67.0553521519310038
 20
15.9149807276352764
 30
0.0
 40
5.2248500000000009
100
AcDbArc
 50
347.9131469999999808
 51
0.18851
  0
ARC
  5
A2
100
AcDbEntity
  8
outline
 62
256
370
-1
  6
ByLayer
100
AcDbCircle
 10
67.0553521519310038
 20
15.9493585054130538
 30
0.0
 40
5.2248500000000009
100
AcDbArc
 50
359.8114929999999845
 51
12.0868599999999997
  0
ARC
  5
A3
100
AcDbEntity
  8
outline
 62
256
370
-1
  6
ByLayer
100
AcDbCircle
 10
69.5394149297087836
 20
16.5563473943019446
 30
0.0
 40
2.669772222222222
100
AcDbArc
 50
10.5088699999999999
 51
36.7675399999999968
  0
ARC
  5
A4
100
AcDbEntity
  8
outline
 62
256
370
-1
  6
ByLayer
100
AcDbCircle
 10
75.2827554852643317
 20
15.9149807276352746
 30
0.0
 40
5.2248500000000009
100
AcDbArc
 50
179.8114930000000129
 51
192.0868680000000097
  0
ARC
  5
A5
100
AcDbEntity
  8
outline
 62
256
370
-1
  6
ByLayer
100
AcDbCircle
 10
75.2827554852643317
 20
15.949358505413052
 30
0.0
 40
5.2248500000000009
100
AcDbArc
 50
167.9131319999999903
 51
180.1885069999999871
  0
LINE
  5
A6
100
AcDbEntity
100
AcDbLine
  8
outline
 62
256
370
-1
  6
ByLayer
 10
73.9468688185976788
 20
17.3210585054130526
 30
0.0
 11
75.0579799297087931
 21
18.4321696165241633
 31
0.0
  0
LINE
  5
A7
100
AcDbEntity
100
AcDbLine
  8
outline
 62
256
370
-1
  6
ByLayer
 10
75.0579799297087931
 20
18.4321696165241633
 30
0.0
 11
75.0579799297087931
 21
13.4321696165241651
 31
0.0
  0
LINE
  5
A8
100
AcDbEntity
100
AcDbLine
  8
outline
 62
256
370
-1
  6
ByLayer
 10
78.9468688185976788
 20
13.4321696165241651
 30
0.0
 11
76.7246465963754503
 21
13.4321696165241651
 31
0.0
  0
LINE
  5
A9
100
AcDbEntity
100
AcDbLine
  8
outline
 62
256
370
-1
  6
ByLayer
 10
76.7246465963754503
 20
13.4321696165241651
 30
0.0
 11
78.8715921519310115
 21
17.1247696165241656
 31
0.0
  0
ARC
  5
AA
100
AcDbEntity
  8
outline
 62
256
370
-1
  6
ByLayer
100
AcDbCircle
 10
78.3913132630421217
 20
17.4040085054130529
 30
0.0
 40
0.5555555555555556
100
AcDbArc
 50
329.8254699999999957
 51
20.5291099999999993
  0
ARC
  5
AB
100
AcDbEntity
  8
outline
 62
256
370
-1
  6
ByLayer
100
AcDbCircle
 10
77.8357577074865645
 20
17.3210585054130526
 30
0.0
 40
1.1111111111111112
100
AcDbArc
 50
14.4775100000000005
 51
165.5224910000000023
  0
LINE
  5
AC
100
AcDbEntity
100
AcDbLine
  8
outline
 62
256
370
-1
  6
ByLayer
 10
69.4712559979040378
 20
24.3019163173488622
 30
0.0
 11
67.2490337756818093
 21
24.3019163173488622
 31
0.0
  0
LINE
  5
AD
100
AcDbEntity
100
AcDbLine
  8
outline
 62
256
370
-1
  6
ByLayer
 10
67.2490337756818093
 20
24.3019163173488622
 30
0.0
 11
67.2490337756818093
 21
19.3019163173488622
 31
0.0
  0
LINE
  5
AE
100
AcDbEntity
100
AcDbLine
  8
outline
 62
256
370
-1
  6
ByLayer
 10
67.2490337756818093
 20
19.3019163173488622
 30
0.0
 11
69.4712559979040378
 21
19.3019163173488622
 31
0.0
  0
LINE
  5
AF
100
AcDbEntity
100
AcDbLine
  8
outline
 62
256
370
-1
  6
ByLayer
 10
67.2490337756818093
 20
22.0796940951266407
 30
0.0
 11
68.9157004423484807
 21
22.0796940951266407
 31
0.0
  0
LINE
  5
B0
100
AcDbEntity
100
AcDbLine
  8
outline
 62
256
370
-1
  6
ByLayer
 10
71.137922664570695
 20
19.3019163173488586
 30
0.0
 11
71.137922664570695
 21
24.3019163173488586
 31
0.0
  0
LINE
  5
B1
100
AcDbEntity
100
AcDbLine
  8
outline
 62
256
370
-1
  6
ByLayer
 10
71.137922664570695
 20
24.3019163173488586
 30
0.0
 11
72.8045893312373664
 21
21.52413853957108
 31
0.0
  0
LINE
  5
B2
100
AcDbEntity
100
AcDbLine
  8
outline
 62
256
370
-1
  6
ByLayer
 10
72.8045893312373664
 20
21.52413853957108
 30
0.0
 11
74.4712559979040236
 21
24.3019163173488586
 31
0.0
  0
LINE
  5
B3
100
AcDbEntity
100
AcDbLine
  8
outline
 62
256
370
-1
  6
ByLayer
 10
74.4712559979040236
 20
24.3019163173488586
 30
0.0
 11
74.4712559979040236
 21
19.3019163173488586
 31
0.0
  0
LINE
  5
B4
100
AcDbEntity
100
AcDbLine
  8
outline
 62
256
370
-1
  6
ByLayer
 10
78.3601448867929236
 20
24.3019163173488586
 30
0.0
 11
76.137922664570695
 21
24.3019163173488586
 31
0.0
  0
LINE
  5
B5
100
AcDbEntity
100
AcDbLine
  8
outline
 62
256
370
-1
  6
ByLayer
 10
76.137922664570695
 20
24.3019163173488586
 30
0.0
 11
76.137922664570695
 21
19.3019163173488586
 31
0.0
  0
LINE
  5
B6
100
AcDbEntity
100
AcDbLine
  8
outline
 62
256
370
-1
  6
ByLayer
 10
76.137922664570695
 20
22.0796940951266372
 30
0.0
 11
78.3601448867929236
 21
22.0796940951266372
 31
0.0
  0
ENDSEC
  0
SECTION
  2
OBJECTS
  0
DICTIONARY
  5
C
100
AcDbDictionary
280
0
281
1
  3
ACAD_GROUP
350
D
  3
ACAD_LAYOUT
350
1A
  3
ACAD_MLINESTYLE
350
17
  3
ACAD_PLOTSETTINGS
350
19
  3
ACAD_PLOTSTYLENAME
350
E
  3
AcDbVariableDictionary
350
B7
  0
DICTIONARY
  5
D
100
AcDbDictionary
280
0
281
1
  0
ACDBDICTIONARYWDFLT
  5
E
100
AcDbDictionary
281
1
  3
Normal
350
F
100
AcDbDictionaryWithDefault
340
F
  0
ACDBPLACEHOLDER
  5
F
  0
DICTIONARY
  5
17
100
AcDbDictionary
280
0
281
1
  3
Standard
350
18
  0
MLINESTYLE
  5
18
100
AcDbMlineStyle
  2
STANDARD
 70
0
  3

 62
256
 51
90.0
 52
90.0
 71
2
 49
0.5
 62
256
  6
BYLAYER
 49
-0.5
 62
256
  6
BYLAYER
  0
DICTIONARY
  5
19
100
AcDbDictionary
280
0
281
1
  0
DICTIONARY
  5
1A
100
AcDbDictionary
281
1
  3
Layout1
350
1E
  3
Layout2
350
26
  3
Model
350
22
  0
LAYOUT
  5
1E
100
AcDbPlotSettings
  1

  2
C:\Program Files\AutoCAD 2002\plotters\DWF ePlot (optimized for plotting).pc3
  4

  6

 40
0.0
 41
0.0
 42
0.0
 43
0.0
 44
0.0
 45
0.0
 46
0.0
 47
0.0
 48
0.0
 49
0.0
140
0.0
141
0.0
142
1.0
143
1.0
 70
688
 72
0
 73
0
 74
5
  7

 75
16
147
1.0
148
0.0
149
0.0
100
AcDbLayout
  1
Layout1
 70
1
 71
1
 10
0.0
 20
0.0
 11
420.0
 21
297.0
 12
0.0
 22
0.0
 32
0.0
 14
100000000000000000000.0
 24
100000000000000000000.0
 34
100000000000000000000.0
 15
-100000000000000000000.0
 25
-100000000000000000000.0
 35
-100000000000000000000.0
146
0.0
 13
0.0
 23
0.0
 33
0.0
 16
1.0
 26
0.0
 36
0.0
 17
0.0
 27
1.0
 37
0.0
 76
0
330
1B
  0
LAYOUT
  5
22
100
AcDbPlotSettings
  1

  2
C:\Program Files\AutoCAD 2002\plotters\DWF ePlot (optimized for plotting).pc3
  4

  6

 40
0.0
 41
0.0
 42
0.0
 43
0.0
 44
0.0
 45
0.0
 46
0.0
 47
0.0
 48
0.0
 49
0.0
140
0.0
141
0.0
142
1.0
143
1.0
 70
1712
 72
0
 73
0
 74
0
  7

 75
0
147
1.0
148
0.0
149
0.0
100
AcDbLayout
  1
Model
 70
1
 71
0
 10
0.0
 20
0.0
 11
12.0
 21
9.0
 12
0.0
 22
0.0
 32
0.0
 14
0.0
 24
0.0
 34
0.0
 15
0.0
 25
0.0
 35
0.0
146
0.0
 13
0.0
 23
0.0
 33
0.0
 16
1.0
 26
0.0
 36
0.0
 17
0.0
 27
1.0
 37
0.0
 76
0
330
1F
  0
LAYOUT
  5
26
100
AcDbPlotSettings
  1

  2
C:\Program Files\AutoCAD 2002\plotters\DWF ePlot (optimized for plotting).pc3
  4

  6

 40
0.0
 41
0.0
 42
0.0
 43
0.0
 44
0.0
 45
0.0
 46
0.0
 47
0.0
 48
0.0
 49
0.0
140
0.0
141
0.0
142
1.0
143
1.0
 70
688
 72
0
 73
0
 74
5
  7

 75
16
147
1.0
148
0.0
149
0.0
100
AcDbLayout
  1
Layout2
 70
1
 71
2
 10
0.0
 20
0.0
 11
12.0
 21
9.0
 12
0.0
 22
0.0
 32
0.0
 14
0.0
 24
0.0
 34
0.0
 15
0.0
 25
0.0
 35
0.0
146
0.0
 13
0.0
 23
0.0
 33
0.0
 16
1.0
 26
0.0
 36
0.0
 17
0.0
 27
1.0
 37
0.0
 76
0
330
23
  0
DICTIONARY
  5
B7
100
AcDbDictionary
281
1
  3
DIMASSOC
350
B9
  3
HIDETEXT
350
B8
  0
DICTIONARYVAR
  5
B8
100
DictionaryVariables
280
0
  1
2
  0
DICTIONARYVAR
  5
B9
100
DictionaryVariables
280
0
  1
1
  0
ENDSEC
  0
EOF
